<svg width="149" height="109" viewBox="0 0 149 109" fill="none" xmlns="http://www.w3.org/2000/svg">
<path fill-rule="evenodd" clip-rule="evenodd" d="M14 8.20711V10.8951H11.9571V8.06413C11.9571 4.58492 10.6114 1.94454 7.03874 1.94454C3.46614 1.94454 2.12036 4.58492 2.12036 8.06413V24.9359C2.12036 28.4151 3.46614 31.0078 7.03874 31.0078C10.6114 31.0078 11.9571 28.4151 11.9571 24.9359V21.0849H14V24.7929C14 29.4731 11.9571 33 7.00002 33C2.04291 33 3.42406e-05 29.4827 3.42406e-05 24.7929V8.20711C-0.00964762 3.51733 2.03322 0 6.99034 0C11.9571 0 14 3.51733 14 8.20711Z" fill="#010101"/>
<path fill-rule="evenodd" clip-rule="evenodd" d="M28.3026 14.8155V16.7333H19.997V30.0823H30V32H18V0H30V1.91774H19.997V14.8155H28.3026Z" fill="#010101"/>
<path fill-rule="evenodd" clip-rule="evenodd" d="M34.8835 32H33V0H35.6894L45.1165 27.0176V0H47V32H44.7135L34.8835 3.47826V32Z" fill="#010101"/>
<path fill-rule="evenodd" clip-rule="evenodd" d="M56.4353 32V1.91774H50V0H65V1.91774H58.5174V32H56.4353Z" fill="#010101"/>
<path fill-rule="evenodd" clip-rule="evenodd" d="M80.2435 7.22186C80.2435 2.6988 78.3102 0 73.5284 0H67V32H69.0547V17.6879H72.3235C75.9006 17.6879 78.1795 18.8822 78.1795 23.1325V28.1634C78.0674 29.4799 78.3009 30.7964 78.8519 32H81C80.4023 30.8152 80.1408 29.4893 80.2435 28.1634V23.1795C80.2435 19.7097 78.9453 17.3776 75.7231 16.6441C78.8145 15.9107 80.2435 13.7667 80.2435 10.0147V7.22186ZM78.1795 10.4284C78.1795 14.7258 76.0314 15.779 72.3609 15.779V15.7696H69.0454V1.91831H73.4817C76.8813 1.91831 78.1795 3.97767 78.1795 7.40993V10.4284Z" fill="#010101"/>
<path fill-rule="evenodd" clip-rule="evenodd" d="M85.8973 32L87.4831 24.9223H97.3376L98.9234 32H101L93.9489 0H90.9189L84 32H85.8973ZM97.0167 23.1012H87.7946L92.3631 2.42182L97.0167 23.1012Z" fill="#010101"/>
<path fill-rule="evenodd" clip-rule="evenodd" d="M104 32V0H106.082V30.0823H116V32H104Z" fill="#010101"/>
<path fill-rule="evenodd" clip-rule="evenodd" d="M15 46.1264V48.9018H11.7157V45.9459C11.7157 43.0374 10.6024 41.2791 8.06958 41.2791C5.58317 41.2791 4.42346 43.0374 4.42346 45.9459V63.0446C4.42346 65.9531 5.57389 67.7114 8.06958 67.7114C10.6024 67.7114 11.7157 65.9531 11.7157 63.0446V56.572H8.51491V53.3404H15V62.8641C15 67.7589 12.7734 71 7.97681 71C3.22664 71 1 67.7684 1 62.8641V46.1359C1 41.2411 3.22664 38 7.97681 38C12.7826 38 15 41.2316 15 46.1264Z" fill="#010101"/>
<path fill-rule="evenodd" clip-rule="evenodd" d="M32.3108 45.3159C32.3108 40.5577 30.2049 38 25.1602 38H18V70H21.5801V56.3274H24.1072C27.0938 56.3274 28.7881 57.4746 28.7881 61.0855V66.1164C28.6733 67.4329 28.8743 68.7681 29.3816 70H33C32.4735 68.7964 32.2534 67.4799 32.3586 66.1634V61.1795C32.3586 57.7473 31.2578 55.3682 28.3191 54.5031C31.0759 53.638 32.3108 51.4376 32.3108 47.9207V45.3159ZM28.7786 48.6917C28.7786 52.171 27.0842 53.0832 24.2412 53.0832V53.0738H21.5801V41.2348H25.0645C27.7256 41.2348 28.7786 42.7488 28.7786 45.6262V48.6917Z" fill="#010101"/>
<path fill-rule="evenodd" clip-rule="evenodd" d="M38.2137 70L39.4153 63.5511H47.3145L48.5162 70H52L46.0197 38H40.9803L35 70H38.2137ZM46.8208 60.4865H39.8625L43.2997 42.0235L46.8208 60.4865Z" fill="#010101"/>
<path fill-rule="evenodd" clip-rule="evenodd" d="M57.571 55.6033V70H54V38H57.571V52.3967H65.4386V38H69V70H65.4386V55.6033H57.571Z" fill="#010101"/>
<path fill-rule="evenodd" clip-rule="evenodd" d="M75.2137 70L76.4153 63.5511H84.3145L85.5162 70H89L83.0197 38H77.9803L72 70H75.2137ZM83.8208 60.4865H76.8625L80.2997 42.0235L83.8208 60.4865Z" fill="#010101"/>
<path fill-rule="evenodd" clip-rule="evenodd" d="M7.54297 76C12.4316 76 14.9523 78.9474 14.9523 84.1126V85.1267H10.1973V83.7904C10.1973 81.4874 9.28071 80.606 7.68619 80.606C6.09166 80.606 5.1655 81.4779 5.1655 83.7904C5.1655 90.4245 15 91.666 15 100.887C15 106.053 12.4411 109 7.49523 109C2.54933 109 0 106.053 0 100.887V98.9067H4.75493V101.21C4.75493 103.513 5.75748 104.347 7.36155 104.347C8.96563 104.347 9.96817 103.513 9.96817 101.21C9.96817 94.5755 0.133673 93.3245 0.133673 84.1126C0.133673 78.9569 2.65436 76 7.54297 76Z" fill="#010101"/>
<path fill-rule="evenodd" clip-rule="evenodd" d="M22.7676 89.49H29.3083V94.0588H22.7676V103.431H31V108H18V76H31V80.5687H22.7676V89.49Z" fill="#010101"/>
<path fill-rule="evenodd" clip-rule="evenodd" d="M33 103.346C33.5074 103.393 34.1128 103.393 34.6202 103.393C36.1157 103.393 37.3086 102.803 37.3086 100.338V76H42V99.9724C42 106.354 38.8042 107.994 35.2611 107.994C34.5045 108.013 33.7478 107.985 33 107.901V103.346Z" fill="#010101"/>
<path fill-rule="evenodd" clip-rule="evenodd" d="M56.0981 108H61L56.0428 76H48.9388L44 108H48.4596L49.2981 102.19H55.2596L56.0981 108ZM52.265 81.6686L54.6054 97.8472H49.9247L52.265 81.6686Z" fill="#010101"/>
<path fill-rule="evenodd" clip-rule="evenodd" d="M69.0734 108H64V76H69.0734V89.7156H74.84V76H80V108H74.84V94.2844H69.0734V108Z" fill="#010101"/>
<path fill-rule="evenodd" clip-rule="evenodd" d="M82 76H97V80.5781H91.9324V108H87.0768V80.5781H82V76Z" fill="#010101"/>
<path fill-rule="evenodd" clip-rule="evenodd" d="M103.768 89.49H110.317V94.0588H103.768V103.431H112V108H99V76H112V80.5687H103.768V89.49Z" fill="#010101"/>
<path fill-rule="evenodd" clip-rule="evenodd" d="M125.652 104.071C125.542 105.396 125.689 106.731 126.092 108L131 107.981C130.57 106.74 130.386 105.415 130.478 104.099V99.1633C130.478 95.8261 129.681 93.4101 127.273 92.3572C129.425 91.3137 130.432 89.161 130.432 85.8707V83.3608C130.432 78.4254 128.28 76 123.28 76H116V108H120.826V94.9706H122.493C124.69 94.9706 125.652 96.0705 125.652 99.0411V104.071ZM120.826 90.4019V80.5781H123.152C124.855 80.5781 125.606 81.584 125.606 83.8684V87.0176C125.606 89.584 124.507 90.4019 122.712 90.4019H120.826Z" fill="#010101"/>
<path fill-rule="evenodd" clip-rule="evenodd" d="M144.098 108H149L144.043 76H136.939L132 108H136.46L137.298 102.19H143.26L144.098 108ZM140.256 81.6686L142.596 97.8472H137.915L140.256 81.6686Z" fill="#010101"/>
</svg>
