<svg width="150" height="76" viewBox="0 0 150 76" fill="none" xmlns="http://www.w3.org/2000/svg">
<path fill-rule="evenodd" clip-rule="evenodd" d="M62.0697 60.5248C65.9536 62.1676 70.0781 63 74.3306 63C78.583 63 82.7075 62.1658 86.5915 60.5282C88.4576 59.7384 90.2588 58.761 91.9424 57.6232C93.6106 56.4956 95.1799 55.2009 96.6042 53.7765C98.0302 52.3505 99.3231 50.7828 100.451 49.1145C101.588 47.4308 102.566 45.6295 103.356 43.7633C104.998 39.8791 105.831 35.7544 105.831 31.5017C105.831 27.2491 104.998 23.1243 103.356 19.2401C102.566 17.374 101.588 15.5726 100.451 13.8889C99.3231 12.2206 98.0285 10.6513 96.6042 9.22688C95.1782 7.8008 93.6106 6.50777 91.9424 5.38021C90.2588 4.24242 88.4576 3.26497 86.5915 2.47517C82.7075 0.832449 78.5813 0 74.3306 0C70.0798 0 65.9536 0.832449 62.0697 2.47176C60.2036 3.26156 58.4023 4.23901 56.7187 5.3768C55.0505 6.50436 53.4829 7.79738 52.0569 9.22346C50.6309 10.6495 49.338 12.2172 48.2105 13.8855C47.0728 15.5692 46.0954 17.3705 45.3056 19.2367C43.663 23.1209 42.8306 27.2456 42.8306 31.4983C42.8306 35.7509 43.663 39.8757 45.3056 43.7599C46.0954 45.626 47.0728 47.4274 48.2105 49.1111C49.338 50.7794 50.6326 52.3488 52.0569 53.7731C53.4829 55.1992 55.0505 56.4922 56.7187 57.6198C58.4023 58.7576 60.2036 59.735 62.0697 60.5248ZM44.4408 31.5C44.4408 15.0182 57.8497 1.60861 74.3306 1.60861C90.8132 1.60861 104.22 15.0182 104.22 31.5C104.22 47.9818 90.8115 61.3914 74.3306 61.3914C57.8497 61.3914 44.4408 47.9818 44.4408 31.5Z" fill="#2E3285"/>
<path fill-rule="evenodd" clip-rule="evenodd" d="M75.3595 1L101.831 47H48.8306L75.3595 1Z" fill="#2E3285"/>
<path fill-rule="evenodd" clip-rule="evenodd" d="M74.8919 5L77.9499 10.0151L68.5083 26.1992H70.6333L75.9925 17.0135C75.9925 17.0135 80.6796 16.2342 82.5351 18.2536C84.3906 20.273 85.1801 23.3783 83.6218 25.694C82.0375 28.0473 80.4446 28.3573 78.6254 28.6811H75.3809L68.7778 40.006H70.8907L76.9168 29.7139C76.9168 29.7139 79.5117 30.077 82.1878 28.6811L80.0006 32.4304C80.0006 32.4304 82.5316 33.2097 83.6736 30.8221C84.7085 28.6588 83.4767 27.6037 83.4767 27.6037C84.4355 26.7216 85.1473 25.5141 85.6224 23.9983C85.6224 23.9983 89.1036 27.5472 88.8134 30.0342C88.5231 32.5211 87.1134 34.597 84.9313 35.5716C84.9313 35.5716 85.5688 36.6678 85.0592 37.7126C84.5495 38.7574 81.9131 42.9983 81.9131 42.9983H76.6835C76.6835 42.9983 79.2888 38.5091 79.6171 37.9113C80.0196 37.1765 77.9309 35.9484 77.4575 36.822L73.8312 43H60.8306L69.182 28.6879L61.088 28.6811L74.8919 5Z" fill="#FFFAFC"/>
<path fill-rule="evenodd" clip-rule="evenodd" d="M79.8354 21L77.8306 24.9028C77.8306 24.9028 79.8335 25.4535 80.6118 23.9329C81.3918 22.4122 79.8354 21 79.8354 21Z" fill="#263E8D"/>
<path fill-rule="evenodd" clip-rule="evenodd" d="M113.554 73.3881L113.554 73.3884C113.888 73.9342 114.219 74.4773 114.562 75.013C114.731 75.279 114.949 75.5275 115.31 75.489C115.63 75.4557 115.841 75.2737 115.961 74.9622C116.159 74.4524 116.364 73.9453 116.568 73.4383C116.653 73.2282 116.738 73.0182 116.822 72.808C116.928 72.5441 117.035 72.2805 117.142 72.0168L117.142 72.0168L117.142 72.0168C117.432 71.3031 117.721 70.5892 117.996 69.8697C118.115 69.56 118.279 69.4025 118.647 69.4585C118.667 69.5101 118.688 69.5633 118.709 69.6176C118.76 69.7475 118.813 69.8843 118.861 70.0237C118.972 70.3424 119.082 70.6609 119.193 70.9794L119.193 70.9796C119.619 72.2059 120.045 73.4319 120.462 74.6612C120.604 75.0795 120.764 75.454 121.255 75.5275C121.287 75.5326 121.315 75.5615 121.343 75.5897C121.353 75.5997 121.363 75.6097 121.373 75.6185C121.38 75.6256 121.382 75.6376 121.385 75.65C121.386 75.6559 121.387 75.6619 121.389 75.6675C121.094 75.8425 119.169 75.8635 118.603 75.6622L118.712 75.6046C118.902 75.5037 119.064 75.4181 119.272 75.3087C119.19 75.0462 119.107 74.7832 119.023 74.5167C118.955 74.3017 118.886 74.0844 118.817 73.8632H117.017C116.973 73.9778 116.929 74.092 116.884 74.2062C116.789 74.4513 116.693 74.6964 116.608 74.9447C116.483 75.3087 116.498 75.3175 116.859 75.482C116.916 75.5082 116.97 75.5434 117.042 75.5909L117.042 75.5909C117.08 75.6163 117.124 75.6451 117.176 75.678C117.12 75.6988 117.072 75.7193 117.031 75.7373C116.958 75.7692 116.903 75.793 116.848 75.7952C116.569 75.8087 116.29 75.818 116.012 75.8272L116.012 75.8272H116.012C115.532 75.8431 115.051 75.8591 114.574 75.8967C113.849 75.9527 113.349 75.6657 113.005 75.0217C112.728 74.5052 112.433 73.9994 112.138 73.4938L112.015 73.284L112.001 73.2601C111.894 73.0756 111.78 72.8775 111.44 72.948V73.8265C111.44 73.909 111.442 73.9917 111.443 74.0744V74.0744V74.0744C111.447 74.2567 111.451 74.4393 111.437 74.621C111.402 75.0707 111.425 75.4715 111.966 75.5887C111.976 75.5911 111.982 75.6178 111.987 75.6447C111.99 75.6579 111.993 75.6711 111.996 75.6815C111.651 75.8477 109.88 75.8565 109.442 75.6867C109.485 75.5129 109.627 75.4892 109.752 75.4681L109.752 75.4681C109.77 75.4652 109.787 75.4624 109.803 75.4592C110.038 75.412 110.115 75.2685 110.113 75.048C110.111 74.3987 110.109 73.7495 110.108 73.1003L110.108 73.1002C110.106 72.1257 110.103 71.1514 110.099 70.1777C110.099 70.1434 110.088 70.1091 110.079 70.0786L110.079 70.0786C110.074 70.064 110.069 70.0502 110.067 70.0377C110.003 69.9452 109.896 69.9169 109.788 69.8881C109.63 69.8462 109.468 69.8032 109.426 69.5582C109.458 69.5535 109.487 69.5485 109.515 69.5438L109.515 69.5438C109.579 69.5327 109.635 69.5232 109.69 69.5232C109.928 69.5219 110.165 69.5197 110.403 69.5175L110.403 69.5175C111.081 69.5113 111.758 69.505 112.437 69.518C112.777 69.525 113.127 69.5775 113.455 69.6737C113.964 69.8242 114.351 70.1375 114.442 70.7132C114.538 71.324 114.433 71.8822 113.937 72.29C113.795 72.4045 113.635 72.4988 113.457 72.6041L113.457 72.6041C113.369 72.6564 113.276 72.7114 113.178 72.773C113.304 72.9782 113.429 73.1833 113.554 73.3881ZM111.462 72.4422C112.258 72.549 112.651 72.4142 112.877 71.982C113.132 71.4972 113.089 70.6082 112.762 70.2775C112.397 69.91 111.95 69.8925 111.462 70.0167V72.4422ZM118.003 71.4762C118.204 72.073 118.402 72.668 118.615 73.305H117.221C117.335 72.9979 117.445 72.7005 117.553 72.4082C117.669 72.0943 117.783 71.7861 117.897 71.478C117.914 71.478 117.931 71.4776 117.949 71.4771C117.967 71.4767 117.985 71.4762 118.003 71.4762Z" fill="#111111"/>
<path fill-rule="evenodd" clip-rule="evenodd" d="M86.43 75.5581C86.3895 75.5772 86.3491 75.5962 86.3083 75.6132C86.3151 75.657 86.3203 75.7025 86.322 75.748C86.3694 75.7539 86.4166 75.7614 86.4637 75.7689C86.5561 75.7836 86.6479 75.7982 86.7398 75.8005C86.7832 75.8015 86.8265 75.8025 86.8699 75.8034C87.4466 75.8166 88.0247 75.8298 88.6028 75.8232C88.6496 75.8227 88.6965 75.8222 88.7434 75.8218C89.1446 75.8179 89.5496 75.814 89.9436 75.7497C91.1508 75.552 91.9984 74.8765 92.3819 73.6655C92.5943 72.9987 92.6165 72.3075 92.5018 71.6232C92.3494 70.7185 91.8425 70.0692 90.9847 69.777C90.5497 69.6282 90.0788 69.5372 89.6199 69.5215C88.8753 69.4976 88.1299 69.5063 87.3841 69.515C87.094 69.5184 86.8039 69.5218 86.5138 69.5232C86.4759 69.5232 86.4374 69.5316 86.3685 69.5466C86.3282 69.5553 86.2776 69.5663 86.2107 69.5792C86.2698 69.6276 86.3165 69.6697 86.3562 69.7055C86.4256 69.7681 86.4736 69.8114 86.5292 69.8347C86.5336 69.8366 86.5381 69.8385 86.5424 69.8403C87.0001 70.0325 87.0035 70.0339 87.0035 70.5452V73.6672C87.0035 73.8048 87.003 73.9423 87.0026 74.0799C87.0015 74.4008 87.0004 74.7218 87.0052 75.0427C87.0086 75.2702 86.9299 75.405 86.7004 75.454C86.6075 75.4744 86.5187 75.5163 86.43 75.5581ZM88.3614 71.9587C88.3617 71.3164 88.362 70.6751 88.3614 70.0307C88.9333 69.9135 89.4556 69.9222 89.9675 70.1235C90.4179 70.3002 90.7038 70.6555 90.846 71.1052C91.173 72.1395 91.1799 73.1877 90.8254 74.215C90.5788 74.9272 90.0651 75.3315 89.3083 75.363C89.1148 75.3712 88.9213 75.3692 88.7052 75.367C88.5982 75.3659 88.4856 75.3647 88.3648 75.3647C88.3604 74.2118 88.3609 73.0837 88.3614 71.9587Z" fill="#111111"/>
<path fill-rule="evenodd" clip-rule="evenodd" d="M34.2897 69.3867C34.2133 69.3826 34.1406 69.3787 34.0737 69.3727C33.992 69.377 33.9159 69.3797 33.8438 69.3822C33.6799 69.3879 33.536 69.3929 33.3922 69.4147C32.185 69.5775 31.2792 70.1742 30.846 71.3695C30.5258 72.2567 30.5309 73.1737 30.8357 74.068C31.1114 74.8782 31.6508 75.461 32.4504 75.7427C33.4127 76.0822 34.3922 76.084 35.3374 75.6885C36.56 75.1775 37.1079 74.1572 37.2021 72.871C37.3254 71.1875 36.6182 69.7857 34.8391 69.4427C34.6529 69.4064 34.4618 69.396 34.2897 69.3867ZM35.3956 70.8252C35.6216 71.3397 35.7038 71.8385 35.7638 72.7502C35.7362 72.916 35.7129 73.083 35.6896 73.25C35.6377 73.6228 35.5857 73.9955 35.4864 74.3532C35.2775 75.1092 34.7792 75.4767 34.0583 75.5187C33.3699 75.559 32.7826 75.2072 32.4812 74.5387C32.3597 74.2692 32.2723 73.977 32.2227 73.6847C32.0806 72.843 32.0754 71.996 32.2775 71.1647C32.5463 70.064 33.4247 69.5705 34.4504 69.9117C34.9093 70.064 35.2038 70.386 35.3956 70.8252Z" fill="#111111"/>
<path fill-rule="evenodd" clip-rule="evenodd" d="M23.6331 75.5731C23.5997 75.5941 23.5663 75.615 23.5325 75.6325C23.5377 75.671 23.5445 75.7112 23.5514 75.7497C23.5966 75.7553 23.6418 75.7621 23.687 75.7689C23.7839 75.7835 23.8808 75.7981 23.9777 75.8005C24.0708 75.8022 24.1639 75.804 24.257 75.8059C24.8201 75.8168 25.3842 75.8278 25.9469 75.8232C26.3425 75.8215 26.7432 75.818 27.1336 75.755C28.3887 75.5537 29.2466 74.852 29.625 73.5902C29.8048 72.99 29.8236 72.3652 29.7414 71.7527C29.6062 70.736 29.0531 70.0272 28.0771 69.7332C27.6507 69.6055 27.1986 69.5302 26.7551 69.518C25.9933 69.4949 25.2294 69.5045 24.4659 69.514C24.2443 69.5168 24.0228 69.5195 23.8014 69.5215C23.7432 69.5215 23.6849 69.5402 23.6157 69.5625C23.579 69.5742 23.5393 69.587 23.4949 69.5985C23.5819 69.7814 23.728 69.8319 23.8763 69.8832C23.9905 69.9227 24.106 69.9627 24.1969 70.064C24.1997 70.1222 24.2039 70.1851 24.2083 70.2513C24.2175 70.3902 24.2277 70.5434 24.2277 70.6975C24.2312 72.0047 24.2312 73.3102 24.2295 74.6175C24.2295 74.6723 24.2258 74.7271 24.2221 74.7818C24.2175 74.851 24.2129 74.92 24.2158 74.9885C24.226 75.251 24.1473 75.426 23.8596 75.4697C23.7807 75.4806 23.7067 75.527 23.6331 75.5731ZM25.9098 75.3687C25.8064 75.3676 25.6989 75.3665 25.5856 75.3665V70.036C26.1267 69.9065 26.6336 69.924 27.1319 70.1025C27.6062 70.2722 27.9093 70.631 28.0582 71.1052C28.3853 72.143 28.3887 73.1912 28.0343 74.2202C27.7877 74.9395 27.2671 75.3332 26.512 75.3647C26.3174 75.373 26.1221 75.3709 25.9098 75.3687Z" fill="#111111"/>
<path fill-rule="evenodd" clip-rule="evenodd" d="M75.9047 69.3925C75.8268 69.3846 75.7564 69.3775 75.697 69.3692C75.5625 69.3763 75.4485 69.3808 75.3468 69.3848C75.1976 69.3907 75.0751 69.3956 74.9539 69.406C73.56 69.5372 72.5275 70.456 72.2484 71.8455C72.12 72.4895 72.1234 73.144 72.2929 73.7862C72.596 74.936 73.322 75.643 74.4624 75.8652C74.8802 75.9475 75.3203 75.9772 75.7467 75.951C77.3357 75.8512 78.4145 74.859 78.6868 73.2595C78.745 72.9165 78.7398 72.5577 78.7278 72.206C78.6833 70.8165 77.87 69.8015 76.5463 69.4882C76.3226 69.4351 76.092 69.4116 75.9047 69.3925ZM73.971 74.4565C73.7176 73.8632 73.6559 73.2332 73.5943 72.584C73.6234 72.4119 73.6479 72.2388 73.6723 72.0657C73.7243 71.6984 73.7762 71.3314 73.8717 70.9757C74.0703 70.2442 74.56 69.8715 75.2535 69.8225C76.0138 69.7682 76.6028 70.0762 76.8888 70.771C77.06 71.1857 77.1508 71.646 77.2142 72.094C77.3169 72.815 77.2552 73.5395 77.0652 74.243C76.846 75.0532 76.3546 75.468 75.6028 75.517C74.8734 75.566 74.2861 75.1897 73.971 74.4565Z" fill="#111111"/>
<path fill-rule="evenodd" clip-rule="evenodd" d="M85.0137 75.727C84.5274 75.8862 84.5239 75.8897 84.2739 75.5695C83.2174 74.2185 82.1626 72.8657 81.1078 71.5147C81.0154 71.3975 80.9144 71.2872 80.7431 71.0877C80.7311 71.31 80.7209 71.4237 80.7209 71.5375C80.7226 72.6487 80.7209 73.7617 80.7311 74.873C80.7346 75.3297 80.7465 75.328 81.1746 75.4925C81.262 75.5257 81.3356 75.5905 81.4349 75.6535C81.0822 75.839 79.9417 75.8582 79.3921 75.6727C79.5496 75.5835 79.6489 75.4872 79.7585 75.4715C80.0736 75.4242 80.1318 75.23 80.1284 74.9465C80.1198 73.8527 80.125 72.7572 80.125 71.6635C80.125 71.1192 80.125 70.5732 80.125 70.1077C79.9246 69.8102 79.5239 69.952 79.4178 69.5232C80.0154 69.5232 80.5599 69.5057 81.101 69.5372C81.2191 69.5442 81.3424 69.7157 81.4349 69.833C82.2911 70.918 83.1404 72.01 83.9914 73.0985C84.1061 73.2455 84.2294 73.3872 84.4024 73.5955C84.4024 72.3372 84.4024 71.1717 84.4024 70.043C84.19 69.826 83.8527 69.9222 83.7174 69.637C84.0291 69.504 84.9126 69.4707 85.6763 69.5547C85.69 69.98 85.2414 69.7892 85.0822 70.008C84.9897 71.8997 85.0411 73.802 85.0137 75.727Z" fill="#111111"/>
<path fill-rule="evenodd" clip-rule="evenodd" d="M18.6096 75.727C18.0017 75.8635 16.9897 75.8302 16.6182 75.6307C16.875 75.5187 17.0839 75.4295 17.3134 75.3297C17.3134 73.5622 17.3134 71.8017 17.3134 70.071C17.1507 69.8067 16.7415 69.9642 16.6353 69.5285C16.9915 69.5285 17.3134 69.567 17.625 69.5197C18.2055 69.4322 18.5702 69.665 18.9127 70.141C19.6284 71.135 20.4093 72.0817 21.1627 73.0477C21.2791 73.1982 21.4007 73.3435 21.5291 73.5027C21.6798 73.1615 21.7038 70.5907 21.5754 70.0045C21.4075 69.8242 21.0651 69.9257 20.9367 69.6317C21.2671 69.5092 22.3391 69.4812 22.9075 69.5722C22.875 69.9625 22.4658 69.812 22.2569 70.0762C22.2569 71.905 22.2569 73.8055 22.2569 75.6797C21.7654 75.9125 21.762 75.916 21.4829 75.5607C20.4041 74.1817 19.3271 72.801 18.25 71.422C18.1798 71.3327 18.101 71.2487 17.9623 71.0895C17.9521 71.2837 17.9435 71.3817 17.9435 71.478C17.9418 72.6085 17.9418 73.7372 17.9435 74.8677C17.9435 75.223 17.851 75.37 18.3836 75.489C18.4486 75.503 18.5103 75.545 18.5651 75.5852C18.5873 75.6027 18.5873 75.65 18.6096 75.727Z" fill="#111111"/>
<path fill-rule="evenodd" clip-rule="evenodd" d="M42.81 73.5202C42.9419 73.0617 42.935 70.519 42.81 69.9905C42.6456 69.8225 42.2775 69.9537 42.209 69.5285C42.5617 69.5285 42.8802 69.5285 43.1987 69.5285C43.5086 69.5285 43.8186 69.5285 44.1165 69.5285C44.2295 69.7385 44.1148 69.7857 43.9675 69.8417C43.4898 70.0255 43.4898 70.0307 43.4898 70.5452C43.4881 72.0817 43.4898 73.6165 43.4898 75.153C43.4898 75.3455 43.4898 75.538 43.4898 75.7182C43.0052 75.8985 43.0018 75.902 42.7244 75.5485C41.6987 74.2395 40.6764 72.9287 39.6525 71.618C39.536 71.4692 39.4162 71.3222 39.2877 71.163C39.1833 71.5375 39.1576 74.656 39.2484 75.3367C39.4453 75.426 39.6508 75.5187 39.9093 75.636C39.4795 75.853 38.3014 75.8547 37.8374 75.6465C38.1131 75.5257 38.334 75.4277 38.5686 75.3245C38.5686 73.5517 38.5686 71.793 38.5686 70.0675C38.3888 69.8085 37.9915 69.9555 37.8682 69.5407C38.2056 69.5355 38.5103 69.567 38.8032 69.5215C39.4384 69.4235 39.8443 69.6755 40.2193 70.2075C40.9367 71.2225 41.7347 72.1762 42.5018 73.1545C42.596 73.2752 42.6987 73.389 42.81 73.5202Z" fill="#111111"/>
<path fill-rule="evenodd" clip-rule="evenodd" d="M140.049 69.208C139.696 69.2712 139.351 69.333 139.005 69.3955C139.002 69.4211 139 69.4467 138.998 69.4726C138.996 69.4962 138.994 69.52 138.991 69.5442C139.2 69.637 139.409 69.7297 139.644 69.833V75.6167C140.385 75.8705 141.111 75.9685 141.86 75.8932C143.42 75.7357 144.259 74.586 143.966 73.011C143.789 72.066 143.125 71.4972 142.175 71.5305C141.959 71.5379 141.746 71.5977 141.533 71.6573C141.447 71.6816 141.36 71.7058 141.274 71.7265C141.204 71.7432 141.136 71.7648 141.056 71.79C141.011 71.8045 140.961 71.8201 140.906 71.8367V69.0542C140.613 69.1069 140.329 69.1578 140.049 69.208ZM140.913 75.3367C140.89 74.3497 140.897 73.34 140.913 72.3442C141.729 71.9295 142.377 72.1902 142.548 73.0442C142.639 73.4957 142.639 73.9945 142.555 74.4477C142.392 75.3227 141.854 75.6027 140.913 75.3367Z" fill="#111111"/>
<path fill-rule="evenodd" clip-rule="evenodd" d="M2.04444 73.3797C2.04771 73.3291 2.05125 73.2745 2.05479 73.214C2.17442 73.214 2.28862 73.2152 2.39893 73.2164C2.63918 73.2189 2.86104 73.2213 3.08048 73.2105C3.55479 73.1877 4.00171 73.053 4.38699 72.7625C5.04966 72.262 5.19692 71.5532 5.06164 70.7797C4.94007 70.078 4.41267 69.7735 3.7911 69.6247C3.50856 69.5582 3.21233 69.5197 2.92123 69.5162C2.20342 69.5078 1.48562 69.5129 0.767808 69.5179C0.588356 69.5192 0.408904 69.5204 0.229452 69.5215C0.176337 69.5215 0.124073 69.5371 0.0768596 69.5513C0.0571019 69.5572 0.0382288 69.5629 0.0205479 69.567C-0.00621345 69.7919 0.12064 69.8202 0.234106 69.8455C0.251322 69.8493 0.26823 69.8531 0.284247 69.8575C0.698086 69.9703 0.696214 70.0761 0.691269 70.3555C0.69069 70.3883 0.690068 70.4234 0.690068 70.4612V71.8367C0.690068 72.1664 0.690259 72.4958 0.690449 72.8252C0.69083 73.4838 0.69121 74.1421 0.690068 74.8012C0.690068 74.8507 0.690657 74.8959 0.691197 74.9375C0.696112 75.3158 0.697074 75.3898 0.215753 75.5065C0.162025 75.5196 0.114671 75.5629 0.0671685 75.6063C0.0450311 75.6265 0.0228616 75.6467 0 75.664C0.00342466 75.6824 0.00684932 75.7012 0.010274 75.72C0.0136986 75.7388 0.0171233 75.7576 0.0205479 75.776C0.119481 75.7789 0.218602 75.7824 0.317787 75.7859C0.517307 75.7929 0.717083 75.7999 0.916096 75.8022C0.981897 75.8029 1.0477 75.8039 1.11349 75.8049C1.3764 75.8088 1.63909 75.8127 1.90068 75.7987C1.97559 75.7947 2.05175 75.7981 2.12973 75.8015C2.3548 75.8114 2.59513 75.8221 2.86473 75.657C2.68714 75.5785 2.53378 75.5105 2.38381 75.444C2.26626 75.3918 2.15079 75.3406 2.0274 75.286C2.0274 75.1517 2.02729 75.018 2.02718 74.8847C2.02686 74.4862 2.02654 74.0912 2.02911 73.6952C2.03032 73.5978 2.03662 73.5004 2.04444 73.3797ZM2.05479 72.675V69.9747C2.1402 69.9747 2.2196 69.9723 2.29478 69.97C2.45021 69.9653 2.58757 69.9611 2.7226 69.98C3.2363 70.0465 3.5411 70.337 3.61644 70.8567C3.65753 71.1315 3.65925 71.4202 3.63185 71.6985C3.54452 72.57 2.93322 72.9515 2.05479 72.675Z" fill="#111111"/>
<path fill-rule="evenodd" clip-rule="evenodd" d="M67.2403 69.5228C66.9678 69.523 66.6948 69.5232 66.4213 69.5232C66.3808 69.7714 66.4977 69.8051 66.6083 69.837C66.6287 69.8428 66.6489 69.8487 66.6678 69.8557C66.6715 69.8572 66.675 69.8586 66.6786 69.8599C67.067 70.0115 67.0771 70.0155 67.0822 70.4525C67.0889 71.084 67.0883 71.7145 67.0877 72.3455C67.0875 72.5258 67.0874 72.7063 67.0874 72.8867C67.0874 73.0208 67.0875 73.1548 67.0876 73.2889C67.0882 73.8251 67.0887 74.3613 67.0805 74.8975C67.0738 75.326 67.0638 75.3298 66.6838 75.4744C66.6758 75.4775 66.6676 75.4806 66.6593 75.4837C66.5941 75.5087 66.5344 75.5507 66.4647 75.5998C66.4319 75.6229 66.3968 75.6475 66.3579 75.6727C66.8493 75.8582 68.8237 75.8442 69.173 75.6692C69.1013 75.54 68.9836 75.5094 68.8676 75.4793C68.8061 75.4634 68.7452 75.4475 68.6918 75.4172C68.5856 75.3577 68.4452 75.2352 68.4418 75.1372C68.4249 74.6622 68.4268 74.1861 68.4286 73.6991C68.4292 73.5439 68.4298 73.3875 68.4298 73.2297C68.5177 73.2297 68.5979 73.2295 68.6731 73.2293C68.8103 73.2289 68.9308 73.2286 69.0514 73.2297C69.6113 73.2332 70.1559 73.1615 70.6439 72.857C71.3048 72.444 71.6148 71.6897 71.4675 70.8392C71.3356 70.085 70.7997 69.7735 70.1387 69.6125C70.1122 69.606 70.0856 69.5992 70.0589 69.5924C69.9338 69.5605 69.8071 69.5282 69.6815 69.5267C68.869 69.5215 68.0565 69.5221 67.2403 69.5228ZM68.5086 72.71C68.4024 72.332 68.3785 70.68 68.4846 69.952C68.5811 69.9605 68.6748 69.9664 68.7665 69.9722C68.9579 69.9843 69.1402 69.9959 69.3185 70.029C69.6096 70.0815 69.8168 70.281 69.9144 70.561C70.1045 71.1087 70.1199 71.6705 69.8819 72.206C69.6644 72.696 69.1901 72.8535 68.5086 72.71Z" fill="#111111"/>
<path fill-rule="evenodd" clip-rule="evenodd" d="M49.286 69.5705C49.1764 70.1025 49.1473 70.617 48.9367 71.1612C48.5634 70.8375 48.6559 70.414 48.4436 70.0482C47.9555 69.9957 47.4264 70.043 46.8237 70.0237C46.7997 70.8025 46.8049 71.548 46.8254 72.3372C47.024 72.3495 47.1901 72.3652 47.3562 72.367C47.8973 72.3722 47.8973 72.3705 48.0822 71.87C48.1319 71.7387 48.1319 71.7387 48.4042 71.6355C48.4042 72.2707 48.4042 72.8902 48.4042 73.5902C48.286 73.5202 48.1285 73.4765 48.1233 73.4187C48.0651 72.689 47.548 72.815 47.0925 72.8255C47.0257 72.8272 46.959 72.8465 46.8528 72.8622C46.8528 73.6515 46.8528 74.4355 46.8528 75.293C47.3939 75.3262 47.9401 75.3052 48.4675 75.3052C48.8545 74.9745 48.786 74.327 49.3888 74.0382C49.3477 74.6595 49.3151 75.181 49.2809 75.6937C48.8425 75.8477 45.2175 75.8425 44.7209 75.6587C44.9898 75.531 45.1901 75.4365 45.4435 75.3175C45.4932 73.5675 45.4898 71.793 45.4453 70.0482C45.4025 70.0202 44.8066 69.623 44.8066 69.623C45.0977 69.5075 48.4504 69.4602 49.286 69.5705Z" fill="#111111"/>
<path fill-rule="evenodd" clip-rule="evenodd" d="M50.1558 75.6815C50.2431 75.1355 50.3219 74.6193 50.4177 74.1048C50.428 74.0505 50.5427 74.0155 50.6677 73.9333C50.7654 74.3218 50.8664 74.6543 50.928 74.9938C50.9845 75.3088 51.1506 75.4733 51.4537 75.454C51.7585 75.4365 52.089 75.447 52.3595 75.328C53.0171 75.0375 53.1267 74.194 52.5873 73.7093C52.3972 73.5378 52.1558 73.4188 51.9314 73.291C51.6147 73.1125 51.2808 72.962 50.9691 72.773C49.8527 72.0905 49.9092 70.3178 51.1164 69.7315C51.3784 69.6038 51.666 69.5198 51.9503 69.462C52.6249 69.3273 53.2825 69.4515 53.976 69.6475C53.8869 70.1795 53.8869 70.6958 53.6181 71.2103C53.3201 70.9373 53.3338 70.617 53.2448 70.3475C53.113 69.945 53.0804 69.882 52.6832 69.8698C52.4657 69.8628 52.2277 69.896 52.029 69.9835C51.3972 70.2583 51.2534 71.0178 51.7448 71.506C51.9383 71.6985 52.1934 71.8298 52.4314 71.968C52.7602 72.1605 53.1198 72.3058 53.4332 72.521C54.5359 73.2788 54.4862 74.8888 53.327 75.5555C53.0051 75.741 52.6215 75.8373 52.2534 75.909C51.5599 76.0473 50.8869 75.9003 50.1558 75.6815Z" fill="#111111"/>
<path fill-rule="evenodd" clip-rule="evenodd" d="M99.0601 75.6342C99.1388 75.1337 99.2159 74.6157 99.3066 74.0995C99.3152 74.0522 99.4059 74.019 99.4899 73.9577C99.721 74.2045 99.7073 74.5212 99.7792 74.796C99.8666 75.125 99.9042 75.4382 100.355 75.4715C100.981 75.517 101.493 75.3367 101.711 74.9132C101.899 74.544 101.855 74.0872 101.553 73.788C101.37 73.6077 101.144 73.4677 100.921 73.3382C100.606 73.1562 100.269 73.0145 99.9556 72.829C99.3323 72.4597 99.0241 71.9015 99.0755 71.1577C99.1251 70.4315 99.5173 69.9415 100.151 69.6632C101.053 69.266 101.964 69.3815 102.911 69.6615C102.75 70.1812 102.813 70.7237 102.522 71.1595C102.478 71.1595 102.435 71.1595 102.391 71.1612C102.269 70.7692 102.147 70.3772 102.029 69.9957C101.697 69.84 101.379 69.8225 101.053 69.9292C100.31 70.1725 100.115 71.0265 100.694 71.5602C100.87 71.723 101.091 71.8367 101.301 71.9557C101.647 72.1535 102.022 72.3057 102.348 72.535C103.444 73.3085 103.379 74.9027 102.214 75.566C101.892 75.7497 101.507 75.8425 101.141 75.916C100.507 76.0385 99.7193 75.916 99.0601 75.6342Z" fill="#111111"/>
<path fill-rule="evenodd" clip-rule="evenodd" d="M61.4613 69.9079C61.4073 69.758 61.3532 69.6078 61.2997 69.4567C60.8904 69.406 60.75 69.6037 60.6353 69.8995C60.2015 70.9996 59.7601 72.0967 59.3187 73.1938C59.098 73.7423 58.8773 74.2908 58.6576 74.8397C58.536 75.1425 58.4007 75.4155 58.036 75.4767C57.9715 75.4871 57.9138 75.5327 57.8479 75.5846C57.8141 75.6112 57.7781 75.6396 57.738 75.6657C58.2295 75.8722 59.4572 75.8477 59.7534 75.6307C59.7277 75.6142 59.7035 75.5972 59.6799 75.5808C59.6313 75.5468 59.5856 75.5149 59.536 75.4925C59.1576 75.3192 59.137 75.2947 59.2671 74.9167C59.3569 74.653 59.4585 74.3939 59.5619 74.13C59.6005 74.0314 59.6394 73.9322 59.6781 73.8317H60.5925H61.4487C61.496 73.9752 61.5409 74.1119 61.5843 74.244C61.6774 74.5275 61.7634 74.7895 61.8511 75.0497C61.9195 75.2545 61.875 75.384 61.661 75.4575C61.6348 75.4665 61.6059 75.4731 61.5762 75.4799C61.4622 75.5061 61.3383 75.5345 61.3288 75.7095C61.8665 75.8635 63.7415 75.8355 64.0771 75.6605C64.0572 75.6442 64.039 75.6261 64.0217 75.6087C63.9867 75.5737 63.955 75.5421 63.9195 75.5362C63.4367 75.4575 63.2586 75.1075 63.1165 74.6805C62.7609 73.6134 62.3896 72.5517 62.0182 71.4895C61.9138 71.1912 61.8095 70.8928 61.7055 70.5942C61.6259 70.3648 61.5437 70.1367 61.4613 69.9079ZM61.262 73.2927H59.923C59.9272 73.2649 59.9301 73.2374 59.9329 73.2104C59.9394 73.1492 59.9456 73.0907 59.9658 73.0372C60.1558 72.5157 60.3528 71.9977 60.649 71.471C60.8476 72.059 61.0463 72.6487 61.262 73.2927Z" fill="#111111"/>
<path fill-rule="evenodd" clip-rule="evenodd" d="M96.1186 75.5644C96.0815 75.5841 96.0444 75.6039 96.0068 75.622C96.0154 75.678 96.0256 75.7357 96.0393 75.797C96.3407 75.8005 96.6438 75.804 96.9469 75.8057C97.03 75.8062 97.1132 75.8077 97.1963 75.8091C97.4247 75.8131 97.6529 75.8172 97.8801 75.8005C97.9593 75.7947 98.0407 75.8 98.1237 75.8054C98.3402 75.8196 98.567 75.8344 98.7911 75.6535C98.7646 75.6353 98.7428 75.6177 98.7236 75.6023C98.6895 75.5748 98.6638 75.5541 98.6352 75.5485C98.113 75.4557 97.9349 75.0655 97.7808 74.6052C97.3829 73.4185 96.9694 72.2368 96.5557 71.0548C96.4228 70.6751 96.2899 70.2953 96.1575 69.9152C96.1212 69.8118 96.0799 69.7105 96.0414 69.616C96.02 69.5635 95.9995 69.513 95.9811 69.4655C95.5924 69.4007 95.4469 69.5915 95.3304 69.8872C94.9458 70.8611 94.5553 71.8331 94.1648 72.8051C93.8928 73.482 93.6209 74.1588 93.351 74.8362C93.2208 75.1635 93.0582 75.4312 92.6798 75.496C92.6224 75.5063 92.5702 75.5544 92.5072 75.6125C92.4743 75.6428 92.4384 75.6759 92.3972 75.7077C93.0411 75.8687 94.1164 75.8355 94.4554 75.6342C94.4103 75.6106 94.3668 75.5878 94.3239 75.5653C94.173 75.4862 94.031 75.4117 93.863 75.3245C93.9458 74.8484 94.1314 74.4161 94.3143 73.9902C94.3317 73.9496 94.3491 73.909 94.3664 73.8685H96.1438C96.1964 74.0224 96.2477 74.1724 96.2982 74.32C96.3827 74.5667 96.4648 74.8064 96.5462 75.0462C96.613 75.244 96.5753 75.3875 96.3561 75.4557C96.2738 75.4818 96.1962 75.5231 96.1186 75.5644ZM95.5979 72.2493C95.7182 72.6078 95.8333 72.9508 95.952 73.3032H94.5616C94.7005 72.9263 94.833 72.5649 94.9727 72.1839C95.0724 71.9121 95.1757 71.6303 95.2876 71.3257C95.3977 71.6531 95.4995 71.9564 95.5979 72.2493Z" fill="#111111"/>
<path fill-rule="evenodd" clip-rule="evenodd" d="M129.064 70.1534C128.983 69.9213 128.902 69.6891 128.82 69.4567C128.413 69.4095 128.265 69.5967 128.147 69.8925C127.798 70.7789 127.443 71.6633 127.087 72.5476C126.786 73.2956 126.485 74.0435 126.188 74.7925C126.051 75.139 125.894 75.4277 125.495 75.496C125.445 75.5042 125.4 75.5506 125.35 75.6035C125.325 75.6298 125.298 75.6577 125.269 75.6832C125.755 75.8495 126.896 75.8407 127.32 75.6535C127.27 75.6272 127.226 75.6013 127.184 75.5771C127.097 75.5272 127.024 75.4846 126.945 75.461C126.738 75.398 126.657 75.2842 126.736 75.069C126.812 74.8597 126.888 74.6505 126.963 74.4431C127.035 74.2446 127.106 74.0479 127.176 73.8545H128.961C129.006 73.9916 129.057 74.1259 129.108 74.2593C129.243 74.6129 129.375 74.9597 129.392 75.3332C129.278 75.3937 129.178 75.4463 129.084 75.4953C128.997 75.5412 128.915 75.584 128.834 75.6272C129.087 75.8053 129.335 75.8019 129.578 75.7986C129.636 75.7978 129.693 75.7971 129.75 75.7987C130.062 75.8075 130.373 75.8162 130.683 75.7952C130.769 75.789 130.858 75.7957 130.947 75.8024C131.156 75.8182 131.367 75.8342 131.555 75.6832C131.547 75.6658 131.542 75.6519 131.539 75.6409C131.533 75.6244 131.529 75.6143 131.522 75.608C131.511 75.5991 131.5 75.5888 131.489 75.5784C131.461 75.5521 131.433 75.5255 131.401 75.5205C130.935 75.4435 130.769 75.0935 130.635 74.691C130.405 73.994 130.162 73.2984 129.921 72.6044C129.902 72.5509 129.883 72.4975 129.865 72.444C129.599 71.6802 129.332 70.9175 129.064 70.1534ZM128.11 71.4867C128.13 71.4854 128.15 71.4841 128.169 71.4832L128.17 71.4845C128.365 72.0703 128.56 72.6562 128.772 73.2927H127.396C127.56 72.8426 127.72 72.4001 127.879 71.9603C127.936 71.8033 127.993 71.6467 128.05 71.4902C128.069 71.4894 128.089 71.4881 128.11 71.4867Z" fill="#111111"/>
<path fill-rule="evenodd" clip-rule="evenodd" d="M8.84425 75.3C9.10452 75.4032 9.36651 75.5082 9.70726 75.6447C9.31343 75.902 8.96754 75.7742 8.64562 75.797C8.31856 75.8197 7.9898 75.811 7.66103 75.8005C7.33226 75.79 6.99322 75.8547 6.67644 75.7392C6.6713 75.6972 6.66445 75.6552 6.65932 75.6132C6.91788 75.51 7.17815 75.4067 7.45041 75.2982C7.45041 73.5622 7.45041 71.8367 7.45041 70.071C7.05144 70.071 6.66274 70.071 6.26891 70.071C6.01034 70.4105 6.07028 70.9355 5.64904 71.3047C5.46069 70.6747 5.52062 70.1235 5.46411 69.546C7.2963 69.546 9.06685 69.546 10.8734 69.546C10.7946 70.134 10.7295 70.694 10.5275 71.3135C10.1131 70.9215 10.2398 70.4175 9.99665 70.05C9.63363 70.05 9.25863 70.05 8.84596 70.05C8.84425 71.8035 8.84425 73.5412 8.84425 75.3Z" fill="#111111"/>
<path fill-rule="evenodd" clip-rule="evenodd" d="M138.334 71.2715C138.222 70.8463 138.123 70.4648 138.017 70.0605C137.63 70.0605 137.257 70.0605 136.882 70.0605C136.758 70.4455 136.726 74.2762 136.841 75.3035C137.08 75.4033 137.335 75.5083 137.699 75.6588C137.277 75.8775 136.952 75.783 136.644 75.797C136.3 75.8128 135.952 75.8093 135.608 75.7988C135.294 75.79 134.972 75.8513 134.669 75.7445C134.663 75.7025 134.654 75.6588 134.647 75.6168C134.902 75.51 135.157 75.405 135.428 75.293C135.428 73.557 135.428 71.8315 135.428 70.0693C135.034 70.0693 134.663 70.0693 134.258 70.0693C133.971 70.3773 134.067 70.9513 133.565 71.331C133.536 70.9408 133.515 70.6713 133.495 70.4C133.476 70.1375 133.459 69.875 133.44 69.6178C133.772 69.5075 138.358 69.4865 138.861 69.6003C138.762 70.1113 138.666 70.6275 138.558 71.1385C138.55 71.1805 138.455 71.2033 138.334 71.2715Z" fill="#111111"/>
<path fill-rule="evenodd" clip-rule="evenodd" d="M124.832 75.6727C124.414 75.8407 122.664 75.8477 122.13 75.6692C122.39 75.5345 122.587 75.433 122.841 75.3035C122.841 74.6105 122.849 73.8912 122.834 73.172C122.83 73.025 122.746 72.871 122.675 72.7345C122.293 72.024 121.895 71.3205 121.515 70.6082C121.312 70.225 121.089 69.8785 120.618 69.8102C120.536 69.798 120.461 69.7507 120.306 69.6895C120.757 69.5092 122.661 69.4707 123.337 69.5652C123.358 69.9782 122.854 69.7542 122.762 70.1585C123.106 70.8042 123.496 71.5375 123.943 72.381C124.324 71.527 124.765 70.8235 125.015 70.0762C124.868 69.7962 124.488 69.9415 124.438 69.5635C125.103 69.5635 125.743 69.5635 126.39 69.5635C126.471 69.7087 126.404 69.8015 126.26 69.8225C125.825 69.8837 125.627 70.1987 125.445 70.5557C125.094 71.2435 124.736 71.9277 124.363 72.6032C124.221 72.8605 124.161 73.116 124.169 73.4082C124.187 73.9017 124.197 74.397 124.18 74.8905C124.169 75.216 124.24 75.4382 124.594 75.4942C124.673 75.5065 124.74 75.601 124.832 75.6727Z" fill="#111111"/>
<path fill-rule="evenodd" clip-rule="evenodd" d="M103.794 75.6097C104.009 75.517 104.224 75.4242 104.449 75.3262C104.449 73.5517 104.449 71.7912 104.449 70.0622C104.272 69.8067 103.866 69.9607 103.772 69.5582C104.7 69.5582 105.594 69.5582 106.502 69.5582C106.519 69.868 106.284 69.84 106.149 69.875C105.901 69.9362 105.81 70.0727 105.812 70.323C105.818 71.9295 105.82 73.536 105.825 75.1425C105.825 75.195 105.842 75.2457 105.858 75.3227C106.074 75.4207 106.298 75.5222 106.524 75.6237C106.519 75.6657 106.514 75.706 106.51 75.748C106.074 75.8617 105.618 75.7987 105.171 75.797C104.719 75.7952 104.259 75.8687 103.815 75.7392C103.806 75.6955 103.801 75.6535 103.794 75.6097Z" fill="#111111"/>
<path fill-rule="evenodd" clip-rule="evenodd" d="M54.887 75.6342C54.94 75.5975 54.9897 75.5485 55.0479 75.524C55.5839 75.3052 55.5839 75.307 55.5839 74.705C55.5839 73.3295 55.5839 71.9522 55.5839 70.5767C55.5839 70.029 55.5822 70.029 55.089 69.8295C55.0274 69.805 54.9692 69.7682 54.9178 69.7245C54.8972 69.707 54.9024 69.6597 54.8955 69.6265C55.1746 69.5022 57.0599 69.4742 57.5873 69.5915C57.5445 69.9712 57.1421 69.7805 56.964 70.1147C56.964 71.7545 56.964 73.5307 56.964 75.328C57.1729 75.4225 57.3853 75.5187 57.6472 75.6395C57.3356 75.909 57.0205 75.7742 56.738 75.797C56.4298 75.8215 56.1164 75.8057 55.8065 75.8022C55.5068 75.7987 55.2072 75.7847 54.9075 75.776C54.9024 75.7287 54.8955 75.6815 54.887 75.6342Z" fill="#111111"/>
<path fill-rule="evenodd" clip-rule="evenodd" d="M13.2997 69.539C14.185 69.539 15.06 69.539 15.9572 69.539C15.9418 69.9713 15.5172 69.7998 15.3699 69.9993C15.2552 70.5733 15.25 74.6893 15.3665 75.3473C15.5651 75.4348 15.774 75.5258 16.0326 75.6395C15.6336 75.839 13.7791 75.86 13.2329 75.6868C13.3562 75.6028 13.4333 75.524 13.5274 75.489C13.9538 75.3245 13.9572 75.328 13.9589 74.8573C13.9624 74.1153 13.9589 73.3733 13.9589 72.6313C13.9589 71.9068 13.9589 71.1823 13.9589 70.4578C13.9589 70.0605 13.9863 69.9713 13.548 69.8575C13.4264 69.8225 13.2535 69.8225 13.2997 69.539Z" fill="#111111"/>
<path fill-rule="evenodd" clip-rule="evenodd" d="M145.104 69.7805C144.887 69.6965 144.702 69.6247 144.517 69.5547C144.519 69.5162 144.522 69.4777 144.524 69.4392C145.128 69.2292 145.769 69.1977 146.454 69.0472C146.454 71.1822 146.454 73.2682 146.454 75.335C146.681 75.4522 146.854 75.5415 147.06 75.6465C146.724 75.8302 145.178 75.8687 144.529 75.7305C144.608 75.4172 144.94 75.5327 145.096 75.3735C145.224 74.9255 145.235 70.4665 145.104 69.7805Z" fill="#111111"/>
<path fill-rule="evenodd" clip-rule="evenodd" d="M149.688 71.7317C149.274 71.9505 148.904 72.094 148.592 72.3215C148.272 72.5542 148.009 72.8675 147.675 73.1912C147.846 73.4397 148.01 73.6795 148.175 73.9175C148.365 74.1905 148.56 74.46 148.743 74.7382C148.988 75.1092 149.24 75.4645 149.702 75.5747C149.733 75.5817 149.75 75.65 149.818 75.7672C149.521 75.7795 149.271 75.7672 149.029 75.8057C148.264 75.9265 147.724 75.6885 147.38 74.9272C147.175 74.4722 146.824 74.0872 146.512 73.6357C147.048 73.0915 147.57 72.563 148.099 72.024C147.943 71.9225 147.824 71.8437 147.681 71.751C148.044 71.5935 149.149 71.5795 149.688 71.7317Z" fill="#111111"/>
</svg>
