<svg width="150" height="111" viewBox="0 0 150 111" fill="none" xmlns="http://www.w3.org/2000/svg">
<path fill-rule="evenodd" clip-rule="evenodd" d="M74 68C92.7777 68 108 52.7777 108 34C108 15.2223 92.7777 0 74 0C55.2223 0 40 15.2223 40 34C40 52.7777 55.2223 68 74 68Z" fill="#D07871"/>
<path fill-rule="evenodd" clip-rule="evenodd" d="M103.863 27.4347C103.303 27.0989 102.733 27.34 102.733 27.34L99.7245 25.2819L100.722 21.737C100.722 21.737 101.414 21.7427 101.619 20.7998C101.949 19.2942 100.641 17.9982 99.3504 17.5892C98.0597 17.1816 95.8813 17.3337 94.5805 17.582C93.2798 17.8289 90.0093 18.8077 87.9517 19.8138C85.8941 20.8199 83.5948 22.5665 81.4063 25.1958C81.4001 25.2044 81.3928 25.2131 81.3863 25.2208L81.3832 25.2245L87.6668 16.6965C88.3805 16.9591 89.2107 16.7353 89.6826 16.0937C90.2553 15.3173 90.0869 14.2236 89.3085 13.6524C88.5301 13.0812 87.4337 13.2491 86.861 14.0256C86.4049 14.6442 86.4193 15.4637 86.838 16.0593L81.2163 23.6888C82.825 21.2318 83.4696 17.3624 83.6092 16.1727C83.7631 14.868 83.6854 10.9298 83.6092 9.7013C83.5329 8.4742 82.9761 5.77027 81.9171 4.37237C80.8581 2.97448 79.071 2.56545 77.9084 3.51412C77.4033 3.92746 77.4379 4.54316 77.4379 4.54316L74.481 6.67445L71.4723 4.54316C71.4723 4.54316 71.7112 3.89588 70.891 3.38351C69.5817 2.56688 67.9169 3.35768 67.0953 4.43265C66.2737 5.50762 65.6852 7.60446 65.4795 8.90906C65.2737 10.2137 65.0953 13.6151 65.3514 15.8856C65.6075 18.1561 66.219 20.9218 67.9629 23.8639C69.7068 26.8061 74.7112 28.7322 74.7112 28.7322C76.1472 28.3992 78.7472 26.7143 80.7214 24.3605L76.0163 30.7472C75.576 30.5319 75.081 30.4113 74.5573 30.4113C74.0234 30.4113 73.5184 30.5376 73.0709 30.7615L62.2276 16.243C62.665 15.6416 62.6837 14.802 62.2147 14.1748C61.6377 13.4013 60.5413 13.242 59.7657 13.8175C58.9902 14.393 58.8305 15.4866 59.4074 16.2602C59.8765 16.8874 60.6866 17.1113 61.3902 16.8644L67.6032 25.1829C65.4147 22.5536 63.1053 20.8199 61.0492 19.8138C58.993 18.8077 55.7211 17.8289 54.4203 17.582C53.1196 17.3352 50.9412 17.1816 49.6505 17.5892C48.3598 17.9968 47.0519 19.2942 47.3814 20.7998C47.5872 21.7427 48.2792 21.737 48.2792 21.737L49.2764 25.2819L46.2677 27.34C46.2677 27.34 45.6979 27.0989 45.1382 27.4347C43.8504 28.2069 43.6346 30.0224 44.5972 31.4892C45.5598 32.956 47.9224 34.3897 49.0562 34.8748C50.1886 35.3614 53.8808 36.7621 55.1642 37.0564C56.4477 37.3506 60.9729 38.1557 63.8607 37.0951L54.3786 41.0922C53.8966 40.5253 53.0836 40.3085 52.3613 40.6128C51.4707 40.9888 51.0548 42.0121 51.4304 42.9005C51.8073 43.7889 52.8333 44.2037 53.7239 43.8291C54.4462 43.5248 54.8577 42.7915 54.7844 42.0523L62.619 38.7499C60.2305 39.789 58.3787 41.1324 57.0089 42.3882C55.3225 43.9353 53.2232 46.622 52.5196 47.74C51.8174 48.8595 50.8836 50.8286 50.7973 52.1763C50.7109 53.5239 51.4491 55.2103 52.9743 55.45C53.9297 55.6007 54.1757 54.9548 54.1757 54.9548L57.8491 55.3136L58.6808 58.8572C58.6808 58.8572 58.2492 59.2992 58.3599 59.9422C58.6146 61.419 60.2319 62.2787 61.9514 61.9156C63.6708 61.5525 65.8665 59.8747 66.7313 58.9978C67.596 58.1209 70.2435 55.1974 70.9846 54.1109C71.7256 53.0259 73.976 49.1135 74.0306 46.0451C74.0321 45.9637 74.0331 45.8823 74.0335 45.8011V55.0424C73.3213 55.2634 72.8047 55.9265 72.8047 56.7087C72.8047 57.6731 73.5889 58.4539 74.5544 58.4539C75.5199 58.4539 76.304 57.6717 76.304 56.7087C76.304 55.9265 75.7875 55.2634 75.0753 55.0424V46.0436C75.1314 49.1121 77.4249 53.0259 78.1659 54.1124C78.907 55.1974 81.5545 58.1223 82.4192 58.9993C83.284 59.8762 85.4797 61.5539 87.1991 61.917C88.9186 62.2801 90.5359 61.4204 90.7906 59.9436C90.9013 59.3006 90.4697 58.8586 90.4697 58.8586L91.3014 55.3151L94.9748 54.9563C94.9748 54.9563 95.2194 55.6021 96.1762 55.4514C97.7014 55.2117 98.4396 53.5254 98.3532 52.1777C98.2669 50.8301 97.3331 48.8609 96.6309 47.7415C95.9287 46.622 93.828 43.9353 92.1417 42.3896C90.8812 41.2328 89.2092 39.9856 87.0869 38.9767L94.3848 42.0523C94.3129 42.7929 94.723 43.5248 95.4453 43.8291C96.3359 44.2051 97.3619 43.7889 97.7388 42.9005C98.1158 42.0121 97.6986 40.9888 96.8079 40.6128C96.0856 40.3085 95.2726 40.5253 94.7906 41.0922L85.202 37.0492C88.0884 38.1098 92.5488 37.3506 93.8323 37.0564C95.1158 36.7607 98.8079 35.3599 99.9403 34.8748C101.073 34.3883 103.437 32.956 104.399 31.4892C105.366 30.0224 105.15 28.2069 103.863 27.4347ZM74.0335 37.0104V45.5984C74.0181 42.6913 73.3425 39.9407 72.5184 38.8088C72.5184 38.8088 67.609 37.0033 64.3586 38.084C63.9129 38.2325 63.482 38.3918 63.0669 38.5609L71.4853 35.0126C71.9227 36.056 72.8795 36.8296 74.0335 37.0104ZM74.6364 27.3113C74.6364 27.3113 68.209 25.2991 67.6277 14.3858C67.6277 14.3858 67.8334 9.73 68.0896 8.23021L69.2004 6.26972L72.7385 9.01527C72.7385 9.01527 72.4479 10.9083 74.4652 10.8911C76.4825 10.8739 76.2767 9.01527 76.2767 9.01527L79.7818 6.26972L80.9617 8.38378C80.9617 8.38378 81.3041 11.8972 81.3372 14.4547C81.3732 17.0122 80.3804 24.9231 74.6364 27.3113ZM68.1385 53.9244C69.8464 52.0155 74.2968 45.392 71.5285 39.8335C71.5285 39.8335 65.3514 37.1496 57.7427 45.0103C57.7427 45.0103 54.8376 48.66 54.0448 49.9603L53.5944 52.1677L58.0707 52.4088C58.0707 52.4088 59.0952 50.7899 60.6075 52.1217C62.1197 53.455 60.7427 54.7238 60.7427 54.7238L61.5844 59.0882L63.865 58.263C63.865 58.263 66.432 55.8332 68.1385 53.9244ZM54.3067 34.3424C51.9038 33.4482 48.7037 31.9427 48.7037 31.9427L47.1051 30.1214L50.8778 27.7562C50.8778 27.7562 52.5628 28.5757 53.2592 26.687C53.9556 24.7983 52.0707 24.4337 52.0707 24.4337L50.6721 20.1855L52.898 19.8037C54.4002 20.0692 58.8635 21.4456 58.8635 21.4456C68.9673 25.6709 68.6996 32.3862 68.6996 32.3862C64.5111 36.9731 56.7081 35.2365 54.3067 34.3424ZM70.0191 32.9373C69.3543 33.9664 67.5298 35.4288 65.2708 36.5024L71.2421 33.985C71.2364 33.9018 71.232 33.8171 71.232 33.7324C71.232 32.8081 71.6119 31.9714 72.2234 31.3701L67.9773 25.6852C69.8191 28.4121 70.0191 32.9373 70.0191 32.9373ZM91.4193 45.0103C91.4193 45.0103 94.3244 48.66 95.1172 49.9603L95.5676 52.1677L91.0913 52.4088C91.0913 52.4088 90.0668 50.7899 88.5546 52.1217C87.0423 53.4536 88.4193 54.7238 88.4193 54.7238L87.5776 59.0882L85.297 58.263C85.297 58.263 82.73 55.8346 81.0235 53.9244C79.317 52.0141 74.8652 45.392 77.6336 39.8335C77.6321 39.8335 83.8077 37.1496 91.4193 45.0103ZM76.6379 38.8088C76.6379 38.8088 81.5415 36.9702 84.7919 38.051C85.0149 38.1256 85.2351 38.2045 85.4509 38.2849L77.6379 34.9911C77.2048 36.046 76.2422 36.8282 75.081 37.0104V45.4136C75.1285 42.5747 75.8307 39.9167 76.6379 38.8088ZM77.8767 33.9606C77.8825 33.8846 77.8854 33.8099 77.8854 33.7324C77.8854 32.7967 77.4969 31.9528 76.8724 31.35L80.9991 25.7484C79.189 28.4796 78.9832 32.9359 78.9832 32.9359C79.6365 33.9477 81.4566 35.3485 83.6782 36.4062L77.8767 33.9606ZM94.6971 34.3409C97.1 33.4468 100.3 31.9413 100.3 31.9413L101.897 30.1186L98.1245 27.7533C98.1245 27.7533 96.4395 28.5728 95.7431 26.6841C95.0467 24.7968 96.9316 24.4308 96.9316 24.4308L98.3302 20.1826L96.1043 19.8009C94.6021 20.0649 90.1387 21.4427 90.1387 21.4427C80.0336 25.6694 80.3027 32.3833 80.3027 32.3833C84.4926 36.9731 92.2942 35.2351 94.6971 34.3409Z" fill="white"/>
<path fill-rule="evenodd" clip-rule="evenodd" d="M30.0869 88.7187L32.8598 88.1103C33.1919 89.7253 34.4681 90.532 36.6885 90.532C37.7022 90.532 38.481 90.3247 39.0263 89.9117C39.5716 89.4986 39.8442 88.9856 39.8442 88.3727C39.8442 87.9268 39.7209 87.5153 39.473 87.138C39.225 86.7607 38.6956 86.4639 37.8835 86.2492L34.8553 85.438C33.8184 85.1591 33.0527 84.843 32.5581 84.4896C32.0636 84.1361 31.6662 83.6366 31.3689 82.9924C31.0716 82.3482 30.9223 81.6607 30.9223 80.9285C30.9223 79.4731 31.4487 78.3054 32.5001 77.4271C33.5516 76.5488 34.8974 76.1089 36.5376 76.1089C37.8994 76.1089 39.1147 76.4146 40.1865 77.0275C41.2582 77.6403 41.9398 78.5068 42.2342 79.6282L39.5194 80.3201C39.1017 79.0868 38.1271 78.471 36.5956 78.471C35.7066 78.471 35.0279 78.6618 34.5595 79.0436C34.0911 79.4253 33.8576 79.91 33.8576 80.499C33.8576 81.4296 34.5929 82.0812 36.062 82.4555L38.7536 83.1475C40.3852 83.5695 41.4801 84.1913 42.037 85.0145C42.5939 85.8376 42.8723 86.7458 42.8723 87.7404C42.8723 89.339 42.2864 90.5976 41.1146 91.5162C39.9428 92.4348 38.4244 92.8941 36.5608 92.8941C34.9902 92.8941 33.6154 92.5556 32.4363 91.8801C31.2573 91.2046 30.4741 90.1503 30.0869 88.7187Z" fill="#D07871"/>
<path fill-rule="evenodd" clip-rule="evenodd" d="M54.6004 92.6436H57.6518L52.338 76.3594H48.8226L43.5669 92.6436H46.0033L47.2447 88.7664H53.3358L54.6004 92.6436ZM50.2613 79.151L52.5701 86.4162H47.9525L50.2613 79.151Z" fill="#D07871"/>
<path fill-rule="evenodd" clip-rule="evenodd" d="M72.0037 92.6436H68.8131L65.4717 84.3524L62.4088 88.5278V92.6436H59.5547V76.3594H62.4088V84.9131C62.7728 84.333 63.0353 83.9303 63.1977 83.7082L68.4534 76.3594H71.3423L67.5833 81.7159L72.0037 92.6436Z" fill="#D07871"/>
<path fill-rule="evenodd" clip-rule="evenodd" d="M85.0095 76.3594V86.8218C85.0095 88.237 84.8543 89.3271 84.5454 90.0906C84.2365 90.8541 83.639 91.5118 82.7529 92.065C81.8668 92.6182 80.7863 92.8941 79.5101 92.8941C78.2179 92.8941 77.1564 92.6555 76.3254 92.1783C75.4944 91.7011 74.8969 91.0465 74.5328 90.2159C74.1688 89.3853 73.9875 88.325 73.9875 87.0366V76.3594H76.8997V86.8218C76.8997 88.2534 77.1912 89.1944 77.7756 89.6432C78.3601 90.0921 79.0388 90.3173 79.8118 90.3173C80.7008 90.3173 81.4128 90.0772 81.9465 89.5955C82.4802 89.1139 82.7471 88.1893 82.7471 86.8218V76.3594H85.0095V76.3594Z" fill="#D07871"/>
<path fill-rule="evenodd" clip-rule="evenodd" d="M97.5961 92.6436H100.613L97.8397 85.4499C99.7425 84.6625 100.694 83.2235 100.694 81.1313C100.694 79.7236 100.246 78.5768 99.348 77.6896C98.4503 76.8023 97.0464 76.3594 95.1365 76.3594H88.2681V92.6436H91.1222V85.951H95.1365L97.5961 92.6436ZM94.6738 83.6008H91.1236V78.6976H94.9059C95.7949 78.6976 96.4881 78.9183 96.9826 79.3597C97.4772 79.8011 97.7252 80.3797 97.7252 81.0955C97.7252 81.8754 97.4743 82.4868 96.971 82.9327C96.4678 83.3786 95.7021 83.6008 94.6738 83.6008Z" fill="#D07871"/>
<path fill-rule="evenodd" clip-rule="evenodd" d="M112.911 92.6436H115.962L110.649 76.3594H107.133L101.877 92.6436H104.314L105.555 88.7664H111.646L112.911 92.6436ZM108.572 79.151L110.881 86.4162H106.263L108.572 79.151Z" fill="#D07871"/>
<path fill-rule="evenodd" clip-rule="evenodd" d="M0 110.77H1.74783V106.983H4.16957C5.07826 106.983 5.82899 106.711 6.42174 106.17C7.01449 105.629 7.31014 104.921 7.31014 104.049C7.31014 103.283 7.03623 102.619 6.48986 102.056C5.94203 101.493 5.1029 101.211 3.97101 101.211H0V110.77ZM3.81594 105.504H1.74783V102.64H3.65942C4.34638 102.64 4.82174 102.78 5.08406 103.06C5.34638 103.34 5.47826 103.676 5.47826 104.069C5.47826 104.501 5.33623 104.85 5.05217 105.111C4.76812 105.373 4.35652 105.504 3.81594 105.504Z" fill="#757577"/>
<path fill-rule="evenodd" clip-rule="evenodd" d="M14.4289 110.77H16.2767L14.5782 106.549C15.7434 106.086 16.326 105.24 16.326 104.013C16.326 103.187 16.0506 102.513 15.5013 101.993C14.9521 101.471 14.0926 101.211 12.9231 101.211H8.71729V110.77H10.4651V106.841H12.9231L14.4289 110.77ZM12.639 105.461H10.4651V102.583H12.7825C13.326 102.583 13.7506 102.713 14.0535 102.971C14.3564 103.23 14.5086 103.57 14.5086 103.99C14.5086 104.447 14.3535 104.807 14.0463 105.069C13.7376 105.331 13.2695 105.461 12.639 105.461Z" fill="#757577"/>
<path fill-rule="evenodd" clip-rule="evenodd" d="M18.5043 109.489C19.2217 110.441 20.2246 110.917 21.513 110.917C22.7681 110.917 23.7753 110.463 24.5333 109.554C25.2942 108.646 25.6739 107.454 25.6739 105.979C25.6739 104.574 25.3086 103.403 24.5768 102.467C23.8449 101.531 22.8492 101.063 21.5898 101.063C20.3405 101.063 19.3333 101.531 18.571 102.467C17.8086 103.404 17.4275 104.567 17.4275 105.959C17.4275 107.36 17.7869 108.536 18.5043 109.489ZM23.1246 108.76C22.6884 109.273 22.1565 109.53 21.526 109.53C20.8159 109.53 20.2695 109.233 19.8884 108.639C19.5058 108.043 19.3159 107.169 19.3159 106.016C19.3159 103.64 20.0637 102.451 21.5608 102.451C22.3188 102.451 22.8782 102.763 23.2376 103.386C23.5985 104.009 23.7782 104.869 23.7782 105.966C23.7782 107.316 23.5608 108.247 23.1246 108.76Z" fill="#757577"/>
<path fill-rule="evenodd" clip-rule="evenodd" d="M30.6696 101.211V107.809C30.6696 108.906 30.4291 109.699 29.9479 110.186C29.4667 110.674 28.7015 110.917 27.6494 110.917C27.0436 110.917 26.5711 110.869 26.2349 110.77V109.383C26.7653 109.42 27.1392 109.439 27.3581 109.439C27.9407 109.439 28.3392 109.331 28.5523 109.116C28.7653 108.901 28.8725 108.464 28.8725 107.806V101.209H30.6696V101.211Z" fill="#757577"/>
<path fill-rule="evenodd" clip-rule="evenodd" d="M39.0102 110.77H32.7087V101.211H38.9464V102.633H34.4566V105.224H38.0653V106.611H34.4566V109.286H39.0102V110.77Z" fill="#757577"/>
<path fill-rule="evenodd" clip-rule="evenodd" d="M45.9377 107.451L47.558 107.627C47.4537 108.584 47.0783 109.371 46.4319 109.99C45.7856 110.609 44.9363 110.919 43.8856 110.919C43.0001 110.919 42.2812 110.699 41.729 110.26C41.1769 109.821 40.7522 109.226 40.4537 108.474C40.1551 107.723 40.0059 106.894 40.0059 105.989C40.0059 104.531 40.3566 103.347 41.0566 102.434C41.758 101.521 42.7218 101.066 43.9479 101.066C44.9088 101.066 45.7102 101.357 46.3493 101.941C46.9885 102.526 47.3914 103.361 47.5566 104.449L45.9363 104.617C45.6377 103.174 44.9798 102.453 43.9609 102.453C43.3073 102.453 42.7986 102.753 42.4363 103.353C42.074 103.953 41.8928 104.823 41.8928 105.961C41.8928 107.12 42.087 107.993 42.4754 108.584C42.8638 109.174 43.3783 109.47 44.0175 109.47C44.529 109.47 44.9653 109.271 45.3247 108.874C45.687 108.476 45.8899 108.001 45.9377 107.451Z" fill="#757577"/>
<path fill-rule="evenodd" clip-rule="evenodd" d="M52.3318 110.77H50.4564V102.689H47.8782V101.211H54.9115V102.689H52.3332V110.77H52.3318Z" fill="#757577"/>
<path fill-rule="evenodd" clip-rule="evenodd" d="M69.1261 110.77H67.3435V102.401L64.658 110.77H63.742L61.042 102.401V110.77H59.6145V101.211H62.3493L64.3812 107.367L66.3768 101.211H69.1261V110.77Z" fill="#757577"/>
<path fill-rule="evenodd" clip-rule="evenodd" d="M77.0058 110.77H78.8739L75.6203 101.211H73.4681L70.2493 110.77H71.7406L72.5014 108.494H76.2319L77.0058 110.77ZM74.3478 102.85L75.7623 107.114H72.9348L74.3478 102.85Z" fill="#757577"/>
<path fill-rule="evenodd" clip-rule="evenodd" d="M87.3637 110.77H85.6651L81.9854 104.663C81.9289 104.57 81.8362 104.417 81.7086 104.207C81.6521 104.114 81.5637 103.967 81.4463 103.766V110.769H80.0391V101.21H81.9709L85.3666 106.84C85.3956 106.887 85.6014 107.23 85.984 107.87V101.21H87.3623V110.77H87.3637Z" fill="#757577"/>
<path fill-rule="evenodd" clip-rule="evenodd" d="M95.2363 110.77H97.1044L93.8508 101.211H91.6986L88.4797 110.77H89.971L90.7319 108.494H94.4623L95.2363 110.77ZM92.5783 102.85L93.9928 107.114H91.1652L92.5783 102.85Z" fill="#757577"/>
<path fill-rule="evenodd" clip-rule="evenodd" d="M105.296 105.881V110.77H104.522L103.988 109.481C103.425 110.439 102.551 110.917 101.367 110.917C100.045 110.917 99.0594 110.423 98.4072 109.433C97.7565 108.443 97.4304 107.297 97.4304 105.994C97.4304 104.617 97.7942 103.451 98.5203 102.496C99.2478 101.541 100.264 101.063 101.571 101.063C102.546 101.063 103.349 101.341 103.98 101.9C104.61 102.459 105.007 103.153 105.174 103.983L103.654 104.249C103.37 103.081 102.69 102.499 101.614 102.499C100.928 102.499 100.368 102.774 99.9348 103.324C99.5014 103.876 99.284 104.723 99.284 105.866C99.284 108.28 100.051 109.486 101.585 109.486C102.183 109.486 102.675 109.283 103.067 108.877C103.458 108.471 103.652 107.934 103.652 107.266H101.649V105.879H105.296V105.881Z" fill="#757577"/>
<path fill-rule="evenodd" clip-rule="evenodd" d="M113.58 110.77H107.278V101.211H113.516V102.633H109.026V105.224H112.635V106.611H109.026V109.286H113.58V110.77Z" fill="#757577"/>
<path fill-rule="evenodd" clip-rule="evenodd" d="M124.599 110.77H122.816V102.401L120.13 110.77H119.214L116.514 102.401V110.77H115.087V101.211H117.822L119.854 107.367L121.849 101.211H124.599V110.77Z" fill="#757577"/>
<path fill-rule="evenodd" clip-rule="evenodd" d="M133.038 110.77H126.736V101.211H132.974V102.633H128.484V105.224H132.093V106.611H128.484V109.286H133.038V110.77Z" fill="#757577"/>
<path fill-rule="evenodd" clip-rule="evenodd" d="M141.87 110.77H140.171L136.491 104.663C136.435 104.57 136.342 104.417 136.214 104.207C136.158 104.114 136.07 103.967 135.952 103.766V110.769H134.545V101.21H136.477L139.872 106.84C139.901 106.887 140.107 107.23 140.49 107.87V101.21H141.868V110.77H141.87Z" fill="#757577"/>
<path fill-rule="evenodd" clip-rule="evenodd" d="M147.39 110.77H145.515V102.689H142.936V101.211H149.97V102.689H147.391V110.77H147.39Z" fill="#757577"/>
</svg>
