<svg width="150" height="132" viewBox="0 0 150 132" fill="none" xmlns="http://www.w3.org/2000/svg">
<path fill-rule="evenodd" clip-rule="evenodd" d="M50.2868 128.722L52.7666 128.728L52.7601 130.237C52.0647 130.645 51.2578 130.857 50.4377 130.839C48.7976 130.864 47.4462 129.617 47.4134 128.058C47.3806 126.486 48.6861 125.184 50.3262 125.152C51.3299 125.165 52.3009 125.528 53.0422 126.179L53.9869 125.378C52.97 124.526 51.6711 124.038 50.3196 124C50.2278 124 50.1294 124 50.0375 124C47.7217 124.081 45.9176 125.941 46.0029 128.146C46.0882 130.356 48.0366 132.079 50.3459 131.997C51.6514 131.985 52.9175 131.59 53.9869 130.883L54 127.582L50.2868 127.57V128.722Z" fill="#C29552"/>
<path fill-rule="evenodd" clip-rule="evenodd" d="M65.2994 124.868C65.6838 125.305 65.8946 125.874 65.8884 126.47C65.8574 127.53 65.1878 128.45 64.2329 128.748L66 132L64.5244 131.993L62.9371 128.927L60.2896 128.914L60.2772 131.974L59 131.967L59.031 124L63.1417 124.02C63.9415 123.954 64.729 124.265 65.2994 124.868ZM60.2958 127.689L63.3587 127.702C64.0221 127.722 64.574 127.172 64.605 126.464C64.605 126.166 64.4934 125.881 64.3012 125.669C63.9911 125.351 63.5633 125.192 63.1355 125.238L60.302 125.225L60.2958 127.689Z" fill="#C29552"/>
<path fill-rule="evenodd" clip-rule="evenodd" d="M71.0002 127.966C71.0878 125.699 72.9839 123.927 75.2492 124.002C77.4582 124.14 79.1353 126.037 78.9914 128.241C78.86 130.445 76.9576 132.13 74.7548 131.992C72.6334 131.867 70.9814 130.095 71.0002 127.966ZM75.1679 130.846H75.2242C76.7949 130.884 78.1028 129.644 78.1341 128.079C78.1779 126.507 76.9388 125.205 75.3681 125.161H75.243C73.6722 125.142 72.3831 126.394 72.3644 127.966C72.3456 129.538 73.5972 130.827 75.1679 130.846Z" fill="#C29552"/>
<path fill-rule="evenodd" clip-rule="evenodd" d="M89.6262 129.018C89.6196 130.184 88.6776 130.815 87.4738 130.815C86.2832 130.808 85.3411 130.164 85.3477 129.005L85.3673 124.006L84.0196 124L84 128.998C83.9935 130.911 85.4851 131.994 87.4738 132C89.4757 132.006 90.9738 130.931 90.9804 129.024L91 124.026L89.6523 124.019L89.6262 129.018Z" fill="#C29552"/>
<path fill-rule="evenodd" clip-rule="evenodd" d="M96.0315 124L100.209 124.02C101.022 123.953 101.822 124.266 102.401 124.877C102.792 125.316 103.006 125.887 103 126.485C102.994 127.136 102.742 127.754 102.294 128.206C101.715 128.738 100.958 129.003 100.19 128.944L97.3105 128.93L97.2979 132L96 131.993L96.0315 124ZM100.19 127.714C100.612 127.754 101.022 127.615 101.343 127.329C101.563 127.11 101.689 126.804 101.689 126.485C101.696 126.179 101.582 125.894 101.381 125.674C101.059 125.355 100.631 125.203 100.196 125.243L97.3168 125.229L97.3105 127.701L100.19 127.714Z" fill="#C29552"/>
<path fill-rule="evenodd" clip-rule="evenodd" d="M0.0136003 88.1854L0 90.8255L6.61655 90.8525L6.54855 107.98L11.2951 108L11.3631 90.8727L16.7828 90.8929C17.4424 90.8929 17.9864 90.3675 17.9864 89.7075L18 87.0674L1.21723 87C0.550812 87 0.0136003 87.5253 0.0136003 88.1854Z" fill="#C29552"/>
<path fill-rule="evenodd" clip-rule="evenodd" d="M40.8383 87.0605L37.3993 87.0471L37.3663 95.4793L28.6535 95.4457L28.6799 88.2037C28.6799 87.5514 28.165 87.0134 27.5182 87.0134L24.0792 87L24 107.926L28.6073 107.946L28.6403 99.2786L37.3531 99.3122L37.3201 107.98L41.9274 108L42 88.2642C42 87.5985 41.4785 87.0605 40.8383 87.0605Z" fill="#C29552"/>
<path fill-rule="evenodd" clip-rule="evenodd" d="M64.8039 90.6738C65.4557 90.6738 65.9933 90.149 65.9933 89.4896L66 87.0606L50.0806 87L50 107.939L65.9194 108L65.9261 105.571C65.9261 104.918 65.4019 104.38 64.7434 104.38L54.6972 104.34L54.7173 98.9567L65.2339 98.9971L65.2474 95.4982L54.7308 95.4579L54.7509 90.6402L64.8039 90.6738Z" fill="#C29552"/>
<path fill-rule="evenodd" clip-rule="evenodd" d="M99.5144 87.5647L93.5098 96.2161L87.5703 87.5176C87.3552 87.2017 87.0096 87.0134 86.6315 87.0134L83.0782 87L83 107.919L87.3747 107.94L87.4269 94.0448L93.249 102.253H93.7119L99.5992 94.0851L99.547 107.98L103.922 108L104 87.0807L100.447 87.0672C100.082 87.0672 99.7296 87.2554 99.5144 87.5647Z" fill="#C29552"/>
<path fill-rule="evenodd" clip-rule="evenodd" d="M118.157 87L122.2 87.0135C122.674 87.0135 123.089 87.3096 123.258 87.7673L131 108L126.269 107.98L124.699 103.517L116.334 103.484L114.731 107.933L110 107.913L118.157 87ZM120.565 91.7048L117.593 99.95L123.479 99.9769L120.565 91.7048Z" fill="#C29552"/>
<path fill-rule="evenodd" clip-rule="evenodd" d="M148.83 87.0132L145.355 87L145.301 100.049C145.301 100.438 145.281 100.865 145.254 101.319C145.227 101.754 145.14 102.181 144.992 102.589C144.857 102.965 144.635 103.3 144.333 103.57C143.977 103.853 143.533 103.991 143.076 103.958C142.565 103.958 142.068 103.767 141.691 103.425C141.301 103.096 141.046 102.635 140.992 102.135L137.913 102.859C137.866 102.872 137.812 102.886 137.765 102.905C137.147 103.136 136.844 103.813 137.08 104.412C137.436 105.38 138.081 106.215 138.942 106.808C140.199 107.624 141.678 108.038 143.177 107.992C144.373 108.045 145.563 107.834 146.659 107.374C147.486 107.012 148.191 106.439 148.709 105.715C149.2 104.998 149.536 104.189 149.691 103.333C149.865 102.418 149.953 101.49 149.953 100.556L150 88.1713C150.013 87.533 149.482 87.0132 148.83 87.0132Z" fill="#C29552"/>
<path fill-rule="evenodd" clip-rule="evenodd" d="M56.8018 50.9343C56.3549 50.9343 56 50.5727 56 50.1256L56.0723 33.802C56.0789 33.355 56.4337 33 56.8806 33L66.6725 33.0394C67.1194 33.046 67.4743 33.401 67.4743 33.8481L67.4348 43.6435C67.4283 44.0906 67.0734 44.4456 66.6265 44.4456L63.3604 44.4324C62.9135 44.4259 62.5586 44.0709 62.5586 43.6238L62.5783 37.8977L60.9222 37.8912L60.8894 46.076L69.0778 46.1088L69.1238 33.8481C69.1303 33.401 69.4852 33.046 69.9321 33.046L73.1982 33.0592C73.6451 33.0657 74 33.4207 74 33.8678L73.9343 50.198C73.9277 50.645 73.5728 51 73.126 51L56.8018 50.9343ZM65.851 34.6435L57.6627 34.6107L57.5969 49.3236L72.3111 49.3828L72.3702 34.6633L70.7141 34.6567L70.6681 46.9175C70.6616 47.3645 70.3067 47.7195 69.8598 47.7195L60.0679 47.6801C59.621 47.6735 59.2662 47.3185 59.2662 46.8714L59.3056 37.076C59.3122 36.6289 59.667 36.2739 60.1139 36.2739L63.3801 36.2871C63.8269 36.2936 64.1818 36.6486 64.1818 37.0957L64.1621 42.8218L65.8182 42.8283L65.851 34.6435Z" fill="#C29552"/>
<path fill-rule="evenodd" clip-rule="evenodd" d="M69.8598 30.9869C69.4129 30.9803 69.0581 30.6254 69.0581 30.1785L69.1106 17.9222L60.9222 17.8894L60.8894 26.0778L62.5455 26.0843L62.5652 20.3604C62.5717 19.9135 62.9266 19.5586 63.3735 19.5586L66.6396 19.5717C67.0865 19.5783 67.4414 19.9332 67.4414 20.3801L67.402 30.172C67.3954 30.6188 67.0405 30.9737 66.5936 30.9737L56.8018 30.9343C56.3549 30.9277 56 30.5728 56 30.126L56.0657 13.8018C56.0723 13.3549 56.4272 13 56.874 13L73.1982 13.0657C73.6451 13.0723 74 13.4272 74 13.874L73.9343 30.1982C73.9277 30.6451 73.5728 31 73.126 31L69.8598 30.9869ZM59.3122 17.0811C59.3122 16.6342 59.6736 16.2793 60.1205 16.2793L69.9058 16.3122C70.3527 16.3187 70.7076 16.6736 70.7076 17.1205L70.6616 29.3768L72.3176 29.3834L72.3768 14.6692L57.6627 14.6101L57.6035 29.3242L65.7919 29.3571L65.8248 21.1752L64.1687 21.1687L64.149 26.8927C64.1424 27.3395 63.7875 27.6944 63.3406 27.6944L60.0745 27.6813C59.6276 27.6747 59.2727 27.3198 59.2727 26.8729L59.3122 17.0811Z" fill="#C29552"/>
<path fill-rule="evenodd" clip-rule="evenodd" d="M86.6396 19.5717C87.0865 19.5783 87.4414 19.9332 87.4414 20.3801L87.4217 26.1041L89.0778 26.1106L89.1106 17.9222L80.9222 17.8894L80.8762 30.1457C80.8697 30.5926 80.5148 30.9474 80.0679 30.9474L76.8018 30.9343C76.3549 30.9277 76 30.5728 76 30.126L76.0657 13.8018C76.0723 13.3549 76.4272 13 76.874 13L93.1982 13.0657C93.6451 13.0723 94 13.4272 94 13.874L93.9343 30.1982C93.9277 30.6451 93.5728 31 93.126 31L83.3341 30.9606C82.8872 30.954 82.5323 30.5991 82.5323 30.1522L82.5652 20.3604C82.5717 19.9135 82.9266 19.5586 83.3735 19.5586L86.6396 19.5717ZM90.6813 26.9189C90.6813 27.3658 90.3198 27.7207 89.8729 27.7207L86.6199 27.7141C86.1731 27.7076 85.8182 27.3527 85.8182 26.9058L85.8379 21.1818L84.1818 21.1752L84.149 29.3571L92.3308 29.3899L92.3899 14.6758L77.6758 14.6166L77.6166 29.3308L79.2727 29.3373L79.3187 17.0811C79.3253 16.6342 79.6802 16.2793 80.1271 16.2793L89.9189 16.3187C90.3658 16.3253 90.7207 16.6802 90.7207 17.1271L90.6813 26.9189Z" fill="#C29552"/>
<path fill-rule="evenodd" clip-rule="evenodd" d="M76.8018 50.9343C76.3549 50.9343 76 50.573 76 50.1263L76.0591 33.8015C76.0657 33.3547 76.4206 33 76.8675 33L80.1336 33.0131C80.5805 33.0197 80.9354 33.3745 80.9354 33.8212L80.8894 46.073L89.0778 46.1058L89.1106 37.927L87.4545 37.9204L87.4348 43.6423C87.4283 44.0891 87.0734 44.4438 86.6265 44.4438L83.3604 44.4307C82.9135 44.4241 82.5586 44.0693 82.5586 43.6226L82.598 33.8343C82.6046 33.3876 82.9595 33.0328 83.4064 33.0328L93.1982 33.0723C93.6451 33.0788 94 33.4336 94 33.8803L93.9343 50.1985C93.9277 50.6453 93.5728 51 93.126 51L76.8018 50.9343ZM79.3253 34.6226L77.6692 34.6161L77.6101 49.3248L92.3242 49.3839L92.3834 34.6752L84.2015 34.6423L84.1687 42.8277L85.8248 42.8343L85.8445 37.1124C85.851 36.6657 86.2059 36.3109 86.6528 36.3109L89.9189 36.3241C90.3658 36.3307 90.7207 36.6854 90.7207 37.1321L90.6813 46.9204C90.6747 47.3672 90.3198 47.7219 89.8729 47.7219L80.0811 47.6825C79.6342 47.6759 79.2793 47.3212 79.2793 46.8745L79.3253 34.6226Z" fill="#C29552"/>
<path fill-rule="evenodd" clip-rule="evenodd" d="M76.1933 7.807C76.1999 7.3572 76.5599 7 77.0131 7L100.187 7.09261C100.64 7.09922 101 7.45642 101 7.90623L100.807 57.193C100.8 57.6428 100.44 58 99.9869 58L76.8131 57.914C76.3599 57.9074 76 57.5502 76 57.1004L76.0133 53.8128C76.02 53.363 76.3799 53.0058 76.8331 53.0058L95.8814 53.0786L96.0413 11.9809L76.9931 11.9082C76.5399 11.9016 76.18 11.5444 76.18 11.0946L76.1933 7.807ZM99.3671 8.70661L77.8262 8.62724V10.2942L96.8744 10.3669C97.3276 10.3735 97.6875 10.7307 97.6875 11.1805L97.5209 53.8922C97.5143 54.342 97.1544 54.6992 96.7011 54.6992L77.6529 54.6265L77.6462 56.2934L99.1871 56.3728L99.3671 8.70661Z" fill="#C29552"/>
<path fill-rule="evenodd" clip-rule="evenodd" d="M72.9869 58L49.8131 57.914C49.3666 57.9074 49 57.5435 49 57.1003L49.1933 7.80711C49.1999 7.35724 49.5599 7 50.0131 7L73.1869 7.07939C73.6401 7.086 74 7.44325 74 7.89311L73.9867 11.1811C73.98 11.631 73.6201 11.9882 73.1669 11.9882L54.1186 11.9154L53.9587 53.0184L73.0069 53.0912C73.4601 53.0978 73.82 53.4551 73.82 53.9049L73.8067 57.1929C73.8001 57.6428 73.4401 58 72.9869 58ZM72.3604 8.70022L50.8195 8.62083L50.6396 56.2998L72.1805 56.3792L72.1871 54.712L53.1389 54.6393C52.6857 54.6326 52.3258 54.2754 52.3258 53.8255L52.4857 11.1017C52.4924 10.6518 52.8523 10.2946 53.3055 10.2946L72.3538 10.3674L72.3604 8.70022Z" fill="#C29552"/>
<path fill-rule="evenodd" clip-rule="evenodd" d="M46.9278 48C47.4449 48 47.8631 47.6448 47.8631 47.1975L48 16.809C48 16.3618 47.5894 16 47.0722 16C46.5551 16 46.1369 16.3552 46.1369 16.8025L46 47.191C46 47.6382 46.4106 48 46.9278 48Z" fill="#C29552"/>
<path fill-rule="evenodd" clip-rule="evenodd" d="M44.0279 26C43.4861 26 43.0478 26.3594 43.0478 26.812L43 37.1814C43 37.6339 43.4303 37.9933 43.9721 38C44.5139 38 44.9442 37.6406 44.9522 37.188L45 26.8186C45 26.3661 44.5697 26 44.0279 26Z" fill="#C29552"/>
<path fill-rule="evenodd" clip-rule="evenodd" d="M59.8026 4.86312L90.1973 5C90.6381 5 90.9933 4.58935 90.9999 4.07985C91.0065 3.56274 90.6512 3.14449 90.2039 3.13688L59.8092 3C59.3618 3 59 3.41065 59 3.92776C59 4.44487 59.3618 4.86312 59.8026 4.86312Z" fill="#C29552"/>
<path fill-rule="evenodd" clip-rule="evenodd" d="M69.8058 1.95219L80.1809 2C80.6337 2 81 1.56972 81 1.02789C81 0.486056 80.6404 0.0478088 80.1876 0.0478088L69.8124 0C69.3663 0 69.0067 0.430279 69 0.964143C69 1.49801 69.3596 1.94422 69.8058 1.95219Z" fill="#C29552"/>
<path fill-rule="evenodd" clip-rule="evenodd" d="M90.1973 61C90.6381 61 90.9933 60.5894 90.9999 60.0798C91.0065 59.5627 90.6512 59.1445 90.2039 59.1369L59.8092 59C59.3618 59 59 59.4106 59 59.9278C59 60.4449 59.3553 60.8631 59.8026 60.8631L90.1973 61Z" fill="#C29552"/>
<path fill-rule="evenodd" clip-rule="evenodd" d="M80.1885 63.0478L69.8248 63C69.8182 63 69.8182 63 69.8115 63C69.3592 63 69 63.4382 69 63.9801C69 64.5219 69.3659 64.9522 69.8182 64.9522L80.1818 65C80.6341 65 81 64.5697 81 64.0279C81 63.4861 80.6341 63.0478 80.1885 63.0478Z" fill="#C29552"/>
<path fill-rule="evenodd" clip-rule="evenodd" d="M103.08 16.0001C102.563 15.9935 102.144 16.3488 102.137 16.7961L102 47.1908C102 47.6382 102.411 47.9934 102.928 48C103.445 48 103.856 47.6447 103.863 47.1974L104 16.8027C104 16.3619 103.589 16.0067 103.08 16.0001Z" fill="#C29552"/>
<path fill-rule="evenodd" clip-rule="evenodd" d="M106.036 26.0001C105.494 25.9934 105.056 26.353 105.048 26.8059L105 37.1809C105 37.6337 105.43 37.9933 105.972 38C106.514 38 106.944 37.6404 106.952 37.1876L107 26.8125C106.992 26.3663 106.562 26.0068 106.036 26.0001Z" fill="#C29552"/>
</svg>
