<svg width="59" height="59" viewBox="0 0 59 59" fill="none" xmlns="http://www.w3.org/2000/svg">
<path fill-rule="evenodd" clip-rule="evenodd" d="M2.24716 40.7913C6.81416 51.8149 17.5723 59.0016 29.5045 59C45.7861 58.98 58.98 45.7861 59 29.5045C59.0016 17.5723 51.8149 6.81416 40.7913 2.24716C29.7677 -2.31985 17.0784 0.203749 8.64109 8.64109C0.203749 17.0784 -2.31985 29.7677 2.24716 40.7913ZM0.311681 29.5045C0.311681 13.3817 13.3817 0.311681 29.5045 0.311681C45.6198 0.329478 58.6795 13.3891 58.6973 29.5045C58.6973 45.6272 45.6272 58.6973 29.5045 58.6973C13.3817 58.6973 0.311681 45.6272 0.311681 29.5045Z" fill="#BC8B35"/>
<path fill-rule="evenodd" clip-rule="evenodd" d="M9.63798 37.7298C12.9668 45.764 20.8079 51.0017 29.5044 51C41.3695 50.9842 50.9842 41.3695 51 29.5044C51.0017 20.8079 45.764 12.9668 37.7298 9.63798C29.6955 6.30918 20.4471 8.14835 14.2977 14.2977C8.14835 20.4471 6.30918 29.6955 9.63798 37.7298ZM9.92619 21.3932C13.207 13.4759 20.9342 8.3146 29.5044 8.31626C41.2 8.32981 50.6772 17.8088 50.6885 29.5044C50.6885 38.0746 45.5257 45.8008 37.6077 49.0801C29.6897 52.3594 20.576 50.5459 14.5166 44.4853C8.45713 38.4246 6.64537 29.3106 9.92619 21.3932Z" fill="#BC8B35"/>
<path fill-rule="evenodd" clip-rule="evenodd" d="M5.53613 23.6277C6.56167 23.8426 7.01087 23.9094 7.16767 23.8241C7.32446 23.7389 7.39227 23.6017 7.52787 23.1236C7.60839 22.8011 7.68043 22.5305 7.52787 22.3452C7.42862 22.2379 7.30049 22.1539 7.15495 22.1006C7.09986 22.082 7.06596 22.0635 7.07867 22.0264C7.09139 21.9894 7.11681 21.9931 7.19309 22.0264C7.42308 22.0884 7.64699 22.1665 7.86266 22.2599C8.01521 22.3415 8.0364 22.3637 7.94741 22.6825C7.83299 23.1236 7.73129 23.4238 7.65077 23.6944C7.57025 23.965 7.51092 24.1318 7.46431 24.3097C7.46431 24.3356 7.43464 24.4394 7.40074 24.5617C7.36684 24.684 7.34565 24.8212 7.32022 24.9101C7.2948 24.9991 7.28208 25.0028 7.23971 24.9991C7.19733 24.9954 7.20157 24.9769 7.21428 24.9398C7.22076 24.8769 7.22076 24.8136 7.21428 24.7508C7.21428 24.621 7.07444 24.5617 6.87526 24.495C6.59133 24.406 6.02771 24.2911 5.37086 24.1503L4.14615 23.8982C3.05705 23.6721 2.87483 23.6314 2.63752 23.5943C2.4002 23.5572 2.27307 23.5943 2.16713 23.7759C2.13665 23.8424 2.11117 23.9105 2.09085 23.9798C2.09085 24.0057 2.06118 24.028 2.03576 24.0206C2.01033 24.0131 1.98914 23.9761 2.00609 23.9094C2.08237 23.6351 2.20527 23.257 2.21374 23.2236C2.22222 23.1903 2.32392 22.7492 2.37478 22.5639C2.37478 22.4935 2.41292 22.4712 2.45529 22.4749C2.49767 22.4786 2.48919 22.5083 2.48496 22.5342C2.46468 22.6021 2.4533 22.6717 2.45106 22.7418C2.45106 22.9234 2.54429 22.9975 2.7816 23.0606C3.01891 23.1236 3.20537 23.1606 4.286 23.383L5.52766 23.6425" fill="#BC8B35"/>
<path fill-rule="evenodd" clip-rule="evenodd" d="M6.02368 16.9733C5.08893 16.4224 4.92349 16.3212 4.72082 16.2199C4.51815 16.1187 4.3858 16.1025 4.22863 16.2726C4.17389 16.3296 4.12538 16.392 4.08387 16.4589C4.08387 16.4832 4.04664 16.4994 4.02182 16.4832C3.99701 16.467 3.98874 16.4265 4.02182 16.3657C4.10868 16.228 4.20381 16.0701 4.2948 15.9607L4.45198 15.7258C4.47679 15.6853 5.19233 14.5108 5.27919 14.3812C5.32813 14.2942 5.36963 14.2035 5.40327 14.1098C5.40327 14.0774 5.40327 14.041 5.42395 14.0126C5.44463 13.9842 5.46118 14.0126 5.49426 14.0126C5.52735 14.0126 5.58939 14.1058 5.74656 14.2232C5.80033 14.2637 6.05677 14.4338 6.12295 14.4865C6.18912 14.5391 6.17672 14.5432 6.16431 14.5675C6.1519 14.5918 6.1064 14.5958 6.05677 14.5675C5.98652 14.5256 5.90964 14.4955 5.82929 14.4784C5.71348 14.4784 5.6018 14.4784 5.37432 14.7781C5.29987 14.8712 4.90281 15.5031 4.85731 15.5881C4.81181 15.6732 4.85731 15.6327 4.89867 15.657L6.5531 16.633C6.59446 16.6573 6.61514 16.6614 6.63168 16.633C6.64823 16.6047 7.12388 15.823 7.19419 15.6894C7.2645 15.5557 7.31 15.4504 7.28105 15.3654C7.25209 15.2803 7.24382 15.256 7.28105 15.2317C7.31827 15.2074 7.31 15.2317 7.34309 15.2317C7.37618 15.2317 7.46303 15.3411 7.65329 15.4747C7.76083 15.5557 7.97591 15.7015 8.0214 15.7258C8.0669 15.7501 8.13308 15.7947 8.10826 15.8352C8.08344 15.8757 8.05863 15.8595 8.02968 15.8352C7.96437 15.7916 7.89148 15.76 7.8146 15.742C7.71947 15.7177 7.58298 15.7096 7.40099 15.9202C7.21901 16.1308 6.92121 16.6452 6.85917 16.7303C6.84865 16.7387 6.84255 16.7513 6.84255 16.7647C6.84255 16.778 6.84865 16.7906 6.85917 16.7991L7.38858 17.1069C7.59539 17.2284 8.28198 17.6415 8.41433 17.7104C8.82794 17.9372 8.96856 17.8967 9.32013 17.3054C9.44671 17.122 9.54172 16.9195 9.60138 16.706C9.63033 16.5115 9.55175 16.3698 9.33254 16.1835C9.27463 16.1349 9.25809 16.1106 9.27463 16.0782C9.29118 16.0458 9.34495 16.0782 9.38631 16.0984C9.42767 16.1187 9.79991 16.4143 9.91986 16.5034C10.0398 16.5925 10.0233 16.6857 9.88263 16.9085C9.61379 17.3499 9.40285 17.6658 9.25809 17.8886C9.11333 18.1114 9.00992 18.2491 8.95615 18.3382C8.95615 18.3382 8.88998 18.4435 8.81553 18.5731C8.74108 18.7027 8.6749 18.8323 8.62113 18.9214C8.56736 19.0105 8.55082 19.0105 8.5136 18.9862C8.47637 18.9619 8.48464 18.9538 8.5136 18.9173C8.54784 18.8569 8.57556 18.7931 8.59632 18.727C8.64181 18.5974 8.53014 18.488 8.37297 18.3625C8.13721 18.1883 7.6657 17.9048 7.08665 17.5524L6.03609 16.9328" fill="#BC8B35"/>
<path fill-rule="evenodd" clip-rule="evenodd" d="M15.3813 7.0711C14.4516 5.72352 13.072 5.68829 11.9473 6.7364H11.9361C11.4169 7.21831 11.0846 7.92538 11.014 8.6983C10.9435 9.47122 11.1407 10.245 11.5612 10.8452C12.281 11.8889 13.6868 12.5891 15.0401 11.3076C15.5811 10.8127 15.9244 10.0777 15.9889 9.27582C16.0535 8.47397 15.8337 7.67633 15.3813 7.0711ZM15.0026 7.68763C16.1573 9.3699 15.4488 10.5457 15.0026 10.9597H15.0064C14.1217 11.8052 12.8321 11.5894 11.9061 10.2375C11.0326 8.97355 11.2501 7.70965 12.0336 6.96981C12.8171 6.22996 14.0467 6.29602 15.0026 7.68763Z" fill="#BC8B35"/>
<path fill-rule="evenodd" clip-rule="evenodd" d="M19.2966 4.59674C18.9195 3.50682 18.853 3.30985 18.7598 3.09099C18.6666 2.87213 18.569 2.7627 18.3161 2.79334C18.2316 2.8065 18.1485 2.82701 18.0677 2.85462C18.0411 2.85462 18.0056 2.85462 18.0011 2.82836C17.9967 2.80209 18.0011 2.7627 18.0943 2.73644C18.4093 2.62701 18.8441 2.50445 18.9018 2.48694C19.057 2.43441 19.4608 2.27246 19.7891 2.16303C20.6764 1.86538 21.0979 2.0536 21.2443 2.11925C21.5444 2.26918 21.7758 2.52567 21.892 2.83711C22.0611 3.28812 22.0305 3.78842 21.8079 4.21616C21.5852 4.64389 21.1908 4.95982 20.7208 5.08698C20.6716 5.105 20.6212 5.11962 20.5699 5.13076C20.5344 5.13076 20.4856 5.13076 20.4768 5.10887C20.4679 5.08698 20.4768 5.03446 20.6409 4.98193C20.9622 4.8891 21.2319 4.67228 21.3889 4.38058C21.5459 4.08888 21.577 3.747 21.475 3.43241C21.3583 3.02701 21.0797 2.68577 20.703 2.48694C20.3632 2.32326 19.968 2.31367 19.6205 2.46067C19.5162 2.49099 19.4185 2.53995 19.3321 2.60512C19.2922 2.63576 19.2966 2.68829 19.3321 2.75832L20.3037 5.621C20.5389 6.29509 20.7474 6.84661 20.8672 7.12675C20.9559 7.32373 21.0535 7.46817 21.2754 7.4244C21.3774 7.4244 21.5416 7.36312 21.6037 7.34123C21.6658 7.31935 21.6702 7.34123 21.6791 7.3675C21.688 7.39376 21.6791 7.43315 21.5815 7.45942C21.1911 7.59073 20.7341 7.72205 20.6942 7.7308C20.6542 7.73956 20.2505 7.91027 20.0198 7.9803C19.9399 8.00657 19.9 8.00657 19.8867 7.9803C19.8734 7.95404 19.8867 7.93215 19.9266 7.9234C19.9968 7.8942 20.0649 7.86057 20.1307 7.82272C20.2594 7.74393 20.2461 7.5776 20.2017 7.38501C20.1396 7.0786 19.9444 6.50957 19.7137 5.85299L19.27 4.61863" fill="#BC8B35"/>
<path fill-rule="evenodd" clip-rule="evenodd" d="M28.3529 1C28.3142 1 28.2872 1.04186 28.2136 1.25114L26.7856 5.28082C26.6734 5.60426 26.5495 5.8516 26.2477 5.89346C26.1849 5.90337 26.1216 5.90972 26.058 5.91248C26.0522 5.91248 26.0466 5.91216 26.0415 5.91185C26.016 5.91036 26 5.90942 26 5.95053C26 6 26.0387 6 26.1238 6C26.3137 5.99533 26.5225 5.98351 26.6717 5.97506C26.7657 5.96974 26.8361 5.96575 26.863 5.96575H27.3738C27.4319 5.96195 27.4706 5.94673 27.4706 5.90868C27.4706 5.87062 27.4512 5.87062 27.4048 5.87062H27.339C27.2268 5.87062 27.0875 5.81735 27.0875 5.68798C27.0899 5.5396 27.1187 5.39279 27.1726 5.25419L27.5596 4.11263C27.5673 4.08412 27.5918 4.06304 27.6215 4.05936L29.0263 4.03653C29.0535 4.03326 29.0793 4.04912 29.0882 4.07458L29.7268 5.64612C29.7655 5.74505 29.7113 5.81355 29.6881 5.82116C29.6837 5.8226 29.6792 5.82363 29.6747 5.82464C29.6557 5.82896 29.6385 5.83288 29.6416 5.86682C29.6455 5.90868 29.719 5.90868 29.839 5.90868H30.8646C30.9381 5.90868 31 5.89346 31 5.8554C31 5.81735 30.969 5.81735 30.9303 5.81735C30.8425 5.82102 30.7548 5.80943 30.6711 5.7831C30.5317 5.74886 30.3421 5.64992 30.0944 5.07915C29.7803 4.36957 29.1205 2.74428 28.7554 1.84465C28.6212 1.51407 28.5267 1.28148 28.5039 1.22831C28.4187 1.03044 28.3916 1 28.3529 1ZM28.9644 3.77778C28.9721 3.80441 28.9721 3.82724 28.9412 3.82724H28.9528L27.7028 3.85008C27.6796 3.85008 27.6796 3.83866 27.6796 3.80441L28.2136 2.05403C28.2485 1.9589 28.2794 1.9589 28.3142 2.05403L28.9644 3.77778Z" fill="#BC8B35"/>
<path fill-rule="evenodd" clip-rule="evenodd" d="M36.4813 5.48869C36.1983 6.4746 36.1089 6.91325 36.1685 7.07618C36.2281 7.23911 36.3733 7.31848 36.8389 7.49394C37.1554 7.61091 37.4236 7.70282 37.621 7.5566C37.7363 7.46754 37.8309 7.3486 37.8966 7.20986C37.9189 7.15973 37.9375 7.13049 37.9748 7.14302C38.012 7.15555 38.0046 7.1848 37.9748 7.25999C37.8964 7.4733 37.8043 7.67994 37.6992 7.87828C37.6098 8.02032 37.5837 8.04121 37.2672 7.92423C36.8351 7.76549 36.5223 7.64016 36.2765 7.54407C36.0307 7.44799 35.8482 7.36026 35.6731 7.29759L35.4273 7.21822L35.081 7.10542C35.0139 7.08036 34.9916 7.05529 35.0027 7.01769C35.0139 6.98009 35.0251 6.98009 35.0586 6.99263C35.1253 7.01685 35.1939 7.03364 35.2634 7.04276C35.3901 7.04276 35.4646 6.92161 35.5428 6.73779C35.6545 6.46625 35.8109 5.93569 35.9971 5.29234L36.3249 4.11843C36.6266 3.06985 36.6973 2.86515 36.7308 2.66462C36.7644 2.4641 36.7718 2.30535 36.5856 2.18837C36.5205 2.14626 36.4519 2.11128 36.3808 2.08393C36.3584 2.08393 36.3361 2.05051 36.3435 2.02545C36.351 2.00038 36.3882 1.98367 36.4552 2.02545C36.7234 2.12153 37.0921 2.28028 37.1294 2.28864L37.7774 2.50587C37.8444 2.53094 37.8668 2.556 37.8593 2.59778C37.8519 2.63955 37.8258 2.62702 37.7997 2.59778C37.7737 2.56854 37.6694 2.56018 37.5949 2.54765C37.4124 2.5184 37.3305 2.61449 37.2523 2.84844C37.174 3.08238 37.1219 3.24531 36.8165 4.28971L36.4739 5.48869" fill="#BC8B35"/>
<path fill-rule="evenodd" clip-rule="evenodd" d="M45.9779 7.01231C45.9429 6.98291 45.8962 6.99971 45.7055 7.13413L42.0521 9.63777C41.7564 9.8436 41.4996 9.96962 41.2351 9.80159L41.0794 9.69238C41.0699 9.69238 41.0613 9.68824 41.0531 9.68432C41.0381 9.67707 41.0246 9.67056 41.0094 9.69238C40.9861 9.72598 41.0055 9.76379 41.0755 9.8226C41.2167 9.9387 41.3772 10.0618 41.4976 10.1541C41.5863 10.2221 41.6533 10.2735 41.6747 10.2931C41.686 10.3034 41.7051 10.3213 41.7295 10.3442C41.8147 10.4242 41.9639 10.5643 42.0638 10.6459C42.1066 10.6879 42.1572 10.6879 42.1727 10.6669C42.1883 10.6459 42.1805 10.6207 42.1416 10.5913L42.091 10.5451C41.9862 10.4777 41.9501 10.3326 42.0093 10.2175C42.1071 10.0934 42.2227 9.987 42.3517 9.90241L43.375 9.16728C43.399 9.14695 43.4327 9.14695 43.4567 9.16728L44.5811 10.0956C44.5981 10.1175 44.5981 10.1494 44.5811 10.1713L44.0792 11.9566C44.0442 12.0868 43.978 12.0868 43.9391 12.0868C43.9304 12.0773 43.9185 12.072 43.9061 12.072C43.8937 12.072 43.8818 12.0773 43.873 12.0868C43.8539 12.1197 43.9059 12.1688 43.9959 12.2539L44.0014 12.259C44.3554 12.5657 44.7523 12.9059 44.8107 12.9479C44.869 12.9899 44.9313 13.0151 44.9507 12.9899C44.9702 12.9647 44.9546 12.9395 44.9196 12.9143C44.8502 12.8551 44.7887 12.7858 44.7367 12.7085C44.655 12.5825 44.5694 12.3682 44.7367 11.7087C44.954 10.8878 45.4715 9.02404 45.7555 8.00112C45.8581 7.63164 45.9302 7.37187 45.9468 7.31056C46.009 7.07952 46.0129 7.04172 45.9779 7.01231ZM44.6901 9.80159C44.6784 9.8268 44.6667 9.852 44.6395 9.8268V9.8352L43.6434 8.99506C43.6162 8.98665 43.6123 8.96565 43.6434 8.94465L45.1997 7.80625C45.2776 7.74324 45.3126 7.76844 45.2776 7.87346L44.6901 9.80159Z" fill="#BC8B35"/>
<path fill-rule="evenodd" clip-rule="evenodd" d="M48.0073 15.4039C48.1488 14.5878 48.6234 13.8767 49.3074 13.4561C49.9206 13.0528 50.6581 12.9096 51.369 13.056C52.1482 13.2667 52.8074 13.8089 53.1865 14.5509C53.3757 14.8526 53.5377 15.172 53.6703 15.505C53.7595 15.7427 53.8621 15.9747 53.9775 16.1998C54.0153 16.2745 53.9985 16.3009 53.9775 16.3273C53.9564 16.3537 53.8471 16.3888 53.6241 16.5207C53.4011 16.6526 53.0897 16.8637 53.0014 16.9209C52.913 16.978 52.8625 16.9824 52.8373 16.9472C52.8121 16.9121 52.8373 16.8681 52.9341 16.8109C53.167 16.654 53.3258 16.4018 53.3716 16.1162C53.3854 15.5895 53.238 15.072 52.9509 14.6389C52.676 14.0855 52.1976 13.6728 51.6256 13.4957C50.9521 13.3652 50.2574 13.5446 49.7197 13.9881C49.1363 14.368 48.7235 14.977 48.574 15.6781C48.4245 16.3793 48.5508 17.1138 48.9245 17.7167C49.1192 18.1352 49.4686 18.4527 49.8922 18.5961C50.113 18.6121 50.3345 18.576 50.5401 18.4906C50.6117 18.4554 50.6453 18.4554 50.6663 18.4906C50.6874 18.5257 50.6663 18.5609 50.6074 18.5961C50.3344 18.7394 50.0534 18.8657 49.766 18.9742C49.6764 19.0208 49.5684 19.0032 49.4967 18.9302C49.1664 18.6338 48.8825 18.2852 48.6553 17.897C48.1409 17.1826 47.9158 16.2857 48.0284 15.3995" fill="#BC8B35"/>
<path fill-rule="evenodd" clip-rule="evenodd" d="M54.3716 22.0214C55.458 21.7722 55.6448 21.728 55.8739 21.6637C56.1031 21.5994 56.205 21.519 56.2007 21.2898C56.196 21.2125 56.1832 21.1357 56.1625 21.0607C56.1625 21.0326 56.1625 21.0044 56.1922 21.0004C56.2219 20.9964 56.2559 21.0205 56.2729 21.0929C56.3153 21.2416 56.362 21.4225 56.3874 21.5672L56.4426 21.8446C56.4426 21.8888 56.7864 23.2032 56.833 23.356C56.8594 23.45 56.8949 23.5415 56.9391 23.6293C56.9391 23.6614 56.9901 23.6856 56.9985 23.7137C57.007 23.7418 56.9773 23.7499 56.9391 23.7579C56.8256 23.7584 56.7123 23.7651 56.5996 23.778C56.5275 23.778 56.2134 23.8423 56.1328 23.8504C56.0522 23.8584 56.0479 23.8504 56.0437 23.8182C56.0394 23.7861 56.0437 23.7579 56.1201 23.7459C56.2056 23.7262 56.2873 23.6936 56.362 23.6494C56.4638 23.577 56.5275 23.4926 56.4808 23.1268C56.4808 23.0103 56.2898 22.2907 56.2729 22.2184C56.2559 22.146 56.2431 22.1782 56.1922 22.1943L54.2655 22.6284C54.2189 22.6284 54.1976 22.6525 54.2061 22.6847C54.2146 22.7168 54.431 23.5851 54.4862 23.7298C54.5414 23.8745 54.5753 23.975 54.6645 24.0232C54.7536 24.0715 54.7705 24.0715 54.779 24.0996C54.7875 24.1277 54.779 24.1358 54.7324 24.1438C54.6857 24.1518 54.5626 24.1438 54.308 24.18L53.8539 24.2564C53.7987 24.2564 53.7223 24.2845 53.7138 24.2564C53.7054 24.2282 53.7138 24.2001 53.7648 24.1961C53.8427 24.1815 53.9173 24.1543 53.9854 24.1157C54.0746 24.0674 54.1807 23.983 54.1425 23.7137C54.117 23.5288 53.9685 22.8736 53.9388 22.761C53.9385 22.7476 53.9312 22.7352 53.9193 22.7279C53.9073 22.7206 53.8924 22.7195 53.8794 22.7249L53.264 22.8656C53.0263 22.9178 52.2158 23.0947 52.0715 23.1349C51.5962 23.2635 51.5283 23.3841 51.6938 24.0313C51.738 24.2469 51.8182 24.4545 51.9315 24.6463C52.0545 24.803 52.2115 24.8513 52.5086 24.8312C52.5892 24.8312 52.6189 24.8312 52.6317 24.8674C52.6444 24.9035 52.585 24.9196 52.5341 24.9276C52.3024 24.965 52.0686 24.9892 51.8338 25C51.6429 25 51.6301 24.9397 51.5622 24.6824C51.4392 24.188 51.3628 23.8182 51.3034 23.561C51.244 23.3037 51.2185 23.1389 51.193 23.0384C51.193 23.0384 51.1633 22.9138 51.1209 22.7771C51.0784 22.6405 51.036 22.4957 51.0105 22.3993C50.9851 22.3028 51.0105 22.2867 51.036 22.2787C51.0615 22.2706 51.0827 22.2787 51.0954 22.3229C51.1127 22.3886 51.1383 22.452 51.1718 22.5118C51.2312 22.6405 51.3967 22.6405 51.5962 22.6204C51.8933 22.5842 52.4449 22.4596 53.1197 22.3068L54.3462 22.0335" fill="#BC8B35"/>
<path fill-rule="evenodd" clip-rule="evenodd" d="M11.0603 43.722C10.897 43.8743 10.7468 43.9994 9.89476 44.7065L8.91465 45.4839C8.39368 45.9175 7.96102 46.273 7.70937 46.441C7.53719 46.5504 7.39149 46.6286 7.26788 46.5504C7.20414 46.513 7.14496 46.4698 7.09128 46.4215C7.08022 46.4215 7.07143 46.418 7.06328 46.4148C7.04864 46.4089 7.03607 46.4039 7.01622 46.4215C6.98532 46.4488 6.99857 46.4801 7.05596 46.5348C7.18353 46.6509 7.41942 46.8575 7.51274 46.9393C7.53246 46.9566 7.54581 46.9683 7.55043 46.9723C7.55722 46.9783 7.58225 47.0036 7.62057 47.0422C7.73183 47.1543 7.95506 47.3793 8.16852 47.574C8.2215 47.6169 8.27007 47.6287 8.29214 47.6169C8.31422 47.6052 8.32305 47.5818 8.29214 47.5505C8.21613 47.4773 8.14675 47.399 8.08464 47.3161C7.95219 47.156 8.04049 47.027 8.18618 46.8825C8.55074 46.5307 8.93534 46.1956 9.33848 45.8785L9.46651 45.7691C9.47736 45.7691 9.48766 45.7662 9.49742 45.7635C9.51547 45.7584 9.53165 45.7539 9.54598 45.7691L10.1685 46.3785C10.1944 46.4009 10.2074 46.4326 10.2038 46.4645C10.1873 46.5539 10.1562 46.6981 10.1195 46.8684C10.0681 47.1073 10.0055 47.3976 9.95657 47.6599C9.82434 48.0884 9.78686 48.5354 9.8462 48.9765C9.92996 49.2072 10.0825 49.4137 10.2877 49.5742L10.6541 49.918C10.7424 49.9961 10.7866 50.0078 10.8175 49.9961C10.8484 49.9844 10.844 49.9531 10.8175 49.9258C10.75 49.8647 10.6894 49.798 10.6365 49.7266C10.4416 49.4548 10.359 49.1319 10.4025 48.8124C10.4399 48.3388 10.544 47.7416 10.6663 47.0398C10.6882 46.9139 10.7108 46.7846 10.7336 46.652C11.404 46.7516 12.0897 46.5828 12.6055 46.191C12.8891 45.9436 13.0317 45.5964 12.994 45.2456C12.8942 44.8295 12.6504 44.4513 12.2965 44.1634C12.1637 44.0224 11.822 43.7312 11.7119 43.6374C11.6939 43.622 11.6821 43.612 11.6784 43.6087C11.6694 43.6007 11.6283 43.5594 11.569 43.4997C11.4536 43.3837 11.2693 43.1984 11.1177 43.0539C11.0603 43.011 11.0206 42.9836 10.9897 43.011C10.9799 43.0191 10.9744 43.0304 10.9744 43.0422C10.9744 43.054 10.9799 43.0654 10.9897 43.0735C11.048 43.1295 11.1012 43.1896 11.1486 43.2532C11.2766 43.4446 11.2237 43.5696 11.0603 43.722ZM9.79322 45.5777C9.78252 45.5457 9.79272 45.5111 9.81971 45.4878H9.82854L11.5945 44.0072C11.6264 43.9876 11.6686 43.9876 11.7005 44.0072C11.8391 44.0903 11.9652 44.1888 12.0757 44.3002C12.6188 44.8159 12.557 45.4722 11.8727 46.0386C11.5806 46.3212 11.1555 46.4659 10.7248 46.4293C10.5342 46.3835 10.3635 46.2882 10.2347 46.1558C10.0464 45.9904 9.89648 45.794 9.79322 45.5777Z" fill="#BC8B35"/>
<path fill-rule="evenodd" clip-rule="evenodd" d="M16.9167 50.0571C17.4313 49.0871 17.5291 48.913 17.6184 48.7099C17.7078 48.5068 17.7205 48.3659 17.5334 48.2167C17.4693 48.1682 17.401 48.1252 17.3293 48.0882C17.3037 48.0882 17.2825 48.0467 17.2952 48.0219C17.308 47.997 17.3548 47.9887 17.4228 48.0219C17.5717 48.0965 17.746 48.1835 17.8821 48.2581L18.1373 48.4032C18.1798 48.4281 19.4514 49.0706 19.6002 49.1369C19.6931 49.1813 19.7899 49.2174 19.8894 49.2446C19.9262 49.2403 19.9633 49.2403 20 49.2446C20 49.2446 20 49.2819 20 49.3151C20 49.3483 19.9064 49.4146 19.7959 49.5762C19.7533 49.6384 19.596 49.9078 19.545 49.9907C19.4939 50.0736 19.4897 50.0488 19.4642 50.0322C19.4386 50.0156 19.4259 49.9783 19.4642 49.9286C19.5035 49.8529 19.5308 49.7718 19.545 49.6882C19.545 49.5638 19.545 49.456 19.2047 49.2446C19.1027 49.1783 18.4137 48.8301 18.3542 48.7845C18.2946 48.739 18.3074 48.7845 18.2861 48.826L17.3718 50.542C17.3463 50.5835 17.3463 50.6083 17.3718 50.6249C17.3973 50.6415 18.2436 51.0601 18.401 51.1265C18.5583 51.1928 18.6519 51.2218 18.7454 51.1886C18.839 51.1555 18.856 51.143 18.8858 51.1555C18.9155 51.1679 18.8858 51.1845 18.8858 51.2218C18.8858 51.2591 18.7795 51.3503 18.6519 51.5451C18.5711 51.6612 18.435 51.885 18.4095 51.9306C18.3839 51.9762 18.3499 52.0466 18.3074 52.0259C18.2649 52.0052 18.2734 51.9762 18.3074 51.943C18.3479 51.8767 18.3753 51.8036 18.3882 51.7275C18.418 51.628 18.4137 51.4912 18.1756 51.3461C18.014 51.2384 17.3888 50.9068 17.2825 50.8487C17.2697 50.8418 17.2544 50.8405 17.2406 50.8452C17.2267 50.85 17.2157 50.8603 17.2102 50.8736L16.921 51.4208C16.8104 51.628 16.4149 52.3451 16.3554 52.4819C16.1427 52.9171 16.198 53.0497 16.8232 53.3648C17.0223 53.4826 17.2411 53.5654 17.4696 53.6093C17.6695 53.6093 17.8183 53.5347 17.9927 53.3026C18.0437 53.2445 18.0735 53.2238 18.1033 53.2404C18.133 53.257 18.1033 53.3109 18.1033 53.3565C18.1033 53.4021 17.8013 53.8 17.6993 53.916C17.5972 54.0321 17.5164 54.0238 17.274 53.916C16.7977 53.6715 16.4532 53.5015 16.2023 53.3523C15.9514 53.2031 15.8153 53.1285 15.7175 53.0787C15.7175 53.0787 15.5984 53.0166 15.458 52.9544L15.0838 52.7803C15.0115 52.743 14.986 52.7181 15.0072 52.6767C15.0285 52.6352 15.0413 52.6477 15.0795 52.6767C15.1449 52.7069 15.2133 52.7306 15.2837 52.7472C15.424 52.7886 15.5261 52.6684 15.6537 52.4985C15.8238 52.258 16.0789 51.7648 16.4022 51.1679L16.9848 50.0736" fill="#BC8B35"/>
<path fill-rule="evenodd" clip-rule="evenodd" d="M23.0642 55.6132C22.9891 55.5515 22.9891 55.5283 23.0177 55.3508C23.0785 55.0343 23.1428 54.7796 23.1679 54.6793C23.1929 54.5789 23.2036 54.5789 23.2322 54.5905C23.2608 54.6021 23.2752 54.6137 23.2644 54.6638C23.2488 54.7438 23.2416 54.8253 23.243 54.907C23.2635 55.3527 23.5887 55.7119 24.0011 55.7445C24.2184 55.8065 24.4498 55.7682 24.6398 55.6386C24.8298 55.5089 24.9612 55.2998 25.0024 55.0614C25.0811 54.6214 24.956 54.3319 24.5268 53.7685L24.2979 53.479C23.7722 52.792 23.6971 52.3637 23.7758 51.9353C23.8938 51.2522 24.4553 50.8778 25.2063 51.036C25.3924 51.0707 25.5739 51.1303 25.7463 51.2136C25.8105 51.2464 25.8776 51.2722 25.9466 51.2907C25.993 51.2907 26.0073 51.3139 25.9966 51.3448C25.9859 51.3757 25.9322 51.5841 25.8571 52.0202C25.8571 52.1244 25.8142 52.163 25.7856 52.1591C25.757 52.1552 25.7499 52.1205 25.7534 52.0665C25.7622 51.954 25.755 51.8408 25.732 51.7307C25.7105 51.6535 25.5997 51.3448 25.0489 51.2406C24.8618 51.1827 24.6607 51.2143 24.4965 51.3272C24.3324 51.4401 24.221 51.6236 24.1907 51.8311C24.1227 52.1938 24.2371 52.4601 24.7199 53.0545L24.863 53.232C25.4602 53.973 25.5568 54.3898 25.4638 54.9186C25.3871 55.3387 25.1294 55.6943 24.77 55.8757C24.4701 56.0044 24.1414 56.034 23.8259 55.9606C23.5499 55.9126 23.288 55.7963 23.0606 55.621" fill="#BC8B35"/>
<path fill-rule="evenodd" clip-rule="evenodd" d="M34.959 54.046C34.7561 52.5804 33.5731 51.8325 32.1609 52.0317C31.502 52.1107 30.9032 52.4534 30.5012 52.9817C30.0993 53.51 29.9284 54.1787 30.0276 54.8352C30.1816 55.9701 31.0867 57.2103 32.8106 56.9698C33.4923 56.8868 34.1094 56.5259 34.5161 55.9723C34.9228 55.4188 35.0831 54.7217 34.959 54.046ZM34.3993 54.3053C34.6585 56.1393 33.5318 56.6278 32.9646 56.7067H32.9458C31.8153 56.8646 30.8013 56.0453 30.5985 54.5759C30.4032 53.2004 31.0942 52.3962 32.1459 52.2497C33.1562 52.1144 34.189 52.8021 34.3993 54.3053Z" fill="#BC8B35"/>
<path fill-rule="evenodd" clip-rule="evenodd" d="M38.7356 50.3924C38.8541 50.5922 38.944 50.7702 39.4548 51.7819L40.0351 52.9109C40.2829 53.3729 40.508 53.8482 40.7093 54.3351C40.7747 54.5175 40.8156 54.6781 40.7093 54.7693C40.6548 54.818 40.5975 54.8629 40.5377 54.9039C40.5343 54.906 40.5311 54.9078 40.528 54.9096C40.5048 54.9228 40.4911 54.9307 40.5091 54.969C40.5295 55.0125 40.5622 55.0081 40.6317 54.969C40.7345 54.9095 40.8947 54.8087 41.0184 54.7309C41.1111 54.6727 41.1833 54.6273 41.1956 54.6217C41.2242 54.6086 41.6165 54.4089 41.9516 54.2135C42.021 54.1788 42.0292 54.1093 42.021 54.1093H41.9516C41.8598 54.1622 41.7641 54.2072 41.6655 54.2439C41.4776 54.3177 41.3672 54.1961 41.2569 54.0225C41.0893 53.7663 40.8278 53.2539 40.5173 52.633L40.4396 52.4767C40.4028 52.4463 40.4028 52.4028 40.4396 52.4028L41.1874 51.9903C41.2175 51.9708 41.2554 51.9708 41.2855 51.9903C41.3902 52.0374 41.5652 52.1276 41.7677 52.232C41.9763 52.3395 42.214 52.4621 42.4338 52.5678C42.8329 52.8176 43.2745 52.9814 43.7332 53.0498C43.9875 53.0405 44.2341 52.9546 44.4443 52.8023L44.8815 52.5592C45 52.494 45 52.4593 45 52.4202C44.9769 52.4021 44.9454 52.4021 44.9224 52.4202C44.844 52.4667 44.7619 52.506 44.6772 52.5374C44.357 52.6461 44.011 52.6307 43.7005 52.494C43.2262 52.3273 42.6448 52.053 41.9613 51.7305C41.8439 51.6752 41.7235 51.6184 41.6001 51.5605C41.8663 50.9535 41.8663 50.2525 41.6001 49.6456C41.4184 49.3044 41.1017 49.0684 40.7379 49.003C40.2955 48.9789 39.8571 49.1019 39.4834 49.3547C39.3267 49.4468 38.9714 49.6661 38.8304 49.7531C38.7985 49.7728 38.7776 49.7857 38.7724 49.7889C38.7626 49.7948 38.7108 49.8218 38.6359 49.8608C38.4906 49.9366 38.2584 50.0577 38.0777 50.158C38.0041 50.197 37.9919 50.2709 38.0041 50.2709H38.0736C38.1426 50.2302 38.2151 50.1968 38.2902 50.171C38.5109 50.1015 38.6171 50.1927 38.7356 50.3924ZM40.3048 52.1206C40.2691 52.1217 40.2366 52.0992 40.223 52.0642L39.1851 49.9539C39.1626 49.9216 39.1626 49.8776 39.1851 49.8453C39.3047 49.7406 39.4349 49.6503 39.5733 49.5761C40.223 49.207 40.8646 49.4589 41.2732 50.2709C41.4969 50.6275 41.5456 51.0767 41.404 51.478C41.3084 51.6473 41.1656 51.7809 40.9954 51.8601C40.7828 51.9926 40.5484 52.081 40.3048 52.1206Z" fill="#BC8B35"/>
<path fill-rule="evenodd" clip-rule="evenodd" d="M48.072 46.7423C48.4368 47.112 48.8194 47.4624 49.2183 47.7924C49.3808 47.9215 49.5225 47.999 49.6893 47.8613C49.7643 47.7924 49.881 47.6848 49.9227 47.6375C49.9644 47.5901 49.9769 47.6117 49.9935 47.6375C50.0102 47.6633 49.9935 47.7063 49.956 47.7623C49.6934 48.0592 49.3766 48.3777 49.3475 48.4035C49.3183 48.4294 49.0432 48.778 48.8931 48.9372C48.8389 49.0017 48.8056 49.0147 48.7764 48.9845C48.7472 48.9544 48.7764 48.9458 48.7764 48.9114C48.82 48.8551 48.8604 48.7961 48.8973 48.7349C48.9723 48.6101 48.8973 48.4767 48.7514 48.3046C48.5555 48.0679 48.1512 47.6762 47.6593 47.2028L45.4794 45.1026L44.7916 45.8816C44.4957 46.2173 44.4207 46.3808 44.4623 46.5831C44.4817 46.6657 44.5082 46.7464 44.5415 46.8241C44.5665 46.8843 44.5665 46.9102 44.5415 46.9274C44.5165 46.9446 44.4999 46.9274 44.4707 46.9274C44.4415 46.9274 44.0539 46.3464 44.0539 46.2947C44.0539 46.2431 43.983 46.1656 44.0038 46.1484C44.0998 46.0994 44.1906 46.0403 44.2748 45.972C44.4332 45.8343 44.6249 45.6406 44.6916 45.5803L46.4923 43.5791C46.6093 43.457 46.714 43.3229 46.8049 43.1789C46.8716 43.0885 46.8966 43.024 46.9174 43.0068C46.9382 42.9895 46.9716 43.0068 47.0008 43.0412C47.1592 43.1875 47.501 43.5447 47.551 43.6007C47.601 43.6566 47.6052 43.6824 47.5885 43.6996C47.5718 43.7169 47.5385 43.7255 47.4634 43.6609L47.4009 43.6093C47.2342 43.4759 46.9841 43.4931 46.5256 43.988L45.9129 44.6551L48.0887 46.7509" fill="#BC8B35"/>
<path fill-rule="evenodd" clip-rule="evenodd" d="M42.0129 35.9835C42.4925 35.5757 43.1575 35.4572 43.7505 35.6739V35.6659C44.382 35.9005 44.8439 36.4447 44.9684 37.1011C45.128 38.0171 44.6718 38.9303 43.8398 39.3606C42.8207 39.9636 41.5407 39.9259 40.5595 39.2641C39.3389 38.3847 38.9325 36.8694 38.5387 35.401C38.4086 34.9158 38.2799 34.4357 38.1236 33.9854C38.0257 33.7104 37.8612 33.4633 37.6445 33.2658C37.5928 33.3354 37.5822 33.4321 37.5708 33.5358C37.5598 33.6356 37.5482 33.7419 37.4984 33.8366C37.2816 34.5509 36.7646 35.0518 36.2474 35.5529C35.7283 36.0559 35.209 36.559 34.9934 37.278C34.7933 37.8293 34.685 38.4091 34.6727 38.9947C34.0231 40.6873 32.8133 41.9818 31.5142 43.2442L30.6697 43.8874L30.7103 43.9156C30.7008 43.9267 30.6927 43.9388 30.686 43.9518H28.2135C28.2152 43.9424 28.2152 43.9329 28.2135 43.9236H28.311C28.3535 43.6552 28.4592 43.4004 28.6195 43.1799C28.7813 42.915 29.0601 42.8485 29.3421 42.7813C29.5696 42.727 29.7993 42.6722 29.9714 42.5125C31.1047 41.5473 31.8222 40.1895 31.977 38.7173C31.5786 38.0562 31.2546 37.3538 31.0108 36.6227L30.9336 36.0277C30.8973 34.9788 31.2981 33.9612 32.042 33.2135C32.0193 33.2023 32.0027 33.1753 31.9871 33.1498C31.969 33.1204 31.9521 33.0929 31.9283 33.0929C31.3278 33.6625 30.9278 34.408 30.7875 35.2196C30.7384 35.3514 30.737 35.5109 30.7356 35.6691C30.7337 35.8775 30.7318 36.0835 30.621 36.2207C28.5408 37.3393 25.9734 37.3388 23.4229 37.3384C23.3701 37.3384 23.3173 37.3383 23.2646 37.3383C22.858 39.8027 21.772 42.108 20.1264 44H17.7351C17.7351 44 17.9787 43.1035 18.409 42.9105C19.2768 42.8761 19.5878 42.084 19.874 41.3553C19.956 41.1464 20.0359 40.9428 20.1264 40.7636C20.1367 40.727 20.1472 40.6904 20.1576 40.6537C20.461 39.5866 20.7734 38.4883 20.5811 37.3223C20.4693 37.0456 20.3117 36.7816 20.1529 36.5155C19.9425 36.1629 19.7299 35.8067 19.6189 35.4126C19.3116 34.3705 19.5177 33.246 20.1751 32.3773C20.6429 31.8474 21.2589 31.4669 21.9452 31.2837C21.9736 31.2114 21.9452 31.0425 21.8274 31.0868C21.1673 31.2772 20.5694 31.6363 20.0939 32.128L20.0736 32.1039C20.0452 31.2194 19.9964 30.6928 19.3631 29.953C19.1058 29.6982 18.5814 29.7191 18.0847 29.739C17.5548 29.7601 17.0565 29.78 16.9475 29.4625C16.8582 29.2977 16.7932 29.1449 16.9475 29.0605C16.4481 29.149 16.1437 28.1077 16.0016 27.5408C15.9925 27.4347 16.0228 27.3289 16.0868 27.2433C16.4996 26.9627 16.9693 26.7747 17.4631 26.6926C17.6051 26.6688 17.6662 26.5787 17.7391 26.4711C17.8517 26.3051 17.9924 26.0975 18.5024 26.0292H19.6351C19.8472 26.0317 19.9588 25.72 20.0627 25.4298C20.1258 25.2535 20.1861 25.0851 20.2644 25C20.6571 25.1945 20.711 25.6601 20.7534 26.0263C20.7619 26.0992 20.7699 26.1681 20.78 26.2302C22.0032 26.8651 22.9964 27.8613 23.6219 29.0806C23.8411 29.5952 24.2065 30.1862 24.8804 30.2867C26.797 30.5835 28.7443 30.6335 30.6738 30.4355C31.3562 30.3749 32.0083 30.2306 32.6671 30.0848C33.0587 29.9981 33.4526 29.9109 33.8567 29.8405C35.6877 29.6716 37.5308 30.2465 38.3428 31.7501C39.0341 32.6813 39.3277 33.8252 39.6215 34.9697C39.8402 35.8216 40.0589 36.6738 40.4417 37.4388C40.7918 38.1457 41.4762 38.6318 42.2646 38.7334C42.8111 38.7765 43.3445 38.5529 43.6937 38.1344C43.8815 37.8616 43.9503 37.5253 43.8845 37.2017C43.8165 36.9441 43.6407 36.7276 43.4014 36.6066C43.1742 36.529 42.9231 36.5649 42.7274 36.7031C42.7191 36.7134 42.7107 36.7236 42.7022 36.7339C42.6113 36.8441 42.5185 36.9568 42.5853 37.1333C42.7036 37.2866 42.7133 37.4966 42.6097 37.66C42.4436 37.8355 42.1861 37.8928 41.9601 37.8047C41.7443 37.7204 41.5898 37.5291 41.5541 37.3022C41.4773 36.8145 41.6491 36.3208 42.0129 35.9835ZM18.1736 27.2313C18.1027 27.1625 18.0627 27.0683 18.0627 26.97C18.0627 26.8716 18.1027 26.7774 18.1736 26.7086H18.7095L18.1736 27.2313ZM21.0155 27.3197C21.0161 27.1903 21.1071 27.0785 21.2347 27.0504H21.2956C21.4112 27.0487 21.5164 27.1167 21.5614 27.2222C21.6064 27.3277 21.5824 27.4497 21.5006 27.5307C21.4188 27.6117 21.2956 27.6356 21.189 27.591C21.0824 27.5464 21.0138 27.4423 21.0155 27.3278V27.3197ZM22.3227 28.1439C22.3973 28.1428 22.4692 28.1717 22.522 28.2239C22.5748 28.2762 22.604 28.3474 22.6028 28.4213C22.6158 28.5276 22.5659 28.6319 22.4744 28.6891C22.383 28.7463 22.2665 28.7463 22.1751 28.6891C22.0836 28.6319 22.0337 28.5276 22.0467 28.4213C22.0456 28.3481 22.0742 28.2775 22.1261 28.2254C22.178 28.1732 22.2488 28.1439 22.3227 28.1439ZM33.7511 30.3671C33.789 30.348 33.8305 30.337 33.8729 30.335C33.9886 30.3333 34.0937 30.4013 34.1387 30.5068C34.1838 30.6123 34.1597 30.7343 34.0779 30.8153C33.9961 30.8963 33.8729 30.9202 33.7664 30.8756C33.6598 30.831 33.5912 30.7269 33.5928 30.6124C33.5935 30.5137 33.6478 30.423 33.7349 30.3752L33.7511 30.3671ZM35.842 31.1712C35.6878 31.169 35.5644 31.0438 35.5659 30.8911C35.5674 30.7385 35.6932 30.6157 35.8473 30.6164C36.0015 30.6171 36.1261 30.7411 36.1261 30.8938C36.1261 30.9681 36.0961 31.0392 36.0427 31.0914C35.9892 31.1435 35.9169 31.1723 35.842 31.1712ZM37.4017 32.1883L37.405 32.1883H37.3969L37.4017 32.1883ZM37.677 31.9109C37.677 32.0625 37.5542 32.1857 37.4017 32.1883C37.2753 32.186 37.1659 32.1 37.1352 31.9782C37.1042 31.8555 37.161 31.7275 37.2733 31.6671C37.3856 31.6068 37.525 31.6293 37.612 31.722C37.612 31.722 37.612 31.7581 37.6445 31.7782C37.6657 31.8193 37.6769 31.8648 37.677 31.9109ZM36.0774 32.9642C36.0774 33.1181 36.2022 33.2435 36.3576 33.2457L36.3373 33.2617C36.4801 33.2447 36.5875 33.1248 36.5875 32.9823C36.5875 32.8399 36.4801 32.7199 36.3373 32.7029C36.3103 32.6999 36.283 32.6999 36.2561 32.7029C36.2125 32.7096 36.1748 32.7365 36.1546 32.7753C36.1062 32.8267 36.0788 32.894 36.0774 32.9642ZM35.2111 34.3613C35.2564 34.4663 35.3613 34.5338 35.4766 34.5322C35.6319 34.53 35.7567 34.4046 35.7567 34.2507C35.7567 34.1366 35.687 34.0337 35.5803 33.9904C35.4736 33.9471 35.3511 33.9719 35.2701 34.0532C35.1892 34.1345 35.1659 34.2562 35.2111 34.3613ZM34.9772 32.2727C34.9022 32.2728 34.8303 32.243 34.7777 32.1901C34.725 32.1372 34.696 32.0656 34.6971 31.9913C34.6981 31.9033 34.7439 31.8216 34.8189 31.7742C34.8349 31.7591 34.8544 31.7481 34.8757 31.7421H34.961C35.0349 31.741 35.1062 31.7693 35.1588 31.8207C35.2115 31.8721 35.2411 31.9422 35.2411 32.0154C35.2411 32.1693 35.1163 32.2947 34.961 32.2969L34.9772 32.2727ZM33.9483 35.4856C34.0017 35.5377 34.074 35.5665 34.149 35.5654V35.5694C34.3037 35.5694 34.4291 35.4452 34.4291 35.292C34.4303 35.1741 34.355 35.0688 34.2424 35.0307C34.1806 34.9963 34.1052 34.9963 34.0434 35.0307C33.9354 35.071 33.8642 35.1737 33.8648 35.288C33.8648 35.3623 33.8949 35.4334 33.9483 35.4856ZM33.6699 37.4348C33.5152 37.4348 33.3898 37.3106 33.3898 37.1574C33.3898 37.0838 33.419 37.013 33.471 36.9604C33.4987 36.9183 33.5403 36.8871 33.5887 36.872C33.6498 36.8595 33.7133 36.8695 33.7674 36.9001C33.8778 36.9388 33.9523 37.0414 33.9541 37.1574C33.9519 37.3113 33.8253 37.4348 33.6699 37.4348ZM32.7428 32.2064C32.788 32.3114 32.8929 32.3789 33.0082 32.3773C33.0832 32.3773 33.1551 32.3475 33.2077 32.2946C33.2604 32.2417 33.2894 32.1701 33.2883 32.0959C33.2883 31.9817 33.2186 31.8788 33.1119 31.8355C33.0052 31.7922 32.8827 31.817 32.8017 31.8983C32.7208 31.9796 32.6975 32.1013 32.7428 32.2064ZM32.7321 34.6648C32.6281 34.6613 32.5343 34.6017 32.4877 34.5094C32.4412 34.4172 32.4493 34.3072 32.5088 34.2226C32.5304 34.1727 32.5714 34.1336 32.6225 34.114C32.6547 34.1081 32.6877 34.1081 32.7199 34.114C32.7942 34.113 32.8659 34.1412 32.9192 34.1924C32.9725 34.2437 33.0031 34.3139 33.0041 34.3874C33.0041 34.5429 32.8769 34.6689 32.7199 34.6689L32.7321 34.6648ZM32.0947 35.9996C32.0947 36.1528 32.2201 36.277 32.3749 36.277V36.285C32.5296 36.285 32.655 36.1608 32.655 36.0076C32.655 35.8544 32.5296 35.7302 32.3749 35.7302H32.3018C32.275 35.7365 32.2491 35.7459 32.2246 35.7584L32.1962 35.7865C32.133 35.8397 32.096 35.9174 32.0947 35.9996ZM31.8796 30.9983C31.8796 30.8841 31.9493 30.7813 32.056 30.7379C32.1626 30.6946 32.2852 30.7195 32.3661 30.8008C32.4471 30.8821 32.4704 31.0038 32.4251 31.1088C32.3799 31.2138 32.275 31.2814 32.1597 31.2797C32.0043 31.2775 31.8795 31.1522 31.8796 30.9983ZM30.8222 32.6995C30.8756 32.7516 30.9479 32.7804 31.0229 32.7793L31.0189 32.7994C31.1467 32.7972 31.2567 32.7095 31.2864 32.5864C31.316 32.4633 31.2578 32.3359 31.1447 32.2768C31.0267 32.1994 30.8679 32.2298 30.7875 32.3451C30.7547 32.3908 30.7376 32.4458 30.7387 32.5019C30.7387 32.5762 30.7688 32.6474 30.8222 32.6995ZM34.3479 33.318C34.3495 33.2735 34.3398 33.2292 34.3195 33.1894L34.2992 33.1813C34.2821 33.1535 34.2617 33.1279 34.2383 33.105C34.1938 33.0623 34.1338 33.0391 34.0719 33.0406C33.9718 33.0406 33.8793 33.0935 33.8293 33.1793C33.7792 33.2652 33.7792 33.3709 33.8293 33.4567C33.8793 33.5426 33.9718 33.5954 34.0719 33.5954C34.1458 33.5954 34.2166 33.5661 34.2685 33.5139C34.3204 33.4618 34.349 33.3912 34.3479 33.318ZM30.2394 31.6255C30.1237 31.6271 30.0186 31.5591 29.9736 31.4536C29.9286 31.3481 29.9526 31.2261 30.0344 31.1451C30.1162 31.0641 30.2394 31.0403 30.346 31.0849C30.4525 31.1294 30.5212 31.2335 30.5195 31.3481C30.5195 31.5013 30.3941 31.6255 30.2394 31.6255ZM29.6327 33.9176C29.6861 33.9698 29.7584 33.9985 29.8334 33.9975C29.9856 33.9932 30.1074 33.8708 30.1095 33.7201C30.1095 33.5669 29.9841 33.4427 29.8293 33.4427C29.6746 33.4427 29.5492 33.5669 29.5492 33.7201C29.5492 33.7943 29.5793 33.8655 29.6327 33.9176ZM29.1392 35.288C28.9845 35.288 28.859 35.1638 28.859 35.0106C28.859 34.8574 28.9845 34.7332 29.1392 34.7332C29.2939 34.7332 29.4193 34.8574 29.4193 35.0106C29.4193 35.1638 29.2939 35.288 29.1392 35.288ZM28.6847 32.4457C28.6285 32.4961 28.596 32.5675 28.5952 32.6426L28.6276 32.6507C28.6266 32.7242 28.655 32.7952 28.7068 32.848C28.7586 32.9008 28.8294 32.931 28.9037 32.9321C29.0597 32.9299 29.1857 32.8052 29.1879 32.6507C29.187 32.5499 29.1311 32.4576 29.0417 32.4094C29 32.3751 28.9439 32.3631 28.8915 32.3773C28.816 32.3705 28.741 32.3954 28.6847 32.4457ZM28.2866 36.4418C28.1319 36.4418 28.0065 36.3176 28.0065 36.1644C28.0015 36.0402 28.0869 35.9302 28.2095 35.9031H28.2866C28.4413 35.9031 28.5667 36.0273 28.5667 36.1805C28.5667 36.3337 28.4413 36.4579 28.2866 36.4579V36.4418ZM27.8157 33.5512C27.661 33.5512 27.5355 33.6754 27.5355 33.8286C27.5355 33.9818 27.661 34.106 27.8157 34.106C27.9704 34.106 28.0958 33.9818 28.0958 33.8286C28.0958 33.6754 27.9704 33.5512 27.8157 33.5512ZM27.0646 35.3402C26.9099 35.3402 26.7845 35.216 26.7845 35.0628C26.7845 34.9096 26.9099 34.7854 27.0646 34.7854C27.2193 34.7854 27.3447 34.9096 27.3447 35.0628C27.3425 35.2151 27.2184 35.3381 27.0646 35.3402ZM26.7027 32.4278C26.65 32.4807 26.621 32.5523 26.6221 32.6265L26.614 32.6145C26.614 32.7677 26.7394 32.8919 26.8941 32.8919C27.0488 32.8919 27.1742 32.7677 27.1742 32.6145C27.1758 32.5317 27.1383 32.4528 27.0727 32.4014C27.0231 32.3656 26.9636 32.3459 26.9022 32.3451C26.8272 32.3451 26.7553 32.3749 26.7027 32.4278ZM26.2932 31.5491C26.1799 31.5491 26.0778 31.4815 26.0344 31.3778C25.9911 31.2742 26.015 31.1549 26.0952 31.0755C26.1753 30.9962 26.2958 30.9725 26.4004 31.0154C26.5051 31.0583 26.5734 31.1595 26.5734 31.2717C26.5734 31.4249 26.4479 31.5491 26.2932 31.5491ZM25.534 36.3172C25.534 36.4704 25.6595 36.5946 25.8142 36.5946L25.8061 36.6107C25.9608 36.6107 26.0862 36.4865 26.0862 36.3333C26.0862 36.2601 26.0565 36.1899 26.0039 36.1385C25.9512 36.0871 25.88 36.0588 25.8061 36.0599C25.7774 36.0483 25.7454 36.0483 25.7167 36.0599C25.6063 36.0979 25.5328 36.2015 25.534 36.3172ZM25.3595 33.8366C25.3578 33.7221 25.4265 33.618 25.533 33.5734C25.6396 33.5288 25.7628 33.5527 25.8446 33.6337C25.9264 33.7147 25.9504 33.8367 25.9054 33.9422C25.8604 34.0477 25.7553 34.1157 25.6396 34.114C25.4849 34.114 25.3595 33.9899 25.3595 33.8366ZM24.624 35.2696C24.6767 35.3225 24.7486 35.3523 24.8236 35.3523C24.9789 35.3501 25.1037 35.2248 25.1037 35.0709C25.1015 34.9193 24.9767 34.7975 24.8236 34.7975C24.7497 34.7964 24.6784 34.8248 24.6257 34.8761C24.5731 34.9275 24.5434 34.9977 24.5434 35.0709C24.5424 35.1452 24.5714 35.2167 24.624 35.2696ZM24.3973 32.5381C24.3995 32.3854 24.5259 32.2632 24.6801 32.2647C24.8343 32.2662 24.9583 32.3908 24.9575 32.5434C24.9568 32.6961 24.8316 32.8195 24.6774 32.8195C24.6024 32.8195 24.5305 32.7897 24.4779 32.7368C24.4252 32.6839 24.3962 32.6124 24.3973 32.5381ZM24.3104 30.8063C24.2057 30.8493 24.1375 30.9504 24.1375 31.0626C24.1375 31.2158 24.2629 31.34 24.4176 31.34C24.5309 31.34 24.633 31.2724 24.6764 31.1688C24.7198 31.0651 24.6958 30.9458 24.6157 30.8665C24.5356 30.7871 24.4151 30.7634 24.3104 30.8063ZM23.6097 33.9854C23.4527 33.9854 23.3255 33.8594 23.3255 33.704C23.3277 33.5518 23.4533 33.4299 23.607 33.4306C23.7606 33.4314 23.885 33.5545 23.8857 33.7067C23.8865 33.8588 23.7633 33.9832 23.6097 33.9854ZM23.0505 36.2263C23.0938 36.33 23.196 36.3976 23.3093 36.3976C23.464 36.3976 23.5894 36.2734 23.5894 36.1202C23.5894 36.008 23.5211 35.9068 23.4165 35.8639C23.3118 35.821 23.1913 35.8447 23.1112 35.924C23.0311 36.0034 23.0071 36.1227 23.0505 36.2263ZM22.7571 31.8185C22.7571 31.6652 22.8825 31.541 23.0372 31.541C23.192 31.541 23.3174 31.6652 23.3174 31.8185C23.3174 31.9717 23.192 32.0959 23.0372 32.0959C22.8825 32.0959 22.7571 31.9717 22.7571 31.8185ZM22.3038 34.7553C22.3038 34.8977 22.4113 35.0177 22.5541 35.0347C22.663 35.0477 22.7697 34.9974 22.8283 34.9056C22.8869 34.8138 22.8869 34.6968 22.8283 34.605C22.7697 34.5132 22.663 34.4629 22.5541 34.4759C22.4113 34.4929 22.3038 34.6129 22.3038 34.7553ZM21.9614 33.1572C21.8067 33.1572 21.6813 33.033 21.6813 32.8798C21.6813 32.7266 21.8067 32.6024 21.9614 32.6024C22.1161 32.6024 22.2415 32.7266 22.2415 32.8798C22.2415 33.033 22.1161 33.1572 21.9614 33.1572ZM21.6488 37.2981C21.6653 37.4387 21.786 37.5443 21.9289 37.5434V37.5514C22.0651 37.5511 22.1814 37.4539 22.2044 37.3209C22.2274 37.188 22.1506 37.0579 22.0223 37.0127C21.9682 36.9781 21.9018 36.9679 21.8396 36.9846C21.7043 37.0252 21.6219 37.1606 21.6488 37.2981ZM21.1657 35.9674C21.011 35.9674 20.8855 35.8432 20.8855 35.69C20.8855 35.5368 21.011 35.4126 21.1657 35.4126C21.3204 35.4126 21.4458 35.5368 21.4458 35.69C21.4458 35.8432 21.3204 35.9674 21.1657 35.9674ZM20.5874 33.7814C20.5355 33.8336 20.5069 33.9042 20.508 33.9774C20.5069 34.0506 20.5355 34.1211 20.5874 34.1733C20.6393 34.2254 20.7101 34.2548 20.784 34.2548C20.9388 34.2548 21.0642 34.1306 21.0642 33.9774C21.0642 33.8242 20.9388 33.7 20.784 33.7C20.7101 33.7 20.6393 33.7293 20.5874 33.7814ZM23.3539 29.7962C23.3539 29.643 23.2285 29.5188 23.0738 29.5188C22.9191 29.5188 22.7937 29.643 22.7937 29.7962C22.7937 29.9494 22.9191 30.0736 23.0738 30.0736C23.2285 30.0736 23.3539 29.9494 23.3539 29.7962ZM28.2338 31.0586C28.3081 31.0575 28.3798 31.0857 28.4331 31.137C28.4864 31.1883 28.517 31.2584 28.518 31.332C28.518 31.4852 28.3926 31.6094 28.2379 31.6094C28.0832 31.6094 27.9578 31.4852 27.9578 31.332C27.9578 31.2595 27.9868 31.19 28.0386 31.1387C28.0904 31.0874 28.1606 31.0586 28.2338 31.0586ZM21.2672 29.8123C21.2671 29.9662 21.3919 30.0915 21.5473 30.0937C21.7027 30.0915 21.8274 29.9662 21.8274 29.8123C21.8274 29.6591 21.702 29.5349 21.5473 29.5349C21.4918 29.5331 21.4374 29.5501 21.393 29.5832L21.3605 29.6073C21.3445 29.6148 21.3316 29.6276 21.324 29.6435C21.2866 29.6919 21.2666 29.7513 21.2672 29.8123ZM20.0979 28.7268C20.0979 28.8889 20.2306 29.0203 20.3943 29.0203C20.558 29.0203 20.6907 28.8889 20.6907 28.7268C20.6907 28.5647 20.558 28.4333 20.3943 28.4333C20.2306 28.4333 20.0979 28.5647 20.0979 28.7268Z" fill="#BC8B35"/>
<path fill-rule="evenodd" clip-rule="evenodd" d="M26.9124 38.6717C26.8587 38.4405 26.8587 38.2355 26.805 38L23.5819 38.048C23.7162 38.41 24.0296 38.7981 24.1997 39.1907C24.8354 40.4031 25.0458 42.1695 24.3788 43.491C24.1907 43.9838 23.4208 43.696 23.291 44.2978C23.1657 44.5198 23.0681 44.7555 23 45H25.6859V44.9564H25.6322C26.8319 43.2118 27.181 40.7607 26.9169 38.6847" fill="#BC8B35"/>
<path fill-rule="evenodd" clip-rule="evenodd" d="M38.4 37.7504C37.9884 36.8714 37.6985 35.9472 37.5374 35L37.0665 35.5353C36.2331 36.3112 35.3538 37.0871 35.1037 38.2276C35.0621 38.6155 34.9079 39.0034 35.0787 39.3914C35.8497 39.9422 36.8873 39.9228 37.6082 40.5552C37.7071 40.7506 37.7235 40.9736 37.6541 41.1797C37.4832 41.9556 37.0082 42.8129 36.1414 42.972C35.5621 43.0185 35.6121 43.581 35.3746 43.9341C35.3764 43.956 35.3764 43.978 35.3746 44H37.8749V43.9728H37.8083L38.1333 43.6276C38.7822 42.6389 39.3399 41.6006 39.8002 40.5241C39.8794 40.2254 40.1211 39.8802 39.9252 39.6047C39.4793 39.0267 38.675 38.4953 38.3917 37.7621" fill="#BC8B35"/>
<path fill-rule="evenodd" clip-rule="evenodd" d="M30 18.0061V17.9738C29.9899 16.1942 29.7983 14.4201 29.428 12.6779C29.3198 12.1121 29.1825 11.5521 29.0165 11C28.356 13.2658 28.0141 15.6093 28 17.9657C28 17.9657 28 17.9899 28 18.0061C28 18.0222 28 18.0262 28 18.0424C28.0082 20.3954 28.3447 22.7363 29 25C29.1664 24.4507 29.3037 23.8933 29.4115 23.3302C29.7816 21.5879 29.9732 19.8138 29.9835 18.0343V18.0061" fill="#BC8B35"/>
<path fill-rule="evenodd" clip-rule="evenodd" d="M19.8202 18.0003C16.546 17.9736 13.5303 19.8514 12 22.8698C14.2308 21.0081 16.4208 20.3136 19.6159 20.3136C23.191 20.3136 26.4229 22.2308 28 25C27.224 20.9362 23.8022 18.0105 19.8284 18.0131" fill="#BC8B35"/>
<path fill-rule="evenodd" clip-rule="evenodd" d="M19.4476 15.0013C17.6591 15.0252 16.3276 15.6703 15 16.6897C16.8318 16.2078 18.837 15.9371 20.9091 16.6379C24.5845 17.8922 26.6882 21.2769 28 25C27.9567 19.6164 25.27 14.9097 19.4476 15.0013Z" fill="#BC8B35"/>
<path fill-rule="evenodd" clip-rule="evenodd" d="M30 25C31.5726 22.2215 34.8078 20.3051 38.3819 20.3051C41.5803 20.3051 43.7697 21.0179 46 22.866C44.4647 19.847 41.4494 17.9714 38.1777 18.0003C34.2043 17.9961 30.7826 20.9279 30.0082 25" fill="#BC8B35"/>
<path fill-rule="evenodd" clip-rule="evenodd" d="M30 25C31.3291 21.2625 33.4289 17.8793 37.1016 16.6414C39.1503 15.9369 41.1518 16.2076 43 16.6932C41.6748 15.6702 40.3418 15.0254 38.5566 15.0016C32.7329 14.902 30.0668 19.5908 30 25Z" fill="#BC8B35"/>
<path fill-rule="evenodd" clip-rule="evenodd" d="M30 26.0047C30.0019 25.5994 29.759 25.233 29.3849 25.0771C29.0108 24.9211 28.5795 25.0063 28.2929 25.2929C28.0063 25.5795 27.9211 26.0108 28.0771 26.3849C28.233 26.759 28.5994 27.0019 29.0047 27C29.5544 27 30 26.5544 30 26.0047Z" fill="#BC8B35"/>
<path fill-rule="evenodd" clip-rule="evenodd" d="M27.9858 26C27.4348 26.0078 26.994 26.46 27.0001 27.011C27.0061 27.562 27.4568 28.0043 28.0078 28C28.5589 27.9957 29.0025 27.5464 29 26.9953C28.9974 26.4467 28.5533 26.0026 28.0047 26" fill="#BC8B35"/>
<path fill-rule="evenodd" clip-rule="evenodd" d="M30.9905 28C31.3958 28.0038 31.7633 27.7626 31.9211 27.3893C32.0789 27.0159 31.9957 26.5843 31.7104 26.2963C31.4252 26.0083 30.9944 25.921 30.6195 26.0752C30.2447 26.2294 30 26.5947 30 27C30 27.5486 30.4419 27.9948 30.9905 28Z" fill="#BC8B35"/>
</svg>
