<svg width="90" height="54" viewBox="0 0 90 54" fill="none" xmlns="http://www.w3.org/2000/svg">
<path fill-rule="evenodd" clip-rule="evenodd" d="M27.5683 51.8945C27.6557 51.808 27.7302 51.7027 27.7885 51.5834H27.8062C27.8817 51.4144 27.9169 51.2215 27.9075 51.0278V50.1057C27.909 49.9535 27.8865 49.8024 27.8414 49.6612C27.7997 49.5282 27.735 49.4087 27.652 49.3112C27.5664 49.2144 27.468 49.1373 27.3612 49.0835C27.2386 49.0262 27.1087 48.9979 26.978 49.0001H25V54H25.7357V52.15H26.5242L27.2863 54H28V53.6056L27.2423 52.0778C27.3597 52.0454 27.4707 51.983 27.5683 51.8945ZM26.7797 51.3667H25.7357V49.8001H26.7797C26.8844 49.7987 26.9854 49.8485 27.0617 49.939C27.1335 50.0237 27.1735 50.1428 27.1718 50.2668V50.9056C27.1722 51.0277 27.1323 51.1444 27.0617 51.2278C26.9868 51.321 26.8848 51.3712 26.7797 51.3667Z" fill="#231F20"/>
<path fill-rule="evenodd" clip-rule="evenodd" d="M30 49H33V49.5351L32.7805 49.786H30.8098V51.0736H32.4049V51.8595H30.8098V53.214H33V54H30V49Z" fill="#231F20"/>
<path fill-rule="evenodd" clip-rule="evenodd" d="M37.907 53.3365C37.8559 53.4644 37.7856 53.5797 37.6996 53.6765C37.6079 53.7799 37.4998 53.8595 37.3818 53.9106C37.2529 53.9727 37.1151 54.003 36.9764 53.9998H35V53.2138H36.7414C36.8678 53.2221 36.9919 53.1701 37.0869 53.0689C37.169 52.9773 37.2143 52.8473 37.2113 52.7122V52.4669C37.2184 52.3526 37.1976 52.2382 37.1514 52.1381C37.1094 52.0669 37.047 52.0172 36.9764 51.9987L35.7647 51.681C35.562 51.6286 35.3781 51.4998 35.2396 51.3132C35.0947 51.1069 35.0191 50.8423 35.0276 50.5718V50.0702C35.0291 49.9317 35.0541 49.795 35.1014 49.6689C35.1514 49.5386 35.2218 49.4212 35.3087 49.3233C35.4011 49.2211 35.5091 49.1416 35.6265 49.0892C35.7563 49.0308 35.8935 49.0006 36.0319 49H37.8747V49.5574L37.6674 49.8082H36.2853C36.1589 49.8 36.0349 49.852 35.9398 49.9531C35.8577 50.0448 35.8124 50.1748 35.8154 50.3099V50.4882C35.8073 50.5956 35.8283 50.7032 35.8753 50.7948C35.9211 50.8576 35.9825 50.9007 36.0504 50.9174L37.262 51.2351C37.4648 51.2875 37.6486 51.4163 37.7872 51.603C37.9338 51.8211 38.0093 52.0968 37.9991 52.3778V52.9352C37.9978 53.0755 37.9727 53.2139 37.9254 53.342" fill="#231F20"/>
<rect x="40" y="49" width="1" height="5" fill="#231F20"/>
<path fill-rule="evenodd" clip-rule="evenodd" d="M45.0495 49.0001H43V53.9999H45.0495C45.1832 54.0021 45.316 53.9738 45.4414 53.9164C45.5528 53.8647 45.6552 53.7872 45.7432 53.6881C45.8278 53.5913 45.8926 53.4711 45.9324 53.3373C45.9785 53.1958 46.0015 53.0444 45.9999 52.8919V50.1081C46.0015 49.9556 45.9785 49.8042 45.9324 49.6627C45.8914 49.5297 45.8268 49.4098 45.7432 49.3119C45.654 49.2148 45.5519 49.1376 45.4414 49.0836C45.316 49.0262 45.1832 48.9979 45.0495 49.0001ZM45.1351 49.9244C45.2097 50.0087 45.2522 50.1279 45.2522 50.2528V52.7472C45.2509 52.8702 45.2085 52.987 45.1351 53.0701C45.0588 53.164 44.9544 53.2144 44.8468 53.2093H43.7522V49.7852H44.8468C44.954 49.7826 45.0577 49.8327 45.1351 49.9244Z" fill="#231F20"/>
<path fill-rule="evenodd" clip-rule="evenodd" d="M49 49H52V49.5351L51.7805 49.786H49.8146V51.0736H51.4049V51.8595H49.8146V53.214H52V54H49V49Z" fill="#231F20"/>
<path fill-rule="evenodd" clip-rule="evenodd" d="M56.3378 52.4281L56.2523 51.1405V49H57V54H56.2207L54.7207 50.5719H54.6667L54.7523 51.8595V54H54V49H54.7793L56.2793 52.4281H56.3378Z" fill="#231F20"/>
<path fill-rule="evenodd" clip-rule="evenodd" d="M59.7943 52.7527C59.7957 52.8758 59.8407 52.9926 59.9187 53.0757C60.0001 53.169 60.1108 53.2193 60.2249 53.2149H62V53.9999H60.0096C59.8692 54.0017 59.7297 53.9734 59.5981 53.9164C59.4787 53.8673 59.3695 53.7895 59.2776 53.6881C59.1864 53.5915 59.1159 53.4714 59.0718 53.3374C59.0228 53.1959 58.9984 53.0445 59.0001 52.8919V50.1081C58.9984 49.9555 59.0228 49.8041 59.0718 49.6626C59.1171 49.5294 59.1874 49.4095 59.2776 49.3119C59.3704 49.2119 59.4794 49.1343 59.5981 49.0836C59.7297 49.0266 59.8692 48.9983 60.0096 49.0001H62V49.5569L61.7895 49.8074H60.2249C60.1112 49.806 60.0015 49.8559 59.9187 49.9466C59.8395 50.0309 59.7943 50.1501 59.7943 50.2751V52.7527Z" fill="#231F20"/>
<path fill-rule="evenodd" clip-rule="evenodd" d="M64 49H67V49.5351L66.7805 49.786H64.8098V51.0736H66.4049V51.8595H64.8098V53.214H67V54H64V49Z" fill="#231F20"/>
<rect x="14" y="17" width="9" height="2" fill="#231F20"/>
<rect x="17" y="17" width="2" height="24" fill="#231F20"/>
<rect x="28" y="17" width="8" height="2" fill="#231F20"/>
<rect x="28" y="28" width="8" height="2" fill="#231F20"/>
<rect x="28" y="39" width="8" height="2" fill="#231F20"/>
<rect x="28" y="16" width="2" height="25" fill="#231F20"/>
<rect x="41" y="39" width="8" height="2" fill="#231F20"/>
<rect x="41" y="16" width="2" height="25" fill="#231F20"/>
<rect x="54" y="39" width="8" height="2" fill="#231F20"/>
<rect x="54" y="16" width="2" height="25" fill="#231F20"/>
<path fill-rule="evenodd" clip-rule="evenodd" d="M68.5175 16L65 41H67.4749L70.5026 19.4701L73.5251 41H76L72.4825 16H68.5175Z" fill="#231F20"/>
<rect x="80" y="16" width="2" height="25" fill="#231F20"/>
<path fill-rule="evenodd" clip-rule="evenodd" d="M86.887 22.4415C86.8537 24.3141 86.085 26.1035 84.7387 27.4425L84.2173 27.9142L87.5075 41H90L86.9027 28.6648C88.4469 26.937 89.3083 24.7308 89.3326 22.4415C89.3326 18.0136 86.9392 16 84.7178 16H81V18.3585H84.7022C85.7451 18.3585 86.8922 19.7888 86.8922 22.4161" fill="#231F20"/>
<path fill-rule="evenodd" clip-rule="evenodd" d="M5 42C2.15553 42 0.0104384 39.5299 0.0104384 36.2722V34.2573H2.43737V36.2722C2.43737 38.2002 3.53862 39.6475 5 39.6475C6.46138 39.6475 7.56263 38.2002 7.56263 36.2722C7.56263 34.109 5.59499 31.1581 4.17537 29.9001C2.87056 28.7238 0 25.0417 0 21.7789C0 18.5161 2.15553 16 5 16C7.84447 16 9.98956 18.4752 9.98956 21.7533V23.7478H7.56263V21.7533C7.56263 19.8304 6.46138 18.3832 5 18.3832C3.53862 18.3832 2.43737 19.8304 2.43737 21.7533C2.43737 23.9626 4.60856 27.0311 5.82463 28.1255C7.43215 29.583 10 33.0759 10 36.2467C10 39.5299 7.85491 42 5.01044 42" fill="#231F20"/>
<path fill-rule="evenodd" clip-rule="evenodd" d="M65 13C65 13 45.5025 8.5124 45.5025 0C45.5025 8.5124 26 13 26 13C26 13 40.8064 8.788 45.4874 8.788C50.1684 8.788 65 13 65 13Z" fill="#2F693D"/>
<path fill-rule="evenodd" clip-rule="evenodd" d="M55.4098 14C56.1349 11.6702 55.9982 10.3509 55 10.0421C55.9982 10.3474 56.8616 9.33333 57.5902 7C56.8651 9.33333 57.0018 10.6526 58 10.9579C57.0018 10.6526 56.1384 11.6667 55.4098 14Z" fill="#2F693D"/>
</svg>
