<svg width="90" height="40" viewBox="0 0 90 40" fill="none" xmlns="http://www.w3.org/2000/svg">
<path d="M76.6118 0.911363C76.4703 1.02233 76.319 1.12009 76.16 1.20343L75.5951 0.952435C74.7585 0.812397 73.9127 0.736123 73.0647 0.724257C72.5677 0.724257 70.7648 0.724257 68.998 0.724257C67.3216 0.724257 65.591 0.724257 65.3831 0.724257L64.8364 0.642113C63.677 0.425688 62.4998 0.321774 61.3209 0.331791C59.5586 0.359173 56.7119 1.53201 53.9646 2.66833C52.3052 3.38671 50.6047 4.0039 48.8721 4.51657C43.1651 6.0408 37.901 4.8771 31.7512 2.66833C27.82 1.25363 24.2051 1.75562 21.0104 4.13324C17.26 6.93526 11.9326 8.24044 5.19534 8.0579C1.86965 8.27238 0.161614 9.93808 0.0893162 10.0111C-0.0205408 10.1241 -0.0302147 10.3019 0.0667231 10.4264C0.166029 10.5535 0.34141 10.59 0.482434 10.5131L1.11052 10.1617C1.45845 10.043 5.95446 9.47716 8.30413 9.67796C11.9732 9.98828 19.1488 7.30947 19.4696 7.19538C20.4049 6.77097 21.4126 6.54279 21.6024 6.70708C21.6024 6.70708 21.6295 6.78466 21.6024 6.91244C20.6987 10.4355 17.5356 12.9728 12.2398 14.4469C11.074 14.7709 8.69725 16.1902 5.94091 17.8376C4.51755 18.7092 3.00381 19.5854 1.59853 20.3704C1.51951 20.4117 1.46103 20.4843 1.43704 20.5708C1.41305 20.6573 1.42572 20.75 1.47201 20.8267C1.51386 20.9055 1.58572 20.9637 1.67099 20.9878C1.75626 21.0119 1.84758 20.9999 1.92387 20.9545C3.33819 20.1605 4.83385 19.2706 6.27528 18.408C8.878 16.8564 11.3361 15.387 12.3889 15.0949C17.9378 13.525 21.2364 10.8371 22.2124 7.07673C22.3311 6.77551 22.2518 6.43153 22.0136 6.21422C21.3945 5.68028 19.7272 6.37394 19.2301 6.59756C19.1759 6.59756 11.8829 9.33569 8.35836 9.0345C6.39629 8.95985 4.43148 9.04991 2.48417 9.30375C3.34988 8.95683 4.26539 8.75341 5.19534 8.70136C12.0681 8.90215 17.5311 7.53765 21.399 4.64892C24.4581 2.36714 27.7748 1.91078 31.5478 3.27985C37.8061 5.52968 43.1787 6.70708 49.0438 5.14635C50.7982 4.61018 52.5197 3.97018 54.1996 3.22965C56.9107 2.11614 59.6761 0.947872 61.3164 0.947872C62.4574 0.94087 63.5965 1.04171 64.7189 1.24907L65.3334 1.34034C65.5819 1.34034 67.168 1.34034 69.007 1.34034C70.7467 1.34034 72.5496 1.34034 73.0331 1.34034C73.8165 1.35446 74.5983 1.41848 75.3737 1.53201L76.0199 1.81951C76.1094 1.85807 76.2106 1.85807 76.3 1.81951C76.6082 1.6902 76.8901 1.50455 77.1315 1.27188C77.2655 1.07598 77.4167 0.892696 77.5833 0.724257C77.5924 0.75273 77.5999 0.781675 77.6059 0.810965C77.7411 1.52729 78.0969 2.18216 78.6226 2.68202C78.9741 3.0513 79.3685 3.37617 79.7974 3.6495L80.0008 3.74533C80.276 3.82082 80.5072 4.00959 80.6379 4.26558C80.8611 4.80048 81.0233 5.35931 81.1214 5.93128C81.201 6.37258 81.3943 6.78495 81.6817 7.12693L81.8579 7.40987L81.9619 7.60154L82.0116 7.68825L81.7947 7.85254C81.542 8.00909 81.3322 8.2272 81.1847 8.48687C81.0647 8.83625 80.7827 9.10399 80.43 9.20335C79.9366 9.30654 79.5246 9.64761 79.3275 10.1161C79.2979 10.2062 79.2368 10.2824 79.1558 10.3305C79.078 10.332 79.0024 10.3043 78.9434 10.253C77.7008 9.36764 77.4839 9.0847 77.4478 9.00255C77.0991 8.4076 76.4603 8.04837 75.7759 8.06246L75.2743 8.11266C74.8404 8.21685 74.385 8.18011 73.973 8.0077C73.0331 7.55134 72.2875 7.55134 71.9351 8.08528C71.6726 8.43141 71.4582 8.81219 71.298 9.21704C71.2367 9.38497 71.1447 9.53977 71.0268 9.6734L70.0915 10.8919L69.3866 11.8046C69.1427 12.0443 69.0447 12.3976 69.1297 12.7305C69.2146 13.0633 69.4696 13.3247 69.7978 13.4155C70.2934 13.5591 70.802 13.6523 71.316 13.6939C71.6718 13.7312 72.0249 13.7907 72.3734 13.8719C73.6381 14.3513 74.9547 14.6776 76.2955 14.8439C76.9551 14.9384 77.5966 15.1339 78.1979 15.4235L79.0067 15.8798C80.3623 16.6739 82.8927 18.1616 84.1624 18.7412C85.6942 19.4622 87.9852 20.2426 88.803 20.2335L89.648 20.3247C89.761 20.337 89.8719 20.2874 89.9389 20.1947C90.0059 20.1019 90.0188 19.9802 89.9728 19.8752C89.9267 19.7703 89.8288 19.6981 89.7158 19.6858L88.8527 19.59H88.8075C88.2472 19.59 86.1687 18.9739 84.429 18.1571C83.1864 17.5729 80.674 16.108 79.323 15.3231L78.4961 14.8667C77.8321 14.5416 77.1215 14.3245 76.3904 14.2233C75.1207 14.0617 73.8731 13.7555 72.6716 13.3106C72.2588 13.1747 71.8307 13.0919 71.3974 13.0641C70.9404 13.0209 70.4873 12.9431 70.0418 12.8314C69.9153 12.7766 69.7616 12.6853 69.739 12.5667C69.7304 12.4497 69.7696 12.3343 69.8475 12.2472L70.5885 11.2935L71.5329 10.0385C71.6889 9.85748 71.8128 9.65059 71.8989 9.42696C72.0447 9.07013 72.2361 8.73413 72.4683 8.42754C72.6355 8.18111 73.2048 8.31802 73.6928 8.56445C74.2159 8.80155 74.8009 8.8608 75.3602 8.7333L75.812 8.68767C76.2351 8.6852 76.6315 8.89567 76.8694 9.24898C77.0095 9.55474 77.502 9.99284 78.5819 10.7595C78.7918 10.9316 79.0689 10.9957 79.332 10.9329C79.6037 10.838 79.8192 10.6255 79.9194 10.3534C80.0314 10.088 80.2609 9.89176 80.5385 9.82399C81.0913 9.70303 81.5475 9.31078 81.754 8.77894C81.8592 8.61496 82.0017 8.47882 82.1697 8.38191L82.4092 8.19937C82.5509 8.09242 82.6419 7.9304 82.6599 7.75263C82.6779 7.57486 82.6214 7.39759 82.5041 7.26384L82.4453 7.15887L82.2104 6.77554C82.0185 6.52041 81.8661 6.23727 81.7585 5.93584C81.6605 5.279 81.4829 4.63681 81.2298 4.02371C81.0437 3.59957 80.6842 3.27812 80.2448 3.14294L80.1137 3.07905C79.7216 2.83027 79.3618 2.53285 79.0428 2.19372C78.6114 1.78055 78.3231 1.23813 78.2205 0.646677L78.1707 0.404808C78.131 0.204515 77.976 0.0479577 77.7776 0.00777852C77.3664 -0.0652384 76.9914 0.386554 76.6118 0.911363Z" fill="black"/>
<path fill-rule="evenodd" clip-rule="evenodd" d="M44 28H45.029L46 17H44.971L44 28Z" fill="black"/>
<path fill-rule="evenodd" clip-rule="evenodd" d="M47.0266 17H46L46.9685 28H48L47.0266 17Z" fill="black"/>
<path fill-rule="evenodd" clip-rule="evenodd" d="M22.9988 27.3849V17H22V28H22.2954H22.9988H26V27.3849H22.9988Z" fill="black"/>
<path fill-rule="evenodd" clip-rule="evenodd" d="M55 28H56.0315L57 17H55.9734L55 28Z" fill="black"/>
<path fill-rule="evenodd" clip-rule="evenodd" d="M58.0266 17H57L57.9734 28H59L58.0266 17Z" fill="black"/>
<path fill-rule="evenodd" clip-rule="evenodd" d="M49.9988 27.3849V17H49V28H49.2907H49.9988H53V27.3849H49.9988Z" fill="black"/>
<path fill-rule="evenodd" clip-rule="evenodd" d="M31 17.6151V17H28.0083H27.2378H27V28H27.2378H28.0083H31V27.3849H28.0083V23.6426H31V23.0323H28.0083V17.6151H31Z" fill="black"/>
<path fill-rule="evenodd" clip-rule="evenodd" d="M70 17.6151V17H67.0131H66.2378H66V28H66.2378H67.0131H70V27.3849H67.0131V23.6426H70V23.0323H67.0131V17.6151H70Z" fill="black"/>
<path fill-rule="evenodd" clip-rule="evenodd" d="M61.989 23.4953V23.4526C61.9861 21.4667 62.668 19.5407 63.9196 18H62.6751C61.5747 19.6094 60.9904 21.5165 61.0001 23.4668V23.5095C61.0044 25.4751 61.6123 27.3919 62.7414 29H64C62.7068 27.4573 61.9951 25.5093 61.989 23.4953Z" fill="black"/>
<path fill-rule="evenodd" clip-rule="evenodd" d="M34.0644 23.4456C34.0621 21.5985 34.3672 19.762 34.9692 18H33.8382C33.2732 19.773 32.991 21.6121 33.0002 23.4598V23.5024C32.9947 25.3639 33.2857 27.2161 33.8639 29H35C34.3765 27.2191 34.0608 25.3592 34.0644 23.4882V23.4456Z" fill="black"/>
<path fill-rule="evenodd" clip-rule="evenodd" d="M35.1597 18H34.0258C34.6299 19.7665 34.9324 21.6083 34.9226 23.4598V23.5024C34.9267 25.3677 34.6155 27.2223 34 29H35.1236C35.7081 27.212 36.0033 25.3549 35.9998 23.4882V23.4456C36.0076 21.6027 35.7246 19.7685 35.1597 18V18Z" fill="black"/>
<rect x="39" y="17" width="1" height="11" fill="black"/>
<path fill-rule="evenodd" clip-rule="evenodd" d="M41.0232 18H40C40.7185 18.8017 41.1435 19.8706 41.1931 21C41.1446 22.1297 40.7194 23.199 40 24H41.0232C41.6179 23.1346 41.9588 22.0874 42 21C41.9586 19.9126 41.6176 18.8655 41.0232 18Z" fill="black"/>
<path fill-rule="evenodd" clip-rule="evenodd" d="M44 32H42.9038H42.0962H41V32.4471H42.0962V40H42.9038V32.4471H44V32Z" fill="black"/>
<path fill-rule="evenodd" clip-rule="evenodd" d="M32.3961 32V36.3853H30.6079V32H30V40H30.6079V36.8323H32.3961V40H33V32H32.3961Z" fill="black"/>
<path fill-rule="evenodd" clip-rule="evenodd" d="M50 32.4471V32H47.7586H47.1823H47V40H47.1823H47.7586H50V39.5529H47.7586V36.8323H50V36.3853H47.7586V32.4471H50Z" fill="black"/>
<path fill-rule="evenodd" clip-rule="evenodd" d="M53.7488 39.5529V32H53V40H53.2188H53.7488H56V39.5529H53.7488Z" fill="black"/>
<path fill-rule="evenodd" clip-rule="evenodd" d="M36.5297 35.9715C36.5251 34.6247 36.6731 33.285 36.9686 32H36.4112C36.1341 33.2897 35.9957 34.6275 36.0001 35.9715V36C36.005 37.3555 36.1541 38.7029 36.4426 40H37C36.6965 38.7073 36.5436 37.3575 36.5471 36L36.5297 35.9715Z" fill="black"/>
<path fill-rule="evenodd" clip-rule="evenodd" d="M37.58 32H37.0142C37.3143 33.2855 37.4655 34.6248 37.4626 35.9715V36C37.4626 37.3571 37.3066 38.7062 37 40H37.5658C37.8544 38.7017 38.0006 37.3544 37.9999 36V35.9715C38.0044 34.6275 37.863 33.2897 37.58 32V32Z" fill="black"/>
<path fill-rule="evenodd" clip-rule="evenodd" d="M59.6291 35.1678H60.3273C60.7355 35.8599 60.9704 36.6984 61 37.5697C60.9728 38.4496 60.7394 39.2976 60.3309 40H59.6291C60.122 39.3538 60.4135 38.4931 60.4473 37.5839C60.4471 37.3301 60.4214 37.0774 60.3709 36.8322H59.6691C59.2611 36.1349 59.0275 35.2915 59 34.4161C59.0287 33.5409 59.2621 32.698 59.6691 32H60.3745C59.8782 32.6437 59.585 33.5055 59.5527 34.4161C59.5532 34.6699 59.5788 34.9226 59.6291 35.1678ZM59.6291 35.1678V35.1726C59.767 35.7901 60.0164 36.3558 60.3564 36.8227C60.2181 36.204 59.9688 35.6369 59.6291 35.1678Z" fill="black"/>
</svg>
