<svg width="151" height="33" viewBox="0 0 151 33" fill="none" xmlns="http://www.w3.org/2000/svg">
<path fill-rule="evenodd" clip-rule="evenodd" d="M18.7364 22H5V2.58579L11.8225 0V15.3235L21 15.336L18.7364 22Z" fill="#808285"/>
<path fill-rule="evenodd" clip-rule="evenodd" d="M28.5491 12C32.6423 12 35 14.8124 35 19.2959V19.7834H26.1832C26.1832 21.675 27.0797 22.6963 28.807 22.6963C29.6761 22.7395 30.479 22.2584 30.8086 21.4971H34.8404C34.1568 24.5957 31.529 26 28.8356 26C24.9225 26 22 23.5435 22 19.0135C22 14.6383 24.7056 12 28.5491 12ZM28.6801 15.1272C27.4682 15.1272 26.4374 15.9627 26.2528 17.0948H31.1074C30.9228 15.9627 29.892 15.1272 28.6801 15.1272Z" fill="#034EA2"/>
<path fill-rule="evenodd" clip-rule="evenodd" d="M36 19.0135C36 14.5377 39.2633 12 42.998 12C46.7367 12 50 14.5609 50 19.0135C50 23.4662 46.7125 26 42.998 26C39.2835 26 36 23.4894 36 19.0135ZM45.6489 19.0135C45.6489 17.4004 44.678 16.0464 42.998 16.0464C41.322 16.0464 40.3511 17.3501 40.3511 19.0135C40.3511 20.677 41.318 21.9574 42.998 21.9574C44.678 21.9574 45.6489 20.6267 45.6489 19.0135Z" fill="#034EA2"/>
<path fill-rule="evenodd" clip-rule="evenodd" d="M51 12.4609H55.26V14.0194H55.3058C56.0416 12.7506 57.4359 11.9755 58.9369 12.0006C62.5015 12.0006 65 15.3922 65 19.349C65 23.3058 62.5431 26.6166 58.9827 26.6166C57.5234 26.6384 56.1408 25.9846 55.26 24.8562V33H51V12.4609ZM60.5985 19.3247C60.5985 17.6411 59.5907 16.2279 57.8584 16.2279C56.1261 16.2279 55.1184 17.5886 55.1184 19.3247C55.1184 21.0609 56.1261 22.3973 57.8584 22.3973C59.5907 22.3973 60.5985 21.0084 60.5985 19.3247Z" fill="#034EA2"/>
<path fill-rule="evenodd" clip-rule="evenodd" d="M75.7413 12.4373H80L79.9917 25.5653H75.733V24.0955H75.683C74.9509 25.3047 73.558 26.0374 72.0654 25.9985C68.4978 25.9985 66 22.7533 66 18.9897C66 15.2262 68.4603 12.0002 72.0196 12.0002C73.4837 11.9858 74.8669 12.6226 75.7413 13.7138V12.4373ZM75.8787 19.0129C75.8787 17.4 74.8754 16.0462 73.1395 16.0462C71.4118 16.0462 70.4044 17.3497 70.4044 19.0129C70.4044 20.6762 71.4035 21.9565 73.1395 21.9565C74.8754 21.9565 75.8787 20.6259 75.8787 19.0129Z" fill="#034EA2"/>
<rect x="82" y="4" width="4" height="22" fill="#034EA2"/>
<path fill-rule="evenodd" clip-rule="evenodd" d="M95.74 12.4373H100V25.5651H95.74V24.0952H95.6942C94.9591 25.3075 93.5603 26.0406 92.0631 25.9983C88.4985 25.9983 86 22.7531 86 18.9896C86 15.2261 88.4569 12.0002 92.0173 12.0002C93.4817 11.9858 94.8654 12.6226 95.74 13.7137V12.4373ZM95.8775 19.0128C95.8775 17.3999 94.8739 16.0461 93.1416 16.0461C91.3926 16.0461 90.4015 17.3496 90.4015 19.0128C90.4015 20.676 91.4093 21.9563 93.1416 21.9563C94.8739 21.9563 95.8775 20.6257 95.8775 19.0128Z" fill="#034EA2"/>
<path fill-rule="evenodd" clip-rule="evenodd" d="M111 12.7737C110.211 12.2684 109.29 11.9996 108.349 12C104.785 12 102 14.9207 102 19.145C102 23.1101 104.809 25.9999 108.172 25.9999C109.165 26.0068 110.141 25.7517 111 25.261V21.3229C110.479 21.8743 109.755 22.1963 108.99 22.2165C107.33 22.2165 106.158 20.8858 106.158 18.9941C106.158 17.176 107.373 15.7949 108.911 15.7949C109.694 15.8453 110.432 16.1723 110.988 16.7156L111 12.7737Z" fill="#034EA2"/>
<path fill-rule="evenodd" clip-rule="evenodd" d="M118.541 12C122.633 12 125 14.8162 125 19.2959V19.7834H116.182C116.182 21.675 117.086 22.6963 118.807 22.6963C119.675 22.7395 120.477 22.2584 120.806 21.4971H124.828C124.162 24.5957 121.517 26 118.827 26C114.923 26 112 23.5435 112 19.0135C112 14.6383 114.702 12 118.541 12ZM118.676 15.1272C117.465 15.1272 116.436 15.9627 116.252 17.0948H121.1C120.916 15.9627 119.886 15.1272 118.676 15.1272Z" fill="#034EA2"/>
<path fill-rule="evenodd" clip-rule="evenodd" d="M137.294 21.5547L139.981 18.6356C141.759 16.7571 142.799 15.0729 142.799 12.1781C142.799 7.78543 139.726 5 136.074 5C131.966 5 129.423 8.1336 129.283 12.7692H134.275C134.238 12.4846 134.223 12.1977 134.229 11.9109C134.229 10.5466 134.899 9.44534 136.123 9.44534C137.347 9.44534 138.107 10.7854 138.107 12.0729C138.107 13.919 137.142 15.7409 136.123 17.0243L129 26H143V21.5466L137.294 21.5547Z" fill="#034EA2"/>
<path fill-rule="evenodd" clip-rule="evenodd" d="M146.485 10.4026V26H151V6H144V10.4026H146.485Z" fill="#034EA2"/>
<path fill-rule="evenodd" clip-rule="evenodd" d="M0 26V0L5.76406 3.12191V20.3542H16.2416L21 25.988L0 26Z" fill="#034EA2"/>
<path fill-rule="evenodd" clip-rule="evenodd" d="M21 15V26L15 20.5117L21 15Z" fill="#AFB1B4"/>
<path fill-rule="evenodd" clip-rule="evenodd" d="M0 0H11L5.48638 6L0 0Z" fill="#AFB1B4"/>
</svg>
