<svg width="150" height="34" viewBox="0 0 150 34" fill="none" xmlns="http://www.w3.org/2000/svg">
<path fill-rule="evenodd" clip-rule="evenodd" d="M117 33L118.029 27.0094H119.531L120.823 30.7771C120.858 30.8901 120.888 31.0049 120.91 31.1209C120.946 31.2716 120.972 31.4458 121.003 31.6389C121.028 31.4411 121.054 31.2669 121.085 31.1115C121.103 30.9947 121.132 30.8797 121.172 30.7677L122.489 27H123.971L125 32.9906H123.637L123.122 29.5432C123.086 29.2559 123.06 29.0392 123.05 28.8932C123.04 28.7473 123.05 28.6154 123.05 28.4882C123.047 28.438 123.047 28.3877 123.05 28.3375C123.047 28.3077 123.047 28.2778 123.05 28.248C123.004 28.4976 122.963 28.719 122.916 28.898C122.87 29.0769 122.839 29.2182 122.808 29.3077L121.399 33H120.591L119.192 29.3171C119.192 29.2794 119.15 29.1758 119.109 29.0063C119.068 28.8367 119.012 28.5824 118.94 28.2527V28.4411C118.935 28.8065 118.908 29.1713 118.857 29.5338L118.368 32.9812L117 33Z" fill="#333333"/>
<path fill-rule="evenodd" clip-rule="evenodd" d="M130 32.9915V29.1322H131.118V29.7387C131.295 29.5089 131.523 29.318 131.785 29.1789C132.029 29.0585 132.3 28.9972 132.574 29.0007C132.841 28.993 133.105 29.0454 133.345 29.1534C133.555 29.2572 133.727 29.4184 133.837 29.6157C133.898 29.7308 133.94 29.8537 133.963 29.9804C133.991 30.1914 134.003 30.404 133.999 30.6166V32.9915H132.84V31.0916C132.873 30.7694 132.816 30.4448 132.674 30.1501C132.535 29.9864 132.318 29.9001 132.097 29.921C131.79 29.9173 131.501 30.0571 131.326 30.2943C131.255 30.3891 131.205 30.4956 131.177 30.6081C131.14 30.7855 131.125 30.9661 131.132 31.1467V33L130 32.9915Z" fill="#333333"/>
<path fill-rule="evenodd" clip-rule="evenodd" d="M135.15 26.2327C135.053 26.3827 134.999 26.5856 135 26.7962C135 27.0049 135.054 27.2054 135.15 27.3545C135.237 27.5035 135.36 27.5914 135.491 27.5975C135.628 27.5976 135.759 27.5115 135.853 27.3597C135.951 27.2096 136.005 27.0068 136.003 26.7962C136.005 26.5853 135.951 26.3821 135.853 26.2327C135.759 26.0823 135.628 25.998 135.491 26C135.361 26.0041 135.238 26.0881 135.15 26.2327ZM135.079 28.2954V33H135.938V28.2954H135.079Z" fill="#333333"/>
<path fill-rule="evenodd" clip-rule="evenodd" d="M138 33V26H139V33H138Z" fill="#333333"/>
<path fill-rule="evenodd" clip-rule="evenodd" d="M52 31.9677L52.7109 31.0668C52.8001 31.3117 52.956 31.5166 53.1552 31.6503C53.3576 31.7905 53.5899 31.8632 53.8261 31.8602C54.0792 31.876 54.3297 31.793 54.5369 31.6248C54.7072 31.4717 54.8031 31.2335 54.7946 30.9849C54.7946 30.6676 54.5058 30.3502 53.906 30.038L53.4617 29.7923C53.0537 29.5795 52.6866 29.2749 52.3821 28.8965C52.1828 28.6051 52.0761 28.2438 52.08 27.8728C52.0728 27.3377 52.2914 26.832 52.6664 26.5163C53.1068 26.1495 53.6434 25.9688 54.1859 26.0044C54.5081 25.9931 54.8284 26.0648 55.1234 26.2143C55.3983 26.3695 55.6373 26.5975 55.8209 26.8797L55.0479 27.6526C54.9684 27.4694 54.843 27.3178 54.688 27.2176C54.5244 27.1165 54.3404 27.067 54.1548 27.0742C53.9356 27.0605 53.7189 27.1347 53.5417 27.2841C53.3912 27.4146 53.3038 27.6199 53.3062 27.8369C53.3062 28.1901 53.6172 28.5126 54.2304 28.8044L54.5103 28.9426C54.9371 29.1338 55.3212 29.4329 55.6343 29.8179C55.8716 30.1249 56.0015 30.5226 55.9987 30.9337C56.0189 31.5088 55.8074 32.0624 55.4255 32.4335C54.989 32.8291 54.4429 33.0292 53.8883 32.9966C53.4837 33.0071 53.082 32.9163 52.7109 32.7304C52.4103 32.5684 52.1617 32.3015 52 31.9677H52Z" fill="#333333"/>
<path fill-rule="evenodd" clip-rule="evenodd" d="M58.1007 30.8201H60.9758C60.9794 30.7794 60.9837 30.7423 60.9875 30.7096C60.9927 30.6641 60.997 30.6271 60.997 30.6003V30.4675C61.0265 29.8052 60.8355 29.1561 60.4662 28.6637C59.6405 27.7614 58.3754 27.7814 57.5698 28.7097C56.8198 29.7406 56.809 31.2763 57.5443 32.3224C57.9334 32.7861 58.4669 33.0309 59.0137 32.9969C59.3813 33.0066 59.745 32.9047 60.0712 32.7005C60.3849 32.4819 60.6455 32.1683 60.8272 31.7909L59.9311 31.2442C59.8429 31.4265 59.7152 31.5767 59.5616 31.6785C59.3993 31.7747 59.2201 31.8221 59.0392 31.8165C58.8091 31.8316 58.5823 31.7443 58.4022 31.5712C58.233 31.3699 58.1265 31.1047 58.1007 30.8201ZM59.6126 29.3382C59.7679 29.5108 59.8622 29.7486 59.8759 30.0025H58.1389C58.1606 29.7458 58.2623 29.5085 58.4234 29.3382C58.593 29.1762 58.806 29.0944 59.0222 29.1082C59.2361 29.0926 59.4469 29.1747 59.6126 29.3382Z" fill="#333333"/>
<path fill-rule="evenodd" clip-rule="evenodd" d="M63.1571 29.777C63.2747 29.5713 63.4442 29.3942 63.6516 29.2605C63.9102 29.088 64.2228 28.9967 64.5428 29.0001C64.6713 29.0048 64.7993 29.0191 64.9253 29.0428H65L64.7994 30.2466C64.7088 30.2132 64.6151 30.1875 64.5194 30.1698C64.4226 30.1524 64.3242 30.1438 64.2255 30.1441C63.8643 30.1713 63.5347 30.3432 63.325 30.6137C63.1982 30.9509 63.149 31.3084 63.1804 31.6639V33H62V29.1154H63.2037L63.1571 29.777Z" fill="#333333"/>
<path fill-rule="evenodd" clip-rule="evenodd" d="M66.8337 32.9869L65 29H66.503L67.2645 31.0723C67.3246 31.2432 67.3747 31.3965 67.4098 31.5411C67.449 31.6852 67.4758 31.8316 67.49 31.9792C67.5251 31.7689 67.5651 31.5893 67.6002 31.4447C67.6326 31.3092 67.6762 31.176 67.7305 31.046L68.497 29.0131H70L68.1463 33L66.8337 32.9869Z" fill="#333333"/>
<path fill-rule="evenodd" clip-rule="evenodd" d="M71.1477 26.2327C71.0517 26.3809 70.9984 26.5845 71 26.7962C70.9996 27.006 71.0528 27.2073 71.1477 27.3546C71.2374 27.5106 71.365 27.599 71.4987 27.5975C71.7031 27.5951 71.8867 27.3999 71.9647 27.1021C72.0428 26.8043 72 26.4618 71.8562 26.2327C71.7622 26.0815 71.633 25.9974 71.4987 26.0001C71.3662 25.9972 71.239 26.0815 71.1477 26.2327ZM71.0755 28.2955V33H71.9317V28.2955H71.0755Z" fill="#333333"/>
<path fill-rule="evenodd" clip-rule="evenodd" d="M77 32.6781C76.8072 32.7862 76.5979 32.8672 76.3791 32.9183C75.4444 33.139 74.4521 32.906 73.7459 32.3C73.2426 31.8106 72.9748 31.1548 73.003 30.481C72.9678 29.8143 73.2397 29.1649 73.7518 28.6929C74.2638 28.2209 74.9684 27.9703 75.6917 28.0028C75.9304 28.0013 76.1685 28.0253 76.4013 28.0743C76.612 28.1212 76.8138 28.197 77 28.2992V29.6532C76.8402 29.5093 76.6521 29.3948 76.4456 29.316C76.2436 29.2385 76.0269 29.1986 75.8081 29.1985C75.4446 29.1842 75.0911 29.3101 74.8324 29.5459C74.5813 29.7968 74.4496 30.1298 74.4666 30.4708C74.4456 30.8172 74.5822 31.1561 74.8435 31.4058C75.1117 31.6475 75.4781 31.7737 75.8525 31.7533C76.0665 31.7585 76.2789 31.7183 76.4734 31.6358C76.6691 31.5493 76.8415 31.4236 76.9778 31.2679L77 32.6781Z" fill="#333333"/>
<path fill-rule="evenodd" clip-rule="evenodd" d="M78.1049 30.8202H80.98C80.9822 30.7959 80.9843 30.7729 80.9863 30.7514C80.9923 30.6867 80.997 30.6349 80.997 30.6004V30.4676C81.0265 29.8053 80.8355 29.1561 80.4662 28.6637C79.6405 27.7613 78.3754 27.7814 77.5698 28.7097C76.8198 29.7406 76.809 31.2764 77.5443 32.3225C77.934 32.7852 78.467 33.0299 79.0137 32.9971C79.3813 33.0068 79.745 32.9049 80.0712 32.7007C80.3849 32.4821 80.6455 32.1685 80.8272 31.7911L79.9353 31.2443C79.8471 31.4267 79.7194 31.5768 79.5658 31.6787C79.4036 31.7749 79.2243 31.8222 79.0435 31.8166C78.8133 31.8318 78.5865 31.7445 78.4064 31.5714C78.2372 31.3701 78.1308 31.1048 78.1049 30.8202ZM79.6168 29.3383C79.7722 29.5108 79.8664 29.7487 79.8801 30.0026H78.1431C78.1649 29.7458 78.2665 29.5085 78.4277 29.3383C78.5973 29.1763 78.8103 29.0945 79.0265 29.1083C79.2403 29.0926 79.4512 29.1748 79.6168 29.3383Z" fill="#333333"/>
<path fill-rule="evenodd" clip-rule="evenodd" d="M96.7367 30.8499C96.9132 30.4222 97.0027 29.9632 96.9999 29.5C97.0006 29.0407 96.9129 28.5856 96.7416 28.1599C96.5647 27.734 96.3044 27.3483 95.9763 27.0259C95.6488 26.7013 95.2613 26.4445 94.8357 26.27C93.9811 25.91 93.019 25.91 92.1644 26.27C91.7367 26.4432 91.3473 26.7001 91.0189 27.0259C90.6928 27.3433 90.4341 27.7241 90.2585 28.1452C90.0854 28.5755 89.9977 29.0357 90.0001 29.5C89.9957 30.0175 90.1073 30.5293 90.3267 30.9972C90.5547 31.4674 90.8885 31.8775 91.3016 32.1949C91.6158 32.4528 91.9721 32.6538 92.3545 32.7889C92.7304 32.9294 93.1283 33.0009 93.5293 33C93.9827 33.0009 94.4318 32.9108 94.8503 32.7349C95.2719 32.556 95.6557 32.2978 95.9812 31.974C96.3076 31.656 96.5648 31.2733 96.7367 30.8499ZM94.9721 31.0905C94.6018 31.5097 94.0668 31.7432 93.5098 31.7286C92.9526 31.7419 92.4172 31.5108 92.0426 31.0954C91.2596 30.176 91.2596 28.819 92.0426 27.8997C92.4143 27.4819 92.9479 27.2473 93.5049 27.2567C94.0633 27.2452 94.5984 27.4823 94.9673 27.9046C95.359 28.3407 95.5686 28.9122 95.5522 29.5C95.5727 30.0861 95.3645 30.657 94.9721 31.0905Z" fill="#333333"/>
<path fill-rule="evenodd" clip-rule="evenodd" d="M97.5819 32.9847V29.6194H97V28.6426H97.5819V27.6452C97.5382 27.1836 97.6918 26.7251 98.0033 26.3871C98.4062 26.0974 98.897 25.9633 99.388 26.0086C99.4698 26.002 99.552 26.002 99.6338 26.0086C99.757 26.0257 99.8793 26.0496 100 26.0802V27.1031C99.926 27.0653 99.8487 27.0345 99.7692 27.0111C99.6925 27.0032 99.6152 27.0032 99.5385 27.0111C99.3539 26.9876 99.1691 27.0517 99.0368 27.185C98.9186 27.3638 98.8654 27.579 98.8863 27.7936V28.6426H99.7241V29.6347H98.8863V33L97.5819 32.9847Z" fill="#333333"/>
<path fill-rule="evenodd" clip-rule="evenodd" d="M100.587 32.9847V29.6193H100V28.6424H100.587V27.645C100.542 27.1841 100.694 26.7257 101.003 26.3868C101.407 26.098 101.897 25.9639 102.388 26.0084C102.47 26.0017 102.552 26.0017 102.634 26.0084C102.757 26.025 102.879 26.0489 103 26.08V27.1029C102.926 27.0642 102.849 27.0334 102.769 27.0108C102.692 27.003 102.615 27.003 102.538 27.0108C102.354 26.9874 102.169 27.0515 102.037 27.1847C101.919 27.3635 101.865 27.5788 101.886 27.7933V28.6424H102.729V29.6346H101.886V33L100.587 32.9847Z" fill="#333333"/>
<path fill-rule="evenodd" clip-rule="evenodd" d="M104.147 26.2299C104.052 26.3781 103.998 26.5818 104 26.7936C103.999 27.0053 104.052 27.2088 104.147 27.3574C104.239 27.5104 104.367 27.5971 104.501 27.5971C104.635 27.5971 104.762 27.5104 104.854 27.3574C105.052 27.0489 105.053 26.5464 104.858 26.235C104.662 25.9237 104.344 25.9214 104.147 26.2299ZM104.075 28.2935V33H104.93V28.2935H104.075Z" fill="#333333"/>
<path fill-rule="evenodd" clip-rule="evenodd" d="M110 32.6766C109.806 32.7828 109.598 32.8637 109.38 32.9167C109.147 32.9734 108.907 33.0008 108.666 32.9984C107.948 33.0228 107.251 32.769 106.745 32.2986C106.24 31.8106 105.972 31.154 106.003 30.48C105.968 29.8145 106.239 29.1661 106.749 28.6945C107.259 28.2228 107.961 27.9716 108.682 28.0026C108.923 28.0008 109.162 28.0248 109.397 28.0741C109.608 28.1218 109.812 28.1975 110 28.2988V29.6525C109.84 29.5086 109.653 29.3942 109.446 29.3154C109.247 29.2378 109.032 29.1979 108.815 29.1979C108.451 29.1828 108.095 29.3087 107.835 29.5452C107.344 30.0821 107.344 30.8678 107.835 31.4046C108.106 31.6455 108.473 31.7713 108.849 31.752C109.062 31.7572 109.274 31.717 109.469 31.6345C109.664 31.548 109.836 31.4224 109.972 31.2667L110 32.6766Z" fill="#333333"/>
<path fill-rule="evenodd" clip-rule="evenodd" d="M111.101 30.8202H113.976C113.979 30.7795 113.984 30.7424 113.987 30.7097C113.993 30.6643 113.997 30.6272 113.997 30.6004V30.4676C114.026 29.8053 113.835 29.1561 113.466 28.6637C112.641 27.7613 111.375 27.7814 110.57 28.7097C109.82 29.7406 109.809 31.2764 110.544 32.3225C110.934 32.7852 111.467 33.0299 112.014 32.9971C112.381 33.0068 112.745 32.9049 113.071 32.7007C113.385 32.4821 113.645 32.1685 113.827 31.7911L112.931 31.2443C112.843 31.4267 112.715 31.5768 112.562 31.6787C112.399 31.7749 112.22 31.8222 112.039 31.8166C111.809 31.8318 111.582 31.7445 111.402 31.5714C111.233 31.3701 111.127 31.1048 111.101 30.8202ZM112.613 29.3383C112.768 29.5108 112.862 29.7487 112.876 30.0026H111.139C111.161 29.7458 111.262 29.5085 111.423 29.3383C111.593 29.1763 111.806 29.0945 112.022 29.1083C112.236 29.0926 112.447 29.1748 112.613 29.3383Z" fill="#333333"/>
<path fill-rule="evenodd" clip-rule="evenodd" d="M85.6958 28.1714V26H87V32.8123H85.6647V32.1558C85.5059 32.4217 85.2772 32.6413 85.0022 32.7921C84.7108 32.9366 84.3871 33.0077 84.0603 32.9991C83.4789 33.0171 82.9235 32.764 82.5646 32.3174C81.8118 31.224 81.8118 29.795 82.5646 28.7017C82.9506 28.2614 83.5241 28.0207 84.1172 28.0502C84.4323 28.043 84.7429 28.1236 85.0126 28.2825C85.3044 28.4702 85.5501 28.7185 85.732 29.0097C85.6958 28.8936 85.6958 28.7724 85.6958 28.636V28.1714ZM82.8408 31.1387C83.104 31.5838 83.6244 31.8208 84.1431 31.7316L84.1483 31.7215C84.7676 31.6654 85.2261 31.1348 85.1782 30.5297C85.1789 30.0158 84.8501 29.5564 84.3553 29.3801C83.8606 29.2039 83.3057 29.3484 82.9669 29.7419C82.628 30.1353 82.5776 30.6935 82.8408 31.1387Z" fill="#333333"/>
<path fill-rule="evenodd" clip-rule="evenodd" d="M127.959 28.9272V28.1608H129V32.8102H127.947V32.146C127.818 32.4138 127.634 32.6357 127.414 32.7897C127.178 32.9364 126.917 33.0084 126.653 32.9992C126.186 33.0158 125.742 32.7599 125.454 32.3095C124.849 31.2069 124.849 29.7641 125.454 28.6615C125.764 28.2161 126.225 27.9726 126.702 28.0025C126.96 27.9958 127.213 28.0772 127.435 28.2375C127.656 28.4073 127.837 28.6451 127.959 28.9272ZM125.701 31.1067C125.913 31.5571 126.331 31.7968 126.748 31.7066C127.25 31.6498 127.622 31.1075 127.581 30.4906C127.581 29.9707 127.317 29.5059 126.919 29.3275C126.521 29.1492 126.075 29.2955 125.802 29.6935C125.53 30.0916 125.489 30.6563 125.701 31.1067Z" fill="#333333"/>
<path fill-rule="evenodd" clip-rule="evenodd" d="M142.961 28.9272V28.1608H144V32.8102H142.944V32.146C142.816 32.415 142.633 32.6373 142.412 32.7898C142.178 32.936 141.917 33.008 141.655 32.9992C141.188 33.0158 140.743 32.76 140.453 32.3095C139.849 31.2069 139.849 29.7641 140.453 28.6615C140.763 28.2161 141.224 27.9726 141.701 28.0025C141.958 27.995 142.211 28.0764 142.432 28.2375C142.654 28.407 142.836 28.6448 142.961 28.9272ZM140.704 31.1067C140.916 31.5571 141.334 31.7969 141.751 31.7066C142.253 31.6525 142.625 31.1084 142.582 30.4906C142.583 29.9707 142.319 29.5059 141.921 29.3275C141.524 29.1492 141.078 29.2955 140.806 29.6935C140.533 30.0916 140.493 30.6563 140.704 31.1067Z" fill="#333333"/>
<path fill-rule="evenodd" clip-rule="evenodd" d="M18 0L0 8.17497V11L18 3.49675V0Z" fill="#1E90B3"/>
<path fill-rule="evenodd" clip-rule="evenodd" d="M18 7L0 13.1994V16L18 10.0464V7Z" fill="#1E90B3"/>
<path fill-rule="evenodd" clip-rule="evenodd" d="M18 17L0 20.922V24L18 20.3213V17Z" fill="#1E90B3"/>
<path fill-rule="evenodd" clip-rule="evenodd" d="M0 29.4515V32.1869L18 34V28L0 29.4515Z" fill="#1E90B3"/>
<path fill-rule="evenodd" clip-rule="evenodd" d="M18 22L0 24.7509V28L18 25.4879V22Z" fill="#1E90B3"/>
<path fill-rule="evenodd" clip-rule="evenodd" d="M18 11L0 16.0652V19L18 14.1789V11Z" fill="#1E90B3"/>
<path fill-rule="evenodd" clip-rule="evenodd" d="M17 0L35 8.17497V11L17 3.49675V0Z" fill="#034EA2"/>
<path fill-rule="evenodd" clip-rule="evenodd" d="M17 7L35 13.1994V16L17 10.0464V7Z" fill="#034EA2"/>
<path fill-rule="evenodd" clip-rule="evenodd" d="M17 17L35 20.922V24L17 20.3213V17Z" fill="#034EA2"/>
<path fill-rule="evenodd" clip-rule="evenodd" d="M35 29.4515V32.1869L17 34V28L35 29.4515Z" fill="#034EA2"/>
<path fill-rule="evenodd" clip-rule="evenodd" d="M17 22L35 24.7509V28L17 25.4879V22Z" fill="#034EA2"/>
<path fill-rule="evenodd" clip-rule="evenodd" d="M17 11L35 16.0652V19L17 14.1789V11Z" fill="#034EA2"/>
<path fill-rule="evenodd" clip-rule="evenodd" d="M46 19V5H47.7984V17.3636H54V19H46Z" fill="#034EA2"/>
<path fill-rule="evenodd" clip-rule="evenodd" d="M55.7439 14.7104H63L62.985 14.4126C63.0558 13.2349 62.6309 12.0779 61.8006 11.1873C60.9617 10.3786 59.7881 9.94755 58.5824 10.0051C57.3436 9.9658 56.1451 10.4174 55.2841 11.2478C54.4162 12.1135 53.9556 13.2663 54.0048 14.4498C53.9472 15.6627 54.4112 16.847 55.2941 17.7403C56.1823 18.5859 57.413 19.0424 58.6823 18.9969C59.5557 19.0171 60.4189 18.8177 61.181 18.4198C61.9225 18.0134 62.5308 17.426 62.94 16.721L61.7507 15.995C61.4314 16.5366 60.9815 17.0018 60.4364 17.354C59.9446 17.6578 59.3674 17.8197 58.7772 17.8194C57.9482 17.8525 57.1438 17.5525 56.5684 16.9956C55.9987 16.4051 55.7023 15.629 55.7439 14.8361V14.7104ZM60.5113 11.8575C61.0169 12.2983 61.309 12.9113 61.3209 13.5562H55.7289C55.7771 12.9138 56.0927 12.3143 56.6084 11.8854C57.1369 11.463 57.8163 11.2404 58.5124 11.2617C59.2353 11.2203 59.9486 11.4329 60.5113 11.8575Z" fill="#034EA2"/>
<path fill-rule="evenodd" clip-rule="evenodd" d="M65.4446 11.2979C64.5081 12.1295 63.9849 13.286 64.0003 14.4907C63.9962 15.084 64.1225 15.6717 64.3714 16.2179C64.8997 17.3268 65.8709 18.2007 67.0795 18.6545C67.6912 18.8849 68.3453 19.0022 69.0052 19C69.6557 19.0012 70.3 18.8822 70.9008 18.6499C71.5122 18.4175 72.0691 18.0767 72.5406 17.6463C73.0055 17.2434 73.3759 16.7555 73.6288 16.2132C73.8767 15.67 74.003 15.0855 73.9999 14.4954C74.0024 13.9008 73.8762 13.3118 73.6288 12.7636C73.3761 12.2185 73.0057 11.7275 72.5406 11.3212C71.5947 10.4651 70.3244 9.9905 69.0052 10.0002C68.3447 9.99465 67.6893 10.1072 67.0744 10.3316C66.4681 10.5507 65.9142 10.8791 65.4446 11.2979ZM66.6432 16.7267C66.0028 16.1373 65.651 15.3288 65.6703 14.4907C65.6507 13.6522 66.0004 12.8427 66.6381 12.2501C67.2515 11.6436 68.1104 11.3049 69.0052 11.3166C69.8922 11.3068 70.7425 11.6458 71.3471 12.2501C72.6303 13.5033 72.6303 15.4735 71.3471 16.7267C70.7425 17.331 69.8922 17.67 69.0052 17.6603C68.1125 17.6689 67.2564 17.3305 66.6432 16.7267Z" fill="#034EA2"/>
<path fill-rule="evenodd" clip-rule="evenodd" d="M99 19V5H100V19H99Z" fill="#034EA2"/>
<path fill-rule="evenodd" clip-rule="evenodd" d="M80.7285 10.0032C81.9013 9.95675 83.036 10.4155 83.8337 11.2585C84.641 12.185 85.056 13.3785 84.9939 14.5948C85.0555 15.81 84.6463 17.0032 83.8483 17.9359C83.0629 18.775 81.9387 19.2311 80.7773 19.1816C79.3983 19.2355 78.117 18.4866 77.5112 17.2724V23H76V10.3087H77.4624V11.9124C77.7775 11.322 78.2511 10.8269 78.8322 10.4805C79.408 10.1549 80.0638 9.98983 80.7285 10.0032ZM78.0084 14.6234C78.0084 16.3322 79.2612 17.7163 80.8016 17.7163C82.342 17.7163 83.5949 16.3322 83.5949 14.6234C83.5949 12.9147 82.342 11.5306 80.8016 11.5306C79.2612 11.5306 78.0084 12.9147 78.0084 14.6234Z" fill="#034EA2"/>
<path fill-rule="evenodd" clip-rule="evenodd" d="M94.5019 11.8722V10.3024H96V18.642H94.536V17.1283C94.2151 17.704 93.7402 18.1877 93.1599 18.5299C92.5932 18.8463 91.9468 19.0079 91.2908 18.9971C90.1152 19.0408 88.9787 18.5882 88.1823 17.759C87.3677 16.853 86.9468 15.6826 87.0063 14.4885C86.9438 13.2997 87.3515 12.132 88.1482 11.2181C88.9331 10.401 90.0543 9.95657 91.2128 10.0034C91.8958 9.98512 92.571 10.1467 93.1647 10.4706C93.7392 10.8082 94.2026 11.294 94.5019 11.8722ZM88.3873 14.5259C88.3873 16.1985 89.6365 17.5534 91.1835 17.5534C92.7256 17.5534 93.9748 16.1985 93.9748 14.5259C93.9748 12.8533 92.7304 11.4984 91.1835 11.4984C89.6365 11.4984 88.3873 12.8533 88.3873 14.5259Z" fill="#034EA2"/>
<path fill-rule="evenodd" clip-rule="evenodd" d="M110.477 11.8726V10.3028H112V18.6422H110.516V17.1285C110.197 17.7039 109.725 18.1876 109.148 18.5301C108.581 18.8471 107.935 19.0087 107.279 18.9973C106.108 19.0396 104.977 18.5871 104.184 17.7592C103.369 16.854 102.948 15.6835 103.006 14.4889C102.945 13.2995 103.354 12.1319 104.15 11.2185C104.929 10.3989 106.047 9.95386 107.201 10.0038C107.882 9.98651 108.555 10.1481 109.148 10.471C109.721 10.8075 110.181 11.2937 110.477 11.8726ZM104.349 14.5262C104.349 16.1988 105.6 17.5536 107.138 17.5536C108.676 17.5536 109.927 16.1988 109.927 14.5262C109.927 12.8537 108.676 11.4988 107.138 11.4988C105.6 11.4988 104.349 12.8537 104.349 14.5262Z" fill="#034EA2"/>
<path fill-rule="evenodd" clip-rule="evenodd" d="M123 16.6636V18.3195C122.552 18.5518 122.068 18.7216 121.564 18.8233C121.001 18.9404 120.424 18.9983 119.846 18.9959C118.539 19.0478 117.267 18.6035 116.334 17.7691C115.423 16.9023 114.943 15.734 115.005 14.5366C114.958 13.3236 115.454 12.1451 116.38 11.2713C117.311 10.4209 118.589 9.96123 119.908 10.0026C120.425 10.0002 120.941 10.0487 121.446 10.1472C121.931 10.2401 122.403 10.3841 122.851 10.5763V12.1063C122.454 11.8744 122.025 11.6924 121.574 11.5652C121.143 11.4408 120.693 11.3779 120.241 11.3786C119.298 11.3376 118.378 11.6553 117.703 12.2556C117.047 12.8816 116.701 13.724 116.744 14.5879C116.723 15.3954 117.072 16.1745 117.708 16.7382C118.346 17.3165 119.218 17.6303 120.118 17.6059C120.604 17.6042 121.086 17.5269 121.544 17.3773C122.06 17.1967 122.55 16.9569 123 16.6636Z" fill="#034EA2"/>
<path fill-rule="evenodd" clip-rule="evenodd" d="M125.743 14.7036H133L132.985 14.4193C133.056 13.239 132.629 12.0796 131.796 11.1891C130.958 10.3792 129.785 9.94747 128.58 10.0051C127.346 9.96167 126.149 10.4089 125.288 11.2357C124.42 12.1022 123.958 13.2567 124.005 14.4426C123.946 15.6583 124.412 16.8453 125.298 17.7381C126.183 18.5868 127.412 19.0444 128.68 18.9966C129.553 19.0168 130.415 18.8172 131.177 18.4186C131.918 18.0104 132.528 17.4225 132.94 16.7173L131.746 15.9901C131.429 16.5322 130.981 16.9982 130.438 17.3512C129.945 17.6564 129.366 17.8185 128.775 17.8173C127.951 17.8464 127.154 17.5463 126.582 16.9923C126.007 16.4031 125.706 15.6256 125.743 14.8295V14.7036ZM130.513 11.8463C131.017 12.2883 131.307 12.9023 131.317 13.5476H125.733C125.783 12.9048 126.098 12.3051 126.612 11.8743C127.141 11.452 127.819 11.2293 128.515 11.2497C129.237 11.2105 129.949 11.4231 130.513 11.8463Z" fill="#034EA2"/>
<path fill-rule="evenodd" clip-rule="evenodd" d="M144 17.381V19H135L137.873 15.4222L138.698 14.3929C140.909 11.6446 142.012 10.1555 142.012 9.06118C142.031 8.3724 141.76 7.71134 141.275 7.2623C140.729 6.7742 140.033 6.52459 139.324 6.56274C138.596 6.50997 137.88 6.7829 137.345 7.31727C136.882 7.81696 136.659 8.98623 136.659 9.93564V10.1105H135.153C135.157 10.0456 135.157 9.98055 135.153 9.91565C135.153 9.83071 135.153 9.77074 135.153 9.73077C135.153 8.37661 135.528 6.88754 136.279 6.138C137.15 5.33897 138.275 4.93431 139.417 5.00871C140.533 4.93925 141.634 5.31249 142.512 6.05805C143.275 6.79693 143.687 7.86747 143.634 8.97124C143.61 9.95547 143.35 10.9162 142.878 11.7595C142.373 12.7189 141.488 13.4984 140.195 14.9725L138.063 17.391L144 17.381Z" fill="#034EA2"/>
<path fill-rule="evenodd" clip-rule="evenodd" d="M148.219 19V6.52838H146L146.12 5H150V19H148.219Z" fill="#034EA2"/>
</svg>
