<svg width="150" height="30" viewBox="0 0 150 30" fill="none" xmlns="http://www.w3.org/2000/svg">
<path fill-rule="evenodd" clip-rule="evenodd" d="M56.6757 23.6602C56.6757 22.9989 56.6757 22.9351 56.3501 22.7481L56.2472 22.6796C56.1922 22.6166 56.1922 22.5192 56.2472 22.4562C56.6353 22.3371 57.0137 22.1846 57.3785 22.0001C57.4237 21.9986 57.4655 22.0253 57.4856 22.0685C57.4856 22.4014 57.4513 22.9807 57.4513 23.4368V25.7857C57.4513 25.886 57.4513 25.9727 57.4942 25.9955C57.898 25.6337 58.4025 25.4237 58.9297 25.398C59.2994 25.3588 59.6657 25.5009 59.9251 25.7841C60.1844 26.0672 60.3086 26.4606 60.2624 26.8529V28.7138C60.2624 29.5211 60.2624 29.626 60.6609 29.6853L60.9438 29.7218C60.9797 29.758 61 29.8083 61 29.8609C61 29.9135 60.9797 29.9638 60.9438 30C60.5624 29.9772 60.2581 29.9681 59.8939 29.9681C59.5296 29.9681 59.1997 29.9681 58.9169 30C58.8791 29.9663 58.8555 29.9179 58.8515 29.8657C58.8475 29.8134 58.8633 29.7616 58.8954 29.7218L59.1054 29.6853C59.4954 29.6214 59.5039 29.5211 59.5039 28.7138V27.1175C59.5039 26.406 59.1783 25.9225 58.5098 25.9225C58.2125 25.9191 57.9232 26.0254 57.6913 26.2235C57.5028 26.3923 57.4685 26.447 57.4685 26.8392V28.7138C57.4685 29.5211 57.4685 29.626 57.867 29.6853L58.0898 29.7218C58.1627 29.7628 58.1413 29.9681 58.0684 30C57.7513 29.9772 57.4471 29.9681 57.0828 29.9681C56.7186 29.9681 56.3886 29.9681 56.0544 30C56.0196 29.9632 56 29.9131 56 29.8609C56 29.8087 56.0196 29.7586 56.0544 29.7218L56.3158 29.6853C56.7057 29.6442 56.7143 29.5211 56.7143 28.7138L56.6757 23.6602Z" fill="#231F20"/>
<path fill-rule="evenodd" clip-rule="evenodd" d="M65.6438 26.5899C65.6438 26.1096 65.6438 26.0711 65.3555 25.8598L65.2594 25.7878C65.2105 25.7276 65.2105 25.6366 65.2594 25.5764C65.6336 25.4263 65.9923 25.2331 66.3295 25.0001C66.3815 24.9983 66.4288 25.033 66.4474 25.0865C66.4474 25.3555 66.4474 25.5332 66.4474 25.6389C66.4462 25.6737 66.4582 25.7074 66.4806 25.7321C66.503 25.7567 66.5337 25.7699 66.5653 25.7685C67.0044 25.4196 67.5231 25.2117 68.0634 25.1682C68.4118 25.1446 68.7518 25.2914 68.9927 25.5692C69.2335 25.847 69.3506 26.2275 69.3126 26.6091V28.6311C69.3126 29.4813 69.3126 29.5917 69.7188 29.6542L69.9546 29.6926C69.9874 29.7345 70.0035 29.7891 69.9994 29.8441C69.9953 29.8992 69.9713 29.9501 69.9328 29.9856C69.6139 29.9616 69.3038 29.952 68.9282 29.952C68.5526 29.952 68.2207 29.952 67.9324 29.9856C67.8969 29.9468 67.877 29.8941 67.877 29.8391C67.877 29.7841 67.8969 29.7314 67.9324 29.6926L68.1377 29.6542C68.5308 29.5869 68.5439 29.4813 68.5439 28.6311V26.8973C68.5852 26.5872 68.4949 26.2733 68.299 26.0457C68.1031 25.8181 67.8231 25.7018 67.5393 25.7301C67.1957 25.7125 66.8628 25.8639 66.6308 26.1432C66.4973 26.3474 66.4395 26.5998 66.4692 26.8492V28.6455C66.4692 29.4957 66.4692 29.6062 66.8754 29.6686L67.0676 29.707C67.1004 29.7489 67.1165 29.8035 67.1124 29.8585C67.1083 29.9136 67.0843 29.9645 67.0458 30C66.7575 29.976 66.4474 29.9664 66.0718 29.9664C65.6962 29.9664 65.3686 29.9664 65.0672 30C65.0287 29.9645 65.0047 29.9136 65.0006 29.8585C64.9965 29.8035 65.0126 29.7489 65.0454 29.707L65.2725 29.6686C65.6656 29.611 65.6787 29.4957 65.6787 28.6455L65.6438 26.5899Z" fill="#231F20"/>
<path fill-rule="evenodd" clip-rule="evenodd" d="M77.4378 28.4177C77.8242 28.0281 78.0272 27.4958 77.9971 26.9509C78.011 26.4342 77.8115 25.9341 77.4445 25.5661C77.0775 25.198 76.5747 24.9937 76.0521 25.0002C75.501 24.9926 74.9706 25.2076 74.5835 25.5956C74.1964 25.9836 73.986 26.511 74.0011 27.0558C73.9834 27.5763 74.1847 28.0807 74.557 28.449C74.9293 28.8172 75.4394 29.0163 75.9657 28.9988C76.5171 29.0181 77.0514 28.8073 77.4378 28.4177ZM74.8223 26.9159C74.8223 25.8667 75.2938 25.2683 75.9264 25.2683C76.8419 25.2683 77.168 26.2981 77.168 27.1063C77.168 27.8369 76.9126 28.7112 76.0639 28.7112C75.2152 28.7112 74.8223 27.7786 74.8223 26.9159Z" fill="#231F20"/>
<path fill-rule="evenodd" clip-rule="evenodd" d="M89.461 26.9405C89.461 26.1432 89.1352 25.7301 88.4479 25.7301C88.1094 25.7251 87.7848 25.8753 87.5553 26.1432C87.4259 26.3209 87.3947 26.4362 87.3947 26.8492V28.6455C87.3947 29.4957 87.3947 29.6062 87.8097 29.6686L88.0373 29.707C88.0708 29.7489 88.0873 29.8035 88.0831 29.8585C88.0789 29.9136 88.0544 29.9645 88.015 30C87.6892 29.976 87.3723 29.9664 86.9885 29.9664C86.6047 29.9664 86.3012 29.9664 85.9933 30C85.957 29.9612 85.9366 29.9085 85.9366 29.8535C85.9366 29.7985 85.957 29.7458 85.9933 29.707L86.1941 29.6686C86.5958 29.6013 86.6092 29.4957 86.6092 28.6455V26.9405C86.6092 26.1528 86.2789 25.7301 85.6005 25.7301C85.252 25.7159 84.9161 25.8711 84.6856 26.1528C84.5507 26.3449 84.4914 26.5864 84.5205 26.8252V28.6455C84.5205 29.4957 84.5428 29.6062 84.9356 29.6686L85.1319 29.707C85.1654 29.7489 85.1819 29.8035 85.1777 29.8585C85.1735 29.9136 85.149 29.9645 85.1096 30C84.8151 29.976 84.4982 29.9664 84.1144 29.9664C83.7305 29.9664 83.3958 29.9664 83.0566 30C83.0204 29.9612 83 29.9085 83 29.8535C83 29.7985 83.0204 29.7458 83.0566 29.707L83.3199 29.6686C83.7216 29.611 83.735 29.4957 83.735 28.6455V26.5899C83.735 26.1096 83.735 26.0711 83.4404 25.8598L83.2932 25.7878C83.2432 25.7276 83.2432 25.6366 83.2932 25.5764C83.6755 25.4263 84.042 25.2331 84.3866 25.0001C84.4398 24.9983 84.4881 25.033 84.5071 25.0865C84.4848 25.3555 84.4848 25.5332 84.4848 25.6389C84.4835 25.6737 84.4958 25.7074 84.5187 25.7321C84.5416 25.7567 84.573 25.7699 84.6053 25.7685C85.0227 25.4148 85.53 25.2054 86.0602 25.1682C86.5366 25.1424 86.9851 25.4107 87.2161 25.8598C87.3148 25.8726 87.4139 25.8394 87.4884 25.7685C87.9175 25.4142 88.4348 25.2053 88.9746 25.1682C89.3322 25.1457 89.6811 25.2919 89.9305 25.5686C90.1799 25.8453 90.305 26.2251 90.2733 26.6091V28.6311C90.2733 29.4813 90.2956 29.5917 90.6928 29.6542L90.9517 29.6926C90.9863 29.7339 91.0036 29.7888 90.9994 29.8443C90.9951 29.8998 90.9698 29.9509 90.9294 29.9856C90.5723 29.9616 90.2554 29.952 89.8716 29.952C89.4878 29.952 89.1843 29.952 88.8764 29.9856C88.837 29.9501 88.8125 29.8992 88.8083 29.8441C88.8041 29.7891 88.8206 29.7345 88.8541 29.6926L89.0504 29.6542C89.4566 29.5869 89.4655 29.4813 89.4655 28.6311L89.461 26.9405Z" fill="#231F20"/>
<path fill-rule="evenodd" clip-rule="evenodd" d="M109.777 26.6985C109.777 26.4433 109.791 26.4433 110.091 26.4433H112.261C112.751 26.4433 112.913 26.4317 112.951 26.3775C112.989 26.2988 113.005 26.2144 112.999 26.1301C112.923 25.4481 112.182 24.9446 111.342 25.0049C109.953 25.0049 109.001 25.9832 109.001 27.1431C108.987 27.5846 109.154 28.0172 109.477 28.3727C109.888 28.7846 110.514 29.0163 111.166 28.9991C111.931 29.0081 112.638 28.6674 112.994 28.1175C112.993 28.0768 112.967 28.0392 112.925 28.0168C112.884 27.9944 112.831 27.9901 112.785 28.0054C112.549 28.2986 112.145 28.4736 111.714 28.4694C110.467 28.4694 109.777 27.6535 109.777 26.6985ZM112.028 26.0644C111.933 26.1224 111.676 26.1572 110.814 26.1572H109.986C109.905 26.1572 109.905 26.1108 109.905 26.1108C110.065 25.6338 110.591 25.2989 111.2 25.2872C111.875 25.2872 112.099 25.6197 112.099 25.8826C112.099 25.9068 112.1 25.9263 112.101 25.9424C112.104 26.0086 112.104 26.0177 112.028 26.0644Z" fill="#231F20"/>
<path fill-rule="evenodd" clip-rule="evenodd" d="M117.675 26.5868C117.675 26.1074 117.675 26.0691 117.387 25.8582L117.291 25.7862C117.242 25.7262 117.242 25.6354 117.291 25.5753C117.665 25.4265 118.023 25.2336 118.359 25.0001C118.411 24.9983 118.458 25.033 118.477 25.0863C118.455 25.3548 118.455 25.5322 118.455 25.6376C118.454 25.6724 118.466 25.7061 118.488 25.7307C118.51 25.7552 118.541 25.7684 118.573 25.7671C119.011 25.4188 119.528 25.2113 120.068 25.1678C120.415 25.1444 120.754 25.2908 120.995 25.5681C121.235 25.8454 121.352 26.2252 121.314 26.606V28.6242C121.314 29.4727 121.336 29.5829 121.719 29.6453L121.955 29.6836C121.987 29.7254 122.003 29.7799 121.999 29.8348C121.995 29.8898 121.971 29.9406 121.933 29.976C121.615 29.9521 121.305 29.9425 120.93 29.9425C120.556 29.9425 120.229 29.9425 119.941 29.976C119.905 29.938 119.884 29.8851 119.884 29.8298C119.884 29.7745 119.905 29.7216 119.941 29.6836L120.142 29.6453C120.538 29.5781 120.547 29.4727 120.547 28.6242V26.8936C120.588 26.5825 120.495 26.2681 120.297 26.0421C120.098 25.8161 119.816 25.7039 119.531 25.7383C119.189 25.7207 118.856 25.8718 118.625 26.1506C118.492 26.3544 118.434 26.6064 118.464 26.8553V28.6481C118.464 29.4967 118.485 29.6069 118.869 29.6692L119.061 29.7076C119.096 29.7482 119.114 29.8033 119.109 29.8592C119.105 29.915 119.08 29.9662 119.039 30C118.751 29.976 118.442 29.9664 118.071 29.9664C117.701 29.9664 117.365 29.9664 117.069 30C117.029 29.9654 117.005 29.9143 117.001 29.859C116.996 29.8036 117.013 29.7488 117.047 29.7076L117.269 29.6692C117.666 29.6117 117.675 29.4967 117.675 28.6481V26.5868Z" fill="#231F20"/>
<path fill-rule="evenodd" clip-rule="evenodd" d="M126.658 23.6602C126.658 22.9989 126.658 22.9351 126.335 22.7481L126.227 22.6796C126.176 22.6151 126.176 22.5207 126.227 22.4562C126.617 22.3371 126.998 22.1846 127.365 22.0001C127.41 21.9986 127.452 22.0253 127.473 22.0685C127.473 22.4014 127.443 22.9807 127.443 23.4368V25.7857C127.443 25.886 127.443 25.9727 127.481 25.9955C127.885 25.6448 128.386 25.4417 128.908 25.4162C129.28 25.3724 129.65 25.5095 129.915 25.7888C130.179 26.0681 130.31 26.4596 130.27 26.8529V28.7138C130.27 29.5211 130.291 29.626 130.671 29.6853L130.955 29.7218C130.988 29.7616 131.003 29.8134 130.999 29.8657C130.995 29.9179 130.972 29.9663 130.934 30C130.554 29.9772 130.248 29.9681 129.878 29.9681C129.507 29.9681 129.184 29.9681 128.895 30C128.859 29.9638 128.838 29.9135 128.838 29.8609C128.838 29.8083 128.859 29.758 128.895 29.7218L129.106 29.6853C129.494 29.6214 129.507 29.5211 129.507 28.7138V27.1175C129.507 26.406 129.179 25.9225 128.503 25.9225C128.204 25.9191 127.913 26.0254 127.68 26.2235C127.49 26.3923 127.46 26.447 127.46 26.8392V28.7138C127.46 29.5211 127.481 29.626 127.861 29.6853L128.08 29.7218C128.154 29.7628 128.132 29.9681 128.08 30C127.766 29.9772 127.46 29.9681 127.089 29.9681C126.718 29.9681 126.391 29.9681 126.055 30C126.02 29.9632 126 29.9131 126 29.8609C126 29.8087 126.02 29.7586 126.055 29.7218L126.318 29.6853C126.71 29.6442 126.718 29.5211 126.718 28.7138L126.658 23.6602Z" fill="#231F20"/>
<path fill-rule="evenodd" clip-rule="evenodd" d="M105.146 22.4383C105.687 22.7754 106.011 23.3753 105.999 24.0164C106.019 24.6975 105.649 25.3294 105.047 25.6417C105.047 25.6417 104.45 26.0803 102.793 26.0201V27.3918C102.793 28.4969 102.815 28.6345 103.485 28.7076L103.767 28.7377C103.825 28.8185 103.816 28.9299 103.745 29C103.148 28.9699 102.81 28.9699 102.384 28.9699C102.174 28.9699 101.973 28.9771 101.768 28.9845C101.555 28.9922 101.338 29 101.103 29C101.031 28.9307 101.022 28.8179 101.082 28.7377L101.299 28.7076C101.91 28.6216 101.931 28.4969 101.931 27.3918V23.5219C101.931 22.6318 101.91 22.4512 101.436 22.3996L101.06 22.3566C101.022 22.3239 101 22.2759 101 22.2254C101 22.1749 101.022 22.127 101.06 22.0943C101.749 22.0221 102.442 21.9933 103.135 22.0083C103.832 21.9619 104.528 22.1107 105.146 22.4383ZM102.781 22.7221V25.8266C103.025 25.8393 103.269 25.8263 103.511 25.7879C104.629 25.5729 105.035 24.9366 105.035 24.025C105.075 23.5647 104.91 23.1103 104.584 22.7853C104.258 22.4603 103.805 22.2984 103.348 22.3437C102.781 22.3437 102.781 22.3867 102.781 22.7221Z" fill="#231F20"/>
<path fill-rule="evenodd" clip-rule="evenodd" d="M51.1464 22.4381C51.6874 22.7753 52.0117 23.3752 51.9995 24.0162C52.0155 24.7047 51.6323 25.3395 51.0185 25.6417C51.0185 25.6417 50.4213 26.0803 48.7664 26.0201V27.3918C48.7664 28.4969 48.7877 28.6345 49.4574 28.7076L49.7431 28.7377C49.8037 28.8145 49.8037 28.9232 49.7431 29C49.146 28.9699 48.809 28.9699 48.3825 28.9699C48.1733 28.9699 47.9724 28.9771 47.7675 28.9845C47.5547 28.9922 47.3376 29 47.1029 29C47.0307 28.9307 47.0216 28.8179 47.0816 28.7377L47.3034 28.7076C47.9304 28.6216 47.9304 28.4969 47.9304 27.3918V23.5217C47.9304 22.6316 47.909 22.451 47.4398 22.3994L47.0602 22.3564C47.022 22.3237 47 22.2758 47 22.2253C47 22.1748 47.022 22.1268 47.0602 22.0941C47.7488 22.0219 48.4411 21.9932 49.1332 22.0081C49.8307 21.9623 50.5273 22.1111 51.1464 22.4381ZM48.7834 22.7219V25.8266C49.0272 25.8392 49.2717 25.8262 49.5128 25.7879C50.6303 25.5729 51.0355 24.9365 51.0355 24.0248C51.0758 23.5646 50.9107 23.1102 50.585 22.7851C50.2592 22.4601 49.8068 22.2982 49.3507 22.3435C48.7834 22.3435 48.7834 22.3865 48.7834 22.7219Z" fill="#231F20"/>
<path fill-rule="evenodd" clip-rule="evenodd" d="M42.4675 15.2736C42.4675 16.1955 42.6083 16.7504 43.0442 16.9121C43.0822 16.9513 43.101 17.0043 43.0958 17.0578C43.0906 17.1112 43.0619 17.1599 43.017 17.1917C42.6184 17.219 42.2241 17.2878 41.8409 17.3971C40.4367 17.7575 38.9937 17.9599 37.541 18C34.6804 18 32.0605 17.2354 30.2124 15.4353C28.7707 14.0461 27.9733 12.1554 28.0012 10.1922C27.9658 8.16436 28.7393 6.20051 30.1625 4.70453C31.7744 3.10104 34.1537 2 37.7816 2C38.8086 2.01054 39.8314 2.12625 40.8329 2.34517C41.3193 2.47032 41.819 2.54069 42.3222 2.55489C42.3677 3.67815 42.4875 4.79748 42.6809 5.90606C42.6083 6.09394 42.1769 6.11578 42.0316 5.97597C41.3596 3.47679 39.557 2.6947 37.1051 2.6947C32.4464 2.6947 30.4031 5.88422 30.4031 9.35336C30.4031 13.7925 32.7824 17.2835 37.6136 17.2835C39.1029 17.2835 39.9929 16.982 40.2563 16.5887C40.4539 16.1795 40.5369 15.7276 40.4969 15.278V14.3474C40.4969 12.4031 40.4243 12.2676 38.9349 12.1016L37.877 11.988C37.791 11.915 37.7417 11.81 37.7417 11.6996C37.7417 11.5893 37.791 11.4842 37.877 11.4113C38.5717 11.4549 39.893 11.4812 41.3142 11.4812C42.2496 11.4812 43.0669 11.4549 43.8615 11.4113C43.9456 11.4839 43.9954 11.5863 43.9997 11.695C44.004 11.8037 43.9623 11.9094 43.8842 11.988L43.4983 12.036C42.4902 12.1496 42.4675 12.7963 42.4675 13.976V15.2736Z" fill="#231F20"/>
<path fill-rule="evenodd" clip-rule="evenodd" d="M44.0909 3.83002C45.0484 3.94495 45.119 4.34081 45.119 6.46907L45.0749 14.5522C45.0749 16.9188 45.0263 17.2125 43.6718 17.37L43.0894 17.4381C42.9551 17.6094 42.974 17.8503 43.1335 18C44.2321 17.9574 45.119 17.9319 46.0544 17.9319C46.9898 17.9319 47.784 17.9574 48.8341 18C48.9936 17.8503 49.0125 17.6094 48.8782 17.4381L48.3885 17.37C47.0339 17.1913 46.9898 16.9188 46.9898 14.5522V11.7174C46.9898 11.2449 47.0339 11.2194 48.084 11.2194C49.0194 11.2194 49.3944 11.4449 49.743 11.943C50.1271 12.4806 50.577 13.0986 51.0057 13.6875C51.3848 14.2082 51.7472 14.7061 52.033 15.1056C53.7096 17.3785 54.9009 17.9447 56.8864 17.9447C57.233 17.9543 57.5793 17.9156 57.9145 17.8297C57.968 17.794 58 17.7351 58 17.6722C58 17.6094 57.968 17.5505 57.9145 17.5148C57.3217 17.4759 56.7574 17.2552 56.304 16.8848C54.6979 15.5993 53.4758 14.0372 51.6094 11.13C51.4903 10.9512 51.3755 10.7256 51.4903 10.5894C52.6463 10.1382 54.4111 8.95488 54.4111 6.82662C54.4686 5.49831 53.7094 4.26206 52.4742 3.67253C51.3976 3.11067 50.021 3 48.5738 3C46.2838 3 44.691 3.06385 43.3673 3.17877C43.2803 3.24614 43.2275 3.34639 43.2224 3.45393C43.2174 3.56148 43.2605 3.66593 43.3409 3.74064L44.0909 3.83002ZM47.1001 10.4319C47.0262 10.1904 47.0037 9.93707 47.0339 9.687V4.41742C47.0339 3.78746 47.1001 3.69807 48.5517 3.69807C51.1417 3.69807 52.2845 5.38791 52.2845 7.16714C52.2845 8.68246 51.7506 9.48695 51.1196 9.95942C50.4043 10.3989 49.5607 10.6035 48.715 10.5426C47.5413 10.5426 47.1707 10.5 47.1001 10.4319Z" fill="#231F20"/>
<path fill-rule="evenodd" clip-rule="evenodd" d="M85.1881 13.6215C85.1881 14.3242 85.1881 17.1262 85.2495 17.74C85.1981 17.9084 85.0365 18.0164 84.8637 17.9979C84.6182 17.5977 84.0263 16.7749 82.2331 14.4399L77.5023 8.21327C76.9543 7.48387 75.5645 5.54472 75.1392 5.03325H75.0953C75.0066 5.53795 74.9728 6.05102 74.9945 6.56322V11.7269C74.9945 12.8343 74.9945 15.8942 75.3628 16.6192C75.4855 16.8816 75.8933 17.0195 76.4019 17.064L77.0332 17.1351C77.1552 17.3166 77.1389 17.5592 76.9938 17.7222C76.0774 17.6777 75.3628 17.651 74.6087 17.651C73.7318 17.651 73.2013 17.6777 72.4866 17.7222C72.3415 17.5592 72.3252 17.3166 72.4472 17.1351L72.9952 17.064C73.4643 16.9928 73.7932 16.8505 73.8721 16.5925C74.1571 15.7475 74.1352 12.8743 74.1352 11.7446V4.91316C74.2093 4.31075 74.0523 3.70249 73.6967 3.21419C73.3515 2.8855 72.9061 2.68623 72.434 2.64935L72.0877 2.60487C71.9649 2.46255 71.9649 2.11119 72.1271 2.01779C73.004 2.0845 74.065 2.0845 74.4289 2.0845C74.7429 2.08682 75.0566 2.06451 75.3672 2.01779C75.7749 3.21419 78.1819 6.32305 78.8747 7.19477L80.852 9.76103C82.2594 11.5712 83.259 12.8743 84.2192 14.0218H84.2587C84.3432 13.6986 84.3699 13.3627 84.3376 13.03V7.99534C84.3376 6.88789 84.3376 3.82796 83.9298 3.103C83.8114 2.89396 83.4914 2.75164 82.6671 2.63156L82.3208 2.58708C82.1761 2.44476 82.198 2.06671 82.3602 2C83.2985 2.04448 83.9912 2.06671 84.7672 2.06671C85.6441 2.06671 86.1746 2.04448 86.8673 2C87.0258 2.15647 87.0446 2.40818 86.9112 2.58708L86.6218 2.63156C85.9729 2.75164 85.5652 2.93844 85.4819 3.12969C85.1355 3.97473 85.175 6.89234 85.175 7.97755L85.1881 13.6215Z" fill="#231F20"/>
<path fill-rule="evenodd" clip-rule="evenodd" d="M91.1314 9.4152C91.1314 10.0235 91.2049 10.0235 91.9349 10.0235H93.5832C94.2752 10.0505 94.9683 10.0048 95.6493 9.88741C95.9201 9.79807 96.1084 9.68321 96.2599 9.1004L96.4757 8.19853C96.6612 8.0621 96.9237 8.0621 97.1093 8.19853C97.1093 8.7388 97.0129 9.64067 97.0129 10.4745C97.0129 11.3083 97.1093 12.1378 97.1093 12.6568C97.0129 12.793 96.6502 12.793 96.4757 12.6568L96.2507 11.7805C96.1829 11.3853 95.884 11.0576 95.4748 10.9297C94.8568 10.8277 94.2285 10.7906 93.6015 10.8191H91.9349C91.2049 10.8191 91.1314 10.8191 91.1314 11.4274V14.5542C91.1314 16.9195 91.1819 17.2598 92.6144 17.3704L93.4408 17.4385C93.5832 17.5278 93.5373 17.9319 93.3903 18C91.9578 17.9575 91.1314 17.9319 90.1764 17.9319C89.1067 17.9319 88.2848 17.9575 87.1416 18C86.9742 17.8515 86.9525 17.6106 87.0911 17.4385L87.6971 17.3704C89.1067 17.213 89.1572 16.9195 89.1572 14.5542V6.44158C89.1572 4.08054 89.1067 3.76574 87.6971 3.60408L87.3115 3.56154C87.1645 3.47221 87.215 3.06381 87.3574 3C88.3812 3.04254 89.1939 3.06381 90.1764 3.06381H94.6484C96.2048 3.06381 97.6143 3.06381 97.9311 3C97.9311 4.03375 97.9311 5.12706 98 5.97788C97.8549 6.13862 97.6005 6.16832 97.4169 6.04594C97.2241 5.03347 96.9348 4.19966 95.7181 3.91889C94.935 3.78999 94.1388 3.7429 93.3444 3.7785H91.8614C91.1314 3.7785 91.1314 3.82104 91.1314 4.67612V9.4152Z" fill="#231F20"/>
<path fill-rule="evenodd" clip-rule="evenodd" d="M100.365 6.44353C100.365 4.10244 100.316 3.76617 98.9125 3.60443L98.5301 3.56186C98.3906 3.47247 98.4356 3.06385 98.5796 3C99.6007 3.04257 100.41 3.06385 101.387 3.06385H105.849C107.374 3.06385 109.066 3 109.066 3C109.066 3 109.349 5.00482 109.444 5.97957C109.286 6.13476 109.032 6.15484 108.85 6.02639C108.494 4.96652 108.278 4.17906 107.05 3.89813C106.287 3.78585 105.514 3.74592 104.743 3.77894H103.029C102.318 3.77894 102.318 3.82151 102.318 4.67707V9.17196C102.318 9.80193 102.39 9.80193 103.101 9.80193H104.5C105.178 9.83033 105.857 9.78462 106.524 9.66572C106.812 9.57633 106.974 9.44012 107.095 8.87826L107.284 7.9546C107.464 7.80366 107.737 7.81303 107.905 7.97588C107.905 8.51646 107.811 9.39756 107.811 10.2531C107.811 11.1087 107.905 11.9174 107.905 12.4154C107.737 12.5783 107.464 12.5877 107.284 12.4367L107.073 11.5599C107.042 11.1569 106.747 10.8158 106.335 10.7086C105.73 10.5997 105.114 10.5597 104.5 10.5894H103.119C102.408 10.5894 102.336 10.6107 102.336 11.1981V14.3734C102.336 15.5695 102.408 16.3357 102.786 16.7188C103.074 16.9869 103.573 17.2338 105.669 17.2338C107.5 17.2338 108.193 17.1444 108.715 16.8976C109.142 16.672 109.785 15.8845 110.406 14.714C110.617 14.6096 110.877 14.6786 111 14.8715C110.798 15.6589 109.898 18 109.898 18C109.898 18 105.638 17.9319 103.519 17.9319H101.373C100.352 17.9319 99.5423 17.9574 98.1387 18C97.9747 17.8514 97.9535 17.6104 98.0892 17.4381L98.8765 17.37C100.226 17.2594 100.352 16.9188 100.352 14.5522L100.365 6.44353Z" fill="#231F20"/>
<path fill-rule="evenodd" clip-rule="evenodd" d="M112.091 3.83002C113.049 3.94495 113.12 4.34081 113.12 6.46907L113.076 14.5522C113.076 16.9188 113.027 17.2125 111.671 17.37L111.088 17.4381C110.954 17.6104 110.975 17.8514 111.136 18C112.232 17.9574 113.12 17.9319 114.057 17.9319C114.993 17.9319 115.789 17.9574 116.84 18C117 17.8503 117.019 17.6094 116.884 17.4381L116.394 17.37C115.038 17.1913 114.993 16.9188 114.993 14.5522V11.7174C114.993 11.2449 115.038 11.2194 116.089 11.2194C117.026 11.2194 117.401 11.4449 117.75 11.943C118.135 12.4806 118.585 13.0987 119.015 13.6875C119.394 14.2082 119.757 14.7061 120.043 15.1056C121.705 17.3785 122.893 17.9447 124.881 17.9447C125.228 17.9546 125.575 17.9159 125.911 17.8297C125.966 17.7953 126 17.7359 126 17.6722C126 17.6086 125.966 17.5492 125.911 17.5148C125.317 17.4759 124.752 17.2552 124.298 16.8848C122.69 15.5993 121.466 14.0372 119.597 11.13C119.482 10.9512 119.363 10.7256 119.482 10.5894C120.635 10.1382 122.403 8.95488 122.403 6.82662C122.46 5.49831 121.7 4.26206 120.463 3.67253C119.385 3.11067 118.007 3 116.557 3C114.264 3 112.669 3.06385 111.344 3.17877C111.26 3.24988 111.212 3.3522 111.212 3.4597C111.212 3.56721 111.26 3.66953 111.344 3.74064L112.091 3.83002ZM115.108 10.4319C115.029 10.1914 115.005 9.93731 115.038 9.687V4.41742C115.038 3.78746 115.108 3.69807 116.557 3.69807C119.151 3.69807 120.3 5.38791 120.3 7.16714C120.3 8.68246 119.761 9.48695 119.129 9.95942C118.412 10.3989 117.568 10.6035 116.721 10.5426C115.528 10.5426 115.175 10.5 115.108 10.4319Z" fill="#231F20"/>
<path fill-rule="evenodd" clip-rule="evenodd" d="M130.942 14.4803C130.942 16.8963 130.992 17.2439 132.389 17.3569L133.159 17.4264C133.304 17.5177 133.254 17.9305 133.113 18C131.748 17.9565 130.919 17.9305 129.954 17.9305C128.99 17.9305 128.134 17.9565 126.609 18C126.528 17.9247 126.482 17.8213 126.482 17.7132C126.482 17.6052 126.528 17.5017 126.609 17.4264L127.474 17.3569C128.839 17.2439 128.967 16.8963 128.967 14.4803V4.20376C128.967 3.49114 128.967 3.46941 128.248 3.46941H126.937C125.899 3.46941 125.312 3.51286 124.711 4.04299C124.228 4.4856 123.857 5.02819 123.628 5.62901C123.523 5.68844 123.397 5.70488 123.279 5.67463C123.16 5.64438 123.06 5.56999 123 5.46824C123.392 4.34841 123.696 3.20248 123.91 2.03982C124.057 1.98673 124.219 1.98673 124.365 2.03982C124.511 2.77851 125.303 2.75244 126.414 2.75244H134.688C135.99 2.75244 136.208 2.70899 136.568 2.10934C136.691 2.06589 136.954 2.10934 137 2.17886C136.726 3.3257 136.605 4.50102 136.64 5.67681C136.545 5.85931 136.135 5.85931 136.012 5.72026C135.944 5.14669 135.776 4.29501 135.412 4.04299C134.856 3.65191 134.683 3.46941 133.359 3.46941H131.648C130.942 3.48245 130.942 3.48245 130.942 4.24721V14.4803Z" fill="#231F20"/>
<path fill-rule="evenodd" clip-rule="evenodd" d="M139.355 6.44255C139.355 4.10213 139.31 3.76596 137.903 3.60426L137.52 3.5617C137.375 3.47234 137.425 3.06383 137.565 3C138.593 3.04255 139.404 3.06383 140.383 3.06383H144.892C146.42 3.06383 148.111 3 148.111 3C148.111 3 148.399 5.00426 148.494 5.97872C148.337 6.13387 148.081 6.15394 147.899 6.02553C147.538 4.96596 147.326 4.17872 146.095 3.89787C145.319 3.78299 144.532 3.74307 143.746 3.77872H142.033C141.316 3.77872 141.316 3.82128 141.316 4.6766V9.17021C141.316 9.8 141.388 9.8 142.105 9.8H143.489C144.169 9.8279 144.85 9.78221 145.518 9.66383C145.802 9.57447 145.969 9.4383 146.091 8.8766L146.28 7.95319C146.46 7.8023 146.734 7.81167 146.902 7.97447C146.902 8.51489 146.803 9.39574 146.803 10.2511C146.803 11.1064 146.902 11.9149 146.902 12.4128C146.734 12.5756 146.46 12.5849 146.28 12.434L146.064 11.5574C146.033 11.1545 145.737 10.8135 145.324 10.7064C144.72 10.5991 144.104 10.5605 143.489 10.5915H142.105C141.388 10.5915 141.316 10.6128 141.316 11.2V14.3745C141.316 15.5702 141.388 16.3362 141.767 16.7191C142.051 16.9872 142.556 17.234 144.653 17.234C146.492 17.234 147.182 17.1447 147.71 16.8979C148.16 16.6723 148.783 15.8851 149.4 14.7149C149.613 14.6079 149.877 14.6772 150 14.8723C149.833 15.6596 148.922 18 148.922 18C148.922 18 144.653 17.9319 142.529 17.9319H140.383C139.355 17.9319 138.543 17.9574 137.136 18C136.973 17.8503 136.954 17.6095 137.091 17.4383L137.876 17.3702C139.228 17.2596 139.355 16.9191 139.355 14.5532V6.44255Z" fill="#231F20"/>
<path fill-rule="evenodd" clip-rule="evenodd" d="M57.0353 17C57.0353 17 57.4999 17.8466 57.8332 17.3252C58.1665 16.8037 57.8973 17.5767 57.8973 17.5767C57.8973 17.5767 57.3974 18 57.3846 18C57.3717 18 57 17.6871 57 17.6871L57.0353 17Z" fill="#231F20"/>
<path fill-rule="evenodd" clip-rule="evenodd" d="M70.2891 17.3194L70.8978 17.3906C71.0554 17.5063 71.0085 17.8844 70.9064 18C69.9825 17.9555 69.1907 17.9288 68.1775 17.9288C67.5687 17.9288 67.0314 17.9514 66.5618 17.9711C66.1974 17.9864 65.8737 18 65.5891 18C65.5022 17.933 65.4472 17.83 65.4382 17.7175C65.4292 17.605 65.4672 17.494 65.5423 17.4129L66.1936 17.3417C66.6704 17.2705 66.9855 17.1326 66.9855 16.8969C66.9404 16.4686 66.8416 16.0484 66.6917 15.647L65.6998 12.4488C65.5423 11.9284 65.4529 11.8572 64.776 11.8572H61.3702C60.8125 11.8572 60.6763 11.9284 60.5188 12.4221L59.7312 14.8953C59.4947 15.5243 59.3276 16.1794 59.2331 16.848C59.2331 17.1326 59.348 17.2705 59.8887 17.3194L60.6295 17.3906C60.7093 17.4689 60.7509 17.5808 60.7426 17.6948C60.7344 17.8089 60.6771 17.9129 60.5869 17.9778C60.1728 17.9464 59.7038 17.9372 59.0919 17.9251C58.8356 17.92 58.5541 17.9145 58.2412 17.9066H56.781C56.5898 17.8973 56.5542 17.8359 56.5213 17.7793C56.4913 17.7275 56.4636 17.6797 56.3212 17.6797C56.2854 17.6552 56.2393 17.6316 56.1932 17.608C56.0641 17.5418 55.9355 17.4759 56.0359 17.3906L56.7767 17.3194C57.4171 17.2768 57.9609 16.814 58.1305 16.1674C58.2623 15.8137 58.418 15.4128 58.601 14.9418C58.9795 13.9676 59.4744 12.6938 60.1143 10.9187L63.1497 2.56079L64.0012 2.00033C64.1314 1.99407 64.2504 2.07696 64.2949 2.20494C64.5829 3.22115 64.9324 4.2844 65.2669 5.30245L65.2868 5.36306L68.3733 14.8241C69.0119 16.848 69.3184 17.2038 70.2891 17.3194ZM61.7023 10.9187H64.4737C65.1293 10.9187 65.1719 10.8208 64.9888 10.1848L63.7713 6.35053C63.6231 5.84617 63.4498 5.35027 63.2519 4.86488H63.2093C63.0059 5.31876 62.8254 5.78348 62.6687 6.25712L61.2297 10.3538C61.0509 10.892 61.0722 10.9187 61.7023 10.9187Z" fill="#231F20"/>
<path fill-rule="evenodd" clip-rule="evenodd" d="M8.50255 12H13.5408V20H0V0H20.9866V7.99575H8.50255V12ZM21 20V12H17.7452V20H21Z" fill="url(#paint0_linear)"/>
<path fill-rule="evenodd" clip-rule="evenodd" d="M12.9204 12.0175H8.08515V7.98246H15V5H5V15H12.9204V12.0175Z" fill="url(#paint1_linear)"/>
<defs>
<linearGradient id="paint0_linear" x1="0" y1="20" x2="21" y2="20" gradientUnits="userSpaceOnUse">
<stop offset="0.02" stop-color="#58371E"/>
<stop offset="0.06" stop-color="#765129"/>
<stop offset="0.14" stop-color="#A67A3A"/>
<stop offset="0.18" stop-color="#B88A41"/>
<stop offset="0.5" stop-color="#E6DD90"/>
<stop offset="0.59" stop-color="#DCCB7E"/>
<stop offset="0.76" stop-color="#C19B50"/>
<stop offset="0.82" stop-color="#B88A40"/>
<stop offset="0.98" stop-color="#58371E"/>
</linearGradient>
<linearGradient id="paint1_linear" x1="5" y1="15.0021" x2="15" y2="15.0021" gradientUnits="userSpaceOnUse">
<stop offset="0.02" stop-color="#58371E"/>
<stop offset="0.06" stop-color="#765129"/>
<stop offset="0.14" stop-color="#A67A3A"/>
<stop offset="0.18" stop-color="#B88A41"/>
<stop offset="0.5" stop-color="#E6DD90"/>
<stop offset="0.59" stop-color="#DCCB7E"/>
<stop offset="0.76" stop-color="#C19B50"/>
<stop offset="0.82" stop-color="#B88A40"/>
<stop offset="0.98" stop-color="#58371E"/>
</linearGradient>
</defs>
</svg>
