<svg width="150" height="30" viewBox="0 0 150 30" fill="none" xmlns="http://www.w3.org/2000/svg">
<path fill-rule="evenodd" clip-rule="evenodd" d="M71.3974 25.5625C70.8711 25.5625 70.8486 25.5625 70.8486 25.8985V27.3846C70.8486 28.4917 70.9025 28.6425 71.5188 28.7028L71.8382 28.7372C71.9057 28.776 71.8832 28.9698 71.8382 29C71.2399 28.9785 70.8666 28.9698 70.4392 28.9698C70.0119 28.9698 69.589 28.9698 69.1617 29C69.0942 28.9243 69.0942 28.8129 69.1617 28.7372L69.3461 28.7028C69.9624 28.5994 69.9849 28.4917 69.9849 27.3846V23.5895C69.9849 22.4825 69.9084 22.2972 69.3371 22.2628H69.0492C68.9836 22.1864 68.9836 22.0763 69.0492 22C69.589 22 69.9489 22.0302 70.4392 22.0302C70.9295 22.0302 71.2399 22.0302 71.7168 22C71.7797 22.0302 71.8022 22.2197 71.7392 22.2628H71.5278C70.889 22.3231 70.8666 22.4825 70.8666 23.5895V24.8043C70.8666 25.1274 70.8666 25.1403 71.4154 25.1403H74.5643C75.0906 25.1403 75.1131 25.1403 75.1131 24.8043V23.5895C75.1131 22.4825 75.0906 22.3231 74.4428 22.2628H74.2314C74.172 22.1814 74.1815 22.0711 74.2539 22C74.7622 22 75.1535 22.0302 75.6034 22.0302C76.0532 22.0302 76.4086 22.0302 76.9034 22C76.9709 22.0302 76.9934 22.2197 76.9259 22.2628H76.6965C76.0577 22.3231 76.0352 22.4825 76.0352 23.5895V27.3846C76.0352 28.4917 76.0577 28.6295 76.6965 28.7028L76.9574 28.7372C77.0249 28.776 77.0024 28.9698 76.9574 29C76.4266 28.9785 76.0577 28.9698 75.6079 28.9698C75.158 28.9698 74.7622 28.9698 74.2584 29C74.1909 28.9698 74.1729 28.7975 74.2359 28.7372L74.4473 28.7028C75.1176 28.5994 75.1176 28.4917 75.1176 27.3846V25.8985C75.1176 25.584 75.0951 25.5625 74.5688 25.5625H71.3974Z" fill="#231F20"/>
<path fill-rule="evenodd" clip-rule="evenodd" d="M83.3271 26.626C83.3271 26.7692 83.3053 26.8544 83.1441 26.9008L81.8721 27.3112C81.2055 27.528 81.0008 27.7293 81.0008 28.1164C81.0004 28.37 81.1207 28.6118 81.3319 28.7823C81.5442 28.9323 81.8102 29.0092 82.0812 28.9991C82.3553 28.9801 82.6193 28.8988 82.8479 28.763C82.975 28.6826 83.1144 28.6187 83.2618 28.5733C83.3271 28.5733 83.3925 28.6468 83.436 28.7049C83.6006 28.8959 83.8581 29.0053 84.1287 28.9991C84.4767 28.9882 84.7989 28.8336 85 28.581C85 28.5152 84.9564 28.4571 84.9259 28.4571C84.906 28.4571 84.8769 28.4736 84.8433 28.4926C84.8254 28.5027 84.8062 28.5135 84.7865 28.5229C84.7048 28.5618 84.6134 28.5817 84.5208 28.581C84.1069 28.581 84.0329 28.1939 84.0329 27.7564L84.0939 26.1072C84.1287 25.3871 83.7671 25 82.9873 25C82.2075 25 81.0008 25.6697 81.0008 26.1614C80.9964 26.1981 81.0112 26.2345 81.041 26.2602C81.0707 26.2859 81.1121 26.298 81.1532 26.293C81.3698 26.285 81.5796 26.2233 81.7588 26.115C81.8677 26.0569 81.8677 25.9446 81.8677 25.7898C81.8895 25.4955 82.2511 25.3639 82.5473 25.3639C83.2095 25.3639 83.3271 25.8401 83.3271 26.1885V26.626ZM83.1354 28.3139C82.9495 28.4501 82.7219 28.5337 82.482 28.5539C82.3043 28.5646 82.1296 28.5095 81.9992 28.4017C81.8688 28.294 81.7944 28.1431 81.7936 27.9848C81.7936 27.6132 82.1029 27.4738 82.7303 27.2841C82.8709 27.2372 83.017 27.2047 83.1659 27.1873C83.2269 27.1873 83.2705 27.2067 83.2705 27.3112V27.8687C83.2701 27.8774 83.2697 27.8861 83.2694 27.8946C83.2615 28.0814 83.2563 28.2065 83.1354 28.3139Z" fill="#231F20"/>
<path fill-rule="evenodd" clip-rule="evenodd" d="M89.6483 26.5899C89.6483 26.1096 89.6483 26.0711 89.3588 25.8598L89.2624 25.7878C89.2132 25.7276 89.2132 25.6366 89.2624 25.5764C89.6384 25.4273 89.9986 25.2341 90.3367 25.0001C90.389 24.9983 90.4365 25.033 90.4551 25.0865C90.4332 25.3555 90.4332 25.5332 90.4332 25.6389C90.4319 25.6737 90.444 25.7074 90.4665 25.7321C90.489 25.7567 90.5198 25.7699 90.5516 25.7685C90.9924 25.4196 91.5132 25.2117 92.0557 25.1682C92.4054 25.1446 92.7468 25.2914 92.9886 25.5692C93.2304 25.847 93.348 26.2275 93.3098 26.6091V28.6311C93.3098 29.4813 93.3317 29.5917 93.7176 29.6542L93.9544 29.6926C93.9873 29.7345 94.0035 29.7891 93.9994 29.8441C93.9952 29.8992 93.9712 29.9501 93.9325 29.9856C93.6124 29.9616 93.301 29.952 92.9239 29.952C92.5468 29.952 92.2179 29.952 91.9285 29.9856C91.8918 29.9475 91.8709 29.8945 91.8709 29.8391C91.8709 29.7837 91.8918 29.7307 91.9285 29.6926L92.1302 29.6542C92.5293 29.5869 92.538 29.4813 92.538 28.6311V26.8973C92.5813 26.5868 92.4913 26.2718 92.2942 26.0437C92.0971 25.8156 91.8149 25.6999 91.5295 25.7301C91.1845 25.7125 90.8503 25.8639 90.6174 26.1432C90.4833 26.3474 90.4253 26.5998 90.4551 26.8492V28.6455C90.4551 29.4957 90.477 29.6062 90.8629 29.6686L91.0559 29.707C91.0926 29.7451 91.1134 29.7981 91.1134 29.8535C91.1134 29.9089 91.0926 29.9619 91.0559 30C90.7621 29.976 90.4507 29.9664 90.078 29.9664C89.7053 29.9664 89.3676 29.9664 89.0694 30C89.0297 29.9653 89.0048 29.9142 89.0006 29.8587C88.9965 29.8032 89.0134 29.7483 89.0475 29.707L89.2711 29.6686C89.6702 29.611 89.6789 29.4957 89.6789 28.6455L89.6483 26.5899Z" fill="#231F20"/>
<path fill-rule="evenodd" clip-rule="evenodd" d="M101.439 28.4163C101.825 28.0269 102.027 27.4952 101.997 26.951C102.011 26.4342 101.811 25.9342 101.444 25.5661C101.077 25.198 100.573 24.9937 100.05 25.0002C99.4989 24.9925 98.9684 25.2077 98.5815 25.5958C98.1946 25.984 97.9849 26.5114 98.0011 27.0559C97.9834 27.5764 98.1848 28.0808 98.5576 28.4491C98.9303 28.8173 99.4408 29.0164 99.9676 28.9989C100.519 29.0172 101.053 28.8058 101.439 28.4163ZM98.8192 26.916C98.8192 25.8668 99.2911 25.2683 99.9283 25.2683C100.841 25.2683 101.171 26.2981 101.171 27.1064C101.171 27.837 100.912 28.7113 100.062 28.7113C99.2125 28.7113 98.8192 27.7787 98.8192 26.916Z" fill="#231F20"/>
<path fill-rule="evenodd" clip-rule="evenodd" d="M108.189 24.0882C108.348 23.9811 108.444 23.7875 108.44 23.5803L108.453 23.5895C108.461 23.4339 108.41 23.2816 108.313 23.1697C108.215 23.0577 108.081 22.9964 107.941 23.0005C107.796 22.994 107.655 23.0554 107.552 23.1698C107.45 23.2843 107.395 23.4414 107.401 23.6032C107.404 23.8103 107.507 23.9996 107.669 24.0996C107.832 24.1997 108.03 24.1953 108.189 24.0882ZM107.351 26.0825C107.622 26.2834 107.622 26.3199 107.622 26.7765L107.634 28.7124C107.634 29.5206 107.626 29.6302 107.253 29.685L107.044 29.7215C107.013 29.7608 106.997 29.8129 107.001 29.8657C107.004 29.9184 107.028 29.967 107.065 30C107.343 29.968 107.658 29.968 108.006 29.968C108.354 29.968 108.645 29.9772 108.948 30C108.981 29.9631 109 29.913 109 29.8607C109 29.8085 108.981 29.7583 108.948 29.7215L108.735 29.685C108.375 29.6256 108.354 29.5206 108.354 28.7124V26.7034C108.354 26.4665 108.365 26.2124 108.376 25.9679C108.386 25.7411 108.395 25.5226 108.395 25.3336C108.387 25.2652 108.346 25.2652 108.297 25.2652C107.967 25.481 107.62 25.6643 107.261 25.8131C107.215 25.8703 107.215 25.9568 107.261 26.014L107.351 26.0825Z" fill="#231F20"/>
<path fill-rule="evenodd" clip-rule="evenodd" d="M42.4675 15.2736C42.4675 16.1955 42.6083 16.7504 43.0442 16.9121C43.0822 16.9513 43.101 17.0043 43.0958 17.0578C43.0906 17.1112 43.0619 17.1599 43.017 17.1917C42.6184 17.219 42.2241 17.2878 41.8409 17.3971C40.4367 17.7575 38.9937 17.9599 37.541 18C34.6804 18 32.0605 17.2354 30.2124 15.4353C28.7707 14.0461 27.9733 12.1554 28.0012 10.1922C27.9658 8.16436 28.7393 6.20051 30.1625 4.70453C31.7744 3.10104 34.1537 2 37.7816 2C38.8086 2.01054 39.8314 2.12625 40.8329 2.34517C41.3193 2.47032 41.819 2.54069 42.3222 2.55489C42.3677 3.67815 42.4875 4.79748 42.6809 5.90606C42.6083 6.09394 42.1769 6.11578 42.0316 5.97597C41.3596 3.47679 39.557 2.6947 37.1096 2.6947C32.4464 2.6947 30.4031 5.88422 30.4031 9.35336C30.4031 13.7925 32.7824 17.2835 37.6136 17.2835C39.1029 17.2835 39.9929 16.982 40.2563 16.5887C40.4539 16.1795 40.5369 15.7276 40.4969 15.278V14.3474C40.4969 12.4031 40.4243 12.2676 38.9349 12.1016L37.877 11.988C37.791 11.915 37.7417 11.81 37.7417 11.6996C37.7417 11.5893 37.791 11.4842 37.877 11.4113C38.5717 11.4549 39.893 11.4812 41.3142 11.4812C42.2496 11.4812 43.0669 11.4549 43.8615 11.4113C43.9456 11.4839 43.9954 11.5863 43.9997 11.695C44.004 11.8037 43.9623 11.9094 43.8842 11.988L43.4983 12.036C42.4902 12.1496 42.4675 12.7963 42.4675 13.976V15.2736Z" fill="#231F20"/>
<path fill-rule="evenodd" clip-rule="evenodd" d="M44.0909 3.83002C45.0484 3.94495 45.119 4.34081 45.119 6.46907L45.0749 14.5522C45.0749 16.9188 45.0263 17.2125 43.6718 17.37L43.0894 17.4381C42.9551 17.6094 42.974 17.8503 43.1335 18C44.2321 17.9574 45.119 17.9319 46.0544 17.9319C46.9898 17.9319 47.784 17.9574 48.8341 18C48.9936 17.8503 49.0125 17.6094 48.8782 17.4381L48.3885 17.37C47.0339 17.1913 46.9898 16.9188 46.9898 14.5522V11.7174C46.9898 11.2449 47.0339 11.2194 48.084 11.2194C49.0194 11.2194 49.3944 11.4449 49.743 11.943C50.1271 12.4806 50.577 13.0986 51.0057 13.6875C51.3848 14.2082 51.7472 14.7061 52.033 15.1056C53.7096 17.3785 54.9009 17.9447 56.8864 17.9447C57.233 17.9543 57.5793 17.9156 57.9145 17.8297C57.968 17.794 58 17.7351 58 17.6722C58 17.6094 57.968 17.5505 57.9145 17.5148C57.3217 17.4759 56.7574 17.2552 56.304 16.8848C54.6979 15.5993 53.4758 14.0372 51.6094 11.13C51.4903 10.9512 51.3755 10.7256 51.4903 10.5894C52.6463 10.1382 54.4111 8.95488 54.4111 6.82662C54.4686 5.49831 53.7094 4.26206 52.4742 3.67253C51.3976 3.11067 50.021 3 48.5738 3C46.2838 3 44.691 3.06385 43.3673 3.17877C43.2803 3.24614 43.2275 3.34639 43.2224 3.45393C43.2174 3.56148 43.2605 3.66593 43.3409 3.74064L44.0909 3.83002ZM47.1001 10.4319C47.0262 10.1904 47.0037 9.93707 47.0339 9.687V4.41742C47.0339 3.78746 47.1001 3.69807 48.5517 3.69807C51.1417 3.69807 52.2845 5.38791 52.2845 7.16714C52.2845 8.68246 51.7506 9.48695 51.1196 9.95942C50.4043 10.3989 49.5607 10.6035 48.715 10.5426C47.5413 10.5426 47.1707 10.5 47.1001 10.4319Z" fill="#231F20"/>
<path fill-rule="evenodd" clip-rule="evenodd" d="M85.1881 13.6215C85.1881 14.3242 85.1881 17.1262 85.2495 17.74C85.1981 17.9084 85.0365 18.0164 84.8637 17.9979C84.6182 17.5977 84.0263 16.7749 82.2331 14.4399L77.5023 8.21327C76.9543 7.48387 75.5645 5.54472 75.1392 5.03325H75.0953C75.0066 5.53795 74.9728 6.05102 74.9945 6.56322V11.7269C74.9945 12.8343 74.9945 15.8942 75.3628 16.6192C75.4855 16.8816 75.8933 17.0195 76.4019 17.064L77.0332 17.1351C77.1552 17.3166 77.1389 17.5592 76.9938 17.7222C76.0774 17.6777 75.3628 17.651 74.6087 17.651C73.7318 17.651 73.2013 17.6777 72.4866 17.7222C72.3415 17.5592 72.3252 17.3166 72.4472 17.1351L72.9952 17.064C73.4643 16.9928 73.7932 16.8505 73.8721 16.5925C74.1571 15.7475 74.1352 12.8743 74.1352 11.7446V4.91316C74.2093 4.31075 74.0523 3.70249 73.6967 3.21419C73.3515 2.8855 72.9061 2.68623 72.434 2.64935L72.0877 2.60487C71.9649 2.46255 71.9649 2.11119 72.1271 2.01779C73.004 2.0845 74.065 2.0845 74.4289 2.0845C74.7429 2.08682 75.0566 2.06451 75.3672 2.01779C75.7749 3.21419 78.1819 6.32305 78.8747 7.19477L80.852 9.76103C82.2594 11.5712 83.259 12.8743 84.2192 14.0218H84.2587C84.3432 13.6986 84.3699 13.3627 84.3376 13.03V7.99534C84.3376 6.88789 84.3376 3.82796 83.9298 3.103C83.8114 2.89396 83.4914 2.75164 82.6671 2.63156L82.3208 2.58708C82.1761 2.44476 82.198 2.06671 82.3602 2C83.2985 2.04448 83.9912 2.06671 84.7672 2.06671C85.6441 2.06671 86.1746 2.04448 86.8673 2C87.0258 2.15647 87.0446 2.40818 86.9112 2.58708L86.6218 2.63156C85.9729 2.75164 85.5652 2.93844 85.4819 3.12969C85.1355 3.97473 85.175 6.89234 85.175 7.97755L85.1881 13.6215Z" fill="#231F20"/>
<path fill-rule="evenodd" clip-rule="evenodd" d="M91.1314 9.4152C91.1314 10.0235 91.2049 10.0235 91.9349 10.0235H93.5832C94.2752 10.0505 94.9683 10.0048 95.6493 9.88741C95.9201 9.79807 96.1084 9.68321 96.2599 9.1004L96.4757 8.19853C96.6612 8.0621 96.9237 8.0621 97.1093 8.19853C97.1093 8.7388 97.0129 9.64067 97.0129 10.4745C97.0129 11.3083 97.1093 12.1378 97.1093 12.6568C97.0129 12.793 96.6502 12.793 96.4757 12.6568L96.2507 11.7805C96.1829 11.3853 95.884 11.0576 95.4748 10.9297C94.8568 10.8277 94.2285 10.7906 93.6015 10.8191H91.9349C91.2049 10.8191 91.1314 10.8191 91.1314 11.4274V14.5542C91.1314 16.9195 91.1819 17.2598 92.6144 17.3704L93.4408 17.4385C93.5832 17.5278 93.5373 17.9319 93.3903 18C91.9578 17.9575 91.1314 17.9319 90.1764 17.9319C89.1067 17.9319 88.2848 17.9575 87.1416 18C86.9742 17.8515 86.9525 17.6106 87.0911 17.4385L87.6971 17.3704C89.1067 17.213 89.1572 16.9195 89.1572 14.5542V6.44158C89.1572 4.08054 89.1067 3.76574 87.6971 3.60408L87.3115 3.56154C87.1645 3.47221 87.215 3.06381 87.3574 3C88.3812 3.04254 89.1939 3.06381 90.1764 3.06381H94.6484C96.2048 3.06381 97.6143 3.06381 97.9311 3C97.9311 4.03375 97.9311 5.12706 98 5.97788C97.8549 6.13862 97.6005 6.16832 97.4169 6.04594C97.2241 5.03347 96.9348 4.19966 95.7181 3.91889C94.935 3.78999 94.1388 3.7429 93.3444 3.7785H91.8614C91.1314 3.7785 91.1314 3.82104 91.1314 4.67612V9.4152Z" fill="#231F20"/>
<path fill-rule="evenodd" clip-rule="evenodd" d="M100.365 6.44353C100.365 4.10244 100.316 3.76617 98.9125 3.60443L98.5301 3.56186C98.3906 3.47247 98.4356 3.06385 98.5796 3C99.6007 3.04257 100.41 3.06385 101.387 3.06385H105.849C107.374 3.06385 109.066 3 109.066 3C109.066 3 109.349 5.00482 109.444 5.97957C109.286 6.13476 109.032 6.15484 108.85 6.02639C108.494 4.96652 108.278 4.17906 107.05 3.89813C106.287 3.78585 105.514 3.74592 104.743 3.77894H103.029C102.318 3.77894 102.318 3.82151 102.318 4.67707V9.17196C102.318 9.80193 102.39 9.80193 103.101 9.80193H104.5C105.178 9.83033 105.857 9.78462 106.524 9.66572C106.812 9.57633 106.974 9.44012 107.095 8.87826L107.284 7.9546C107.464 7.80366 107.737 7.81303 107.905 7.97588C107.905 8.51646 107.811 9.39756 107.811 10.2531C107.811 11.1087 107.905 11.9174 107.905 12.4154C107.737 12.5783 107.464 12.5877 107.284 12.4367L107.073 11.5599C107.042 11.1569 106.747 10.8158 106.335 10.7086C105.73 10.5997 105.114 10.5597 104.5 10.5894H103.119C102.408 10.5894 102.336 10.6107 102.336 11.1981V14.3734C102.336 15.5695 102.408 16.3357 102.786 16.7188C103.074 16.9869 103.573 17.2338 105.669 17.2338C107.5 17.2338 108.193 17.1444 108.715 16.8976C109.142 16.672 109.785 15.8845 110.406 14.714C110.617 14.6096 110.877 14.6786 111 14.8715C110.798 15.6589 109.898 18 109.898 18C109.898 18 105.638 17.9319 103.519 17.9319H101.373C100.352 17.9319 99.5423 17.9574 98.1387 18C97.9747 17.8514 97.9535 17.6104 98.0892 17.4381L98.8765 17.37C100.226 17.2594 100.352 16.9188 100.352 14.5522L100.365 6.44353Z" fill="#231F20"/>
<path fill-rule="evenodd" clip-rule="evenodd" d="M112.091 3.83002C113.049 3.94495 113.12 4.34081 113.12 6.46907L113.076 14.5522C113.076 16.9188 113.027 17.2125 111.671 17.37L111.088 17.4381C110.954 17.6104 110.975 17.8514 111.136 18C112.232 17.9574 113.12 17.9319 114.057 17.9319C114.993 17.9319 115.789 17.9574 116.84 18C117 17.8503 117.019 17.6094 116.884 17.4381L116.394 17.37C115.038 17.1913 114.993 16.9188 114.993 14.5522V11.7174C114.993 11.2449 115.038 11.2194 116.089 11.2194C117.026 11.2194 117.401 11.4449 117.75 11.943C118.135 12.4806 118.585 13.0987 119.015 13.6875C119.394 14.2082 119.757 14.7061 120.043 15.1056C121.705 17.3785 122.893 17.9447 124.881 17.9447C125.228 17.9546 125.575 17.9159 125.911 17.8297C125.966 17.7953 126 17.7359 126 17.6722C126 17.6086 125.966 17.5492 125.911 17.5148C125.317 17.4759 124.752 17.2552 124.298 16.8848C122.69 15.5993 121.466 14.0372 119.597 11.13C119.482 10.9512 119.363 10.7256 119.482 10.5894C120.635 10.1382 122.403 8.95488 122.403 6.82662C122.46 5.49831 121.7 4.26206 120.463 3.67253C119.385 3.11067 118.007 3 116.557 3C114.264 3 112.669 3.06385 111.344 3.17877C111.26 3.24988 111.212 3.3522 111.212 3.4597C111.212 3.56721 111.26 3.66953 111.344 3.74064L112.091 3.83002ZM115.108 10.4319C115.029 10.1914 115.005 9.93731 115.038 9.687V4.41742C115.038 3.78746 115.108 3.69807 116.557 3.69807C119.151 3.69807 120.3 5.38791 120.3 7.16714C120.3 8.68246 119.761 9.48695 119.129 9.95942C118.412 10.3989 117.568 10.6035 116.721 10.5426C115.528 10.5426 115.175 10.5 115.108 10.4319Z" fill="#231F20"/>
<path fill-rule="evenodd" clip-rule="evenodd" d="M130.942 14.4803C130.942 16.8963 130.992 17.2439 132.389 17.3569L133.159 17.4264C133.304 17.5177 133.254 17.9305 133.113 18C131.748 17.9565 130.919 17.9305 129.954 17.9305C128.99 17.9305 128.134 17.9565 126.609 18C126.528 17.9247 126.482 17.8213 126.482 17.7132C126.482 17.6052 126.528 17.5017 126.609 17.4264L127.474 17.3569C128.839 17.2439 128.967 16.8963 128.967 14.4803V4.20376C128.967 3.49114 128.967 3.46941 128.248 3.46941H126.937C125.899 3.46941 125.312 3.51286 124.711 4.04299C124.228 4.4856 123.857 5.02819 123.628 5.62901C123.523 5.68844 123.397 5.70488 123.279 5.67463C123.16 5.64438 123.06 5.56999 123 5.46824C123.392 4.34841 123.696 3.20248 123.91 2.03982C124.057 1.98673 124.219 1.98673 124.365 2.03982C124.511 2.77851 125.303 2.75244 126.414 2.75244H134.688C135.99 2.75244 136.208 2.70899 136.568 2.10934C136.691 2.06589 136.954 2.10934 137 2.17886C136.726 3.3257 136.605 4.50102 136.64 5.67681C136.545 5.85931 136.135 5.85931 136.012 5.72026C135.944 5.14669 135.776 4.29501 135.412 4.04299C134.856 3.65191 134.683 3.46941 133.359 3.46941H131.648C130.942 3.48245 130.942 3.48245 130.942 4.24721V14.4803Z" fill="#231F20"/>
<path fill-rule="evenodd" clip-rule="evenodd" d="M139.355 6.44255C139.355 4.10213 139.31 3.76596 137.903 3.60426L137.52 3.5617C137.375 3.47234 137.425 3.06383 137.565 3C138.593 3.04255 139.404 3.06383 140.383 3.06383H144.892C146.42 3.06383 148.111 3 148.111 3C148.111 3 148.399 5.00426 148.494 5.97872C148.337 6.13387 148.081 6.15394 147.899 6.02553C147.538 4.96596 147.326 4.17872 146.095 3.89787C145.319 3.78299 144.532 3.74307 143.746 3.77872H142.033C141.316 3.77872 141.316 3.82128 141.316 4.6766V9.17021C141.316 9.8 141.388 9.8 142.105 9.8H143.489C144.169 9.8279 144.85 9.78221 145.518 9.66383C145.802 9.57447 145.969 9.4383 146.091 8.8766L146.28 7.95319C146.46 7.8023 146.734 7.81167 146.902 7.97447C146.902 8.51489 146.803 9.39574 146.803 10.2511C146.803 11.1064 146.902 11.9149 146.902 12.4128C146.734 12.5756 146.46 12.5849 146.28 12.434L146.064 11.5574C146.033 11.1545 145.737 10.8135 145.324 10.7064C144.72 10.5991 144.104 10.5605 143.489 10.5915H142.105C141.388 10.5915 141.316 10.6128 141.316 11.2V14.3745C141.316 15.5702 141.388 16.3362 141.767 16.7191C142.051 16.9872 142.556 17.234 144.653 17.234C146.492 17.234 147.182 17.1447 147.71 16.8979C148.16 16.6723 148.783 15.8851 149.4 14.7149C149.613 14.6079 149.877 14.6772 150 14.8723C149.833 15.6596 148.922 18 148.922 18C148.922 18 144.653 17.9319 142.529 17.9319H140.383C139.355 17.9319 138.543 17.9574 137.136 18C136.973 17.8503 136.954 17.6095 137.091 17.4383L137.876 17.3702C139.228 17.2596 139.355 16.9191 139.355 14.5532V6.44255Z" fill="#231F20"/>
<path fill-rule="evenodd" clip-rule="evenodd" d="M57.0353 17C57.0353 17 57.4999 17.8466 57.8332 17.3252C58.1665 16.8037 57.8973 17.5767 57.8973 17.5767C57.8973 17.5767 57.3974 18 57.3846 18C57.3717 18 57 17.6871 57 17.6871L57.0353 17Z" fill="#231F20"/>
<path fill-rule="evenodd" clip-rule="evenodd" d="M70.2891 17.3194L70.8978 17.3906C71.0554 17.5063 71.0085 17.8844 70.9064 18C69.9825 17.9555 69.1907 17.9288 68.1775 17.9288C67.5687 17.9288 67.0314 17.9514 66.5618 17.9711C66.1974 17.9864 65.8737 18 65.5891 18C65.5022 17.933 65.4472 17.83 65.4382 17.7175C65.4292 17.605 65.4672 17.494 65.5423 17.4129L66.1936 17.3417C66.6704 17.2705 66.9855 17.1326 66.9855 16.8969C66.9404 16.4686 66.8416 16.0484 66.6917 15.647L65.6998 12.4488C65.5423 11.9284 65.4529 11.8572 64.776 11.8572H61.3702C60.8125 11.8572 60.6763 11.9284 60.5188 12.4221L59.7312 14.8953C59.4947 15.5243 59.3276 16.1794 59.2331 16.848C59.2331 17.1326 59.348 17.2705 59.8887 17.3194L60.6295 17.3906C60.7093 17.4689 60.7509 17.5808 60.7426 17.6948C60.7344 17.8089 60.6771 17.9129 60.5869 17.9778C60.1728 17.9464 59.7038 17.9372 59.0919 17.9251C58.8356 17.92 58.5541 17.9145 58.2412 17.9066H56.781C56.5898 17.8973 56.5542 17.8359 56.5213 17.7793C56.4913 17.7275 56.4636 17.6797 56.3212 17.6797C56.2854 17.6552 56.2393 17.6316 56.1932 17.608C56.0641 17.5418 55.9355 17.4759 56.0359 17.3906L56.7767 17.3194C57.4171 17.2768 57.9609 16.814 58.1305 16.1674C58.2623 15.8137 58.418 15.4128 58.601 14.9418C58.9795 13.9676 59.4744 12.6938 60.1143 10.9187L63.1497 2.56079L64.0012 2.00033C64.1314 1.99407 64.2504 2.07696 64.2949 2.20494C64.5829 3.22115 64.9324 4.2844 65.2669 5.30245L65.2868 5.36306L68.3733 14.8241C69.0119 16.848 69.3184 17.2038 70.2891 17.3194ZM61.7023 10.9187H64.4737C65.1293 10.9187 65.1719 10.8208 64.9888 10.1848L63.7713 6.35053C63.6231 5.84617 63.4498 5.35027 63.2519 4.86488H63.2093C63.0059 5.31876 62.8254 5.78348 62.6687 6.25712L61.2297 10.3538C61.0509 10.892 61.0722 10.9187 61.7023 10.9187Z" fill="#231F20"/>
<path fill-rule="evenodd" clip-rule="evenodd" d="M8.50255 12H13.5408V20H0V0H20.9866V7.99575H8.50255V12ZM21 20V12H17.7452V20H21Z" fill="url(#paint0_linear)"/>
<path fill-rule="evenodd" clip-rule="evenodd" d="M12.9204 12.0175H8.08515V7.98246H15V5H5V15H12.9204V12.0175Z" fill="url(#paint1_linear)"/>
<defs>
<linearGradient id="paint0_linear" x1="0" y1="20" x2="21" y2="20" gradientUnits="userSpaceOnUse">
<stop offset="0.02" stop-color="#58371E"/>
<stop offset="0.06" stop-color="#765129"/>
<stop offset="0.14" stop-color="#A67A3A"/>
<stop offset="0.18" stop-color="#B88A41"/>
<stop offset="0.5" stop-color="#E6DD90"/>
<stop offset="0.59" stop-color="#DCCB7E"/>
<stop offset="0.76" stop-color="#C19B50"/>
<stop offset="0.82" stop-color="#B88A40"/>
<stop offset="0.98" stop-color="#58371E"/>
</linearGradient>
<linearGradient id="paint1_linear" x1="5" y1="15.0021" x2="15" y2="15.0021" gradientUnits="userSpaceOnUse">
<stop offset="0.02" stop-color="#58371E"/>
<stop offset="0.06" stop-color="#765129"/>
<stop offset="0.14" stop-color="#A67A3A"/>
<stop offset="0.18" stop-color="#B88A41"/>
<stop offset="0.5" stop-color="#E6DD90"/>
<stop offset="0.59" stop-color="#DCCB7E"/>
<stop offset="0.76" stop-color="#C19B50"/>
<stop offset="0.82" stop-color="#B88A40"/>
<stop offset="0.98" stop-color="#58371E"/>
</linearGradient>
</defs>
</svg>
