<svg id="Layer_1" data-name="Layer 1" xmlns="http://www.w3.org/2000/svg" viewBox="0 0 118.03 118.03"><defs><style>.cls-1{fill:#ecd0c7;}.cls-2{fill:#c6927e;}</style></defs><title>TMRB Ikon</title><rect class="cls-1" x="1.62" y="34.48" width="16.81" height="18.04" rx="1.31"/><rect class="cls-1" x="70.9" y="34.48" width="16.81" height="18.04" rx="1.31"/><path class="cls-1" d="M18.43,106.41s-2.28,9.23,3.47,9.23H33.54s1.2-.85,1.2-4.61a21.81,21.81,0,0,1,.5-5.47Z"/><path class="cls-1" d="M54.32,106.41s-2.29,9.23,3.46,9.23H69.43s1.19-.85,1.19-4.61a21.81,21.81,0,0,1,.5-5.47Z"/><rect class="cls-1" x="83" y="10.03" width="24.55" height="8.4"/><path class="cls-1" d="M43.37,75.15C26.79,73.61,12.23,72.41,10,69.85V95.1a111.56,111.56,0,0,0,35.22,5.58c20.16,0,34.05-5.37,34.05-5.37V69.85S59.94,76.68,43.37,75.15ZM21.9,92.26a5.38,5.38,0,1,1,5.37-5.37A5.37,5.37,0,0,1,21.9,92.26Zm45.54,0a5.38,5.38,0,1,1,5.37-5.37A5.37,5.37,0,0,1,67.44,92.26Z"/><path class="cls-2" d="M99.59,118h-98a1.63,1.63,0,0,1,0-3.25H98V99.6A1.63,1.63,0,0,1,99.59,98h15.19V3.25H59A1.63,1.63,0,0,1,59,0H116.4A1.63,1.63,0,0,1,118,1.62v98a1.63,1.63,0,0,1-1.63,1.62H101.22V116.4A1.63,1.63,0,0,1,99.59,118Z"/><path class="cls-2" d="M108,20.06H83a1.63,1.63,0,0,1-1.63-1.63V10A1.63,1.63,0,0,1,83,8.4h25A1.62,1.62,0,0,1,109.62,10v8.4A1.62,1.62,0,0,1,108,20.06ZM84.62,16.81h21.76V11.65H84.62Z"/><path class="cls-2" d="M75.25,107.19H14.09a5.69,5.69,0,0,1-5.69-5.68v-49a1.63,1.63,0,0,1,3.25,0v49a2.43,2.43,0,0,0,2.44,2.43H75.25a2.43,2.43,0,0,0,2.43-2.43v-49a1.63,1.63,0,0,1,3.25,0v49A5.69,5.69,0,0,1,75.25,107.19Z"/><path class="cls-2" d="M79.3,36.1a1.63,1.63,0,0,1-1.62-1.62V34a2.43,2.43,0,0,0-2.43-2.43H14.09A2.43,2.43,0,0,0,11.65,34v.44a1.63,1.63,0,0,1-3.25,0V34a5.69,5.69,0,0,1,5.69-5.68H75.25A5.69,5.69,0,0,1,80.93,34v.44A1.63,1.63,0,0,1,79.3,36.1Z"/><path class="cls-2" d="M14.37,54.14H5.68A5.69,5.69,0,0,1,0,48.46V38.53a5.69,5.69,0,0,1,5.68-5.68h8.69a5.69,5.69,0,0,1,5.69,5.68v9.93A5.69,5.69,0,0,1,14.37,54.14Zm-8.69-18a2.43,2.43,0,0,0-2.43,2.43v9.93A2.44,2.44,0,0,0,5.68,50.9h8.69a2.44,2.44,0,0,0,2.44-2.44V38.53a2.43,2.43,0,0,0-2.44-2.43Z"/><path class="cls-2" d="M83.65,54.14H75a5.68,5.68,0,0,1-5.68-5.68V38.53A5.68,5.68,0,0,1,75,32.85h8.69a5.69,5.69,0,0,1,5.68,5.68v9.93A5.69,5.69,0,0,1,83.65,54.14ZM75,36.1a2.43,2.43,0,0,0-2.44,2.43v9.93A2.44,2.44,0,0,0,75,50.9h8.69a2.45,2.45,0,0,0,2.44-2.44V38.53a2.44,2.44,0,0,0-2.44-2.43Z"/><path class="cls-2" d="M31.18,118H22.49a5.69,5.69,0,0,1-5.68-5.68v-6.79a1.63,1.63,0,0,1,1.62-1.62H35.24a1.62,1.62,0,0,1,1.62,1.62v6.79A5.69,5.69,0,0,1,31.18,118ZM20.06,107.19v5.16a2.43,2.43,0,0,0,2.43,2.43h8.69a2.44,2.44,0,0,0,2.44-2.43v-5.16Z"/><path class="cls-2" d="M66.84,118H58.15a5.69,5.69,0,0,1-5.68-5.68v-6.79a1.63,1.63,0,0,1,1.62-1.62H70.9a1.62,1.62,0,0,1,1.62,1.62v6.79A5.69,5.69,0,0,1,66.84,118ZM55.72,107.19v5.16a2.43,2.43,0,0,0,2.43,2.43h8.69a2.44,2.44,0,0,0,2.44-2.43v-5.16Z"/><path class="cls-2" d="M44.67,77C31.2,77,8.4,75.2,8.4,68.35a1.63,1.63,0,0,1,3.25,0c.54,1.88,12.37,5.43,33,5.43s32.47-3.55,33-5.46a1.61,1.61,0,0,1,1.63-1.6,1.63,1.63,0,0,1,1.62,1.63c0,2.86-3.75,5-11.45,6.58A130.81,130.81,0,0,1,44.67,77Z"/><path class="cls-2" d="M44.67,102.31c-13.47,0-36.27-1.83-36.27-8.67a1.63,1.63,0,1,1,3.25,0c.54,1.87,12.37,5.42,33,5.42s32.47-3.55,33-5.45A1.61,1.61,0,0,1,79.31,92a1.64,1.64,0,0,1,1.62,1.64c0,2.85-3.75,5-11.45,6.57A130.81,130.81,0,0,1,44.67,102.31Z"/><path class="cls-2" d="M70.9,39.61H18.43a1.63,1.63,0,0,1,0-3.25H70.9a1.63,1.63,0,0,1,0,3.25Z"/><path class="cls-2" d="M21.9,93.89a7,7,0,1,1,7-7A7,7,0,0,1,21.9,93.89Zm0-10.76a3.76,3.76,0,1,0,3.75,3.76A3.77,3.77,0,0,0,21.9,83.13Z"/><path class="cls-2" d="M67.44,93.89a7,7,0,1,1,7-7A7,7,0,0,1,67.44,93.89Zm0-10.76a3.76,3.76,0,1,0,3.75,3.76A3.77,3.77,0,0,0,67.44,83.13Z"/><path class="cls-2" d="M83,11.65A1.63,1.63,0,0,1,81.37,10V1.62a1.63,1.63,0,0,1,3.25,0V10A1.63,1.63,0,0,1,83,11.65Z"/><path class="cls-2" d="M108,11.65A1.62,1.62,0,0,1,106.38,10V1.62a1.62,1.62,0,0,1,3.24,0V10A1.62,1.62,0,0,1,108,11.65Z"/><path class="cls-2" d="M116.4,118H99.59a1.63,1.63,0,0,1,0-3.25H116.4a1.63,1.63,0,1,1,0,3.25Z"/></svg>