<svg id="Layer_1" data-name="Layer 1" xmlns="http://www.w3.org/2000/svg" viewBox="0 0 118.03 74.18"><defs><style>.cls-1{fill:#ecd0c7;}.cls-2{fill:#c6927e;}</style></defs><title>TMRB Ikon</title><path class="cls-1" d="M79.3,54.05a5,5,0,1,0,5,5A5,5,0,0,0,79.3,54.05Z"/><path class="cls-1" d="M17.48,38.24A30.5,30.5,0,0,1,37,27.8C50.09,26,72.49,26.46,72.49,26.46L85.89,29s12.3,4,14.66,9.26l15.85-7.92L59,1.62,2.44,30.73Z"/><path class="cls-2" d="M18.43,40.35a1.69,1.69,0,0,1-.72-.17L.9,31.77a1.62,1.62,0,0,1,0-2.9L58.29.17a1.61,1.61,0,0,1,1.45,0l57.39,28.7a1.62,1.62,0,0,1,0,2.9l-16.81,8.41a1.63,1.63,0,1,1-1.45-2.91l13.9-7L59,3.44,5.25,30.32l13.91,7a1.63,1.63,0,0,1-.73,3.08Z"/><path class="cls-2" d="M99.59,60.64A1.63,1.63,0,0,1,98,59V38.72c0-5.38-16-11.37-39-11.37s-38.95,6-38.95,11.37V59a1.63,1.63,0,1,1-3.25,0V38.72c0-9.5,21.74-14.62,42.2-14.62s42.21,5.12,42.21,14.62V59A1.63,1.63,0,0,1,99.59,60.64Z"/><path class="cls-2" d="M79.3,54.05a1.62,1.62,0,0,1-1.62-1.62V11.77a1.63,1.63,0,0,1,3.25,0V52.43A1.62,1.62,0,0,1,79.3,54.05Z"/><path class="cls-2" d="M79.3,67.22A8.21,8.21,0,1,1,87.51,59,8.21,8.21,0,0,1,79.3,67.22Zm0-13.17a5,5,0,1,0,5,5A5,5,0,0,0,79.3,54.05Z"/><path class="cls-2" d="M59,74.18c-11,0-21.38-1.44-29.21-4.05-8.5-2.84-13-6.68-13-11.12a1.63,1.63,0,0,1,3.25,0c0,5.64,16,11.92,39,11.92S98,64.65,98,59a1.63,1.63,0,0,1,3.25,0c0,4.44-4.5,8.28-13,11.12C80.4,72.74,70,74.18,59,74.18Z"/></svg>