<svg id="Layer_1" data-name="Layer 1" xmlns="http://www.w3.org/2000/svg" viewBox="0 0 118.03 101.22"><defs><style>.cls-1{fill:#ecd0c7;}.cls-2{fill:#c6927e;}</style></defs><title>TMRB Ikon</title><rect class="cls-1" x="22.25" y="38.81" width="11.3" height="43.83"/><rect class="cls-1" x="43.26" y="38.81" width="11.3" height="43.83"/><rect class="cls-1" x="64.27" y="38.81" width="11.3" height="43.83"/><rect class="cls-1" x="12.93" y="27.51" width="92.17" height="11.3"/><rect class="cls-1" x="85.28" y="38.81" width="11.3" height="43.83"/><rect class="cls-1" x="1.62" y="88.29" width="114.78" height="11.3"/><path class="cls-2" d="M59.3,24.28a7.82,7.82,0,1,1,7.82-7.81A7.81,7.81,0,0,1,59.3,24.28Zm0-12.38a4.57,4.57,0,1,0,4.57,4.57A4.58,4.58,0,0,0,59.3,11.9Z"/><path class="cls-2" d="M33.55,84.26H22.25a1.62,1.62,0,0,1-1.63-1.62V38.81a1.63,1.63,0,0,1,1.63-1.62h11.3a1.62,1.62,0,0,1,1.62,1.62V82.64A1.61,1.61,0,0,1,33.55,84.26ZM23.87,81h8.06V40.44H23.87Z"/><path class="cls-2" d="M54.56,84.26H43.26a1.61,1.61,0,0,1-1.62-1.62V38.81a1.62,1.62,0,0,1,1.62-1.62h11.3a1.63,1.63,0,0,1,1.63,1.62V82.64A1.62,1.62,0,0,1,54.56,84.26ZM44.88,81h8.06V40.44H44.88Z"/><path class="cls-2" d="M75.57,84.26H64.27a1.61,1.61,0,0,1-1.62-1.62V38.81a1.62,1.62,0,0,1,1.62-1.62h11.3a1.63,1.63,0,0,1,1.63,1.62V82.64A1.62,1.62,0,0,1,75.57,84.26ZM65.89,81H74V40.44H65.89Z"/><path class="cls-2" d="M96.59,84.26H85.28a1.62,1.62,0,0,1-1.62-1.62V38.81a1.63,1.63,0,0,1,1.62-1.62H96.59a1.63,1.63,0,0,1,1.62,1.62V82.64A1.62,1.62,0,0,1,96.59,84.26ZM86.91,81h8V40.44h-8Z"/><path class="cls-2" d="M116.4,101.22H1.62A1.63,1.63,0,0,1,0,99.59V88.29a1.62,1.62,0,0,1,1.62-1.62H116.4A1.62,1.62,0,0,1,118,88.29v11.3A1.63,1.63,0,0,1,116.4,101.22ZM3.25,98H114.78V89.91H3.25Z"/><path class="cls-2" d="M105.1,40.44H12.93a1.63,1.63,0,0,1-1.63-1.63V27.51a1.62,1.62,0,0,1,1.63-1.62H105.1a1.61,1.61,0,0,1,1.62,1.62v11.3A1.62,1.62,0,0,1,105.1,40.44ZM14.55,37.19h88.93V29.13H14.55Z"/><path class="cls-2" d="M37.19,89.91H18.61A1.61,1.61,0,0,1,17,88.29V86.7A5.69,5.69,0,0,1,22.67,81H33.13a5.69,5.69,0,0,1,5.68,5.68v1.59A1.62,1.62,0,0,1,37.19,89.91Zm-17-3.24H35.56a2.43,2.43,0,0,0-2.43-2.41H22.67A2.45,2.45,0,0,0,20.23,86.67Z"/><path class="cls-2" d="M58.2,89.91H39.62A1.62,1.62,0,0,1,38,88.29V86.7A5.69,5.69,0,0,1,43.68,81H54.14a5.69,5.69,0,0,1,5.68,5.68v1.59A1.61,1.61,0,0,1,58.2,89.91Zm-17-3.24H56.58a2.45,2.45,0,0,0-2.44-2.41H43.68A2.43,2.43,0,0,0,41.25,86.67Z"/><path class="cls-2" d="M79.21,89.91H60.63A1.62,1.62,0,0,1,59,88.29V86.7A5.69,5.69,0,0,1,64.69,81H75.15a5.69,5.69,0,0,1,5.68,5.68v1.59A1.61,1.61,0,0,1,79.21,89.91ZM62.26,86.67H77.59a2.45,2.45,0,0,0-2.44-2.41H64.69A2.43,2.43,0,0,0,62.26,86.67Z"/><path class="cls-2" d="M100.22,89.91H81.65A1.62,1.62,0,0,1,80,88.29V86.7A5.69,5.69,0,0,1,85.7,81H96.16a5.68,5.68,0,0,1,5.68,5.68v1.59A1.61,1.61,0,0,1,100.22,89.91Zm-17-3.24H98.6a2.44,2.44,0,0,0-2.44-2.41H85.7A2.44,2.44,0,0,0,83.27,86.67Z"/><path class="cls-2" d="M110.75,29.13H8.08a1.62,1.62,0,0,1-.73-3.07L58.28.18a1.6,1.6,0,0,1,1.46,0l51.74,25.89a1.62,1.62,0,0,1-.73,3.07ZM14.86,25.89h89L59,3.44Z"/></svg>