<svg id="Layer_1" data-name="Layer 1" xmlns="http://www.w3.org/2000/svg" viewBox="0 0 118.03 118.03"><defs><style>.cls-1{fill:#ecd0c7;}.cls-2{fill:#c6927e;}</style></defs><title>TMRB Ikon</title><path class="cls-1" d="M59,1.62A57.39,57.39,0,1,0,116.4,59,57.4,57.4,0,0,0,59,1.62Zm31.87,63.1a4.06,4.06,0,0,1-4.06,4.06h-14a4,4,0,0,0-4,4v14a4.06,4.06,0,0,1-4.06,4.06H53.31a4.06,4.06,0,0,1-4.06-4.06v-14a4.05,4.05,0,0,0-4.06-4h-14a4.06,4.06,0,0,1-4.06-4.06V53.31a4.06,4.06,0,0,1,4.06-4.06h14a4.06,4.06,0,0,0,4.06-4.06v-14a4.06,4.06,0,0,1,4.06-4.06H64.72a4.06,4.06,0,0,1,4.06,4.06v14a4.05,4.05,0,0,0,4,4.06h14a4.06,4.06,0,0,1,4.06,4.06Z"/><path class="cls-2" d="M59,118a59,59,0,1,1,59-59A59.08,59.08,0,0,1,59,118ZM59,3.25A55.77,55.77,0,1,0,114.78,59,55.82,55.82,0,0,0,59,3.25Z"/><path class="cls-2" d="M64.72,92.5H53.31a5.69,5.69,0,0,1-5.68-5.68v-14a2.43,2.43,0,0,0-2.44-2.43h-14a5.69,5.69,0,0,1-5.68-5.68V53.31a5.69,5.69,0,0,1,5.68-5.68h14a2.44,2.44,0,0,0,2.44-2.44v-14a5.69,5.69,0,0,1,5.68-5.68H64.72a5.69,5.69,0,0,1,5.68,5.68v14a2.44,2.44,0,0,0,2.43,2.44h14a5.69,5.69,0,0,1,5.68,5.68V64.72a5.69,5.69,0,0,1-5.68,5.68h-14a2.43,2.43,0,0,0-2.43,2.43v14A5.69,5.69,0,0,1,64.72,92.5ZM31.21,50.87a2.45,2.45,0,0,0-2.44,2.44V64.72a2.44,2.44,0,0,0,2.44,2.43h14a5.68,5.68,0,0,1,5.68,5.68v14a2.44,2.44,0,0,0,2.44,2.43H64.72a2.43,2.43,0,0,0,2.43-2.43v-14a5.69,5.69,0,0,1,5.68-5.68h14a2.43,2.43,0,0,0,2.43-2.43V53.31a2.44,2.44,0,0,0-2.43-2.44h-14a5.69,5.69,0,0,1-5.68-5.68v-14a2.44,2.44,0,0,0-2.43-2.44H53.31a2.45,2.45,0,0,0-2.44,2.44v14a5.68,5.68,0,0,1-5.68,5.68Z"/></svg>