<svg width="29" height="30" viewBox="0 0 29 30" fill="none" xmlns="http://www.w3.org/2000/svg">
<path fill-rule="evenodd" clip-rule="evenodd" d="M3.97363 22.767H20.4559C20.4559 22.767 20.563 24.6657 19.2873 24.6657H5.09989C5.09989 24.6657 4.24568 24.7432 3.97363 22.767Z" fill="#ECD0C7"/>
<path fill-rule="evenodd" clip-rule="evenodd" d="M7.90774 27.2718C7.90774 28.0465 7.27907 28.6748 6.5038 28.6748C5.72712 28.6748 5.09985 28.0465 5.09985 27.2718C5.09985 26.4957 5.72712 25.8689 6.5038 25.8689C7.27907 25.8689 7.90774 26.4957 7.90774 27.2718Z" fill="#ECD0C7"/>
<path fill-rule="evenodd" clip-rule="evenodd" d="M18.6089 27.2718C18.6089 28.0465 17.9802 28.6748 17.205 28.6748C16.4297 28.6748 15.801 28.0465 15.801 27.2718C15.801 26.4957 16.4297 25.8689 17.205 25.8689C17.9802 25.8689 18.6089 26.4957 18.6089 27.2718Z" fill="#ECD0C7"/>
<path fill-rule="evenodd" clip-rule="evenodd" d="M14.1822 7.93694C12.9601 7.93694 11.9691 6.94671 11.9691 5.72548C11.9691 4.50284 12.9601 3.51261 14.1822 3.51261C15.4043 3.51261 16.3952 4.50284 16.3952 5.72548C16.3952 6.94671 15.4043 7.93694 14.1822 7.93694ZM14.1821 1.30115C14.106 1.30115 14.0299 1.30396 13.9552 1.30678C13.803 1.31523 13.655 1.33073 13.5069 1.35186C13.3618 1.37439 13.2166 1.40397 13.0756 1.4406C12.7232 1.53074 12.3863 1.66597 12.072 1.835C11.9465 1.90402 11.8253 1.97867 11.7069 2.05614C11.2361 2.37589 10.8302 2.78156 10.5116 3.25202C10.4721 3.31118 10.4341 3.37034 10.396 3.43232C10.3227 3.55345 10.2536 3.67882 10.1916 3.807C9.91251 4.38733 9.75464 5.03809 9.75464 5.72547C9.75464 5.80998 9.75746 5.89591 9.7631 5.97901C9.9252 10.3315 14.1821 14.9882 14.1821 14.9882C14.1821 14.9882 18.4391 10.3315 18.6012 5.97901C18.6068 5.89591 18.6096 5.80998 18.6096 5.72547C18.6096 3.2816 16.6264 1.30115 14.1821 1.30115Z" fill="#ECD0C7"/>
<path fill-rule="evenodd" clip-rule="evenodd" d="M19.2877 25.053H5.23419C4.62806 25.053 4.0896 24.6445 3.92891 24.0585L0.654449 12.2124C0.492347 11.6251 0.610752 11.0095 0.981473 10.525C1.34937 10.0404 1.9118 9.76294 2.52074 9.76294H10.9331C11.1474 9.76294 11.3208 9.93619 11.3208 10.1489C11.3208 10.363 11.1474 10.5362 10.9331 10.5362H2.52074C2.15566 10.5362 1.81736 10.7025 1.59605 10.994C1.37475 11.2856 1.30427 11.6532 1.40153 12.0068L4.67458 23.8515C4.74506 24.1036 4.97482 24.2783 5.23419 24.2783H19.2877C19.564 24.2783 19.8036 24.0811 19.8572 23.8092L22.4508 10.5362H17.4327C17.2171 10.5362 17.0437 10.363 17.0437 10.1489C17.0437 9.93619 17.2171 9.76294 17.4327 9.76294H22.9216C23.0372 9.76294 23.1472 9.81365 23.2205 9.90239C23.2938 9.99254 23.3234 10.1109 23.3022 10.2235L20.617 23.9571C20.4929 24.5924 19.9347 25.053 19.2877 25.053Z" fill="#C6937E"/>
<path fill-rule="evenodd" clip-rule="evenodd" d="M22.1853 14.3043C22.1599 14.3043 22.136 14.3015 22.1106 14.2959C21.9006 14.2564 21.7638 14.0522 21.8047 13.8423L23.4863 5.23592C23.5216 5.05421 23.6823 4.92322 23.8655 4.92322H27.8786C28.0914 4.92322 28.2648 5.09647 28.2648 5.30917C28.2648 5.52468 28.0914 5.69793 27.8786 5.69793H24.1855L22.5659 13.9902C22.5292 14.1747 22.3671 14.3043 22.1853 14.3043Z" fill="#C6937E"/>
<path fill-rule="evenodd" clip-rule="evenodd" d="M6.50359 26.2552C5.94257 26.2552 5.48587 26.7102 5.48587 27.2722C5.48587 27.8314 5.94257 28.2863 6.50359 28.2863C7.06319 28.2863 7.5199 27.8314 7.5199 27.2722C7.5199 26.7102 7.06319 26.2552 6.50359 26.2552ZM6.50362 29.0611C5.5155 29.0611 4.71204 28.2582 4.71204 27.2722C4.71204 26.2848 5.5155 25.4805 6.50362 25.4805C7.49032 25.4805 8.2952 26.2848 8.2952 27.2722C8.2952 28.2582 7.49032 29.0611 6.50362 29.0611Z" fill="#C6937E"/>
<path fill-rule="evenodd" clip-rule="evenodd" d="M17.2049 26.2552C16.6453 26.2552 16.1886 26.7102 16.1886 27.2722C16.1886 27.8314 16.6453 28.2863 17.2049 28.2863C17.7645 28.2863 18.2227 27.8314 18.2227 27.2722C18.2227 26.7102 17.7645 26.2552 17.2049 26.2552ZM17.2049 29.0611C16.2182 29.0611 15.4133 28.2582 15.4133 27.2722C15.4133 26.2848 16.2182 25.4805 17.2049 25.4805C18.193 25.4805 18.9965 26.2848 18.9965 27.2722C18.9965 28.2582 18.193 29.0611 17.2049 29.0611Z" fill="#C6937E"/>
<path fill-rule="evenodd" clip-rule="evenodd" d="M14.182 3.90108C13.1756 3.90108 12.3566 4.71946 12.3566 5.72518C12.3566 6.73231 13.1756 7.55069 14.182 7.55069C15.1899 7.55069 16.0088 6.73231 16.0088 5.72518C16.0088 4.71946 15.1899 3.90108 14.182 3.90108ZM14.182 8.32542C12.747 8.32542 11.5813 7.15912 11.5813 5.7252C11.5813 4.29127 12.747 3.12638 14.182 3.12638C15.6169 3.12638 16.7841 4.29127 16.7841 5.7252C16.7841 7.15912 15.6169 8.32542 14.182 8.32542ZM14.182 1.68963C14.113 1.68963 14.0425 1.69104 13.9762 1.69386C13.8395 1.7009 13.7014 1.71499 13.566 1.73471C13.4364 1.75584 13.3025 1.7826 13.1714 1.8164C12.8542 1.89669 12.5469 2.01783 12.258 2.17559C12.1452 2.23616 12.0324 2.30518 11.9239 2.37842C11.4926 2.67 11.1247 3.03764 10.8329 3.46866C10.7962 3.52218 10.761 3.57712 10.7271 3.63346C10.6609 3.74333 10.5975 3.85883 10.5411 3.97574C10.2761 4.52227 10.1436 5.11105 10.1436 5.72519C10.1436 5.80407 10.1464 5.88013 10.1506 5.9576C10.2803 9.47763 13.239 13.2709 14.182 14.3949C15.125 13.2709 18.0838 9.47481 18.2134 5.96465C18.2191 5.88013 18.2219 5.80407 18.2219 5.72519C18.2219 3.49965 16.4092 1.68963 14.182 1.68963ZM14.182 15.3753C14.0735 15.3753 13.9706 15.3288 13.8959 15.2499C13.7183 15.0542 9.54166 10.4383 9.37533 5.99282C9.37111 5.90971 9.36829 5.81675 9.36829 5.72519C9.36829 4.99414 9.52757 4.29267 9.84332 3.63909C9.91098 3.49965 9.98427 3.36161 10.0646 3.2292C10.1041 3.16441 10.1478 3.09961 10.1901 3.03623C10.5382 2.5221 10.9766 2.08403 11.4897 1.73611C11.6194 1.64878 11.7519 1.56849 11.8872 1.49525C12.2311 1.30791 12.5991 1.16423 12.9782 1.06563C13.1361 1.02619 13.2926 0.993797 13.449 0.969851C13.6111 0.944497 13.7746 0.929003 13.9353 0.920551C14.0171 0.916326 14.0988 0.914917 14.182 0.914917C16.8377 0.914917 18.9971 3.07285 18.9971 5.72519C18.9971 5.81675 18.9929 5.90971 18.9887 5.99986C18.8224 10.4383 14.6458 15.0542 14.4682 15.2499C14.3949 15.3288 14.2906 15.3753 14.182 15.3753Z" fill="#C6937E"/>
<path fill-rule="evenodd" clip-rule="evenodd" d="M12.9349 13.8203H1.39325C1.17899 13.8203 1.00562 13.647 1.00562 13.4343C1.00562 13.2188 1.17899 13.0456 1.39325 13.0456H12.9349C13.1492 13.0456 13.3226 13.2188 13.3226 13.4343C13.3226 13.647 13.1492 13.8203 12.9349 13.8203Z" fill="#C6937E"/>
<path fill-rule="evenodd" clip-rule="evenodd" d="M20.4564 23.1548H3.97413C3.75846 23.1548 3.58508 22.9815 3.58508 22.7674C3.58508 22.5533 3.75846 22.38 3.97413 22.38H20.4564C20.6692 22.38 20.8426 22.5533 20.8426 22.7674C20.8426 22.9815 20.6692 23.1548 20.4564 23.1548Z" fill="#C6937E"/>
<path fill-rule="evenodd" clip-rule="evenodd" d="M22.2803 13.8203H15.4297C15.2155 13.8203 15.0421 13.647 15.0421 13.4343C15.0421 13.2188 15.2155 13.0456 15.4297 13.0456H22.2803C22.4932 13.0456 22.6665 13.2188 22.6665 13.4343C22.6665 13.647 22.4932 13.8203 22.2803 13.8203Z" fill="#C6937E"/>
<path fill-rule="evenodd" clip-rule="evenodd" d="M17.2049 27.6583H6.50336C6.2891 27.6583 6.11572 27.4851 6.11572 27.2724C6.11572 27.0569 6.2891 26.8836 6.50336 26.8836H16.8187V24.6651C16.8187 24.4524 16.9921 24.2792 17.2049 24.2792C17.4192 24.2792 17.5926 24.4524 17.5926 24.6651V27.2724C17.5926 27.4851 17.4192 27.6583 17.2049 27.6583Z" fill="#C6937E"/>
<path fill-rule="evenodd" clip-rule="evenodd" d="M5.78374 23.1547C5.56949 23.1547 5.39611 22.9815 5.39611 22.7674V13.4342C5.39611 13.2187 5.56949 13.0454 5.78374 13.0454C5.99659 13.0454 6.16997 13.2187 6.16997 13.4342V22.7674C6.16997 22.9815 5.99659 23.1547 5.78374 23.1547Z" fill="#C6937E"/>
<path fill-rule="evenodd" clip-rule="evenodd" d="M9.98216 23.1547C9.76932 23.1547 9.59594 22.9815 9.59594 22.7674V13.4342C9.59594 13.2187 9.76932 13.0454 9.98216 13.0454C10.1964 13.0454 10.3698 13.2187 10.3698 13.4342V22.7674C10.3698 22.9815 10.1964 23.1547 9.98216 23.1547Z" fill="#C6937E"/>
<path fill-rule="evenodd" clip-rule="evenodd" d="M14.1821 23.1547C13.9693 23.1547 13.7959 22.9815 13.7959 22.7674V14.9878C13.7959 14.7737 13.9693 14.6005 14.1821 14.6005C14.3964 14.6005 14.5697 14.7737 14.5697 14.9878V22.7674C14.5697 22.9815 14.3964 23.1547 14.1821 23.1547Z" fill="#C6937E"/>
<path fill-rule="evenodd" clip-rule="evenodd" d="M18.3819 23.1547C18.1676 23.1547 17.9943 22.9815 17.9943 22.7674V13.4342C17.9943 13.2187 18.1676 13.0454 18.3819 13.0454C18.5947 13.0454 18.7681 13.2187 18.7681 13.4342V22.7674C18.7681 22.9815 18.5947 23.1547 18.3819 23.1547Z" fill="#C6937E"/>
<path fill-rule="evenodd" clip-rule="evenodd" d="M21.2988 18.4875H2.78112C2.56828 18.4875 2.3949 18.3143 2.3949 18.1002C2.3949 17.8861 2.56828 17.7128 2.78112 17.7128H21.2988C21.5117 17.7128 21.685 17.8861 21.685 18.1002C21.685 18.3143 21.5117 18.4875 21.2988 18.4875Z" fill="#C6937E"/>
</svg>
