<svg id="Layer_1" data-name="Layer 1" xmlns="http://www.w3.org/2000/svg" viewBox="0 0 118.03 118.15"><defs><style>.cls-1{fill:#ecd0c7;}.cls-2{fill:#c6927e;}</style></defs><title>TMRB Ikon</title><path class="cls-1" d="M10,87.16,6.69,90.4v6.12l4.16.76L13.6,96l2.64-3.07S14.83,87.35,10,87.16Z"/><circle class="cls-1" cx="84.11" cy="36.28" r="6.6"/><path class="cls-1" d="M60.17,87.16,56.86,90.4v6.12l4.16.76L63.76,96l2.65-3.07S65,87.35,60.17,87.16Z"/><rect class="cls-1" x="76.86" y="94.28" width="33.19" height="22.12"/><polygon class="cls-1" points="7.5 79.21 62.95 79.21 66.17 76.86 66.17 48.96 64.47 47.26 7.5 47.26 6.07 50.82 6.07 76.86 7.5 79.21"/><polygon class="cls-1" points="51.89 104.37 59.01 117.22 71.37 116.41 62.67 103.52 51.89 104.37"/><polygon class="cls-1" points="9.15 104.37 2.45 117.22 13.22 116.41 20.5 104.94 9.15 104.37"/><path class="cls-2" d="M116.4,118h-5.65a1.63,1.63,0,0,1-1.62-1.63V94.28a1.63,1.63,0,0,1,1.62-1.62h5.65A1.63,1.63,0,0,1,118,94.28V116.4A1.63,1.63,0,0,1,116.4,118Zm-4-3.25h2.4V95.91h-2.4Z"/><path class="cls-2" d="M11.31,99.75a6.87,6.87,0,1,1,6.87-6.86A6.87,6.87,0,0,1,11.31,99.75Zm0-10.48a3.62,3.62,0,1,0,3.62,3.62A3.63,3.63,0,0,0,11.31,89.27Z"/><path class="cls-2" d="M60.93,99.75a6.87,6.87,0,1,1,6.87-6.86A6.87,6.87,0,0,1,60.93,99.75Zm0-10.48a3.62,3.62,0,1,0,3.62,3.62A3.62,3.62,0,0,0,60.93,89.27Z"/><path class="cls-2" d="M44.92,44.5H27.32a2.82,2.82,0,0,1,0-5.64h17.6a2.82,2.82,0,0,1,0,5.64Zm0-2.39h0Z"/><path class="cls-2" d="M116.4,118H77.48a1.62,1.62,0,0,1-1.62-1.63V94.28a1.62,1.62,0,0,1,1.62-1.62H116.4A1.63,1.63,0,0,1,118,94.28V116.4A1.63,1.63,0,0,1,116.4,118Zm-37.3-3.25h35.68V95.91H79.1Z"/><path class="cls-2" d="M116.4,118h-5.65a1.63,1.63,0,0,1-1.62-1.63V45.22L72.81,8.9H41.44a4.45,4.45,0,1,1,0-8.9H75.82A1.6,1.6,0,0,1,77,.48l40.58,40.58A1.58,1.58,0,0,1,118,42.2v74.2A1.63,1.63,0,0,1,116.4,118Zm-4-3.25h2.4V42.88L75.34,3.44a1.4,1.4,0,0,1-.35-.1l-.19-.09H41.44a1.2,1.2,0,0,0,0,2.4h32a1.6,1.6,0,0,1,1.15.48L111.9,43.4a1.64,1.64,0,0,1,.48,1.15Z"/><path class="cls-2" d="M63.63,106h-55A8.62,8.62,0,0,1,0,97.38V48.53A14.8,14.8,0,0,1,14.78,33.75H57.46A14.8,14.8,0,0,1,72.24,48.53V97.38A8.62,8.62,0,0,1,63.63,106ZM14.78,37A11.55,11.55,0,0,0,3.25,48.53V97.38a5.36,5.36,0,0,0,5.36,5.36h55A5.37,5.37,0,0,0,69,97.38V48.53A11.56,11.56,0,0,0,57.46,37Z"/><path class="cls-2" d="M63.53,81.13H8.72a4.27,4.27,0,0,1-4.27-4.27v-26a4.27,4.27,0,0,1,4.27-4.27H63.53a4.27,4.27,0,0,1,4.27,4.27v26A4.28,4.28,0,0,1,63.53,81.13ZM8.72,49.79a1,1,0,0,0-1,1v26a1,1,0,0,0,1,1H63.53a1,1,0,0,0,1-1v-26a1,1,0,0,0-1-1Z"/><path class="cls-2" d="M13.79,118.15H1.62a1.61,1.61,0,0,1-1.43-.85,1.64,1.64,0,0,1,.08-1.67l8.12-12.17a1.63,1.63,0,0,1,1.35-.72H21.91a1.63,1.63,0,0,1,1.35,2.53l-8.12,12.16A1.63,1.63,0,0,1,13.79,118.15Zm-9.13-3.24h8.26l6-8.92H10.61Z"/><path class="cls-2" d="M70.62,118.15H58.45a1.63,1.63,0,0,1-1.35-.72L49,105.27a1.63,1.63,0,0,1,1.35-2.53H62.5a1.61,1.61,0,0,1,1.35.72L72,115.63a1.64,1.64,0,0,1,.08,1.67A1.61,1.61,0,0,1,70.62,118.15Zm-11.3-3.24h8.27l-6-8.92H53.37Z"/><path class="cls-2" d="M73.48,8.9a1.67,1.67,0,0,1-.62-.12A1.64,1.64,0,0,1,72,6.65L74.32,1a1.63,1.63,0,1,1,3,1.25L75,7.9A1.63,1.63,0,0,1,73.48,8.9Z"/><path class="cls-2" d="M84.23,45.16a8.37,8.37,0,1,1,8.37-8.37A8.37,8.37,0,0,1,84.23,45.16Zm0-13.5a5.13,5.13,0,1,0,5.13,5.13A5.13,5.13,0,0,0,84.23,31.66Z"/><path class="cls-2" d="M84.23,31.66A1.61,1.61,0,0,1,82.61,30V18a1.62,1.62,0,1,1,3.24,0V30A1.61,1.61,0,0,1,84.23,31.66Z"/></svg>