<svg id="Layer_1" data-name="Layer 1" xmlns="http://www.w3.org/2000/svg" viewBox="0 0 118.03 101.22"><defs><style>.cls-1{fill:#ecd0c7;}.cls-2{fill:#c6927e;}</style></defs><title>TMRB Ikon</title><polygon class="cls-1" points="42.04 80.83 33.27 80.83 37.32 75.18 46.1 75.18 42.04 80.83"/><polygon class="cls-1" points="61.37 80.83 52.59 80.83 56.65 75.18 65.43 75.18 61.37 80.83"/><polygon class="cls-1" points="80.7 80.83 71.92 80.83 75.98 75.18 84.76 75.18 80.7 80.83"/><rect class="cls-1" x="1.62" y="93.94" width="28.07" height="5.65"/><rect class="cls-1" x="88.33" y="93.94" width="28.07" height="5.65"/><rect class="cls-1" x="19.39" y="43.96" width="6.08" height="25.63" rx="0.47"/><rect class="cls-1" x="106.1" y="43.96" width="6.08" height="25.63" rx="0.47"/><rect class="cls-1" x="3.16" y="71.74" width="25" height="22.21"/><rect class="cls-1" x="89.87" y="71.74" width="25" height="22.21"/><path class="cls-1" d="M41.45,1.62H76.8A1.18,1.18,0,0,1,78,2.81V18.43a0,0,0,0,1,0,0H40a0,0,0,0,1,0,0V3a1.41,1.41,0,0,1,1.41-1.41Z"/><path class="cls-2" d="M20.59,78.74H10.73A1.63,1.63,0,0,1,9.1,77.11V73.4a1.63,1.63,0,0,1,1.63-1.63h9.86a1.63,1.63,0,0,1,1.63,1.63v3.71A1.63,1.63,0,0,1,20.59,78.74Zm-8.24-3.25H19V75H12.35Z"/><path class="cls-2" d="M107.3,78.74H97.43a1.63,1.63,0,0,1-1.62-1.63V73.4a1.63,1.63,0,0,1,1.62-1.63h9.87a1.62,1.62,0,0,1,1.62,1.63v3.71A1.62,1.62,0,0,1,107.3,78.74Zm-8.24-3.25h6.62V75H99.06Z"/><path class="cls-2" d="M116.4,20.06H1.62A1.63,1.63,0,0,1,0,18.43V12.78a1.63,1.63,0,0,1,1.62-1.62H40.05a1.62,1.62,0,1,1,0,3.24H3.25v2.41H114.78V14.4H78a1.62,1.62,0,0,1,0-3.24H116.4A1.63,1.63,0,0,1,118,12.78v5.65A1.63,1.63,0,0,1,116.4,20.06Z"/><path class="cls-2" d="M84.29,82.45H33.74a4.45,4.45,0,1,1,0-8.9H84.29a4.45,4.45,0,0,1,0,8.9ZM33.74,76.8a1.21,1.21,0,1,0,0,2.41H84.29a1.21,1.21,0,0,0,0-2.41Z"/><path class="cls-2" d="M18.48,43H12.83a1.63,1.63,0,0,1-1.62-1.63v-23a1.63,1.63,0,0,1,1.62-1.62h5.65a1.63,1.63,0,0,1,1.63,1.62v23A1.63,1.63,0,0,1,18.48,43Zm-4-3.25h2.4V20.06h-2.4Z"/><path class="cls-2" d="M29.7,101.22H1.62A1.63,1.63,0,0,1,0,99.59V93.94a1.63,1.63,0,0,1,1.62-1.62H29.7a1.63,1.63,0,0,1,1.62,1.62v5.65A1.63,1.63,0,0,1,29.7,101.22ZM3.25,98H28.07v-2.4H3.25Z"/><path class="cls-2" d="M28.16,95.57h-25a1.63,1.63,0,0,1-1.62-1.63V45.53a5.75,5.75,0,0,1,5.74-5.74H24a5.75,5.75,0,0,1,5.74,5.74V93.94A1.63,1.63,0,0,1,28.16,95.57ZM4.78,92.32H26.53V45.53A2.5,2.5,0,0,0,24,43H7.28a2.5,2.5,0,0,0-2.5,2.49Z"/><path class="cls-2" d="M28.16,95.57h-25a1.63,1.63,0,0,1-1.62-1.63V71.74a1.63,1.63,0,0,1,1.62-1.63h25a1.63,1.63,0,0,1,1.62,1.63v22.2A1.63,1.63,0,0,1,28.16,95.57ZM4.78,92.32H26.53v-19H4.78Z"/><path class="cls-2" d="M105.19,43H99.54a1.62,1.62,0,0,1-1.62-1.63v-23a1.62,1.62,0,0,1,1.62-1.62h5.65a1.63,1.63,0,0,1,1.63,1.62v23A1.63,1.63,0,0,1,105.19,43Zm-4-3.25h2.41V20.06h-2.41Z"/><path class="cls-2" d="M116.4,101.22H88.33a1.62,1.62,0,0,1-1.62-1.63V93.94a1.62,1.62,0,0,1,1.62-1.62H116.4A1.63,1.63,0,0,1,118,93.94v5.65A1.63,1.63,0,0,1,116.4,101.22ZM90,98h24.83v-2.4H90Z"/><path class="cls-2" d="M114.86,95.57h-25a1.62,1.62,0,0,1-1.62-1.63V45.53A5.75,5.75,0,0,1,94,39.79h16.76a5.75,5.75,0,0,1,5.74,5.74V93.94A1.63,1.63,0,0,1,114.86,95.57ZM91.49,92.32h21.75V45.53A2.5,2.5,0,0,0,110.75,43H94a2.5,2.5,0,0,0-2.5,2.49Z"/><path class="cls-2" d="M114.86,95.57h-25a1.62,1.62,0,0,1-1.62-1.63V71.74a1.62,1.62,0,0,1,1.62-1.63h25a1.63,1.63,0,0,1,1.63,1.63v22.2A1.63,1.63,0,0,1,114.86,95.57ZM91.49,92.32h21.75v-19H91.49Z"/><path class="cls-2" d="M34.69,101.22h-5a1.63,1.63,0,1,1,0-3.25h3.37V80.83a1.63,1.63,0,0,1,3.25,0V99.59A1.63,1.63,0,0,1,34.69,101.22Z"/><path class="cls-2" d="M34.69,76.8a1.63,1.63,0,0,1-1.62-1.62V71.35a4.92,4.92,0,0,0-4.91-4.92,1.62,1.62,0,1,1,0-3.24,8.17,8.17,0,0,1,8.16,8.16v3.83A1.63,1.63,0,0,1,34.69,76.8Z"/><path class="cls-2" d="M78,20.06H40.05a1.63,1.63,0,0,1-1.63-1.63V8.72C38.42,4.07,42.21,0,46.54,0H71.49c4.32,0,8.11,4.07,8.11,8.72v9.71A1.62,1.62,0,0,1,78,20.06ZM41.67,16.81H76.36V8.72c0-2.87-2.32-5.47-4.87-5.47H46.54c-2.55,0-4.87,2.6-4.87,5.47Z"/></svg>