<svg width="75" height="75" viewBox="0 0 75 75" fill="none" xmlns="http://www.w3.org/2000/svg">
<circle cx="37.5" cy="37.5" r="37.5" fill="#4CAF50"/>
<g clip-path="url(#clip0)">
<path d="M18.5667 51.4788L18.6488 51.2341L18.4968 51.0254C15.5603 46.9926 13.8333 42.0263 13.8333 36.6666C13.8333 23.1551 24.8189 12.1666 38.327 12.1666H38.3395C51.8476 12.1666 62.8333 23.1582 62.8333 36.6666C62.8333 50.175 51.8476 61.1666 38.3395 61.1666C33.3561 61.1666 28.7361 59.6846 24.8625 57.1185L24.6626 56.9861L24.4341 57.0591L15.765 59.8304L18.5667 51.4788Z" stroke="white"/>
<path d="M52.8862 46.9697C52.2831 48.6728 49.8894 50.0853 47.98 50.4978C46.6737 50.776 44.9675 50.9978 39.2237 48.6166C31.8769 45.5728 27.1456 38.1072 26.7769 37.6228C26.4237 37.1385 23.8081 33.6697 23.8081 30.0822C23.8081 26.4947 25.63 24.7478 26.3644 23.9978C26.9675 23.3822 27.9644 23.101 28.9206 23.101C29.23 23.101 29.5081 23.1166 29.7581 23.1291C30.4925 23.1603 30.8612 23.2041 31.3456 24.3635C31.9487 25.8166 33.4175 29.4041 33.5925 29.7728C33.7706 30.1416 33.9487 30.6416 33.6987 31.126C33.4644 31.626 33.2581 31.8478 32.8894 32.2728C32.5206 32.6978 32.1706 33.0228 31.8019 33.4791C31.4644 33.876 31.0831 34.301 31.5081 35.0353C31.9331 35.7541 33.4019 38.151 35.5644 40.076C38.355 42.5603 40.6175 43.3541 41.4269 43.6916C42.03 43.9416 42.7487 43.8822 43.1894 43.4135C43.7487 42.8103 44.4394 41.8103 45.1425 40.826C45.6425 40.1197 46.2737 40.0322 46.9362 40.2822C47.6112 40.5166 51.1831 42.2822 51.9175 42.6478C52.6519 43.0166 53.1362 43.1916 53.3144 43.501C53.4893 43.8103 53.4893 45.2635 52.8862 46.9697Z" fill="white"/>
</g>
<defs>
<clipPath id="clip0">
<rect x="13.3333" y="11.6666" width="50" height="50" fill="white"/>
</clipPath>
</defs>
</svg>
