<svg width="1069" height="563" viewBox="0 0 1069 563" fill="none" xmlns="http://www.w3.org/2000/svg">
<path d="M167.118 357.92H154.859L137.015 321.207C136.498 321.207 135.866 321.287 135.016 321.287H132.293L129.076 321.356C127.927 321.356 126.778 321.356 125.744 321.356C123.193 321.402 120.462 321.402 117.552 321.356L117.781 357.839L107.441 357.989L107.59 279.885C107.652 278.224 107.43 276.564 106.935 274.977C106.572 273.944 106.069 272.966 105.441 272.069L104.292 270.92C103.801 270.445 103.262 270.021 102.684 269.655C101.894 269.158 101.059 268.735 100.191 268.391C98.9854 267.912 97.7446 267.527 96.4795 267.241V264.104C104.4 264.104 111.294 264.05 117.161 263.943C123.028 263.835 128.191 263.874 132.649 264.058C136.557 264.192 140.455 264.549 144.323 265.126C147.534 265.625 150.666 266.541 153.641 267.851C155.637 268.748 157.482 269.95 159.11 271.414C162.526 274.775 164.965 279.003 166.164 283.644C166.832 286.612 167.152 289.648 167.118 292.69C167.145 295.917 166.758 299.135 165.969 302.264C165.297 304.952 164.128 307.49 162.522 309.747C160.862 311.986 158.81 313.906 156.467 315.414C153.695 317.176 150.711 318.578 147.586 319.586L167.118 357.92ZM137.704 313.621C140.251 313.63 142.771 313.093 145.092 312.046C147.403 311.009 149.476 309.506 151.182 307.632C152.993 305.622 154.397 303.28 155.318 300.736C156.376 297.839 156.898 294.774 156.858 291.69C156.959 288.683 156.463 285.687 155.399 282.874C154.477 280.48 153.069 278.303 151.262 276.483C149.518 274.767 147.426 273.445 145.127 272.609C142.751 271.734 140.236 271.294 137.704 271.31H117.781V313.621H137.704Z" fill="#CC9980"/>
<path d="M260.287 351.322V360.138H201.069V278.977C200.96 277.412 200.651 275.866 200.15 274.379C199.664 273.199 198.903 272.151 197.932 271.322C197.009 270.431 195.979 269.658 194.864 269.023C193.214 268.104 191.431 267.445 189.579 267.069L189.51 264.081H260.298V273.655H211.869V307.15H255.001V316.092H211.869V351.345L260.287 351.322Z" fill="#CC9980"/>
<path d="M333.614 275.863C330.857 274.736 327.931 273.652 324.836 272.61C321.847 271.585 318.77 270.839 315.644 270.38C312.646 269.937 309.6 269.937 306.602 270.38C303.617 270.858 300.798 272.07 298.398 273.909C296.914 275.098 295.732 276.622 294.951 278.357C294.184 280.095 293.793 281.975 293.803 283.874C293.729 286.226 294.285 288.556 295.411 290.621C296.555 292.556 297.946 294.333 299.547 295.909C302.152 297.82 304.894 299.538 307.751 301.047C310.554 302.529 313.381 303.989 316.207 305.415C319.034 306.84 321.78 308.357 324.411 309.943C327.054 311.528 329.529 313.377 331.799 315.461C333.806 317.395 335.479 319.647 336.751 322.127C337.979 324.526 338.842 327.094 339.313 329.748C339.775 332.407 339.813 335.123 339.428 337.794C339.052 340.491 338.237 343.108 337.015 345.541C335.736 348.333 333.819 350.786 331.42 352.702C329.046 354.616 326.402 356.165 323.572 357.3C320.696 358.436 317.702 359.246 314.645 359.713C311.703 360.182 308.73 360.424 305.752 360.438C301.932 360.448 298.117 360.156 294.343 359.564C290.666 358.982 287.039 358.303 283.462 357.529V348.104C287.344 349.853 291.349 351.313 295.446 352.472C299.51 353.587 303.709 354.132 307.923 354.093C310.669 354.126 313.405 353.762 316.047 353.012C318.295 352.382 320.385 351.286 322.182 349.794C325.652 346.621 327.387 342.227 327.387 336.61C327.398 334.114 326.836 331.648 325.744 329.403C324.691 327.223 323.187 325.291 321.332 323.736C318.724 321.94 316.012 320.301 313.209 318.828L304.856 314.426C302.098 312.966 299.444 311.426 296.893 309.828C294.369 308.239 292.03 306.373 289.919 304.265C287.617 302.093 285.784 299.472 284.533 296.564C283.282 293.656 282.64 290.523 282.646 287.357C282.646 279.893 285.327 274.173 290.689 270.196C292.58 268.705 294.683 267.505 296.928 266.633C299.229 265.729 301.616 265.059 304.051 264.633C306.583 264.191 309.145 263.949 311.715 263.909C314.298 263.852 316.883 263.929 319.459 264.139C321.987 264.346 324.461 264.637 326.881 265.012C329.306 265.403 331.546 265.817 333.591 266.277L333.614 275.863Z" fill="#CC9980"/>
<path d="M384.478 332.552V358.621H373.414V279.966C373.479 278.264 373.245 276.564 372.724 274.943C372.357 273.916 371.842 272.948 371.196 272.069L370.047 270.736C369.567 270.206 369.01 269.752 368.393 269.391C367.592 268.911 366.759 268.489 365.9 268.127C364.697 267.64 363.455 267.256 362.188 266.977V264.23H384.559L384.478 332.552Z" fill="#CC9980"/>
<path d="M590.662 351.321V360.137H531.433V278.976C531.324 277.411 531.015 275.866 530.513 274.379C530.035 273.177 529.275 272.109 528.296 271.264C527.373 270.373 526.343 269.6 525.228 268.965C523.577 268.046 521.795 267.387 519.943 267.011L519.874 264.022H590.662V273.597H542.244V307.091H585.377V316.091H542.244V351.344L590.662 351.321Z" fill="#CC9980"/>
<path d="M700.147 359.609H692.185L632.645 284.333V359.908H624.143V275.287C623.782 273.999 623.156 272.801 622.304 271.77C621.334 270.739 620.196 269.88 618.938 269.23C617.099 268.33 615.079 267.862 613.032 267.862V264.368L632.415 264.437L691.874 338.253V264.368H700.147V359.609Z" fill="#CC9980"/>
<path d="M741.601 337.448C743.78 340.042 746.291 342.337 749.069 344.275C751.829 346.203 754.851 347.724 758.043 348.793C761.222 349.868 764.529 350.525 767.878 350.747C771.3 350.981 774.737 350.686 778.069 349.873C779.939 349.414 781.751 348.743 783.469 347.873C785.491 346.908 787.498 345.835 789.49 344.655C791.481 343.475 793.396 342.275 795.235 341.057C797.108 339.827 798.682 338.758 799.831 337.758V348.873C795.507 352.513 790.596 355.389 785.308 357.379C780.006 359.379 774.383 360.391 768.717 360.367C764.573 360.346 760.453 359.758 756.469 358.62C752.594 357.499 748.873 355.9 745.392 353.862C741.961 351.855 738.805 349.409 736.005 346.586C733.213 343.762 730.796 340.59 728.813 337.149C726.816 333.658 725.272 329.927 724.217 326.046C723.109 322.013 722.556 317.848 722.574 313.666C722.56 311.327 722.764 308.991 723.183 306.689C723.596 304.494 724.022 302.517 724.493 300.781C724.838 299.376 725.271 297.994 725.791 296.643C726.032 296.094 726.235 295.53 726.4 294.954C728.031 291.187 730.144 287.648 732.685 284.425C735.194 281.214 738.132 278.364 741.417 275.954C748.065 271.049 755.865 267.941 764.063 266.931C766.231 266.781 768.406 266.743 770.578 266.816C772.929 266.906 775.272 267.163 777.587 267.586C780.041 268.044 782.451 268.713 784.791 269.586C787.285 270.494 789.683 271.649 791.949 273.034C792.362 272.728 792.799 272.383 793.258 272C793.759 271.565 794.196 271.062 794.557 270.505C795.037 269.773 795.46 269.005 795.821 268.207C796.347 267.003 796.77 265.757 797.085 264.482H799.923V290.471H798.774C796.974 288.349 794.956 286.423 792.753 284.724C790.498 282.978 788.073 281.464 785.514 280.207C782.968 278.953 780.3 277.963 777.552 277.253C774.825 276.54 772.018 276.177 769.199 276.172C764.269 276.141 759.387 277.147 754.871 279.126C750.507 281.017 746.591 283.81 743.382 287.321C740.08 290.774 737.457 294.818 735.649 299.241C732.155 307.946 731.976 317.631 735.144 326.459C736.622 330.479 738.809 334.201 741.601 337.448Z" fill="#CC9980"/>
<path d="M893.081 351.321V360.137H833.852V278.976C833.731 277.413 833.422 275.869 832.932 274.379C832.448 273.178 831.684 272.11 830.703 271.264C829.776 270.378 828.746 269.606 827.636 268.965C825.984 268.048 824.201 267.39 822.35 267.011L822.27 264.022H893.069V273.597H844.652V307.091H887.796V316.091H844.652V351.344L893.081 351.321Z" fill="#CC9980"/>
<path d="M966.396 275.862C963.639 274.735 960.717 273.651 957.63 272.609C954.641 271.585 951.564 270.838 948.438 270.379C945.44 269.936 942.393 269.936 939.396 270.379C936.415 270.859 933.6 272.072 931.203 273.908C929.716 275.094 928.534 276.62 927.757 278.356C926.989 280.094 926.598 281.974 926.608 283.873C926.533 286.227 927.092 288.558 928.228 290.621C929.371 292.552 930.757 294.329 932.352 295.908C934.961 297.815 937.702 299.532 940.556 301.046C943.371 302.529 946.186 303.988 949.024 305.414C951.862 306.839 954.585 308.356 957.228 309.942C959.868 311.53 962.343 313.378 964.615 315.46C966.62 317.393 968.289 319.646 969.556 322.126C970.788 324.524 971.655 327.093 972.13 329.747C972.587 332.407 972.622 335.122 972.233 337.793C971.858 340.49 971.043 343.107 969.82 345.54C968.547 348.333 966.634 350.786 964.236 352.701C961.861 354.617 959.212 356.167 956.377 357.299C953.501 358.435 950.507 359.245 947.45 359.713C944.512 360.181 941.543 360.423 938.568 360.437C934.744 360.447 930.926 360.155 927.148 359.563C923.471 358.981 919.844 358.303 916.267 357.529V348.103C920.153 349.85 924.162 351.31 928.262 352.471C932.29 353.6 936.454 354.169 940.636 354.161C943.382 354.193 946.118 353.829 948.76 353.08C951.004 352.448 953.09 351.352 954.884 349.862C958.354 346.69 960.092 342.295 960.1 336.678C960.112 334.18 959.546 331.713 958.446 329.471C957.397 327.291 955.897 325.36 954.045 323.804C951.434 322.013 948.722 320.374 945.922 318.896L937.557 314.425C934.8 312.965 932.146 311.425 929.583 309.827C927.063 308.238 924.727 306.372 922.621 304.264C920.337 302.083 918.524 299.458 917.291 296.551C916.058 293.643 915.432 290.514 915.451 287.356C915.451 279.893 918.132 274.172 923.494 270.195C925.387 268.707 927.489 267.506 929.733 266.632C932.038 265.727 934.428 265.057 936.868 264.632C939.396 264.19 941.954 263.948 944.52 263.908C947.104 263.851 949.688 263.928 952.264 264.138C954.792 264.345 957.27 264.636 959.698 265.011C962.122 265.402 964.351 265.816 966.396 266.276V275.862Z" fill="#CC9980"/>
<path d="M495.815 299.551C494.721 295.561 493.135 291.723 491.093 288.126C489.103 284.602 486.658 281.356 483.82 278.471C480.993 275.589 477.812 273.079 474.353 270.999C470.856 268.891 467.097 267.252 463.173 266.126C459.112 264.965 454.907 264.385 450.684 264.402H420.523L406.805 264.712V267.632C408.117 267.945 409.401 268.368 410.642 268.896C411.506 269.264 412.327 269.727 413.09 270.275C413.656 270.671 414.173 271.134 414.629 271.655L415.698 272.919C415.971 273.199 416.214 273.507 416.422 273.839H448.409C453.604 273.787 458.759 274.748 463.587 276.666C468.119 278.469 472.233 281.184 475.674 284.643C479.088 288.139 481.772 292.281 483.567 296.827C485.49 301.736 486.45 306.969 486.394 312.241C486.452 317.546 485.492 322.814 483.567 327.758C481.808 332.307 479.131 336.444 475.703 339.913C472.275 343.381 468.17 346.106 463.644 347.919C458.824 349.869 453.666 350.846 448.466 350.793H429.462V285.057H418.352V360.333H450.684C454.907 360.35 459.112 359.769 463.173 358.609C467.099 357.487 470.858 355.848 474.353 353.735C481.334 349.538 487.103 343.596 491.093 336.494C493.133 332.871 494.72 329.01 495.815 324.999C496.946 320.841 497.514 316.55 497.504 312.241C497.514 307.954 496.946 303.686 495.815 299.551Z" fill="#CC9980"/>
<path d="M171.093 113.724H146.965V190.609H125.904V113.724H96.5137V101.851C96.5227 100.448 97.0837 99.1055 98.075 98.1137C99.0664 97.122 100.408 96.5608 101.81 96.5518H176.424V108.379C176.424 109.795 175.863 111.153 174.864 112.155C173.864 113.157 172.508 113.721 171.093 113.724Z" fill="#CC9980"/>
<path d="M286.737 101.851V190.609H265.642V151.632H225.727V190.609H204.632V96.5518H220.396C221.81 96.5518 223.166 97.1137 224.165 98.1139C225.165 99.114 225.727 100.471 225.727 101.885V134.483H265.642V96.5518H281.406C282.814 96.5517 284.165 97.1089 285.163 98.1016C286.162 99.0944 286.728 100.442 286.737 101.851Z" fill="#CC9980"/>
<path d="M344.909 112.782V134.483H392.2V150.207H344.909V174.402H390.097C391.512 174.405 392.868 174.97 393.868 175.972C394.867 176.974 395.429 178.332 395.429 179.747V190.667H323.813V96.5518H395.429V107.483C395.429 108.897 394.867 110.254 393.867 111.254C392.867 112.254 391.511 112.816 390.097 112.816L344.909 112.782Z" fill="#CC9980"/>
<path d="M569.279 96.5518V190.644H548.989V128.103L521.85 164.943H519.701L492.551 128.161V190.667H472.226V96.5518H488.679C489.536 96.5575 490.379 96.7693 491.137 97.1694C491.895 97.5695 492.546 98.1461 493.034 98.8506L520.736 137.931L548.426 98.9081C548.914 98.2036 549.565 97.627 550.323 97.2269C551.08 96.8268 551.923 96.615 552.78 96.6092L569.279 96.5518Z" fill="#CC9980"/>
<path d="M667.09 170.586H628.129L620.73 190.609H598.692L636.321 96.5518H655.153C656.218 96.5507 657.258 96.8688 658.141 97.4649C659.024 98.0611 659.708 98.908 660.105 99.8966L696.516 190.701H674.444L667.09 170.586ZM661.346 154.724L647.638 117.621L633.931 154.724H661.346Z" fill="#CC9980"/>
<path d="M778.196 158.759C778.202 163.041 777.817 167.316 777.047 171.529C776.368 175.444 774.881 179.174 772.681 182.483C770.36 185.814 767.185 188.458 763.489 190.138C759.499 192.069 754.282 193.035 747.84 193.035C740.319 193.035 733.957 191.241 728.756 187.655C724.903 184.944 721.972 181.117 720.357 176.69C720.082 175.979 719.961 175.218 720.003 174.457C720.044 173.696 720.247 172.953 720.598 172.276C720.95 171.6 721.441 171.006 722.039 170.534C722.637 170.063 723.329 169.724 724.068 169.54L737.856 166.149C738.133 168.464 739.289 170.584 741.085 172.069C742.79 173.632 745.022 174.494 747.335 174.483C749.377 174.606 751.39 173.958 752.976 172.667C754.331 171.448 755.349 169.9 755.929 168.172C756.578 166.284 756.964 164.315 757.078 162.322C757.205 160.218 757.274 158.264 757.274 156.471V96.5518H772.899C774.313 96.5518 775.669 97.1137 776.669 98.1139C777.669 99.114 778.231 100.471 778.231 101.885L778.196 158.759Z" fill="#CC9980"/>
<path d="M107.453 465.874V431.759H124.228C130.512 431.759 133.936 435.644 133.936 440.46C134.013 442.25 133.462 444.01 132.38 445.437C131.298 446.864 129.751 447.868 128.008 448.276C131.684 448.839 134.603 452.471 134.603 456.621C134.603 461.931 131.156 465.874 124.687 465.874H107.453ZM127.801 441.379C127.801 438.874 126.066 436.989 123.044 436.989H113.439V445.782H123.044C126.066 445.828 127.801 444.035 127.801 441.379ZM128.467 455.805C128.467 453.242 126.675 451.046 123.308 451.046H113.439V460.563H123.308C126.526 460.609 128.467 458.816 128.467 455.851V455.805Z" fill="#CC9980"/>
<path d="M153.422 465.874V431.759H176.78V437.035H159.397V445.828H176.424V451.092H159.397V460.609H176.78V465.874H153.422Z" fill="#CC9980"/>
<path d="M216.098 465.874L204.701 451.448L201.69 454.977V465.874H195.704V431.759H201.69V447.977L215.03 431.759H222.441L208.584 447.851L223.521 465.908L216.098 465.874Z" fill="#CC9980"/>
<path d="M264.159 465.874L261.655 459.276H246.017L243.512 465.874H236.688L250.084 431.759H257.553L270.938 465.874H264.159ZM253.819 437.747L247.706 454.023H259.977L253.819 437.747Z" fill="#CC9980"/>
<path d="M284.726 461.069L288.093 456.413C289.464 457.91 291.131 459.106 292.988 459.925C294.845 460.744 296.852 461.169 298.881 461.172C303.787 461.172 305.683 458.77 305.683 456.459C305.683 449.299 285.852 453.747 285.852 441.218C285.852 435.551 290.758 431.195 298.272 431.195C300.607 431.116 302.935 431.501 305.12 432.328C307.305 433.155 309.305 434.406 311.003 436.011L307.625 440.46C306.313 439.181 304.762 438.175 303.06 437.499C301.359 436.822 299.54 436.488 297.709 436.517C294.263 436.517 291.965 438.253 291.965 440.758C291.965 447.161 311.796 443.218 311.796 455.896C311.796 461.574 307.751 466.482 298.606 466.482C292.344 466.482 287.794 464.241 284.726 461.069Z" fill="#CC9980"/>
<path d="M330.075 465.874V431.759H336.049V465.874H330.075Z" fill="#CC9980"/>
</svg>
