<svg width="65" height="58" viewBox="0 0 65 58" fill="none" xmlns="http://www.w3.org/2000/svg">
<path fill-rule="evenodd" clip-rule="evenodd" d="M23.1355 54.6608C22.8434 54.3687 22.3495 54.1934 21.9409 54.1934C21.1922 54.1934 20.6664 54.7884 20.6664 55.5052C20.6664 56.174 21.123 56.8113 21.999 56.8113C22.3603 56.8113 22.785 56.7048 23.0187 56.5299V55.8342H21.9302V55.3034H23.5602V56.8216C23.1248 57.1403 22.509 57.3421 21.9621 57.3421C20.8628 57.3421 20.0453 56.5188 20.0453 55.4998C20.0453 54.4801 20.8736 53.6626 21.9356 53.6626C22.4875 53.6626 23.0771 53.8855 23.5495 54.2891L23.1355 54.6608Z" fill="#FEFEFE"/>
<path fill-rule="evenodd" clip-rule="evenodd" d="M26.3099 54.3001V55.3724H27.7328C28.046 55.3724 28.3116 55.1284 28.3116 54.8309C28.3116 54.6983 28.2586 54.5814 28.1683 54.4857C28.0038 54.3158 27.8123 54.3001 27.6267 54.3001H26.3099ZM25.715 57.2359V53.7686H27.6264C28.0884 53.7686 28.407 53.8962 28.6299 54.1348C28.8052 54.3209 28.9059 54.5649 28.9059 54.8305C28.9059 55.2979 28.598 55.6535 28.1414 55.8233L28.9697 57.2359H28.2848L27.5414 55.9029H26.3096V57.2359H25.715Z" fill="#FEFEFE"/>
<path fill-rule="evenodd" clip-rule="evenodd" d="M32.6008 56.8116C33.3495 56.8116 33.9387 56.217 33.9387 55.4948C33.9387 54.778 33.3495 54.1938 32.6008 54.1938C31.8574 54.1938 31.2786 54.778 31.2786 55.4948C31.2786 56.217 31.8574 56.8116 32.6008 56.8116M32.6009 53.6626C33.6944 53.6626 34.5654 54.4805 34.5654 55.4945C34.5654 56.5245 33.6944 57.3421 32.6009 57.3421C31.507 57.3421 30.6522 56.5245 30.6522 55.4945C30.6522 54.4805 31.507 53.6626 32.6009 53.6626" fill="#FEFEFE"/>
<path fill-rule="evenodd" clip-rule="evenodd" d="M39.5452 53.7686V56.004C39.5452 56.8588 38.8868 57.3419 38.0054 57.3419C37.1291 57.3419 36.4711 56.8588 36.4711 56.004V53.7686H37.0657V56.004C37.0657 56.524 37.4796 56.8111 38.0054 56.8111C38.5362 56.8111 38.9506 56.524 38.9506 56.004V53.7686H39.5452Z" fill="#FEFEFE"/>
<path fill-rule="evenodd" clip-rule="evenodd" d="M42.3584 54.3001V55.3724H43.6752C43.824 55.3724 44.0308 55.3617 44.2007 55.2025C44.3017 55.1072 44.3602 54.9742 44.3602 54.8363C44.3602 54.6983 44.3071 54.5814 44.2168 54.4857C44.0573 54.3158 43.8451 54.3001 43.6752 54.3001H42.3584ZM41.764 57.2359V53.7686H43.6755C44.164 53.7686 44.4665 53.9069 44.679 54.1348C44.8647 54.3366 44.955 54.5757 44.955 54.8305C44.955 55.128 44.8328 55.3882 44.6364 55.5793C44.4292 55.7757 44.1371 55.9029 43.6755 55.9029H42.3586V57.2359H41.764Z" fill="#FEFEFE"/>
<path fill-rule="evenodd" clip-rule="evenodd" d="M7.1141 39.3578H4.81717V46.686H2.80582V39.3578H0V38.2267C0 37.9457 0.22754 37.7178 0.508507 37.7178H7.62299V38.8489C7.62299 39.1299 7.39507 39.3578 7.1141 39.3578" fill="#FEFEFE"/>
<path fill-rule="evenodd" clip-rule="evenodd" d="M18.1404 38.2267V46.686H16.129V42.9708H12.3239V46.686H10.3121V37.7178H11.815C12.0959 37.7178 12.3239 37.9457 12.3239 38.2267V41.3307H16.129V37.7178H17.6315C17.9124 37.7178 18.1404 37.9457 18.1404 38.2267" fill="#FEFEFE"/>
<path fill-rule="evenodd" clip-rule="evenodd" d="M23.6866 39.2684V41.3312H28.1963V42.8302H23.6866V45.1364H27.9949C28.2759 45.1364 28.5038 45.3639 28.5038 45.6449V46.6865H21.6753V37.7183H28.5038V38.7595C28.5038 39.0405 28.2759 39.2684 27.9949 39.2684H23.6866Z" fill="#FEFEFE"/>
<path fill-rule="evenodd" clip-rule="evenodd" d="M45.0803 37.7183V46.6865H43.1458V40.7289L40.5579 44.2393H40.3527L37.7648 40.7289V46.6865H35.8303V37.7183H37.3997C37.5645 37.7183 37.7191 37.7982 37.8144 37.9323L40.4553 41.6514L43.0959 37.9323C43.1916 37.7982 43.3461 37.7183 43.511 37.7183H45.0803Z" fill="#FEFEFE"/>
<path fill-rule="evenodd" clip-rule="evenodd" d="M53.8551 43.2654L52.5483 39.7293L51.2415 43.2654H53.8551ZM54.4062 44.7774H50.6906L49.9861 46.6865H47.8848L51.472 37.7183H53.2677C53.4756 37.7183 53.6624 37.8447 53.7397 38.0373L57.2116 46.6865H55.1107L54.4062 44.7774Z" fill="#FEFEFE"/>
<mask id="mask0" mask-type="alpha" maskUnits="userSpaceOnUse" x="59" y="37" width="6" height="10">
<path fill-rule="evenodd" clip-rule="evenodd" d="M59.45 37.7183H65V46.9171H59.45V37.7183Z" fill="white"/>
</mask>
<g mask="url(#mask0)">
<path fill-rule="evenodd" clip-rule="evenodd" d="M65 43.6505C65 44.069 64.9639 44.4745 64.8913 44.8673C64.8186 45.2602 64.6799 45.6084 64.475 45.9116C64.2701 46.2145 63.9773 46.4582 63.5975 46.6415C63.2174 46.8253 62.72 46.9171 62.105 46.9171C61.3874 46.9171 60.7809 46.7461 60.2859 46.4048C59.9269 46.1569 59.6597 45.8086 59.4849 45.3589C59.373 45.0722 59.5402 44.7509 59.8392 44.6775L61.1568 44.355C61.1826 44.5771 61.2829 44.7647 61.4582 44.9185C61.633 45.0726 61.8314 45.1491 62.0539 45.1491C62.2845 45.1491 62.4636 45.0918 62.592 44.9765C62.72 44.8608 62.8142 44.7182 62.8734 44.5472C62.9333 44.3765 62.9695 44.1905 62.9825 43.9898C62.9952 43.7892 63.0017 43.6036 63.0017 43.4325V37.7183H64.4915C64.7725 37.7183 65 37.9458 65 38.2272V43.6505Z" fill="#FEFEFE"/>
</g>
<path fill-rule="evenodd" clip-rule="evenodd" d="M24.9791 21.4742H31.4321V15.0208H30.7053V20.3949C30.7053 20.5898 30.5477 20.7473 30.3528 20.7473H26.058C25.8631 20.7473 25.7055 20.5898 25.7055 20.3949V16.1004C25.7055 15.9056 25.8631 15.748 26.058 15.748H27.4893C27.6846 15.748 27.8422 15.9056 27.8422 16.1004V18.6107H28.569V15.0208H24.9791V21.4742ZM31.7844 22.1791H24.6265C24.4316 22.1791 24.274 22.0215 24.274 21.8267V14.6684C24.274 14.4735 24.4316 14.3159 24.6265 14.3159H28.9213C29.1162 14.3159 29.2738 14.4735 29.2738 14.6684V18.9636C29.2738 19.1585 29.1162 19.316 28.9213 19.316H27.4892C27.2943 19.316 27.1368 19.1585 27.1368 18.9636V16.453H26.4103V20.0425H30.0002V14.6684C30.0002 14.4735 30.1578 14.3159 30.3527 14.3159H31.7844C31.9793 14.3159 32.1369 14.4735 32.1369 14.6684V21.8267C32.1369 22.0215 31.9793 22.1791 31.7844 22.1791V22.1791Z" fill="#FEFEFE"/>
<path fill-rule="evenodd" clip-rule="evenodd" d="M30.705 12.8844H31.4315V6.43145H24.9789V12.8844H28.5684V9.29492H27.8416V11.8052C27.8416 12.0004 27.684 12.158 27.4891 12.158H26.0578C25.8625 12.158 25.7049 12.0004 25.7049 11.8052V7.51034C25.7049 7.31547 25.8625 7.15788 26.0578 7.15788H30.3526C30.5474 7.15788 30.705 7.31547 30.705 7.51034V12.8844ZM31.7842 13.5893H30.3528C30.158 13.5893 30.0004 13.4317 30.0004 13.2368V7.86311H26.4105V11.4526H27.1369V8.94239C27.1369 8.74752 27.2945 8.58955 27.4893 8.58955H28.9211C29.116 8.58955 29.2739 8.74752 29.2739 8.94239V13.2368C29.2739 13.4317 29.116 13.5893 28.9211 13.5893H24.6263C24.4314 13.5893 24.2738 13.4317 24.2738 13.2368V6.07892C24.2738 5.88405 24.4314 5.72607 24.6263 5.72607H31.7842C31.979 5.72607 32.137 5.88405 32.137 6.07892V13.2368C32.137 13.4317 31.979 13.5893 31.7842 13.5893V13.5893Z" fill="#FEFEFE"/>
<path fill-rule="evenodd" clip-rule="evenodd" d="M36.4319 12.8844H40.0214V6.43145H33.5684V12.8844H34.2949V7.51034C34.2949 7.31547 34.4528 7.15788 34.6473 7.15788H38.9425C39.1374 7.15788 39.295 7.31547 39.295 7.51034V11.8052C39.295 12.0004 39.1374 12.158 38.9425 12.158H37.5108C37.3159 12.158 37.1583 12.0004 37.1583 11.8052V9.29492H36.4319V12.8844ZM40.3738 13.5893H36.0793C35.8845 13.5893 35.7269 13.4317 35.7269 13.2368V8.94239C35.7269 8.74752 35.8845 8.58955 36.0793 8.58955H37.5107C37.7056 8.58955 37.8635 8.74752 37.8635 8.94239V11.4526H38.5896V7.86311H34.9997V13.2368C34.9997 13.4317 34.8421 13.5893 34.6472 13.5893H33.2159C33.021 13.5893 32.8634 13.4317 32.8634 13.2368V6.07892C32.8634 5.88405 33.021 5.72607 33.2159 5.72607H40.3738C40.5686 5.72607 40.7262 5.88405 40.7262 6.07892V13.2368C40.7262 13.4317 40.5686 13.5893 40.3738 13.5893V13.5893Z" fill="#FEFEFE"/>
<path fill-rule="evenodd" clip-rule="evenodd" d="M33.5684 21.4742H40.0214V15.0208H36.4319V18.6107H37.1583V16.1004C37.1583 15.9056 37.3159 15.748 37.5108 15.748H38.9422C39.137 15.748 39.2946 15.9056 39.2946 16.1004V20.3949C39.2946 20.5898 39.137 20.7473 38.9422 20.7473H34.6473C34.4525 20.7473 34.2949 20.5898 34.2949 20.3949V15.0208H33.5684V21.4742ZM40.3738 22.1791H33.2159C33.021 22.1791 32.8634 22.0215 32.8634 21.8267V14.6684C32.8634 14.4735 33.021 14.3159 33.2159 14.3159H34.6472C34.8421 14.3159 34.9997 14.4735 34.9997 14.6684V20.0425H38.5896V16.453H37.8631V18.9636C37.8631 19.1585 37.7056 19.316 37.5107 19.316H36.0789C35.8841 19.316 35.7265 19.1585 35.7265 18.9636V14.6684C35.7265 14.4735 35.8841 14.3159 36.0789 14.3159H40.3738C40.5686 14.3159 40.7262 14.4735 40.7262 14.6684V21.8267C40.7262 22.0215 40.5686 22.1791 40.3738 22.1791V22.1791Z" fill="#FEFEFE"/>
<path fill-rule="evenodd" clip-rule="evenodd" d="M33.5684 24.3372H42.8845V3.56833H33.5684V4.29439H41.8052C42.0001 4.29439 42.1581 4.45236 42.1581 4.64723V23.2583C42.1581 23.4531 42.0001 23.6107 41.8052 23.6107H33.5684V24.3372ZM43.2372 25.0423H33.2159C33.021 25.0423 32.8634 24.8847 32.8634 24.6899V23.2585C32.8634 23.0636 33.021 22.9057 33.2159 22.9057H41.4527V4.99993H33.2159C33.021 4.99993 32.8634 4.84235 32.8634 4.64748V3.21574C32.8634 3.02125 33.021 2.86328 33.2159 2.86328H43.2372C43.4321 2.86328 43.5897 3.02125 43.5897 3.21574V24.6899C43.5897 24.8847 43.4321 25.0423 43.2372 25.0423V25.0423Z" fill="#FEFEFE"/>
<path fill-rule="evenodd" clip-rule="evenodd" d="M22.1154 24.3372H31.4318V23.6107H23.1946C22.9998 23.6107 22.8422 23.4531 22.8422 23.2583V4.64723C22.8422 4.45236 22.9998 4.29439 23.1946 4.29439H31.4318V3.56833H22.1154V24.3372ZM31.7841 25.0423H21.7627C21.5679 25.0423 21.4103 24.8847 21.4103 24.6899V3.21574C21.4103 3.02125 21.5679 2.86328 21.7627 2.86328H31.7841C31.979 2.86328 32.1366 3.02125 32.1366 3.21574V4.64748C32.1366 4.84235 31.979 4.99993 31.7841 4.99993H23.5473V22.9057H31.7841C31.979 22.9057 32.1366 23.0636 32.1366 23.2585V24.6899C32.1366 24.8847 31.979 25.0423 31.7841 25.0423V25.0423Z" fill="#FEFEFE"/>
<path fill-rule="evenodd" clip-rule="evenodd" d="M20.3313 20.9631C20.1365 20.9631 19.9789 20.8055 19.9789 20.6107V7.29533C19.9789 7.10046 20.1365 6.94287 20.3313 6.94287C20.5262 6.94287 20.6838 7.10046 20.6838 7.29533V20.6107C20.6838 20.8055 20.5262 20.9631 20.3313 20.9631" fill="#FEFEFE"/>
<path fill-rule="evenodd" clip-rule="evenodd" d="M18.8997 16.5497C18.7048 16.5497 18.5472 16.3921 18.5472 16.1972V11.7079C18.5472 11.5131 18.7048 11.3555 18.8997 11.3555C19.0946 11.3555 19.2522 11.5131 19.2522 11.7079V16.1972C19.2522 16.3921 19.0946 16.5497 18.8997 16.5497" fill="#FEFEFE"/>
<path fill-rule="evenodd" clip-rule="evenodd" d="M39.1578 2.13655H25.8424C25.648 2.13655 25.49 1.97897 25.49 1.7841C25.49 1.58923 25.648 1.43164 25.8424 1.43164H39.1578C39.3527 1.43164 39.5102 1.58923 39.5102 1.7841C39.5102 1.97897 39.3527 2.13655 39.1578 2.13655" fill="#FEFEFE"/>
<path fill-rule="evenodd" clip-rule="evenodd" d="M34.745 0.704914H30.2557C30.0608 0.704914 29.9032 0.547327 29.9032 0.352457C29.9032 0.157587 30.0608 0 30.2557 0H34.745C34.9398 0 35.0974 0.157587 35.0974 0.352457C35.0974 0.547327 34.9398 0.704914 34.745 0.704914" fill="#FEFEFE"/>
<path fill-rule="evenodd" clip-rule="evenodd" d="M39.1578 26.474H25.8424C25.648 26.474 25.49 26.316 25.49 26.1215C25.49 25.9266 25.648 25.769 25.8424 25.769H39.1578C39.3527 25.769 39.5102 25.9266 39.5102 26.1215C39.5102 26.316 39.3527 26.474 39.1578 26.474" fill="#FEFEFE"/>
<path fill-rule="evenodd" clip-rule="evenodd" d="M34.745 27.9061H30.2557C30.0608 27.9061 29.9032 27.7485 29.9032 27.5536C29.9032 27.3588 30.0608 27.2012 30.2557 27.2012H34.745C34.9398 27.2012 35.0974 27.3588 35.0974 27.5536C35.0974 27.7485 34.9398 27.9061 34.745 27.9061" fill="#FEFEFE"/>
<path fill-rule="evenodd" clip-rule="evenodd" d="M44.6686 20.9631C44.4737 20.9631 44.3162 20.8055 44.3162 20.6107V7.29533C44.3162 7.10046 44.4737 6.94287 44.6686 6.94287C44.8635 6.94287 45.0211 7.10046 45.0211 7.29533V20.6107C45.0211 20.8055 44.8635 20.9631 44.6686 20.9631" fill="#FEFEFE"/>
<path fill-rule="evenodd" clip-rule="evenodd" d="M46.1004 16.5497C45.9055 16.5497 45.7479 16.3921 45.7479 16.1972V11.7079C45.7479 11.5131 45.9055 11.3555 46.1004 11.3555C46.2953 11.3555 46.4528 11.5131 46.4528 11.7079V16.1972C46.4528 16.3921 46.2953 16.5497 46.1004 16.5497" fill="#FEFEFE"/>
</svg>