<svg width="18" height="18" viewBox="0 0 18 18" fill="none" xmlns="http://www.w3.org/2000/svg">
<path fill-rule="evenodd" clip-rule="evenodd" d="M5.289 0.054C6.249 0.0105 6.55575 0 9 0C11.4443 0 11.751 0.0105 12.711 0.054C14.1735 0.12075 15.4583 0.47925 16.4895 1.5105C17.5208 2.54175 17.8792 3.8265 17.946 5.289C17.9895 6.249 18 6.55575 18 9C18 11.4443 17.9895 11.751 17.946 12.711C17.8792 14.1735 17.5208 15.4583 16.4895 16.4895C15.4583 17.5208 14.1735 17.8792 12.711 17.946C11.751 17.9895 11.4443 18 9 18C6.55575 18 6.249 17.9895 5.289 17.946C3.8265 17.8792 2.54175 17.5208 1.5105 16.4895C0.47925 15.4583 0.12075 14.1735 0.054 12.711C0.0105 11.751 0 11.4443 0 9C0 6.55575 0.0105 6.249 0.054 5.289C0.12075 3.8265 0.47925 2.54175 1.5105 1.5105C2.54175 0.47925 3.8265 0.12075 5.289 0.054ZM12.6368 1.674C11.688 1.6305 11.403 1.6215 9 1.6215C6.597 1.6215 6.312 1.6305 5.36325 1.674C4.33875 1.7205 3.3885 1.926 2.65725 2.65725C1.926 3.3885 1.7205 4.33875 1.674 5.36325C1.6305 6.312 1.6215 6.597 1.6215 9C1.6215 11.403 1.6305 11.688 1.674 12.6368C1.7205 13.6613 1.926 14.6115 2.65725 15.3427C3.3885 16.074 4.33875 16.2795 5.36325 16.326C6.312 16.3695 6.597 16.3785 9 16.3785C11.403 16.3785 11.688 16.3695 12.6368 16.326C13.6613 16.2795 14.6115 16.074 15.3427 15.3427C16.074 14.6115 16.2795 13.6613 16.326 12.6368C16.3695 11.688 16.3785 11.403 16.3785 9C16.3785 6.597 16.3695 6.312 16.326 5.36325C16.2795 4.33875 16.074 3.3885 15.3427 2.65725C14.6115 1.926 13.6613 1.7205 12.6368 1.674ZM4.3785 9C4.3785 6.44775 6.44775 4.3785 9 4.3785C11.5522 4.3785 13.6215 6.44775 13.6215 9C13.6215 11.5522 11.5522 13.6215 9 13.6215C6.44775 13.6215 4.3785 11.5522 4.3785 9ZM6 9C6 10.6567 7.34325 12 9 12C10.6567 12 12 10.6567 12 9C12 7.34325 10.6567 6 9 6C7.34325 6 6 7.34325 6 9ZM14.8845 4.1955C14.8845 4.79197 14.401 5.2755 13.8045 5.2755C13.208 5.2755 12.7245 4.79197 12.7245 4.1955C12.7245 3.59903 13.208 3.1155 13.8045 3.1155C14.401 3.1155 14.8845 3.59903 14.8845 4.1955Z" fill="white"/>
</svg>
