<svg width="24" height="24" viewBox="0 0 24 24" fill="none" xmlns="http://www.w3.org/2000/svg">
<path fill-rule="evenodd" clip-rule="evenodd" d="M22 6.375C21.2875 6.73125 20.575 6.85 19.7437 6.96875C20.575 6.49375 21.1688 5.78125 21.4062 4.83125C20.6938 5.30625 19.8625 5.54375 18.9125 5.78125C18.2 5.06875 17.1313 4.59375 16.0625 4.59375C14.0437 4.59375 12.2625 6.375 12.2625 8.5125C12.2625 8.86875 12.2625 9.10625 12.3813 9.34375C9.175 9.225 6.20625 7.68125 4.30625 5.30625C3.95 5.9 3.83125 6.49375 3.83125 7.325C3.83125 8.63125 4.54375 9.81875 5.6125 10.5312C5.01875 10.5312 4.425 10.2938 3.83125 10.0563C3.83125 11.9563 5.1375 13.5 6.91875 13.8562C6.5625 13.975 6.20625 13.975 5.85 13.975C5.6125 13.975 5.375 13.975 5.1375 13.8562C5.6125 15.4 7.0375 16.5875 8.81875 16.5875C7.5125 17.6562 5.85 18.25 3.95 18.25C3.59375 18.25 3.35625 18.25 3 18.25C4.78125 19.3188 6.8 20.0312 8.9375 20.0312C16.0625 20.0312 19.9813 14.0938 19.9813 8.9875C19.9813 8.86875 19.9813 8.63125 19.9813 8.5125C20.8125 7.91875 21.525 7.20625 22 6.375Z" fill="white"/>
</svg>
