<svg id="Layer_1" data-name="Layer 1" xmlns="http://www.w3.org/2000/svg" viewBox="0 0 400 400"><defs><style>.cls-1{fill:#2e3285;}.cls-2{fill:#fffafc;}.cls-3{fill:#263e8d;}.cls-4{fill:#111;}</style></defs><title>TMRB Dvl Logo</title><path class="cls-1" d="M199.72,258.21A73.14,73.14,0,0,1,171,252.42a74,74,0,1,1,28.69,5.79Zm0-143.65a69.95,69.95,0,1,0,69.94,69.95A70,70,0,0,0,199.72,114.56Z"/><polygon class="cls-1" points="200.07 112.68 262.17 220.28 137.84 220.28 200.07 112.68"/><path class="cls-2" d="M199.91,123.76,207,135.45l-21.81,37.72h4.91l12.38-21.41s10.83-1.82,15.12,2.89,6.11,11.94,2.51,17.34-7.34,6.21-11.55,7H201l-15.26,26.39h4.88l13.93-24A22.1,22.1,0,0,0,216.76,179l-5,8.74s5.85,1.81,8.49-3.75c2.39-5-.46-7.5-.46-7.5a18.8,18.8,0,0,0,5-8.4s8,8.27,7.37,14.06a15.75,15.75,0,0,1-9,12.91,5.81,5.81,0,0,1,.3,5c-1.18,2.43-7.27,12.32-7.27,12.32H204.05s6-10.47,6.78-11.86c.93-1.71-3.9-4.57-5-2.54l-8.38,14.4h-30L186.72,179,168,179Z"/><path class="cls-3" d="M210.81,162.06l-4.32,7.47s4.32,1.05,6-1.86S210.81,162.06,210.81,162.06Z"/><path class="cls-4" d="M289.21,281.86c1.08,1.72,2.12,3.43,3.22,5.11a1.87,1.87,0,0,0,1.75,1.09,1.75,1.75,0,0,0,1.51-1.21c.66-1.64,1.34-3.27,2-4.91.92-2.23,1.86-4.45,2.74-6.7a1.24,1.24,0,0,1,1.52-.94c.15.4.34.84.5,1.29,1.24,3.52,2.5,7,3.73,10.58.33.95.7,1.81,1.85,2,.1,0,.18.13.27.21s0,.07,0,.11c-.69.4-5.18.45-6.5,0l1.56-.81c-.34-1.08-.7-2.16-1.06-3.29h-4.19c-.32.82-.67,1.63-1,2.46s-.25.85.59,1.23a7.34,7.34,0,0,1,.74.45,3.1,3.1,0,0,1-.77.26c-1.77.09-3.54.1-5.3.24a3.53,3.53,0,0,1-3.66-2c-.73-1.34-1.52-2.65-2.3-4-.26-.44-.52-.94-1.34-.77v2c0,.61,0,1.21,0,1.82-.08,1,0,1.94,1.23,2.2,0,0,.05.14.07.21a15.64,15.64,0,0,1-5.95,0c.11-.45.52-.46.84-.52a.81.81,0,0,0,.72-.94c0-3.7,0-7.41,0-11.11a1.5,1.5,0,0,0-.08-.32c-.36-.52-1.32-.15-1.49-1.09a4.05,4.05,0,0,1,.62-.08c2.13,0,4.26-.05,6.4,0a9.06,9.06,0,0,1,2.37.35,2.9,2.9,0,0,1,2.3,2.37,3.55,3.55,0,0,1-1.17,3.6A20.76,20.76,0,0,1,289.21,281.86Zm-4-.75c1.85.24,2.77-.07,3.29-1.05s.5-3.14-.26-3.89a3,3,0,0,0-3-.6Zm16.67,2c-.49-1.45-1-2.81-1.42-4.17h-.25c-.52,1.35-1,2.71-1.58,4.16Z"/><path class="cls-4" d="M226.57,288.34a5.48,5.48,0,0,1,.92-.36.82.82,0,0,0,.71-.94c0-1.05,0-2.09,0-3.14v-7.12c0-1.18,0-1.17-1.1-1.62a4.63,4.63,0,0,1-.75-.58,5.93,5.93,0,0,1,.71-.13c2.42,0,4.83-.08,7.24,0a11.46,11.46,0,0,1,3.18.59,5.07,5.07,0,0,1,3.54,4.21,9.69,9.69,0,0,1-.28,4.66,6.65,6.65,0,0,1-5.68,4.75,21.82,21.82,0,0,1-3.13.17c-1.45,0-2.9,0-4.34-.05-.33,0-.65-.08-1-.12A1.55,1.55,0,0,0,226.57,288.34Zm4.79-12.73c0,4,0,8,0,12.16.85,0,1.52,0,2.2,0a3.66,3.66,0,0,0,3.53-2.62,10.84,10.84,0,0,0,.05-7.09,3.39,3.39,0,0,0-2.05-2.24A6.48,6.48,0,0,0,231.36,275.61Z"/><path class="cls-4" d="M104.81,274.1a17.75,17.75,0,0,1,1.78.16c4.15.79,5.8,4,5.51,7.82-.22,2.94-1.5,5.26-4.34,6.43a9.3,9.3,0,0,1-6.73.12,5.89,5.89,0,0,1-3.77-3.82,8.91,8.91,0,0,1,0-6.15,6.74,6.74,0,0,1,5.93-4.46C103.7,274.13,104.19,274.14,104.81,274.1Zm3.94,7.71a11.85,11.85,0,0,0-.86-4.39,3.59,3.59,0,0,0-2.2-2.09,3.73,3.73,0,0,0-5.07,2.86,13.93,13.93,0,0,0-.13,5.75,7.89,7.89,0,0,0,.61,1.95,3.67,3.67,0,0,0,3.67,2.23,3.36,3.36,0,0,0,3.33-2.66A34,34,0,0,0,108.75,281.81Z"/><path class="cls-4" d="M80.24,288.38A3,3,0,0,1,81,288c.67-.1.85-.5.83-1.1,0-.28,0-.56,0-.84q0-4.47,0-8.94c0-.52,0-1-.07-1.45-.49-.53-1.28-.32-1.64-1.06a3.34,3.34,0,0,1,.71-.18c2.3,0,4.6-.07,6.89,0a11.93,11.93,0,0,1,3.08.49,5.18,5.18,0,0,1,3.88,4.6,9.73,9.73,0,0,1-.27,4.19,6.71,6.71,0,0,1-5.81,4.94,18.18,18.18,0,0,1-2.76.16c-1.53,0-3.07,0-4.6-.05-.33,0-.66-.08-1-.12C80.27,288.56,80.25,288.47,80.24,288.38Zm4.78-.6c.81,0,1.49,0,2.16,0a3.65,3.65,0,0,0,3.55-2.61,10.87,10.87,0,0,0,.06-7.1,3.41,3.41,0,0,0-2.16-2.29,6.23,6.23,0,0,0-3.61-.15Z"/><path class="cls-4" d="M201.84,274.1a18.16,18.16,0,0,1,2,.27,6.27,6.27,0,0,1,5.08,6.2,12,12,0,0,1-.09,2.4,7,7,0,0,1-6.86,6.14,12,12,0,0,1-3-.2,6.1,6.1,0,0,1-5.06-4.74,9.57,9.57,0,0,1-.1-4.42,6.81,6.81,0,0,1,6.3-5.57C200.58,274.14,201.06,274.14,201.84,274.1Zm-4.91,7.33a13.94,13.94,0,0,0,.88,4.27,3.74,3.74,0,0,0,3.81,2.42,3.55,3.55,0,0,0,3.41-2.91,11.92,11.92,0,0,0,.34-4.9,12.5,12.5,0,0,0-.76-3,3.53,3.53,0,0,0-3.81-2.16,3.34,3.34,0,0,0-3.22,2.63C197.25,279,197.15,280.2,196.93,281.43Z"/><path class="cls-4" d="M223.55,288.6c-1.13.36-1.14.37-1.72-.36L214.45,279c-.22-.27-.45-.52-.85-1,0,.5,0,.76,0,1,0,2.54,0,5.08,0,7.61,0,1,0,1,1,1.41a4.68,4.68,0,0,1,.6.37,9,9,0,0,1-4.76,0,3.23,3.23,0,0,1,.85-.45c.74-.11.87-.56.87-1.2,0-2.5,0-5,0-7.49v-3.55c-.47-.68-1.4-.35-1.65-1.33,1.39,0,2.66,0,3.92,0,.28,0,.57.41.78.67q3,3.72,6,7.45c.27.34.56.66,1,1.14v-8.11c-.5-.49-1.28-.27-1.6-.92a12.58,12.58,0,0,1,4.57-.19c0,1-1,.53-1.39,1C223.5,279.87,223.62,284.21,223.55,288.6Z"/><path class="cls-4" d="M68.76,288.6a9.25,9.25,0,0,1-4.64-.22l1.62-.69v-12c-.38-.61-1.33-.25-1.58-1.24a16,16,0,0,0,2.31,0,2.88,2.88,0,0,1,3,1.42c1.67,2.26,3.49,4.42,5.24,6.63.27.34.56.67.86,1,.35-.78.4-6.65.1-8-.39-.42-1.18-.18-1.48-.85a13.87,13.87,0,0,1,4.59-.14c-.08.89-1,.55-1.52,1.15v12.78c-1.14.53-1.15.54-1.8-.27l-7.54-9.44c-.16-.2-.34-.4-.67-.76,0,.44,0,.67,0,.89,0,2.58,0,5.15,0,7.73,0,.81-.22,1.14,1,1.42a1.15,1.15,0,0,1,.43.21S68.71,288.42,68.76,288.6Z"/><path class="cls-4" d="M125.17,283.56a35.52,35.52,0,0,0,0-8.05c-.38-.38-1.24-.08-1.4-1.05h4.45c.26.48,0,.59-.35.71-1.11.42-1.11.44-1.11,1.61,0,3.5,0,7,0,10.51v1.29c-1.13.41-1.14.42-1.79-.39q-3.59-4.47-7.16-9l-.85-1a66.06,66.06,0,0,0-.09,9.52l1.54.68a8.12,8.12,0,0,1-4.83,0l1.71-.73v-12c-.42-.59-1.35-.26-1.64-1.2a15.46,15.46,0,0,0,2.18-.05,3.16,3.16,0,0,1,3.3,1.57c1.68,2.31,3.54,4.49,5.33,6.72C124.68,283,124.91,283.27,125.17,283.56Z"/><path class="cls-4" d="M349.41,274.16l4.43-.78v6.35c.36-.11.61-.2.86-.26a11.06,11.06,0,0,1,2.1-.44A3.89,3.89,0,0,1,361,282.4c.68,3.6-1.28,6.22-4.91,6.58a12.24,12.24,0,0,1-5.17-.63v-13.2l-1.52-.65Zm4.45,6.72c0,2.27-.05,4.58,0,6.83,2.19.6,3.45,0,3.83-2a8.61,8.61,0,0,0,0-3.2C357.27,280.53,355.76,279.94,353.86,280.88Z"/><path class="cls-4" d="M30.17,282.87c0,.46-.05.78-.06,1.09,0,1.21,0,2.41,0,3.63l2,.85a3.88,3.88,0,0,1-2.25.32c-.76,0-1.53,0-2.29,0s-1.4,0-2.09-.06c0-.08,0-.17-.05-.26.17-.12.32-.31.5-.35,1.25-.3,1.11-.48,1.11-1.61v-9.9c0-.82.13-1.09-.95-1.38-.28-.08-.68-.07-.61-.66a2.21,2.21,0,0,1,.49-.11c2.09,0,4.18,0,6.27,0a9.89,9.89,0,0,1,2,.25c1.45.34,2.68,1,3,2.63a4.28,4.28,0,0,1-1.57,4.53,5.47,5.47,0,0,1-3,1C31.82,282.89,31.06,282.87,30.17,282.87Zm0-7.39v6.16c2,.63,3.47-.24,3.68-2.23a7.71,7.71,0,0,0,0-1.92,2.17,2.17,0,0,0-2.08-2A13.27,13.27,0,0,0,30.17,275.48Z"/><path class="cls-4" d="M180.21,274.45c2.55,0,5.08,0,7.6,0a4.9,4.9,0,0,1,1.07.19c1.54.37,2.79,1.08,3.1,2.8a4.3,4.3,0,0,1-1.92,4.6,6.79,6.79,0,0,1-3.72.85H184.9c0,1.49,0,2.92,0,4.35,0,.23.34.51.59.64s.86.13,1.12.58a17.42,17.42,0,0,1-6.56,0,4.94,4.94,0,0,1,.7-.43c.94-.35,1-.34,1-1.33,0-1.53,0-3.06,0-4.59,0-1.85,0-3.7,0-5.55,0-1,0-1-1-1.36C180.51,275.1,180.1,275.12,180.21,274.45Zm4.81,1a26.37,26.37,0,0,0,.06,6.29c1.59.32,2.69,0,3.2-1.15a4.88,4.88,0,0,0,.08-3.75A1.79,1.79,0,0,0,187,275.6C186.35,275.49,185.72,275.49,185,275.43Z"/><path class="cls-4" d="M140.27,274.56a21.09,21.09,0,0,1-.81,3.62c-.87-.73-.66-1.7-1.15-2.53-1.14-.12-2.37,0-3.78-.06-.06,1.78,0,3.48,0,5.28.47,0,.85.06,1.24.06,1.26,0,1.26,0,1.69-1.13.12-.3.12-.3.75-.53v4.45c-.27-.16-.64-.25-.65-.39-.14-1.66-1.34-1.37-2.4-1.35-.16,0-.31,0-.56.08v5.55c1.26.07,2.53,0,3.76,0,.9-.76.74-2.23,2.15-2.89-.1,1.41-.17,2.6-.25,3.77-1,.35-9.47.34-10.63-.08l1.68-.78c.12-4,.11-8,0-12l-1.49-1A66.28,66.28,0,0,1,140.27,274.56Z"/><path class="cls-4" d="M142.3,288.49c.2-1.24.39-2.42.61-3.59,0-.13.29-.21.58-.39.23.88.46,1.64.61,2.42a1.09,1.09,0,0,0,1.22,1.05,6.47,6.47,0,0,0,2.12-.29A2.17,2.17,0,0,0,148,284a8.37,8.37,0,0,0-1.53-1c-.74-.41-1.52-.75-2.25-1.18a4,4,0,0,1,.35-6.94,8.26,8.26,0,0,1,1.94-.61,10.07,10.07,0,0,1,4.72.42,10.54,10.54,0,0,1-.83,3.57c-.7-.63-.66-1.36-.87-2-.31-.92-.38-1.06-1.31-1.09a3.63,3.63,0,0,0-1.53.26A2.06,2.06,0,0,0,146,279a7.49,7.49,0,0,0,1.6,1c.77.44,1.61.77,2.34,1.27a4,4,0,0,1-.25,6.92,8.22,8.22,0,0,1-2.5.8A10.13,10.13,0,0,1,142.3,288.49Z"/><path class="cls-4" d="M256.3,288.39c.18-1.14.36-2.33.57-3.5,0-.11.23-.19.43-.33a3.71,3.71,0,0,1,.67,1.91c.21.76.29,1.47,1.34,1.55,1.47.1,2.66-.31,3.17-1.28a2.15,2.15,0,0,0-.37-2.56,7.48,7.48,0,0,0-1.47-1c-.74-.42-1.52-.74-2.26-1.16a4,4,0,0,1,.46-7.22,9.18,9.18,0,0,1,6.43,0c-.37,1.19-.22,2.43-.9,3.42h-.31c-.28-.89-.57-1.78-.84-2.65a3,3,0,0,0-2.28-.16,2.13,2.13,0,0,0-.84,3.72,7.3,7.3,0,0,0,1.42.91,27.26,27.26,0,0,1,2.44,1.32,4,4,0,0,1-.31,6.91,8.6,8.6,0,0,1-2.5.8A9,9,0,0,1,256.3,288.39Z"/><path class="cls-4" d="M168.28,274.3c.31.87.63,1.72.94,2.59,1.11,3.11,2.23,6.2,3.29,9.32.33,1,.75,1.77,1.87,2,.13,0,.23.17.37.29-.78.4-5.15.46-6.41.11,0-.5.48-.48.78-.58.5-.16.6-.46.44-.93-.3-.87-.59-1.74-.94-2.77H164.5c-.34.84-.68,1.64-1,2.47s-.26.92.62,1.31a3.57,3.57,0,0,1,.51.32c-.69.49-3.55.55-4.7.08.28-.18.47-.4.7-.43.85-.14,1.16-.76,1.45-1.46,1.53-3.75,3.09-7.5,4.61-11.26A1.28,1.28,0,0,1,168.28,274.3Zm-3.21,8.75h3.12c-.51-1.47-1-2.82-1.43-4.16a22.73,22.73,0,0,0-1.59,3.57A2.69,2.69,0,0,0,165.07,283.05Z"/><path class="cls-4" d="M249.18,288.36A6.6,6.6,0,0,1,250,288c.52-.16.6-.48.45-.93l-.94-2.69h-4.14a14.4,14.4,0,0,0-1.18,3.32l1.38.71a9,9,0,0,1-4.79.16c.28-.21.45-.44.65-.48a2,2,0,0,0,1.57-1.5c1.53-3.77,3.09-7.52,4.61-11.29.27-.68.61-1.11,1.52-1,.12.3.28.66.41,1,1.27,3.57,2.56,7.12,3.79,10.7.35,1,.77,1.94,2,2.15.1,0,.19.12.36.24-.72.57-1.46.29-2.12.34s-1.45,0-2.18,0l-2.11,0A3.14,3.14,0,0,1,249.18,288.36Zm-.13-5.29-1.55-4.51c-.62,1.67-1.13,3-1.69,4.51Z"/><path class="cls-4" d="M325.67,274.3l2.44,6.81c.6,1.7,1.21,3.41,1.79,5.13.31.91.7,1.71,1.79,1.89.1,0,.19.13.28.2s0,.07.07.17c-.62.49-1.36.21-2,.25s-1.45,0-2.17,0a3.47,3.47,0,0,1-2.14-.39l1.3-.67a12.74,12.74,0,0,0-1-3.37h-4.16c-.34.9-.68,1.83-1,2.77-.18.49,0,.75.49.89a5.93,5.93,0,0,1,.87.44,9.53,9.53,0,0,1-4.78.07c.21-.18.35-.4.53-.43.93-.15,1.3-.81,1.62-1.6,1.5-3.73,3.06-7.45,4.56-11.18A1.32,1.32,0,0,1,325.67,274.3Zm-1.52,4.62h-.28l-1.52,4.12h3.21Z"/><path class="cls-4" d="M46,287.62l2,.79a4.17,4.17,0,0,1-2.48.35c-.76.05-1.52,0-2.29,0a7.69,7.69,0,0,1-2.3-.14,2.54,2.54,0,0,0,0-.29l1.85-.72V275.7H40c-.6.77-.46,2-1.44,2.81a18.39,18.39,0,0,1-.43-4H50.73a21.64,21.64,0,0,1-.81,4c-1-.89-.67-2-1.24-2.88H46Z"/><path class="cls-4" d="M347.85,278.44l-.74-2.77h-2.65a84.4,84.4,0,0,0-.09,12l2,.81a4.79,4.79,0,0,1-2.46.32c-.8,0-1.61,0-2.42,0a7.22,7.22,0,0,1-2.18-.12l-.06-.29,1.82-.74V275.69h-2.72c-.67.71-.45,2-1.62,2.88-.07-.89-.11-1.5-.16-2.12s-.09-1.2-.13-1.79a104.2,104.2,0,0,1,12.64,0c-.23,1.17-.46,2.35-.71,3.51C348.35,278.23,348.13,278.28,347.85,278.44Z"/><path class="cls-4" d="M316.37,288.47a16.82,16.82,0,0,1-6.29,0l1.65-.84c0-1.58,0-3.22,0-4.86a2.46,2.46,0,0,0-.38-1c-.89-1.62-1.81-3.22-2.7-4.85a2.88,2.88,0,0,0-2.09-1.82,4.41,4.41,0,0,1-.73-.27c1.05-.41,5.49-.5,7.07-.29.05.95-1.13.44-1.34,1.36.8,1.47,1.71,3.14,2.75,5.07.89-2,1.92-3.56,2.5-5.26-.34-.64-1.23-.31-1.34-1.17H320c.18.33,0,.54-.31.59-1,.14-1.47.86-1.9,1.67-.82,1.57-1.65,3.13-2.52,4.67a3.4,3.4,0,0,0-.45,1.84c0,1.13.06,2.25,0,3.38,0,.74.14,1.25,1,1.38C316,288.1,316.16,288.31,316.37,288.47Z"/><path class="cls-4" d="M267.33,288.33l1.53-.65v-12c-.41-.59-1.36-.23-1.58-1.15h6.36c0,.7-.5.64-.82.72a.89.89,0,0,0-.78,1l0,11a3.19,3.19,0,0,0,.07.41l1.56.68a2.89,2.89,0,0,0,0,.29,12.5,12.5,0,0,1-3.12.11,12,12,0,0,1-3.16-.13C267.36,288.53,267.35,288.43,267.33,288.33Z"/><path class="cls-4" d="M153.33,288.39a1.72,1.72,0,0,1,.37-.25c1.25-.5,1.25-.5,1.25-1.87v-9.42c0-1.25,0-1.25-1.15-1.7a1.47,1.47,0,0,1-.4-.24c-.05,0,0-.15-.05-.23a23.94,23.94,0,0,1,6.27-.08c-.1.87-1,.43-1.45,1.2v11.89l1.59.71c-.73.61-1.46.31-2.12.36s-1.45,0-2.17,0l-2.1-.06A3.11,3.11,0,0,0,153.33,288.39Z"/><path class="cls-4" d="M56.38,274.48h6.2c0,1-1,.6-1.37,1a91.94,91.94,0,0,0,0,12.2l1.55.67c-.93.45-5.25.5-6.52.11a3.57,3.57,0,0,1,.68-.45c1-.38,1-.37,1-1.45,0-1.69,0-3.38,0-5.07v-5c0-.91.06-1.11-1-1.37C56.68,275.13,56.28,275.13,56.38,274.48Z"/><path class="cls-4" d="M363.63,275l-1.37-.51c0-.09,0-.18,0-.26a42.61,42.61,0,0,1,4.5-.9V287.7c.53.27.93.48,1.41.71-.78.42-4.39.51-5.9.2.18-.72,1-.45,1.32-.82A90.34,90.34,0,0,0,363.63,275Z"/><path class="cls-4" d="M374.32,279.49a20.16,20.16,0,0,0-2.56,1.34,22.4,22.4,0,0,0-2.14,2c.4.57.78,1.12,1.17,1.66s.9,1.24,1.32,1.87a3.82,3.82,0,0,0,2.24,1.91c.07,0,.11.17.27.44a16.9,16.9,0,0,0-1.84.09,3.23,3.23,0,0,1-3.85-2,19.81,19.81,0,0,0-2-2.94l3.7-3.68-1-.62A10.32,10.32,0,0,1,374.32,279.49Z"/></svg>