<svg id="Layer_1" data-name="Layer 1" xmlns="http://www.w3.org/2000/svg" viewBox="0 0 400 400"><defs><style>.cls-1{fill:#010101;}</style></defs><title>TMRB Dvl Logo</title><path class="cls-1" d="M118.65,138.21v3.55H116V138c0-4.6-1.75-8.08-6.39-8.08s-6.4,3.48-6.4,8.08V160.3c0,4.59,1.75,8,6.4,8s6.39-3.42,6.39-8v-5.09h2.66v4.9c0,6.18-2.66,10.83-9.1,10.83s-9.1-4.64-9.1-10.83v-21.9c0-6.2,2.64-10.84,9.09-10.84s9.11,4.64,9.11,10.84"/><polygon class="cls-1" points="137.45 147.57 137.45 150.14 125.94 150.14 125.94 168.01 139.81 168.01 139.81 170.58 123.17 170.58 123.17 127.73 139.81 127.73 139.81 130.3 125.94 130.3 125.94 147.57 137.45 147.57"/><polygon class="cls-1" points="146.85 170.58 144.32 170.58 144.32 127.73 147.94 127.73 160.6 163.91 160.6 127.73 163.13 127.73 163.13 170.58 160.06 170.58 146.85 132.39 146.85 170.58"/><polygon class="cls-1" points="175.01 170.58 175.01 130.3 166.45 130.3 166.45 127.73 186.4 127.73 186.4 130.3 177.78 130.3 177.78 170.58 175.01 170.58"/><path class="cls-1" d="M197.07,148.86c5,0,7.84-1.41,7.84-7.17v-4c0-4.59-1.74-7.35-6.33-7.35h-6v18.54h4.46Zm1.58-21.12c6.44,0,9,3.61,9,9.66v3.74c0,5-1.93,7.89-6.1,8.87,4.35,1,6.1,4.11,6.1,8.75v6.67a9.63,9.63,0,0,0,1,5.14h-2.9a10.23,10.23,0,0,1-.91-5.14V158.7c0-5.69-3.07-7.29-7.89-7.29h-4.4v19.16h-2.77V127.74Z"/><path class="cls-1" d="M217.56,158.65h12.3l-6.2-27.73Zm-.41,2.44L215,170.58H212.5l9.23-42.91h4l9.4,42.91H232.4l-2.11-9.49Z"/><polygon class="cls-1" points="239.39 170.58 239.39 127.73 242.17 127.73 242.17 168.01 255.42 168.01 255.42 170.58 239.39 170.58"/><path class="cls-1" d="M119.24,188.85v3.68h-4.46v-3.91c0-3.86-1.51-6.18-4.94-6.18s-5,2.32-5,6.18v22.64c0,3.85,1.56,6.18,5,6.18s4.94-2.33,4.94-6.18v-8.57h-4.34v-4.28h8.8V211c0,6.48-3,10.77-9.53,10.77s-9.46-4.28-9.46-10.77V188.87c0-6.48,3-10.78,9.46-10.78s9.53,4.28,9.53,10.76"/><path class="cls-1" d="M131.9,198.71c3.74,0,6-1.22,6-5.88v-4.1c0-3.85-1.39-5.88-4.89-5.88H128.4V198.7h3.5Zm1.21-20.19c6.63,0,9.4,3.42,9.4,9.79v3.49c0,4.71-1.62,7.65-5.25,8.81,3.87,1.16,5.31,4.34,5.31,8.94v6.67a11,11,0,0,0,.85,5.13h-4.76a11.28,11.28,0,0,1-.78-5.2v-6.73c0-4.83-2.23-6.37-6.15-6.37H128.4v18.3h-4.7V178.52Z"/><path class="cls-1" d="M152.82,208.63h9.4l-4.76-24.72Zm-.6,4.1-1.63,8.64h-4.34l8.08-42.85h6.81l8.08,42.85h-4.71l-1.62-8.64Z"/><polygon class="cls-1" points="177.6 202.08 177.6 221.35 172.9 221.35 172.9 178.52 177.6 178.52 177.6 197.79 187.97 197.79 187.97 178.52 192.67 178.52 192.67 221.35 187.97 221.35 187.97 202.08 177.6 202.08"/><path class="cls-1" d="M202.86,208.63h9.41l-4.76-24.72Zm-.6,4.1-1.62,8.64h-4.35l8.08-42.85h6.81l8.08,42.85h-4.7l-1.63-8.64Z"/><path class="cls-1" d="M109.54,228.8c6.44,0,9.76,3.92,9.76,10.78v1.34H113v-1.77c0-3.06-1.2-4.23-3.31-4.23s-3.32,1.16-3.32,4.23c0,8.81,13,10.46,13,22.71,0,6.86-3.38,10.77-9.9,10.77s-9.88-3.91-9.88-10.77v-2.63h6.27v3c0,3.06,1.32,4.17,3.44,4.17s3.43-1.11,3.43-4.17c0-8.81-13-10.47-13-22.7,0-6.85,3.32-10.78,9.77-10.78"/><polygon class="cls-1" points="129.8 247.36 138.9 247.36 138.9 253.47 129.8 253.47 129.8 266.02 141.25 266.02 141.25 272.14 123.17 272.14 123.17 229.29 141.25 229.29 141.25 235.41 129.8 235.41 129.8 247.36"/><path class="cls-1" d="M143.54,266c.72.06,1.58.06,2.29.06,2.12,0,3.81-.79,3.81-4.1V229.29h6.63v32.2c0,8.57-4.52,10.77-9.53,10.77a24.39,24.39,0,0,1-3.2-.12Z"/><path class="cls-1" d="M167.12,258.55h6.39l-3.19-21.67Zm15.13,13.59h-6.7l-1.14-7.78h-8.15l-1.14,7.78H159l6.74-42.85h9.71Z"/><polygon class="cls-1" points="191.95 272.14 185.32 272.14 185.32 229.29 191.95 229.29 191.95 247.66 199.49 247.66 199.49 229.29 206.24 229.29 206.24 272.14 199.49 272.14 199.49 253.78 191.95 253.78 191.95 272.14"/><polygon class="cls-1" points="209.13 229.29 229.62 229.29 229.62 235.42 222.7 235.42 222.7 272.14 216.07 272.14 216.07 235.42 209.13 235.42 209.13 229.29"/><polygon class="cls-1" points="239.15 247.36 248.26 247.36 248.26 253.47 239.15 253.47 239.15 266.02 250.6 266.02 250.6 272.14 232.52 272.14 232.52 229.29 250.6 229.29 250.6 235.41 239.15 235.41 239.15 247.36"/><path class="cls-1" d="M261.34,235.42v13.16h2.59c2.47,0,4-1.1,4-4.53v-4.22c0-3.06-1-4.41-3.37-4.41Zm7.24,36.72a13.24,13.24,0,0,1-.61-5.26v-6.74c0-4-1.32-5.45-4.34-5.45h-2.29v17.45h-6.63V229.29h10c6.87,0,9.83,3.25,9.83,9.86v3.36c0,4.41-1.38,7.29-4.34,8.69,3.31,1.4,4.41,4.64,4.41,9.11v6.61a12.72,12.72,0,0,0,.71,5.19Z"/><path class="cls-1" d="M285.27,258.55h6.39l-3.2-21.67Zm15.14,13.59h-6.7l-1.14-7.78h-8.15l-1.14,7.78h-6.09l6.74-42.85h9.71Z"/></svg>