<svg id="Layer_1" data-name="Layer 1" xmlns="http://www.w3.org/2000/svg" viewBox="0 0 400 400"><defs><style>.cls-1{fill:#808285;}.cls-2{fill:#034ea2;}.cls-3{fill:#afb1b4;}</style></defs><title>TMRB Dvl Logo</title><polygon class="cls-1" points="64.49 211.57 31.29 211.57 31.29 166.74 47.78 160.78 47.78 196.15 69.97 196.18 64.49 211.57"/><path class="cls-2" d="M83.41,202a5.73,5.73,0,0,1,11.4,0Zm20.51,5.46c0-11.11-5.56-18.09-15.16-18.09-9,0-15.33,6.55-15.33,17.4,0,11.25,6.85,17.33,16,17.33,6.31,0,12.53-3.49,14.08-11.17H94.1a4.78,4.78,0,0,1-4.7,3c-4.05,0-6.15-2.54-6.15-7.24h20.67Z"/><path class="cls-2" d="M122.84,189.32c-8.91,0-16.68,6.29-16.68,17.4s7.83,17.33,16.68,17.33,16.68-6.29,16.68-17.33S131.74,189.32,122.84,189.32Zm0,10c4,0,6.31,3.37,6.31,7.36s-2.32,7.3-6.31,7.3-6.31-3.18-6.31-7.3S118.83,199.35,122.84,199.35Z"/><path class="cls-2" d="M152.36,190.4h-9.82v48.82h9.82V219.86a10.55,10.55,0,0,0,8.58,4.19c8.21,0,13.87-7.87,13.87-17.27s-5.72-17.46-14-17.46a9.39,9.39,0,0,0-8.37,4.76h-.11Zm6,8.95c4,0,6.31,3.37,6.31,7.36s-2.32,7.3-6.31,7.3-6.31-3.18-6.31-7.3,2.32-7.36,6.31-7.36Z"/><path class="cls-2" d="M193.31,199.35c4,0,6.31,3.37,6.31,7.36s-2.32,7.3-6.31,7.3-6.31-3.18-6.31-7.3S189.32,199.35,193.31,199.35Zm15.82-8.95h-9.81v3.18a10.55,10.55,0,0,0-8.59-4.25c-8.2,0-13.86,8-13.86,17.35s5.78,17.4,14,17.4a9.3,9.3,0,0,0,8.37-4.7h.11V223h9.82Z"/><rect class="cls-2" x="213.98" y="170.28" width="9.83" height="52.69"/><path class="cls-2" d="M243.51,199.35c4,0,6.31,3.37,6.31,7.36s-2.32,7.3-6.31,7.3-6.3-3.18-6.3-7.3S239.53,199.35,243.51,199.35Zm15.81-8.95h-9.81v3.18a10.55,10.55,0,0,0-8.58-4.25c-8.21,0-13.87,8-13.87,17.35s5.78,17.4,14,17.4a9.3,9.3,0,0,0,8.37-4.7h.11V223h9.81Z"/><path class="cls-2" d="M284.76,191.22a11.87,11.87,0,0,0-6.47-1.92c-8.69,0-15.49,7.25-15.49,17.72,0,9.85,6.85,17,15.05,17a13.49,13.49,0,0,0,6.91-1.83v-9.79a7,7,0,0,1-4.9,2.23c-4.05,0-6.91-3.31-6.91-8,0-4.52,3-7.94,6.74-7.94a7.93,7.93,0,0,1,5.07,2.29Z"/><path class="cls-2" d="M297.65,202A5.72,5.72,0,0,1,309,202Zm20.5,5.46c0-11.11-5.55-18.09-15.16-18.09-9,0-15.32,6.55-15.32,17.4,0,11.25,6.86,17.33,16,17.33,6.32,0,12.53-3.49,14.09-11.17h-9.45a4.78,4.78,0,0,1-4.7,3c-4.05,0-6.16-2.54-6.16-7.24h20.67Z"/><path class="cls-2" d="M345.49,212.43l6.31-6.93c4.16-4.44,6.58-8.44,6.58-15.29,0-10.42-7.18-17-15.7-17-9.61,0-15.54,7.42-15.87,18.41h11.65a14,14,0,0,1-.16-2c0-3.23,1.56-5.84,4.42-5.84s4.64,3.18,4.64,6.22a20.23,20.23,0,0,1-4.64,11.74L326.1,223h32.7V212.43Z"/><polygon class="cls-2" points="368.77 185.63 368.77 222.97 379.35 222.97 379.35 175.09 362.94 175.09 362.94 185.63 368.77 185.63"/><polygon class="cls-2" points="20.65 223.36 20.65 160.78 34.18 168.29 34.18 209.78 58.78 209.78 69.95 223.34 20.65 223.36"/><polygon class="cls-3" points="69.97 196.18 69.97 223.33 56.39 209.78 69.97 196.18"/><polygon class="cls-3" points="20.65 160.78 47.78 160.78 34.18 174.35 20.65 160.78"/></svg>