<svg id="Layer_1" data-name="Layer 1" xmlns="http://www.w3.org/2000/svg" viewBox="0 0 400 400"><defs><style>.cls-1{fill:#c29552;}</style></defs><title>TMRB Dvl Logo</title><path class="cls-1" d="M154.26,316.65l4.68,0v3a8,8,0,0,1-4.39,1.19,5.63,5.63,0,0,1-.21-11.25,7.69,7.69,0,0,1,5.13,2l1.79-1.59a11,11,0,0,0-6.93-2.72h-.53a7.92,7.92,0,1,0,.58,15.83,12.34,12.34,0,0,0,6.88-2.21l0-6.53-7,0Z"/><path class="cls-1" d="M184.29,312.45a4.32,4.32,0,0,0-1.18-3,5.55,5.55,0,0,0-4.32-1.59l-8.22,0-.06,14.91h2.55l0-5.72,5.29,0,3.18,5.74h2.95L181,316.72A4.63,4.63,0,0,0,184.29,312.45Zm-5.06,2.31-6.13,0v-4.61l5.67,0a3,3,0,0,1,2.33.81,2.13,2.13,0,0,1,.61,1.49A2.43,2.43,0,0,1,179.23,314.76Z"/><path class="cls-1" d="M200.19,307.48a8.16,8.16,0,0,0-8.42,7.85,7.93,7.93,0,1,0,8.42-7.85ZM200.14,321H200a5.63,5.63,0,0,1,.15-11.26h.25a5.63,5.63,0,0,1-.29,11.26Z"/><path class="cls-1" d="M227.47,317.66c0,2.24-1.8,3.46-4.08,3.46s-4-1.25-4-3.49l0-9.62h-2.56l0,9.62c0,3.68,2.81,5.77,6.58,5.78s6.63-2.06,6.64-5.73l0-9.62h-2.55Z"/><path class="cls-1" d="M247.84,308.12l-8.22,0L239.56,323h2.55l0-5.72,5.67,0a5.64,5.64,0,0,0,4.14-1.38,4.47,4.47,0,0,0,1.39-3.21,4.32,4.32,0,0,0-1.18-3A5.5,5.5,0,0,0,247.84,308.12Zm2.23,6.18a3.11,3.11,0,0,1-2.27.72l-5.67,0,0-4.61,5.66,0a3,3,0,0,1,2.33.8,2.09,2.09,0,0,1,.61,1.51A2.19,2.19,0,0,1,250.07,314.3Z"/><path class="cls-1" d="M60.22,240.54l0,4.86,12.07,0L72.13,277l8.66,0,.12-31.53,9.88,0a2.2,2.2,0,0,0,2.2-2.19l0-4.86-30.6-.12A2.18,2.18,0,0,0,60.22,240.54Z"/><path class="cls-1" d="M136.07,238.64l-6.46,0-.06,15.55-16.37-.06,0-13.36h0a2.19,2.19,0,0,0-2.18-2.19l-6.46,0-.15,38.59,8.66,0,.06-16,16.36.06-.06,16,8.65,0,.14-36.39h0A2.21,2.21,0,0,0,136.07,238.64Z"/><path class="cls-1" d="M180.63,245.49a2.19,2.19,0,0,0,2.19-2.18v-4.48l-29.37-.11-.15,38.58,29.38.11v-4.47a2.2,2.2,0,0,0-2.18-2.2L162,270.67l0-9.92,19.4.08,0-6.45L162,254.3l0-8.87Z"/><path class="cls-1" d="M245.61,240l-11.42,16-11.3-16a2.14,2.14,0,0,0-1.78-.93l-6.76,0-.15,38.59,8.32,0,.1-25.62,11.07,15.13h.88L245.77,252l-.1,25.63,8.32,0,.15-38.58-6.76,0A2.18,2.18,0,0,0,245.61,240Z"/><path class="cls-1" d="M289.36,239.24l-7.72,0-15.59,38.52,9,0,3.06-8.19,16,.06,3,8.22,9,0-14.79-37.27A2.15,2.15,0,0,0,289.36,239.24Zm-8.8,23.83,5.67-15.19,5.57,15.24Z"/><path class="cls-1" d="M337.65,239.43l-6.41,0-.1,24.59c0,.73,0,1.53-.09,2.39a8.82,8.82,0,0,1-.48,2.39,4.59,4.59,0,0,1-1.21,1.85,3.31,3.31,0,0,1-2.32.73,3.79,3.79,0,0,1-2.56-1,3.75,3.75,0,0,1-1.29-2.43l-5.67,1.36c-.09,0-.19.05-.28.09a2.19,2.19,0,0,0-1.26,2.84,9.47,9.47,0,0,0,3.43,4.51,13.34,13.34,0,0,0,7.81,2.23,14.75,14.75,0,0,0,6.43-1.16,9.28,9.28,0,0,0,3.78-3.13,11.84,11.84,0,0,0,1.81-4.49,28.59,28.59,0,0,0,.48-5.23l.09-23.33A2.16,2.16,0,0,0,337.65,239.43Z"/><path class="cls-1" d="M164.91,170.39h0a1.51,1.51,0,0,0,1.51,1.53l30.8.12h0a1.52,1.52,0,0,0,1.52-1.51l.13-30.8h0a1.52,1.52,0,0,0-1.52-1.52l-6.16,0h0a1.52,1.52,0,0,0-1.52,1.52l-.09,23.12-15.45-.06.06-15.44h3.13l0,10.8h0a1.53,1.53,0,0,0,1.51,1.53l6.16,0h0a1.52,1.52,0,0,0,1.53-1.51l.07-18.47h0a1.52,1.52,0,0,0-1.51-1.53l-18.47-.07h0a1.53,1.53,0,0,0-1.53,1.51ZM168,141.13l15.45.07-.06,15.43h-3.12l0-10.8h0a1.52,1.52,0,0,0-1.51-1.52l-6.16,0h0a1.53,1.53,0,0,0-1.53,1.51l-.07,18.48h0a1.52,1.52,0,0,0,1.51,1.52l18.47.08h0a1.52,1.52,0,0,0,1.53-1.52l.09-23.12h3.12L195.68,169l-27.76-.11Z"/><path class="cls-1" d="M189.68,133.55a1.52,1.52,0,0,0,1.51,1.52l6.16,0h0a1.52,1.52,0,0,0,1.53-1.52l.12-30.79h0a1.52,1.52,0,0,0-1.51-1.53l-30.8-.12h0a1.52,1.52,0,0,0-1.52,1.51l-.13,30.8h0a1.52,1.52,0,0,0,1.52,1.52l18.47.08h0a1.52,1.52,0,0,0,1.52-1.52l.08-18.47h0a1.52,1.52,0,0,0-1.51-1.52l-6.17,0h0a1.52,1.52,0,0,0-1.52,1.51l0,10.8h-3.12l.06-15.45,15.45.06-.1,23.13Zm-16.86-26.23h0a1.52,1.52,0,0,0-1.53,1.52l-.07,18.47h0a1.52,1.52,0,0,0,1.51,1.52l6.16,0h0a1.53,1.53,0,0,0,1.53-1.51l0-10.8h3.13L183.52,132l-15.45-.07.11-27.76,27.76.12-.11,27.76-3.13,0,.09-23.12h0a1.52,1.52,0,0,0-1.51-1.52Z"/><path class="cls-1" d="M223.57,115.2a1.51,1.51,0,0,0-1.51-1.53l-6.16,0h0a1.52,1.52,0,0,0-1.52,1.51l-.07,18.47h0a1.52,1.52,0,0,0,1.52,1.53l18.47.07h0a1.52,1.52,0,0,0,1.52-1.51l.13-30.8h0a1.52,1.52,0,0,0-1.51-1.52l-30.8-.13h0a1.53,1.53,0,0,0-1.53,1.52L202,133.58h0a1.52,1.52,0,0,0,1.51,1.53l6.16,0h0a1.52,1.52,0,0,0,1.53-1.51l.09-23.12,15.44.06L226.66,126h-3.12l0-10.8Zm4.59,13.85h0a1.52,1.52,0,0,0,1.53-1.52l.07-18.47h0a1.53,1.53,0,0,0-1.51-1.53l-18.47-.07h0a1.52,1.52,0,0,0-1.53,1.51l-.09,23.13-3.12,0,.11-27.76,27.76.12-.11,27.75-15.44-.06.07-15.43h3.12l0,10.8h0A1.52,1.52,0,0,0,222,129Z"/><path class="cls-1" d="M201.85,170.54h0a1.52,1.52,0,0,0,1.52,1.53l30.79.12h0a1.52,1.52,0,0,0,1.53-1.51l.12-30.8h0a1.52,1.52,0,0,0-1.51-1.52l-18.47-.08h0a1.52,1.52,0,0,0-1.53,1.51l-.07,18.48h0a1.52,1.52,0,0,0,1.51,1.52l6.16,0h0a1.53,1.53,0,0,0,1.53-1.51l0-10.8h3.13L226.53,163l-15.45-.06.08-23.12h0a1.53,1.53,0,0,0-1.51-1.53l-6.16,0h0a1.53,1.53,0,0,0-1.53,1.51ZM205,141.27h3.13L208,164.4h0a1.52,1.52,0,0,0,1.51,1.53L228,166h0a1.52,1.52,0,0,0,1.52-1.51l.08-18.47h0a1.53,1.53,0,0,0-1.52-1.53l-6.16,0h0a1.52,1.52,0,0,0-1.52,1.51l0,10.8h-3.13l.07-15.45,15.43.06-.11,27.76L204.89,169Z"/><path class="cls-1" d="M203.68,89a1.52,1.52,0,0,0-1.53,1.51l0,6.17h0a1.52,1.52,0,0,0,1.51,1.52l35.43.14-.3,77-35.43-.14h0a1.52,1.52,0,0,0-1.52,1.51l0,6.17h0a1.52,1.52,0,0,0,1.51,1.52l43.11.16h0a1.53,1.53,0,0,0,1.53-1.51l.36-92.38h0a1.52,1.52,0,0,0-1.52-1.52L203.68,89ZM205.19,92l40.07.15-.34,89.34-40.07-.15,0-3.12,35.43.14h0a1.52,1.52,0,0,0,1.52-1.52l.31-80h0a1.52,1.52,0,0,0-1.51-1.53l-35.43-.13Z"/><path class="cls-1" d="M154.05,184.19l43.1.16h0a1.52,1.52,0,0,0,1.53-1.51l0-6.16h0a1.53,1.53,0,0,0-1.51-1.53L161.76,175l.3-77,35.43.13h0A1.52,1.52,0,0,0,199,96.61l0-6.16h0a1.52,1.52,0,0,0-1.51-1.52l-43.11-.15h0a1.53,1.53,0,0,0-1.53,1.51l-.36,92.38h0A1.54,1.54,0,0,0,154.05,184.19Zm1.87-92.38L196,92v3.13L160.54,95h0A1.52,1.52,0,0,0,159,96.46l-.3,80.07h0a1.53,1.53,0,0,0,1.51,1.53l35.44.13,0,3.13-40.07-.15Z"/><path class="cls-1" d="M148,166.61h0a1.51,1.51,0,0,0,1.52-1.51l.23-57.28a1.52,1.52,0,1,0-3,0l-.22,57.28h0A1.51,1.51,0,0,0,148,166.61Z"/><path class="cls-1" d="M142,125.26a1.52,1.52,0,0,0-1.53,1.52l-.07,19.31h0a1.52,1.52,0,0,0,1.51,1.53h0a1.53,1.53,0,0,0,1.53-1.51l.07-19.32A1.52,1.52,0,0,0,142,125.26Z"/><path class="cls-1" d="M172,85.71l57.28.23a1.52,1.52,0,0,0,0-3L172,82.68a1.52,1.52,0,1,0,0,3Z"/><path class="cls-1" d="M191,79.64l19.32.07h0a1.52,1.52,0,1,0,0-3L191,76.6a1.51,1.51,0,0,0-1.51,1.5A1.54,1.54,0,0,0,191,79.64Z"/><path class="cls-1" d="M228.86,190.64a1.52,1.52,0,0,0,0-3l-57.28-.22a1.52,1.52,0,1,0,0,3l57.28.22Z"/><path class="cls-1" d="M209.86,193.69l-19.31-.08h0a1.52,1.52,0,0,0,0,3l19.32.08h0a1.52,1.52,0,1,0,0-3Z"/><path class="cls-1" d="M252.9,106.72a1.5,1.5,0,0,0-1.54,1.5l-.22,57.28h0a1.52,1.52,0,0,0,1.51,1.52h0a1.52,1.52,0,0,0,1.52-1.51l.23-57.28A1.51,1.51,0,0,0,252.9,106.72Z"/><path class="cls-1" d="M259,125.72a1.51,1.51,0,0,0-1.53,1.5l-.08,19.32h0a1.52,1.52,0,0,0,1.51,1.52h0a1.52,1.52,0,0,0,1.53-1.51l.07-19.31A1.54,1.54,0,0,0,259,125.72Z"/></svg>