<svg id="Layer_1" data-name="Layer 1" xmlns="http://www.w3.org/2000/svg" viewBox="0 0 400 400"><defs><style>.cls-1{fill:#e31c24;}.cls-2{fill:#0069ac;}.cls-3{fill:#a68561;}</style></defs><title>TMRB Dvl Logo</title><path class="cls-1" d="M237.78,224.61c.41-1.54.24-1.53,1.27-5.68.74-4.09,5.25-10.36,13.19-11,2.71-.33,106.7-4.75,128.92-6.3l-.66,3.84c-20.94,2.72-115.66,15.6-142.72,19.14"/><path class="cls-2" d="M43.91,168.31a7,7,0,0,0,3.3-1.82,9,9,0,0,0,2.51-4.84,14.35,14.35,0,0,0,.32-4,8.81,8.81,0,0,0-1.54-4.82c-.92-1.26-2.6-1.89-5.06-1.89a2.7,2.7,0,0,0-2.15.72,5.93,5.93,0,0,0-.89,2.25L37.15,169.1a54.18,54.18,0,0,0,6.73-.79M34.7,191.57a8.62,8.62,0,0,0,2.58.27,8.94,8.94,0,0,0,8.9-5.94,16.71,16.71,0,0,0,1.24-7.33c-.19-3.11-1.4-5.19-3.61-6.26-1.3-.64-3.66-1-7.06-1.19l-3.48,16.5c-.06.25-.13.55-.18.88a11.22,11.22,0,0,0,0,1.16,2,2,0,0,0,1.61,1.91M19.28,192a5.45,5.45,0,0,0,2-.73,6.31,6.31,0,0,0,2.08-3.93l6.51-30.31c.18-.89.31-1.65.38-2.25a7.06,7.06,0,0,0,.08-1.38c-.07-1.21-.46-2-1.15-2.28a5.4,5.4,0,0,0-.94-.3l.46-2.1H43.53q7.61,0,11.91,2.4a8.85,8.85,0,0,1,4.66,7.72q.32,5.18-4.66,8.27A24.94,24.94,0,0,1,48.17,170a22.14,22.14,0,0,1,6.24,3,9.27,9.27,0,0,1,3.42,7,12.17,12.17,0,0,1-4,9.81q-4.34,4.19-15.11,4.18H18.84Z"/><path class="cls-2" d="M81,167.12a2.46,2.46,0,0,0-2.41-1.5q-3.69,0-7.07,8.66c-2,5.14-3,9.05-2.82,11.77a5.11,5.11,0,0,0,.89,2.81,2.66,2.66,0,0,0,2.2,1.2q3.39,0,7.19-8.92,2.64-7.48,2.44-11.86a5.74,5.74,0,0,0-.43-2.16m-15.48,3.67q5.74-8,12.08-8a4.9,4.9,0,0,1,3.89,1.51,9.27,9.27,0,0,1,1.45,3.1l2.65-3.73h5.88l-4,15.44c-.56,2.25-1,4-1.19,5.15a21.42,21.42,0,0,0-.64,4.84,1.1,1.1,0,0,0,.3.83.9.9,0,0,0,.6.23,1.77,1.77,0,0,0,1.13-.43,7.35,7.35,0,0,0,1.2-1.29l.29-.34c.47.3,1.07.72,1.58,1.08a26.37,26.37,0,0,1-3,3.54A7.06,7.06,0,0,1,82.73,195a5,5,0,0,1-3.08-1.15A4.33,4.33,0,0,1,78,190.42a23.75,23.75,0,0,1,.64-4.11l-.23.38c-.22.4-.58,1-1.07,1.77a17.63,17.63,0,0,1-4,4.6,8.13,8.13,0,0,1-5.3,1.86,7.76,7.76,0,0,1-5.1-2q-2.41-2-2.65-6.83-.36-7.44,5.2-15.27"/><path class="cls-2" d="M92,193.94l5.25-22.75c.2-.88.34-1.57.44-2.07a11.89,11.89,0,0,0,.23-2c-.05-.8-.33-1.32-.88-1.52a7.34,7.34,0,0,0-1.22-.25l.31-1.71H107l-3.32,11.69.18.09q-.16.17,1.83-3a34.57,34.57,0,0,1,3.83-5.19,17,17,0,0,1,3.84-3.19,8.63,8.63,0,0,1,4.42-1.22,5.77,5.77,0,0,1,3.68,1.22,5.11,5.11,0,0,1,1.77,4c.1,1.71-.72,5.48-2.41,11.33s-2.55,9-2.53,9.38a1.2,1.2,0,0,0,.41.92,1.21,1.21,0,0,0,.74.3c.55,0,1.29-.62,2.26-1.89l1.61,1a19.84,19.84,0,0,1-1.91,2.47,8.54,8.54,0,0,1-6.29,3.08,5.73,5.73,0,0,1-3.32-1.06,4.08,4.08,0,0,1-1.59-3.33,18.88,18.88,0,0,1,.48-4.24c.38-1.84.84-3.73,1.4-5.69l2.87-10.1.14-.62a4.86,4.86,0,0,0,0-.54,1.16,1.16,0,0,0-.6-1,2.06,2.06,0,0,0-1.11-.3q-2.07,0-4.46,3.22a35,35,0,0,0-3.84,6.41,48.79,48.79,0,0,0-2.58,7c-.67,2.36-1.47,5.53-2.38,9.53Z"/><path class="cls-2" d="M124.62,193.94s8.84-39.62,8.9-40.05a5.52,5.52,0,0,0,.08-1.22c0-1-.41-1.62-1-1.84a6,6,0,0,0-1.25-.23l.41-1.83h11l-6.33,28.85c2.46-1.85,4.6-3.61,6.41-5.24,2.81-2.58,4.18-4.38,4.13-5.39a1.33,1.33,0,0,0-1.05-1.35,8.73,8.73,0,0,0-1-.21l.4-1.76,9.93.1-.66,2.29c-1.76.07-1.68.22-6.08,4.42,0,0-3.26,3.08-3.69,3.47l-.33.3c.06.18.33,1.33.83,3.45.57,2.44,1,4.11,1.29,5q.93,2.94,2.15,5.77a2.07,2.07,0,0,0,1.87,1.32,3.49,3.49,0,0,0,2.43-1.62l1.43,1.07a25.23,25.23,0,0,1-2,2.9,6.35,6.35,0,0,1-5,2.5,5.4,5.4,0,0,1-3.81-1.47,12,12,0,0,1-2.65-4,34.88,34.88,0,0,1-2-6c-.53-2.27-.81-3.53-.82-3.69l-2.52,1.83L132.87,194Z"/><path class="cls-2" d="M260.5,174.35h7.66c2.91,0,5.4.5,5.4,3.87,0,3.66-3.42,4.55-5.9,4.55h-8.94Zm-17.56,19.09h25.92c9.89,0,18.62-4.31,18.62-15.2,0-4.17-2.65-8.18-6.84-9.06v-.12h.06c5.45-1.45,8.3-5.2,8.3-10.89,0-6.53-3.68-9.95-13.49-9.95h-23.2Zm20.68-34.35h7.14c2.47,0,4.31.51,4.31,3.23s-2.79,3.6-5,3.6h-7.87Z"/><polygon class="cls-2" points="299.35 193.44 313.28 193.44 320.25 159.81 332.78 159.81 335.19 148.22 296.18 148.22 293.78 159.81 306.31 159.81 299.35 193.44"/><polygon class="cls-2" points="330.75 193.44 343.99 193.44 349.23 168.11 349.36 168.11 357.65 193.44 371.33 193.44 380.83 148.22 367.59 148.22 362.53 172.92 362.41 172.92 353.93 148.22 340.11 148.22 330.75 193.44"/><polygon class="cls-3" points="192.31 193.45 192.31 201.66 199.44 197.55 206.56 201.66 206.56 193.45 199.44 189.33 192.31 193.45"/><polygon class="cls-3" points="220.79 193.45 220.79 185.22 199.44 172.88 178.08 185.22 178.08 193.45 199.44 181.1 220.79 193.45"/><polygon class="cls-2" points="170.96 156.44 199.44 140 227.92 156.44 227.92 189.33 220.8 193.45 220.8 160.56 199.44 148.22 178.08 160.56 178.08 193.45 170.96 189.33 170.96 156.44"/><polygon class="cls-2" points="199.44 156.44 213.68 164.67 213.68 197.55 206.56 201.66 206.56 168.77 199.44 164.67 192.31 168.77 192.31 201.66 185.2 197.55 185.2 164.67 199.44 156.44"/><path class="cls-2" d="M67.07,243.59c-.26-2.35-1.77-3.36-4.08-3.36-1.83,0-3.66.67-3.66,2.8s2.65,2.32,5.3,2.91,5.23,1.52,5.23,4.73c0,3.49-3.42,4.9-6.41,4.9-3.66,0-6.77-1.77-6.77-5.79h2.07c0,2.75,2.29,3.95,4.77,3.95,2,0,4.16-.62,4.16-3s-2.65-2.65-5.23-3.22-5.31-1.33-5.31-4.33c0-3.33,3-4.8,6-4.8,3.34,0,5.88,1.57,6,5.19Z"/><path class="cls-2" d="M82.65,255.13a2.64,2.64,0,0,1-1.4.31c-1,0-1.66-.54-1.66-1.83a5.29,5.29,0,0,1-4.18,1.83c-2.16,0-3.94-.95-3.94-3.32,0-2.65,2-3.25,4-3.64s4-.28,4-1.77c0-1.7-1.41-2-2.65-2-1.66,0-2.88.51-3,2.25h-2c.12-2.94,2.4-4,5-4,2.14,0,4.42.48,4.42,3.26v6.11c0,.88,0,1.33.63,1.33a1.57,1.57,0,0,0,.6-.12Zm-3.18-6.08c-.75.54-2.23.58-3.53.8s-2.39.69-2.39,2.14c0,1.28,1.1,1.76,2.3,1.76,2.57,0,3.62-1.6,3.62-2.65Z"/><path class="cls-2" d="M84.44,238.74h2V245h0a4,4,0,0,1,3.74-2c3.12,0,4.08,1.77,4.08,4.34v7.8h-2v-8a2.23,2.23,0,0,0-2.09-2.39h-.32c-2.36,0-3.53,1.58-3.53,3.72v6.7H84.43Z"/><path class="cls-2" d="M107.72,255.13a2.62,2.62,0,0,1-1.4.31c-1,0-1.65-.54-1.65-1.83a5.29,5.29,0,0,1-4.19,1.83c-2.15,0-3.92-.95-3.92-3.32,0-2.65,2-3.25,4-3.64s4-.28,4-1.77c0-1.7-1.39-2-2.65-2-1.65,0-2.87.51-3,2.25H97c.11-2.94,2.39-4,5-4,2.13,0,4.42.48,4.42,3.26v6.11c0,.88,0,1.33.62,1.33a1.57,1.57,0,0,0,.6-.12Zm-3.17-6.08c-.75.54-2.23.58-3.53.8s-2.39.69-2.39,2.14c0,1.28,1.11,1.76,2.31,1.76,2.55,0,3.61-1.6,3.61-2.65Z"/><path class="cls-2" d="M109.59,238.74h2v6.19h0a4,4,0,0,1,3.79-1.88c3.65,0,5.46,2.89,5.46,6.24s-1.77,6.19-5.42,6.19a4.54,4.54,0,0,1-3.83-1.86h0v1.57h-2Zm5.5,6c-2.65,0-3.62,2.25-3.62,4.47s1,4.51,3.72,4.51,3.58-2.27,3.58-4.59-1.15-4.41-3.68-4.41"/><path class="cls-2" d="M133.64,255.13a2.58,2.58,0,0,1-1.39.31c-1,0-1.65-.54-1.65-1.83a5.26,5.26,0,0,1-4.19,1.83c-2.17,0-3.92-.95-3.92-3.32,0-2.65,2-3.25,4-3.64,2.17-.42,4-.28,4-1.77,0-1.7-1.4-2-2.65-2-1.65,0-2.87.51-3,2.25h-2c.12-2.94,2.39-4,5-4,2.15,0,4.42.48,4.42,3.26v6.11c0,.88,0,1.33.63,1.33a1.52,1.52,0,0,0,.59-.12Zm-3.16-6.08c-.76.54-2.23.58-3.53.8s-2.39.69-2.39,2.14c0,1.28,1.1,1.76,2.28,1.76,2.58,0,3.64-1.6,3.64-2.65Z"/><path class="cls-2" d="M138.17,243.31h2.36V245h-2.36v7.36c0,.89.25,1.06,1.46,1.06h.89v1.77H139c-2,0-2.82-.41-2.82-2.6v-7.55h-2v-1.71h2v-3.54h2Z"/><polygon class="cls-2" points="149.39 238.78 151.56 238.78 151.56 246.95 159.89 238.78 162.7 238.78 155.78 245.41 162.97 255.17 160.22 255.17 154.3 246.88 151.56 249.43 151.56 255.17 149.39 255.17 149.39 238.78"/><path class="cls-2" d="M174.49,251.41a4.77,4.77,0,0,1-5.08,4c-3.78,0-5.57-2.6-5.69-6.24s2.34-6.19,5.58-6.19c4.2,0,5.49,3.92,5.37,6.79h-8.89a3.55,3.55,0,0,0,3.14,3.9,3.62,3.62,0,0,0,.57,0,2.87,2.87,0,0,0,3.07-2.31Zm-1.89-3.31a3.41,3.41,0,1,0-6.82,0Z"/><rect class="cls-2" x="176.81" y="238.79" width="1.95" height="16.39"/><path class="cls-2" d="M191.61,255.18h-1.85v-1.89h0a4.15,4.15,0,0,1-3.85,2.16c-3.14,0-4.09-1.77-4.09-4.34v-7.8h2v8a2.24,2.24,0,0,0,2.07,2.39,1.82,1.82,0,0,0,.33,0c2.37,0,3.54-1.58,3.54-3.72v-6.7h1.95Z"/><path class="cls-2" d="M205,255.13a2.62,2.62,0,0,1-1.4.31c-1,0-1.64-.54-1.64-1.83a5.23,5.23,0,0,1-4.18,1.83c-2.17,0-3.93-.95-3.93-3.32,0-2.65,2-3.25,4-3.64s4-.28,4-1.77c0-1.7-1.41-2-2.65-2-1.66,0-2.87.51-3,2.25h-1.95c.11-2.94,2.38-4,5-4,2.14,0,4.41.48,4.41,3.26v6.11c0,.88,0,1.33.64,1.33a1.43,1.43,0,0,0,.58-.12Zm-3.15-6.08c-.77.54-2.24.58-3.53.8S196,250.54,196,252c0,1.28,1.1,1.76,2.29,1.76,2.56,0,3.64-1.6,3.64-2.65Z"/><path class="cls-2" d="M206.78,243.31h1.85v2.5h0A4.33,4.33,0,0,1,213,243v2.06c-3.16,0-4.3,1.77-4.3,4.8v5.3h-1.95Z"/><path class="cls-2" d="M224.09,254.16c0,3.86-1.77,5.84-5.51,5.84-2.23,0-4.8-.88-4.91-3.53h2c.1,1.43,1.77,1.93,3.07,1.93,2.56,0,3.54-1.84,3.54-4.5v-.77h-.06a3.94,3.94,0,0,1-3.68,2.14c-3.53,0-5.3-2.77-5.3-6,0-2.79,1.37-6.27,5.48-6.27a3.86,3.86,0,0,1,3.53,2h.05v-1.68h1.82ZM222.16,249c0-2.07-.89-4.24-3.37-4.24s-3.53,2.05-3.53,4.32.77,4.52,3.35,4.52,3.53-2.36,3.53-4.6"/><path class="cls-2" d="M237.55,255.13a2.71,2.71,0,0,1-1.42.31c-1,0-1.65-.54-1.65-1.83a5.29,5.29,0,0,1-4.18,1.83c-2.15,0-3.92-.95-3.92-3.32,0-2.65,2-3.25,4-3.64,2.17-.42,4-.28,4-1.77,0-1.7-1.39-2-2.65-2-1.64,0-2.87.51-3,2.25h-2c.12-2.94,2.39-4,5-4,2.13,0,4.42.48,4.42,3.26v6.11c0,.88,0,1.33.62,1.33a1.53,1.53,0,0,0,.6-.12Zm-3.19-6.08c-.74.54-2.22.58-3.54.8s-2.37.69-2.37,2.14c0,1.28,1.08,1.76,2.29,1.76,2.57,0,3.61-1.6,3.61-2.65Z"/><rect class="cls-2" x="246.14" y="238.79" width="2.18" height="16.39"/><path class="cls-2" d="M251.66,243.31h1.84v1.88h.06a4.11,4.11,0,0,1,3.85-2.16c3.12,0,4.08,1.77,4.08,4.35v7.8h-1.95v-8a2.25,2.25,0,0,0-2.1-2.39h-.32c-2.35,0-3.53,1.58-3.53,3.72v6.71h-2Z"/><path class="cls-2" d="M275,255.17h-1.95v-1.6h0a4,4,0,0,1-3.79,1.88c-3.65,0-5.47-2.89-5.47-6.25s1.76-6.19,5.42-6.19a4.56,4.56,0,0,1,3.84,1.86h0v-6.13H275Zm-5.49-1.41c2.65,0,3.64-2.24,3.64-4.48s-1-4.49-3.75-4.49-3.54,2.28-3.54,4.59,1.14,4.42,3.66,4.42"/><path class="cls-2" d="M283.15,243c3.76,0,5.76,2.73,5.76,6.18s-2,6.19-5.76,6.19-5.76-2.73-5.76-6.19,2-6.18,5.76-6.18m0,10.7c2,0,3.69-1.61,3.69-4.48s-1.65-4.5-3.69-4.5-3.7,1.61-3.7,4.5,1.66,4.48,3.7,4.48"/><path class="cls-2" d="M291.2,243.31H293v1.88h.05a4.12,4.12,0,0,1,3.86-2.16c3.13,0,4.09,1.77,4.09,4.35v7.8h-2v-8a2.24,2.24,0,0,0-2.07-2.39h-.33c-2.36,0-3.54,1.58-3.54,3.72v6.71h-1.95Z"/><path class="cls-2" d="M314.09,251.41a4.79,4.79,0,0,1-5.08,4c-3.79,0-5.57-2.6-5.7-6.24s2.34-6.19,5.58-6.19c4.2,0,5.48,3.92,5.38,6.79h-8.89a3.52,3.52,0,0,0,3.14,3.89,3.37,3.37,0,0,0,.55,0,2.86,2.86,0,0,0,3.08-2.31Zm-1.9-3.31a3.42,3.42,0,0,0-3.42-3.35,3.37,3.37,0,0,0-3.39,3.35Z"/><path class="cls-2" d="M317.46,251.43c.08,1.77,1.59,2.3,3.2,2.3,1.22,0,2.88-.28,2.88-1.77s-1.94-1.77-3.88-2.2-3.89-1.08-3.89-3.36,2.37-3.37,4.42-3.37c2.59,0,4.7.83,4.85,3.72h-2c-.13-1.51-1.45-2-2.74-2s-2.52.33-2.52,1.51c0,1.41,2.06,1.64,3.87,2.08s3.88,1.08,3.88,3.37c0,2.82-2.65,3.73-5.05,3.73-2.65,0-4.91-1.07-5-4Z"/><path class="cls-2" d="M327.85,255.18h2V243.31h-2Zm0-14h2v-2.43h-2Z"/><path class="cls-2" d="M343.37,255.13a2.65,2.65,0,0,1-1.41.31c-1,0-1.66-.54-1.66-1.83a5.23,5.23,0,0,1-4.18,1.83c-2.16,0-3.91-.95-3.91-3.32,0-2.65,2-3.25,4-3.64s4-.28,4-1.77c0-1.7-1.4-2-2.65-2-1.65,0-2.87.51-3,2.25h-2c.13-2.94,2.41-4,5-4,2.14,0,4.46.48,4.46,3.26v6.11c0,.88,0,1.33.62,1.33a1.57,1.57,0,0,0,.6-.12Zm-3.17-6.08c-.77.54-2.24.58-3.54.8s-2.38.69-2.38,2.14c0,1.28,1.1,1.76,2.29,1.76,2.57,0,3.63-1.6,3.63-2.65Z"/></svg>