<svg id="Layer_1" data-name="Layer 1" xmlns="http://www.w3.org/2000/svg" viewBox="0 0 400 400"><defs><style>.cls-1{fill:#d07871;}.cls-2{fill:#fff;}.cls-3{fill:#757577;}</style></defs><title>TMRB Dvl Logo</title><circle class="cls-1" cx="199.26" cy="153.61" r="73.33"/><path class="cls-2" d="M262.89,139.2a2.9,2.9,0,0,0-2.45-.21l-6.54-4.48,2.17-7.71s1.5,0,1.95-2c.71-3.28-2.13-6.1-4.93-7s-7.53-.56-10.36,0a73.68,73.68,0,0,0-14.39,4.86,44.34,44.34,0,0,0-14.21,11.72l0,.06,13.64-18.57a3.79,3.79,0,1,0-1.8-1.38l-12.2,16.61c3.49-5.35,4.89-13.78,5.19-16.37a129.66,129.66,0,0,0,0-14.08c-.16-2.67-1.37-8.56-3.67-11.6s-6.18-3.94-8.71-1.87a2.93,2.93,0,0,0-1,2.24L199.09,94l-6.53-4.64s.52-1.41-1.26-2.53c-2.85-1.77-6.46,0-8.24,2.29S180,96,179.55,98.87a72.8,72.8,0,0,0-.28,15.19,42.65,42.65,0,0,0,5.67,17.37c3.79,6.4,14.65,10.59,14.65,10.59,3.12-.72,8.77-4.39,13-9.51h0l-10.21,13.9a7.25,7.25,0,0,0-6.4,0l-23.54-31.6a3.81,3.81,0,1,0-1.82,1.35l13.49,18.11a44.35,44.35,0,0,0-14.23-11.69,73.68,73.68,0,0,0-14.39-4.86c-2.83-.54-7.56-.87-10.36,0s-5.64,3.71-4.93,7c.45,2,1.95,2,1.95,2l2.17,7.71L137.83,139a2.9,2.9,0,0,0-2.45.21c-2.79,1.68-3.26,5.63-1.17,8.83s7.22,6.31,9.68,7.36a130.6,130.6,0,0,0,13.26,4.75c2.79.64,12.61,2.4,18.88.09l-20.59,8.7a3.79,3.79,0,1,0,.89,2.09l17-7.19a43.86,43.86,0,0,0-12.18,7.92,73.53,73.53,0,0,0-9.75,11.65c-1.53,2.44-3.55,6.72-3.74,9.66s1.41,6.6,4.73,7.12c2.07.33,2.6-1.08,2.6-1.08l8,.79,1.81,7.71a2.89,2.89,0,0,0-.7,2.36c.55,3.22,4.06,5.09,7.8,4.3s8.5-4.45,10.38-6.35a134.7,134.7,0,0,0,9.23-10.64c1.61-2.36,6.5-10.88,6.61-17.56s-1.4-13.16-3.28-15.75c0,0-10.66-3.93-17.72-1.58-1.31.44-2.57.93-3.77,1.45l19.25-8.14a7.21,7.21,0,0,0,5.53,4.35V199.3a3.8,3.8,0,1,0,2.26,0V179.71c.12,6.68,5.1,15.2,6.71,17.56a132.76,132.76,0,0,0,9.24,10.64c1.88,1.91,6.64,5.56,10.38,6.35s7.24-1.08,7.79-4.3a2.86,2.86,0,0,0-.69-2.36l1.8-7.71,8-.78s.53,1.4,2.61,1.08c3.31-.53,4.91-4.2,4.73-7.13s-2.22-7.22-3.74-9.66a74.08,74.08,0,0,0-9.75-11.65,44.6,44.6,0,0,0-11-7.43l15.85,6.7a3.79,3.79,0,1,0,.88-2.09l-20.82-8.8h0c6.27,2.31,15.95.65,18.74,0a130.6,130.6,0,0,0,13.26-4.75c2.46-1,7.59-4.17,9.68-7.36S265.68,140.88,262.89,139.2Zm-63.46-.27s-14-4.38-15.22-28.14c0,0,.45-10.13,1-13.39l2.42-4.27,7.68,6a3.45,3.45,0,0,0,3.75,4.09A3.64,3.64,0,0,0,203,99.1l7.61-6,2.56,4.6s.75,7.65.82,13.21S211.9,133.73,199.43,138.93Zm-6.75,27.26c6,12.1-3.65,26.52-7.36,30.67s-9.28,9.45-9.28,9.45l-4.95,1.79-1.83-9.5a3.63,3.63,0,0,0-.29-5.66,3.45,3.45,0,0,0-5.51.62l-9.72-.52,1-4.81c1.72-2.83,8-10.77,8-10.77C179.27,160.35,192.68,166.19,192.68,166.19Zm-37.39-11.95c-5.22-2-12.17-5.23-12.17-5.23l-3.47-4,8.19-5.15a3.64,3.64,0,0,0,5.17-2.33,3.43,3.43,0,0,0-2.58-4.9l-3-9.25,4.83-.83c3.26.58,13,3.57,13,3.57,21.94,9.2,21.36,23.82,21.36,23.82C177.45,160,160.5,156.18,155.29,154.24Zm23.8,4.7c4.91-2.34,8.87-5.52,10.31-7.76,0,0-.43-9.85-4.43-15.79l9.22,12.38a7.17,7.17,0,0,0-2.15,5.14c0,.18,0,.37,0,.55Zm56.78,18.52s6.31,7.94,8,10.77l1,4.81-9.72.52a3.45,3.45,0,0,0-5.51-.62,3.63,3.63,0,0,0-.29,5.66l-1.83,9.5-4.95-1.79S217,201,213.3,196.86s-13.37-18.57-7.36-30.67C205.93,166.19,219.34,160.35,235.87,177.46Zm-14.39-15.15c-7.06-2.35-17.7,1.65-17.7,1.65-1.76,2.41-3.28,8.2-3.38,14.38V160a7.22,7.22,0,0,0,5.55-4.39l17,7.17C222.44,162.64,222,162.47,221.48,162.31Zm-15-8.91c0-.16,0-.32,0-.49a7.18,7.18,0,0,0-2.2-5.19l9-12.19c-3.93,5.94-4.37,15.64-4.37,15.64,1.42,2.21,5.37,5.26,10.19,7.56ZM255.15,149s-7,3.28-12.16,5.22S220.83,160,211.73,150c0,0-.58-14.61,21.36-23.81,0,0,9.69-3,12.95-3.58l4.84.83-3,9.25a3.45,3.45,0,0,0-2.58,4.91,3.63,3.63,0,0,0,5.17,2.32l8.19,5.15Z"/><path class="cls-1" d="M103.84,271.57l6-1.28q1.08,5.08,8.25,5.08a8.43,8.43,0,0,0,5-1.3,3.9,3.9,0,0,0,1.76-3.23,4.6,4.6,0,0,0-.8-2.59,5.73,5.73,0,0,0-3.42-1.86l-6.53-1.7a16.13,16.13,0,0,1-5-2,7.82,7.82,0,0,1-2.56-3.14,10,10,0,0,1-1-4.32,9,9,0,0,1,3.4-7.34,13.34,13.34,0,0,1,8.7-2.76,15.94,15.94,0,0,1,7.86,1.92,8.7,8.7,0,0,1,4.41,5.45L124.16,254q-1.35-3.87-6.3-3.87a6.91,6.91,0,0,0-4.38,1.2,3.72,3.72,0,0,0-1.52,3c0,2,1.59,3.31,4.75,4.1l5.8,1.44c3.51.89,5.87,2.19,7.07,3.92a9.75,9.75,0,0,1,1.8,5.71,9.42,9.42,0,0,1-3.78,7.91,15.79,15.79,0,0,1-9.81,2.88,18,18,0,0,1-8.89-2.12A10.41,10.41,0,0,1,103.84,271.57Z"/><path class="cls-1" d="M163.22,279.79h-6.57l-2.73-8.12H140.8l-2.67,8.12h-5.25l11.32-34.12h7.57Zm-10.95-13.05-5-15.22-5,15.22Z"/><path class="cls-1" d="M194.14,279.79h-6.88l-7.19-17.37-6.6,8.75v8.62h-6.15V245.67h6.15v17.92c.78-1.21,1.35-2.06,1.7-2.52l11.32-15.4h6.22l-8.09,11.23Z"/><path class="cls-1" d="M222.15,245.67v21.92a18.62,18.62,0,0,1-1,6.85,9.06,9.06,0,0,1-3.87,4.14,13.19,13.19,0,0,1-7,1.73,13.94,13.94,0,0,1-6.86-1.5,8.76,8.76,0,0,1-3.86-4.11,16.18,16.18,0,0,1-1.18-6.66V245.67h6.27v21.92q0,4.5,1.89,5.91a7.14,7.14,0,0,0,4.39,1.42,6.73,6.73,0,0,0,4.6-1.52c1.15-1,1.72-2.94,1.72-5.81V245.67Z"/><path class="cls-1" d="M255.77,279.79h-6.5l-5.3-14h-8.65v14h-6.15V245.67H244q6.18,0,9.07,2.79a9.53,9.53,0,0,1,2.9,7.21,9,9,0,0,1-6.15,9.05Zm-20.44-19H243a7.39,7.39,0,0,0,4.95-1.4,4.78,4.78,0,0,0,1.63-3.84A4.6,4.6,0,0,0,248,252a6.6,6.6,0,0,0-4.48-1.39h-8.14Z"/><path class="cls-1" d="M288.83,279.79h-6.57l-2.72-8.12H266.41l-2.67,8.12h-5.25l11.32-34.12h7.58Zm-10.94-13.05-5-15.22-5,15.22Z"/><path class="cls-3" d="M42.13,319.4H38.36V298.49h8.56q3.66,0,5.43,1.85a6.41,6.41,0,0,1-.15,9,6.89,6.89,0,0,1-4.85,1.78H42.13Zm0-11.52h4.45a3.77,3.77,0,0,0,2.67-.86,3,3,0,0,0,.92-2.28,3.14,3.14,0,0,0-.85-2.2,4.07,4.07,0,0,0-3.07-.92H42.13Z"/><path class="cls-3" d="M73.45,319.4h-4l-3.24-8.59h-5.3v8.59H57.15V298.49h9.07q3.78,0,5.55,1.71a5.84,5.84,0,0,1,1.78,4.42,5.54,5.54,0,0,1-3.77,5.55ZM60.92,307.79H65.6a4.59,4.59,0,0,0,3-.86,3,3,0,0,0,1-2.36,2.79,2.79,0,0,0-1-2.23,4.08,4.08,0,0,0-2.74-.85h-5Z"/><path class="cls-3" d="M84.73,319.72a7.59,7.59,0,0,1-6.48-3.13,12.54,12.54,0,0,1-2.32-7.71,11.83,11.83,0,0,1,2.46-7.64,7.93,7.93,0,0,1,6.51-3.07,7.7,7.7,0,0,1,6.44,3.07,12.26,12.26,0,0,1,2.36,7.68,11.89,11.89,0,0,1-2.46,7.82A8,8,0,0,1,84.73,319.72Zm0-3A4.35,4.35,0,0,0,88.21,315q1.41-1.68,1.41-6.11a11.39,11.39,0,0,0-1.17-5.64,3.87,3.87,0,0,0-3.61-2Q80,301.21,80,309a10.91,10.91,0,0,0,1.23,5.74A3.94,3.94,0,0,0,84.76,316.69Z"/><path class="cls-3" d="M104.47,298.49v14.43q0,3.6-1.55,5.2t-5,1.6a11.48,11.48,0,0,1-3-.32v-3c1.14.08,2,.13,2.42.13a3.6,3.6,0,0,0,2.58-.71,4.25,4.25,0,0,0,.69-2.87V298.49Z"/><path class="cls-3" d="M122.45,319.4H108.87V298.49h13.44v3.11h-9.68v5.67h7.78v3h-7.78v5.85h9.82v3.25Z"/><path class="cls-3" d="M137.38,312.14l3.5.38a8.2,8.2,0,0,1-2.43,5.17,7.55,7.55,0,0,1-5.49,2,7.18,7.18,0,0,1-4.65-1.44,9.25,9.25,0,0,1-2.75-3.9,14.91,14.91,0,0,1-1-5.44,12.51,12.51,0,0,1,2.26-7.77,8,8,0,0,1,11.41-1.08,9,9,0,0,1,2.6,5.48l-3.49.37q-1-4.72-4.26-4.73a3.62,3.62,0,0,0-3.28,2,11.27,11.27,0,0,0-1.18,5.7,10.62,10.62,0,0,0,1.26,5.74,3.81,3.81,0,0,0,3.32,1.93,3.62,3.62,0,0,0,2.82-1.3A5.18,5.18,0,0,0,137.38,312.14Z"/><path class="cls-3" d="M151.17,319.4h-4V301.72h-5.56v-3.23h15.16v3.23h-5.56V319.4Z"/><path class="cls-3" d="M187.37,319.4h-3.84V301.1l-5.79,18.3h-2l-5.82-18.3v18.3h-3.07V298.49h5.89L177.14,312l4.3-13.47h5.93Z"/><path class="cls-3" d="M208.38,319.4h-4l-1.67-5h-8l-1.64,5h-3.22l6.94-20.91h4.64Zm-6.7-8-3.05-9.32-3,9.32Z"/><path class="cls-3" d="M226.68,319.4H223L215.09,306l-.6-1c-.12-.2-.31-.52-.56-1v15.31h-3v-20.9h4.16l7.32,12.31,1.33,2.26V298.49h3V319.4Z"/><path class="cls-3" d="M247.68,319.4h-4l-1.67-5h-8l-1.64,5h-3.22L236,298.49h4.64Zm-6.71-8-3-9.32-3.05,9.32Z"/><path class="cls-3" d="M265.34,308.71V319.4h-1.67l-1.15-2.82a6.08,6.08,0,0,1-5.65,3.14,7.08,7.08,0,0,1-6.38-3.25,13.52,13.52,0,0,1-2.1-7.52,12.43,12.43,0,0,1,2.34-7.65,7.78,7.78,0,0,1,6.58-3.13A7.48,7.48,0,0,1,262.5,300a8.07,8.07,0,0,1,2.58,4.55l-3.28.59c-.61-2.56-2.08-3.83-4.4-3.83a4.39,4.39,0,0,0-3.62,1.8q-1.4,1.81-1.4,5.56,0,7.92,5,7.92a4.23,4.23,0,0,0,3.2-1.33,4.92,4.92,0,0,0,1.26-3.53h-4.32v-3h7.86Z"/><path class="cls-3" d="M283.2,319.4H269.61V298.49h13.45v3.11h-9.68v5.67h7.78v3h-7.78v5.85h9.82Z"/><path class="cls-3" d="M307,319.4h-3.84V301.1l-5.79,18.3h-2l-5.82-18.3v18.3h-3.07V298.49h5.89L296.72,312l4.3-13.47H307Z"/><path class="cls-3" d="M325.14,319.4H311.56V298.49H325v3.11h-9.68v5.67h7.78v3h-7.78v5.85h9.81Z"/><path class="cls-3" d="M344.18,319.4h-3.66L332.59,306l-.6-1c-.12-.2-.31-.52-.56-1v15.31h-3v-20.9h4.17l7.32,12.31c.06.11.5.86,1.33,2.26V298.49h3V319.4Z"/><path class="cls-3" d="M356.08,319.4h-4V301.72h-5.56v-3.23h15.16v3.23h-5.56V319.4Z"/></svg>