<svg id="Layer_1" data-name="Layer 1" xmlns="http://www.w3.org/2000/svg" xmlns:xlink="http://www.w3.org/1999/xlink" viewBox="0 0 400 400"><defs><style>.cls-1{fill:#003d79;}.cls-2{fill:url(#linear-gradient);}</style><linearGradient id="linear-gradient" x1="474.63" y1="-4404.91" x2="712.82" y2="-4288.75" gradientTransform="matrix(1, 0.02, 0.02, -1, -204.35, -4197.46)" gradientUnits="userSpaceOnUse"><stop offset="0" stop-color="#fdb913"/><stop offset="0.22" stop-color="#ffcb05"/><stop offset="0.39" stop-color="#faa61a"/><stop offset="0.53" stop-color="#ffcb05"/><stop offset="0.65" stop-color="#faa61a"/><stop offset="0.65" stop-color="#fbab17"/><stop offset="0.69" stop-color="#fdbd0d"/><stop offset="0.72" stop-color="#ffc807"/><stop offset="0.76" stop-color="#ffcb05"/><stop offset="0.8" stop-color="#ffcb05"/><stop offset="1" stop-color="#ffcb05"/></linearGradient></defs><title>TMRB Dvl Logo</title><path class="cls-1" d="M16.84,220c0-5.3-.1-9.76-.39-13.73H26.5l.47,6.83h.28a15.94,15.94,0,0,1,14.22-7.9,13.28,13.28,0,0,1,12.78,8.52h.2A17.31,17.31,0,0,1,60.13,208a15.31,15.31,0,0,1,9.29-2.75c7.67,0,15.43,5.2,15.43,20v27.21H73.49V226.93c0-7.67-2.66-12.2-8.25-12.2-4,0-6.91,2.82-8.14,6.16a16.84,16.84,0,0,0-.58,3.87v27.65H45.16V225.67c0-6.43-2.56-11-8-11-4.35,0-7.28,3.41-8.34,6.63a10,10,0,0,0-.66,3.75v27.34H16.84Z"/><path class="cls-1" d="M129.14,241.33a76,76,0,0,0,.66,11.08H119.28l-.76-5.1h-.28a17.1,17.1,0,0,1-13.63,6.14c-9.29,0-14.51-6.72-14.51-13.73,0-11.66,10.32-17.52,27.39-17.43v-.76c0-3-1.24-8.06-9.38-8.06a24.36,24.36,0,0,0-12.4,3.42l-2.28-7.58c3.41-2.08,9.39-4.07,16.67-4.07,14.78,0,19.05,9.38,19.05,19.42Zm-11.37-11.46c-8.24-.18-16.11,1.61-16.11,8.62,0,4.55,3,6.63,6.64,6.63a9.45,9.45,0,0,0,9.09-6.35,8.21,8.21,0,0,0,.38-2.55Z"/><path class="cls-1" d="M137.17,220c0-5.3-.11-9.76-.38-13.73H147l.57,6.92h.29a16.63,16.63,0,0,1,14.68-8c8,0,16.39,5.21,16.39,19.81v27.34H167.31v-26c0-6.64-2.47-11.66-8.81-11.66a9.79,9.79,0,0,0-9.09,6.82,12.25,12.25,0,0,0-.47,3.76v27.12H137.17Z"/><path class="cls-1" d="M229.48,187.75v51.69c0,4.73.2,9.86.38,13H219.45l-.48-7.29h-.18c-2.75,5.11-8.34,8.33-15.06,8.33-11,0-19.7-9.38-19.7-23.58-.1-15.44,9.56-24.63,20.64-24.63,6.34,0,10.9,2.64,13,6.07h.2V187.75Zm-11.63,37.76a14.78,14.78,0,0,0-.29-3,10.21,10.21,0,0,0-10-8.24c-7.5,0-11.65,6.64-11.65,15.26,0,8.44,4.18,14.59,11.57,14.59a10.33,10.33,0,0,0,10-8.25,12.59,12.59,0,0,0,.38-3.4Z"/><path class="cls-1" d="M237.73,252.41V206.28h11.74v46.13Z"/><path class="cls-1" d="M257.71,221.16c0-6.26-.09-10.72-.37-14.88h10.14l.36,8.8h.39c2.28-6.57,7.67-8.8,12.61-8.8a12.55,12.55,0,0,1,2.74,0v10.23a16.26,16.26,0,0,0-3.41-.37c-5.63,0-9.38,3.59-10.42,8.8a20.75,20.75,0,0,0-.38,3.6v23.87H257.71Z"/><path class="cls-1" d="M289,252.41V206.28h11.74v46.13Z"/><path class="cls-2" d="M373.84,157.49c-5.81-6.63-12-3.63-16.89-1.19-2.07,1-17,9.47-17,9.47-8.18,3.37-14.55-.31-17-3.4a7.49,7.49,0,0,1-.65-.94l-.58-1a46,46,0,0,0-3.28-4.9,27.15,27.15,0,0,0-2.35-2.68c-5.63-5.63-14.53-9.6-29.47-2.42-7.07,4.1-30.12,17.26-30.12,17.26-8.65,3.56-15.27-.78-17.42-4a1.62,1.62,0,0,1-.25-.39l-.29-.47-1.46-2.4c-.63-.93-1.32-2-2.11-3a33.49,33.49,0,0,0-2.36-2.68c-5.56-5.63-14.44-9.55-29.26-2.51l-29.78,17h0L158.3,178l7.89,9.68c3.32,3.17,9.56,8.35,19.21,4l26.74-15.47c22.77-12.5,34-.55,39,7.4.17.25.31.52.46.76h0c.06.1.1.19.15.28l.57.94a12.46,12.46,0,0,0,10.79,5.93c2.5-.05,4.21-.87,6.69-2.25l25.77-14.95h.06c23.05-12.65,34.48.07,39.4,8a20.23,20.23,0,0,0,1.26,1.95c2.41,3.28,5.75,5.42,10,5.32a15.2,15.2,0,0,0,6.39-2l30.91-17.83A131.08,131.08,0,0,0,373.84,157.49Z"/></svg>